<svg version="1.1" id="Layer_1" xmlns="http://www.w3.org/2000/svg" xmlns:xlink="http://www.w3.org/1999/xlink" x="0px" y="0px"
	 width="70px" height="70px" viewBox="0 0 832.5 841.9" enable-background="new 0 0 832.5 841.9" xml:space="preserve">
<g id="XMLID_9_">
	<g>
		<g id="XMLID_10_">
			<g>
				<g>
					<path class="dsn_path_col" fill="rgb(0, 0, 0)" d="M821.5,386.6c-4.8,0-8.7,0.4-12.5,0c-11.8-1.3-21.9,2.3-31.2,9.3c-4.8,3.7-9.9,7.2-15.4,9.6
						c-5.4,2.3-11.5,2.9-17.3,4.3c-4.6,7.5-4.8,16.9-10.7,23.6c-5.9,6.7-10,14.3-13,22.6c-1.8,5-2.7,10.3-3.7,14.2
						c1.7,6.2,3,11.3,4.2,15.8c-7.3,10.4-19.9,14.5-22.3,29.3c0.2,0.9,0.9,4.2,1.8,8c-3.4,3.7-6.9,7.3-10.5,11.2
						c0,5.7-0.2,11.4,0.1,17.2c0.1,2.1,1.7,4.1,2.3,6.2c0.6,2.1,1,4.2,1.4,6.5c6-0.2,12.9-0.3,19.7-0.8c7.1-0.5,14.3-0.5,21-2.2
						c12.7-3.1,25.6-1.3,38.4-1.8c6-0.3,12.1,0,18.8,0c1.6,4.6,3,8.6,4.8,14c-4.6,0-7.9,0.3-11.1,0c-5-0.4-10-1.1-14.9-1.7
						c-6.3-0.7-12.7-2-19-1.9c-10,0.2-19.9,1.4-32,2.3c11.7,3.9,21.4,6.6,30.7,10.4c9,3.7,17.6,8.5,26.7,13.1
						c-1.6,5.3-1.2,11.6-6.7,16.6c-15.9-14.1-33.6-24.8-55.6-30.3c4.4,5.2,6.6,10.6,12.2,13.5c2.2,1.1,4,3.6,5.5,5.8
						c6.4,8.7,12.5,17.5,18.7,26.3c0.8,1.1,1.5,2.2,2,3.5c3.7,10.5,8,20.8,10.8,31.5c3,11.7,5.9,23.6,1.7,35.8
						c-0.6,1.9-0.4,4-0.4,5.5c-3.8,9.1-13.8,9.9-20.1,17.1c-4.2-0.9-8.7-1.9-13.2-3c-1.6-0.4-3.2-1.7-4.7-1.6c-8,1.1-16,2.6-24.3,4
						c-1.7,17.6-0.1,34.3,2,52.1c-2.5,2.1-5.1,4.2-7.4,6.2c-5,0.7-9.6,1.4-14.9,2.1c-5.4-5.4-8.9-12.8-12-20.2
						c-1.2-2.9-1.6-6.9-0.6-9.8c2.9-8.3,1.9-16.1-1.3-23.7c-3.2-7.4-3.6-15-3.2-22.9c0.4-7.7,2.5-9.8,10.4-10.5
						c2-0.2,3.9-0.5,5.8-0.7c2.6-5.5,4.9-10.7,7.2-15.7c3-1.4,5.7-2.6,9.5-4.3c-13-8.5-22.1-19.4-30.6-31.8
						c-5.9,1.9-12,4.9-18.4,5.7c-6.2,0.7-12.6-0.8-18.8-1.4c-5,4.1-9.5,9-14.9,12c-5.4,2.9-11.8,3.9-18.1,5.9
						c2.4,14.1-0.3,27.9-2.6,41.8c-1,6.3-2,12.6-2.6,18.9c-0.5,6.8,0.1,13.3,4.9,19.1c2.7,3.2,3.6,7.9,5.5,11.8
						c3,6.2,2.1,11.8-2.1,17c-5.4,6.5-5.6,13.3-1.9,20.7c2.6,5.1,2.7,10.2-1.2,15.2c-2.2,2.8-3.7,6.3-5.4,9.6
						c-7.9,1.2-15.1,1.1-22.3-1.6c-11.8-4.5-17-14.6-13-26.8c1.6-5.1,4.4-9.8,6.7-14.7c1.3-2.7,2.9-5.3,4-8c3.8-8.9,1.6-17-2.5-25.2
						c-8.8-17.6-14.2-36.3-17.7-55.6c-1.5-7.9-2.9-15.8-3.8-23.8c-0.4-2.9,0.7-5.9,1.3-10.1c-2.1-3.6-4.8-8.1-7.6-12.8
						c0-12.9,0-25.8,0-38.7c3.2-7.7,6.3-15.3,9.4-23c0.4-0.9,0-2,0.1-2.9c0.7-7,2.5-8.7,9.4-10.8c9.8-3,19.7-1.8,29.6-1.5
						c-3.4-9.1-6.1-18.1-10.1-26.6c-6.5-13.8-7.4-28.4-7.8-43.2c-0.1-3.7-0.4-7.7,0.9-11c1.9-4.8,0.6-8.6-1.6-12.5
						c-2.4-4.4-5.5-8.6-7.2-13.3c-4-11.2-3.9-22.9-1-34.4c1.4-5.6,0.5-10.5-1.9-15.6c-3.2-6.6-6-13.5-8.3-20.6
						c-2.4-7.4-3.8-14.9-3.8-22.4c0-6.1,0.9-12.3,2.9-18.3c2.6-7.9,4.2-15.5,3.8-23.7c-0.3-4.4-0.3-8.9,2-11.1
						c6.8-2.6,12.1-4.5,17.3-6.6c4.1-1.6,7.9-3.9,12.1-4.9c13.2-3.1,22.8-10.7,30-21.9c3.3-5.1,7.2-9.7,10.7-14.3
						c-0.1-1.6-0.2-3.1-0.3-4.9c6.2-0.3,11.4-0.6,17.2-0.9c0.9-9.3,1.7-17.9,2.5-26.6c0.8-9.7,1.1-19.5,2.3-29.1
						c1.6-14,4-27.8,5.8-41.8c1.6-12.9,2.8-26,4.2-39c0.7-6,1.3-12,2.3-17.9c1.8-10.9,4.1-21.7,5.7-32.6c2.3-15.9,4.1-31.9,6.5-47.7
						c0.5-3.8,2.6-7.3,3.9-10.9c-1.6,12.6-3.1,25.3-4.9,37.9c-0.9,6.9-2.2,13.8-3.3,20.8c-2,13.6-4,27.2-5.8,40.8
						c-1,7.6-1.5,15.4-2.4,23c-1.1,10-2.6,19.9-3.8,29.9c-0.9,7.4-1.6,14.7-2.2,22.1c-0.8,10.4-1.3,20.8-2.2,31.2
						c-1,12.4-2.4,24.6-3.6,37.6c4.9,5.7,13.9,0.5,19.4,7c-1.5,1.1-3.1,2.2-4.4,3.2c-1.3,8.7-2.5,17.2-3.8,26.4
						c-1.3,1.6-3,3.7-4.8,5.8c10.2,21.3,30.2,28.5,50.3,35.6c4.4,1.5,8.9,2.7,14.2,4.3c4-6.2,8-12.7,12.2-19.1
						c7.1-10.9,17.5-16.6,30.1-17.4c7-0.5,14-0.1,21.1,1.5c9,1.9,18.2,0.9,26.9-4.9c-0.7,1.9-1,4.2-2.3,5.6c-7.3,8-16,11.3-27.2,9.4
						c-7.5-1.3-15.8-2.1-23-0.4c-12.5,3-25.9,18.2-23.7,31.7c0.2,1.3,0.1,2.7,0.1,3.8c12.1,10.4,21.6,26.7,26.3,45.2
						c-1.3,2.2-2.8,4.7-4.4,7.3c5.9,2.3,10.7-1.3,15.5-4c4.1-2.3,7.4-6,11.4-8.4c7.9-4.6,15.8-9.6,27-6.5
						C811,381,815.9,383.7,821.5,386.6z M688.9,377.1c-11.1-11.1-22.4-20.6-31.3-32.6c-4.1-5.5-9.3-10.5-17.2-11.7
						c-0.3,5.5-0.5,10.8-0.8,16.6c-4.8,0.4-9,1.9-12.4-1.3c0-7.5,0-14.5,0-21.3c-3.8-1.7-7-3.7-10.5-4.6c-2.3-0.6-5.7-0.4-7.4,1
						c-4.2,3.2-8,7.2-11.6,11.1c-4.7,5.2-9.1,10.7-14.5,17.2c0,8.4,8,14.5,12.4,22.2c2.9,5.2,8.8,8.7,13.6,13.2
						c1.3-1.4,2.1-2,2.5-2.8c11.4-19.2,31.4-21.8,47.4-6.2c2.1,2.1,4.4,4.2,6.5,6.3C674.3,385.2,681.9,382.9,688.9,377.1z
						 M659.1,431.8l-1.4-1c-0.8,3-3.7,5.3-9.8,6.1c-4.6,0.6-8.5,0.7-11.8,0.3l-0.1,6.8C647.7,445.3,655.7,439,659.1,431.8z
						 M630.3,442.8l0.2-6.6c-10.4-3-13.1-10.4-13.5-11.5l-2.6,0.2C615.4,430.4,618.8,439.3,630.3,442.8z"/>
				</g>
				<g>
					<path fill="rgba(0, 0, 0, 0)" d="M657.7,430.7l1.4,1c-3.4,7.2-11.4,13.5-23.1,12.2l0.1-6.8c3.3,0.4,7.2,0.3,11.8-0.3
						C654,436,656.9,433.8,657.7,430.7z"/>
				</g>
				<g>
					<path fill="rgba(0, 0, 0, 0)" d="M630.6,436.1l-0.2,6.6c-11.6-3.5-14.9-12.4-15.9-17.9l2.6-0.2C617.4,425.7,620.1,433.1,630.6,436.1z"/>
				</g>
				<g>
					<path class="dsn_path_col" fill="rgb(0, 0, 0)" d="M528.6,492.5v49.7H393.3c0-0.8,0-1.6,0.1-2.5c0.1-4.6,0.3-11.5-2.3-18.7c3.1-5.8,4.4-11.7,5.4-16.3
						c0.6-2.7,1.2-5.3,1.9-7.3l2-5H528.6z"/>
				</g>
				<g>
					<path class="dsn_path_col" fill="rgb(0, 0, 0)" d="M509.4,359.4c12.3,0,19.3,6,19.2,18.3c-0.1,18.4-0.8,36.8-1.8,55.2c-0.5,9.3-15.4,21.9-24.8,21.9
						c-10.4,0-20.9,0.2-31.3-0.1c-5.5-0.1-10.7-0.3-11,7.3c-1.5,0.1-1.8,0.2-2.1,0.1c-21.5-4.1-21.5-4.1-20.5-25.8
						c0.3-6.6,0.2-13.2,0.8-19.8c0.5-5.9-2.3-12.6,4.5-17.1c1.1-0.8,0.6-4.2,0.7-6.3c0.4-10.2,0.8-20.3,1.3-30.5
						c0-0.8,0.5-1.5,1.1-3.3c10.7,0,21.6,0,32.5,0C488.5,359.4,498.9,359.4,509.4,359.4z M497.4,427.2c2-14.9,3.6-29.8,5.5-46.5
						c-9.9,0-18.6-0.2-27.3,0.2c-1.5,0.1-4,2.2-4.3,3.6c-2.4,15.3-4.4,30.6-6.6,47c10.1,0,19.1,0.2,28.1-0.2
						C494.4,431.2,497.2,428.8,497.4,427.2z"/>
				</g>
				<g>
					<path class="dsn_path_col" fill="rgb(0, 0, 0)" d="M437.8,571.4c28.6,0,56.5,0,85.7,0c-2.4,6.7-4.1,13.3-7.1,19.2c-1.1,2.1-5.5,3.3-8.5,3.4c-17.2,0.8-17.3,0.6-19.9,17.5
						c-2.6,17.8-4.8,35.6-7.7,53.4c-0.4,2.3-3.7,5.6-6,5.9c-6.1,0.8-12.4,0.3-20.7,0.3c3.5-25.8,6.8-50.7,10.4-77
						c-9.8,0-18.4,0-28,0C436.6,585.8,437.2,578.8,437.8,571.4z"/>
				</g>
				<g>
					<path class="dsn_path_col" fill="rgb(0, 0, 0)" d="M480.7,693.2c0.1,0.4,0.2,0.8,0.3,1.2c-73.5,5-147,10-221.5,15c0.6-5,0.9-9.2,1.8-13.2c0.2-1.2,1.9-2.4,3.2-2.9
						c1.2-0.5,2.8-0.2,4.2-0.2c66.9,0,133.9,0,200.8,0C473.1,693.2,476.9,693.2,480.7,693.2z"/>
				</g>
				<g>
					<path class="dsn_path_col" fill="rgb(0, 0, 0)" d="M436.9,358.6c-6.9,17.6-4.3,36.9-21.5,48.5c16.1,12.8,9.3,30.6,11.4,46.2c0.1,1.2-2,3.1-3.4,4
						c-6.5,4-13.1,7.9-21.4,12.9c-0.5-16.5-1.3-31.4-1.3-46.2c0-7.4-2.2-9.4-9.7-8.4c-16,2.2-16,1.7-18.9,17.8
						c-0.2,1.3-0.7,2.7-0.9,4c-1.1,5.6-0.6,14.8-3.6,16c-6.5,2.7-14.7,1.5-22.7,1.9c-0.1-1.4-0.2-2.6-0.3-3.8l0.2-7.9l0.5-2.5
						c1.1-5,2.2-9.4,2.7-13.9c0.2-2-1.6-4.3-2.4-6.5c-0.5-1.4-1.6-3-1.3-4.2c2-7.1-2.2-16.3,7.4-20.9c1-0.5,0.9-3.6,1.2-5.4
						c1.5-10.3,3.1-20.6,4.7-31.7c14.9,0,29.4,0.2,43.9-0.1c4.4-0.1,8.9-2.6,13.2-2.5C421.7,356.1,428.5,357.5,436.9,358.6z
						 M390.6,397.5c14.6,0,14.6,0,14.4-16.6c-7.6,0-14.6-0.2-21.6,0.2c-1.5,0.1-3.8,2.1-4.2,3.6c-1,3.8-1.2,7.8-1.8,12.8
						C382.5,397.5,386.6,397.5,390.6,397.5z"/>
				</g>
				<g>
					<path class="dsn_path_col" fill="rgb(0, 0, 0)" d="M431.1,570.4c-7.2,18.3-4.5,38.3-22.3,50.4c16.8,13.3,9.7,31.8,11.8,48c0.2,1.2-2.1,3.2-3.6,4.1
						c-6.7,4.2-13.6,8.2-22.3,13.4c-0.5-17.2-1.4-32.6-1.3-48.1c0-7.7-2.2-9.7-10.1-8.7c-16.6,2.3-16.6,1.8-19.6,18.5
						c-0.2,1.4-0.7,2.8-1,4.2c-1.1,5.8-0.7,15.4-3.7,16.6c-6.8,2.8-15.3,1.6-23.6,2c-0.1-1.5-0.2-2.7-0.3-3.9l0.2-8.2l0.5-2.6
						c1.1-5.2,2.3-9.8,2.8-14.5c0.2-2.1-1.6-4.4-2.5-6.7c-0.5-1.4-1.7-3.1-1.3-4.3c2.1-7.4-2.2-17,7.7-21.7c1.1-0.5,1-3.7,1.3-5.6
						c0.9-5.7,1.7-11.3,2.5-17.1l24.1-14.3c0.8-0.5,1.6-1,2.4-1.4c7.2,0,14.4,0,21.6-0.2c4.6-0.1,9.2-2.7,13.8-2.6
						C415.4,567.8,422.5,569.3,431.1,570.4z M383.1,610.9c15.2,0,15.2,0,14.9-17.3c-7.9,0-15.2-0.2-22.5,0.2
						c-1.6,0.1-3.9,2.2-4.4,3.8c-1.1,3.9-1.2,8.1-1.9,13.3C374.6,610.9,378.8,610.9,383.1,610.9z"/>
				</g>
				<g>
					<path class="dsn_path_col" fill="rgb(0, 0, 0)" d="M382.4,491.2c-0.2,0.4-0.3,0.9-0.5,1.3h-42l0.2-1.3c7.2,0,14.3,0.1,21.4-0.1c2.6-0.1,5.3-1.5,7.8-1.5
						C373.4,489.7,377.5,490.5,382.4,491.2z"/>
				</g>
				<g>
					<path class="dsn_path_col" fill="rgb(0, 0, 0)" d="M339.9,492.5h42c-3.5,10-2.5,20.8-12.2,27.4c7.9,6.3,6.5,14.5,6.5,22.4h-15c-0.1-4.2-0.2-8.3-0.2-12.4
						c0-0.9-0.1-1.7-0.2-2.4c-0.1-0.3-0.2-0.6-0.3-0.9c-0.2-0.5-0.5-0.9-0.9-1.2c-0.9-0.7-2.3-0.8-4.4-0.5c-9.4,1.3-9.5,1-11.2,10.5
						c-0.1,0.8-0.4,1.6-0.5,2.4c-0.3,1.3-0.4,2.9-0.5,4.5h-3.6c0.3-1,0.7-2,1.1-3l8.7-23.2h-12.5l1.8-13l1.4-10.4L339.9,492.5z
						 M361,513.9c2.7-0.7,2.6-2.8,2.5-9.5c-4.5,0-8.6-0.1-12.8,0.1c-0.9,0-2.2,1.2-2.5,2.1c-0.6,2.2-0.7,4.6-1.1,7.6
						c3,0,5.4,0,7.8,0c2.4,0,4.1,0,5.4-0.2C360.6,513.9,360.8,513.9,361,513.9z"/>
				</g>
				<g>
					<path class="dsn_path_col" fill="rgb(0, 0, 0)" d="M376.4,547.2c0.1,0.7-1.2,1.8-2,2.4c-3.8,2.4-7.7,4.6-12.7,7.6c-0.2-5.2-0.4-10.1-0.5-14.9h15
						C376.2,543.9,376.2,545.6,376.4,547.2z"/>
				</g>
				<g>
					<path class="dsn_path_col" fill="rgb(0, 0, 0)" d="M361,513.9c-0.2,0.1-0.4,0.1-0.6,0.1C360.6,513.9,360.8,513.9,361,513.9z"/>
				</g>
				<g>
					<path class="dsn_path_col" fill="rgb(0, 0, 0)" d="M360.5,526.5c0.1,0.3,0.2,0.5,0.3,0.9C360.7,527.1,360.6,526.8,360.5,526.5z"/>
				</g>
				<g>
					<path class="dsn_path_col" fill="rgb(0, 0, 0)" d="M355.2,524.9c2.1-0.3,3.5-0.2,4.4,0.5c-0.6-0.4-1.4-0.6-2.5-0.6C356.6,524.7,355.9,524.8,355.2,524.9z"/>
				</g>
				<g>
					<path class="dsn_path_col" fill="rgb(0, 0, 0)" d="M349.2,516l-8.7,23.2c-0.4,1-0.8,2-1.1,3h-11.5l0-0.8l0.3-1.5c0.6-3,1.3-5.6,1.6-8.2c0.1-1.2-0.9-2.5-1.4-3.8
						c-0.3-0.8-0.9-1.8-0.8-2.5c1.2-4.2-1.3-9.7,4.4-12.4c0.6-0.3,0.5-2.1,0.7-3.2c0.8-5.7,1.7-11.4,2.6-17.4h4.6l0,0.1l-1.4,10.4
						l-1.8,13H349.2z"/>
				</g>
				<g>
					<path class="dsn_path_col" fill="rgb(0, 0, 0)" d="M349.6,360c-1.6,6.1-2.7,11.7-4.9,16.9c-0.8,2-4.4,3.7-6.7,3.9c-8.5,0.5-17,0.2-25.7,1.7c6.4,1.8,12.8,3.6,20.1,5.7
						c-2.1,15.4-4.2,30.6-6.2,45.8c-0.1,0.8-0.3,1.6-0.5,2.4c-3.3,21.5-3.4,21.5-27,17.8c1.1-9.5,2.3-19.2,3.5-29.8
						c-12.2,0-23.9-0.2-35.6,0.2c-1.6,0.1-3.7,2.8-4.4,4.8c-2.8,8-5,16.3-7.7,24.4c-0.7,2.1-2.1,5.1-3.9,5.7
						c-8.2,2.7-16.7,4.7-26.6,7.4c5.1-16.3,9.6-30.9,14.2-45.5c5.7-18.1,11.7-36.1,17.2-54.2c1.7-5.6,4-7.9,10.2-7.8
						c25.6,0.4,51.2,0.1,76.7,0.2C344.4,359.5,346.6,359.7,349.6,360z M308.1,382.6c0-0.2-0.2-0.5-0.6-1.6c-9.1,0-18.7-0.1-28.1,0.1
						c-1.4,0-3.5,1.7-4,3.1c-1.9,5-3.4,10.2-5.4,16.6c7.1,0,12.8,0,18.4,0C306.6,400.8,306.6,400.8,308.1,382.6z"/>
				</g>
				<g>
					<path class="dsn_path_col" fill="rgb(0, 0, 0)" d="M339.4,542.2h3.6c-0.2,2.4-0.5,4.6-1.6,5c-1.3,0.6-2.7,0.8-4.3,1c0.7-1.8,1.4-3.6,2-5.5
						C339.2,542.5,339.3,542.4,339.4,542.2z"/>
				</g>
				<g>
					<path class="dsn_path_col" fill="rgb(0, 0, 0)" d="M340.1,491.2l-0.2,1.3h-4.6c0.1-0.4,0.1-0.9,0.2-1.3C337.1,491.2,338.6,491.2,340.1,491.2z"/>
				</g>
				<g>
					<path class="dsn_path_col" fill="rgb(0, 0, 0)" d="M339.4,542.2c-0.1,0.2-0.1,0.3-0.2,0.5c-0.7,1.9-1.3,3.7-2,5.5c-2.9,0.3-6.1,0-9.2,0.2c-0.1-0.8-0.1-1.5-0.2-2.2
						l0.1-3.9H339.4z"/>
				</g>
				<g>
					<path class="dsn_path_col" fill="rgb(0, 0, 0)" d="M325.6,569c0.6,0,1.2,0.4,2.4,0.8c-3.9,30-7.9,59.9-11.9,90.2c-8.5,0-16.4,0-25.3,0c1-9.5,2.1-18.8,3.2-28.9
						c-10.4,0-20.1-0.2-29.7,0.2c-1.4,0.1-3.4,2.7-4,4.5c-5.2,16.3-10.1,32.6-15.1,49c-0.5,1.8-1.2,3.5-2.2,6.6
						c-6.8-8.7-13.1-16.5-19.1-24.6c-0.8-1-0.3-3.2,0-4.8c0.6-2.7,1.3-5.4,2.5-7.8c6.5-14.5,8.6-28.8-1.3-42.8
						c-0.4-0.6-0.3-1.6-0.5-2.6c1-0.2,1.8-0.4,2.6-0.4c13.8-0.5,13.8-0.5,18.2-13.3c2.5-7.4,4.8-14.9,7.7-22.1
						c0.7-1.7,3-3.8,4.6-3.9C280.4,568.9,303,569,325.6,569z M300,590.2c-8,0-15.3-0.1-22.5,0.1c-1.1,0-2.8,1.2-3.2,2.3
						c-1.7,5-3.1,10.1-4.7,15.4c9.8,0,18.7,0,28,0C298.4,602.1,299.1,596.6,300,590.2z"/>
				</g>
				<g>
					<path class="dsn_path_col" fill="rgb(0, 0, 0)" d="M312,533.2c3.8,0,7.7,0,12.4,0c-1.2,3.3-2.3,6.2-3.4,9h-10.3l0-1.1l0-1.5l0.3-1.5l0.3-1.5l0-0.1l0-0.1
						c0.1-0.6,0.3-1.3,0.4-1.9c0.1-0.3,0.2-0.7,0.2-1C312.1,533.4,312,533.3,312,533.2z"/>
				</g>
				<g>
					<path class="dsn_path_col" fill="rgb(0, 0, 0)" d="M322.9,490.3c-0.1,0.7-0.2,1.5-0.3,2.2H318l0.3-2.2C319.8,490.3,321.3,490.3,322.9,490.3z"/>
				</g>
				<g>
					<path class="dsn_path_col" fill="rgb(0, 0, 0)" d="M318,492.5h4.6c-1,7.6-2.1,15.1-3.1,22.5c-0.3,2.1-0.6,4.2-0.9,6.3c-0.6,5.1-0.6,10.7-6.8,11.8
						c-0.9-2.3-2.1-6.3-1-11.2c0-0.2,0-0.5,0-0.7c0.1-7,1.9-12.7,5.4-17.1c0.4-2.7,0.8-5.4,1.2-8.2L318,492.5z"/>
				</g>
				<g>
					<path class="dsn_path_col" fill="rgb(0, 0, 0)" d="M310.8,542.2h10.3c-0.4,1.1-0.9,2.2-1.4,3.2c-0.4,0.8-2.1,1.4-3.2,1.4c-1.9,0-3.9,0-5.8,0l0-0.4l0-0.8L310.8,542.2z"/>
				</g>
				<g>
					<path class="dsn_path_col" fill="rgb(0, 0, 0)" d="M318.3,490.3l-0.3,2.2h-10.7c0.1-0.7,0.2-1.5,0.3-2.2C311.2,490.3,314.7,490.3,318.3,490.3z"/>
				</g>
				<g>
					<path class="dsn_path_col" fill="rgb(0, 0, 0)" d="M318,492.5l-0.5,3.4c-0.4,2.8-0.8,5.5-1.2,8.2c-3.5,4.3-5.3,10-5.4,17.1c0,0.2,0,0.5,0,0.7c-1.1,4.8,0.1,8.9,1,11.2
						c-0.6,0.1-1.3,0.2-2.1,0.2c0.7,0,1.4,0,2.2,0c0,0.1,0.1,0.2,0.1,0.3c-0.1,0.3-0.2,0.7-0.2,1c-0.1,0.6-0.3,1.3-0.4,1.9l0,0.1
						l0,0.1l-0.3,1.5l-0.3,1.5l0,1.5l0,1.1h-35.1c0.6-2.3,1-4.7,1.3-7.2c0.1-1.3,0.3-2.6,0.4-3.9l0.2-1.7l2.9-27.6l1-9.3h7.8
						c-3.2,13.5-6.3,26.8-9.5,40.4c7.5,0,14.4,0,21.7,0c1.9-13.5,3.9-26.9,5.8-40.4H318z"/>
				</g>
				<g>
					<path class="dsn_path_col" fill="rgb(0, 0, 0)" d="M310.8,542.2l-0.1,3.5l0,0.8l0,0.4c-12.2,0.1-24.4,0.1-36.6,0c0.7-1.5,1.2-3,1.6-4.7H310.8z"/>
				</g>
				<g>
					<path class="dsn_path_col" fill="rgb(0, 0, 0)" d="M289.8,490.2c-0.2,0.7-0.3,1.5-0.5,2.2h-7.8l0.1-1.1l0.1-1.1C284.4,490.2,287,490.2,289.8,490.2z"/>
				</g>
				<g>
					<path class="dsn_path_col" fill="rgb(0, 0, 0)" d="M281.7,490.2l-0.1,1.1l-0.1,1.1h-12.6c0.1-0.7,0.2-1.5,0.3-2.2C273.5,490.2,277.6,490.2,281.7,490.2z"/>
				</g>
				<g>
					<path class="dsn_path_col" fill="rgb(0, 0, 0)" d="M281.5,492.5l-1,9.3l-2.9,27.6l-0.2,1.7c-0.1,1.3-0.3,2.6-0.4,3.9c-0.2,2.6-0.7,5-1.3,7.2h-9.1c-1.2-2.3-1.8-5-1.3-7.4
						c2.2-9.5,4.7-18.9,7-28.4c0.2-0.9,0.3-1.8,0.6-3c-1.8-0.3-3.4-0.6-5.4-1c0.5-3.3,0.9-6.6,1.4-10H281.5z"/>
				</g>
				<g>
					<path class="dsn_path_col" fill="rgb(0, 0, 0)" d="M266.5,542.2h9.1c-0.4,1.6-1,3.2-1.6,4.7c-0.6,0-1.3,0-1.9,0C270,546.9,267.9,544.9,266.5,542.2z"/>
				</g>
				<g>
					<path class="dsn_path_col" fill="rgb(0, 0, 0)" d="M264.5,489.6c-0.1,1-0.2,1.9-0.3,2.9h-12.7l0.3-1.9C255.7,490.3,259.8,489.9,264.5,489.6z"/>
				</g>
				<g>
					<path class="dsn_path_col" fill="rgb(0, 0, 0)" d="M251.5,492.5h12.7c-1.3,12.7-2.5,23.9-3.7,35.1c-0.2,1.9-0.4,3.9-0.6,5.8c-0.1,1.2-0.3,2.4-0.5,3.4
						c-0.5,2.1-1.2,3.9-2.1,5.4h-8.7c-0.8-3.8-0.8-7.6,0.1-11.2c1.1-4.7,2.2-9.4,3.4-14l-3.8-0.7l1.2-8.5l1.1-7.8l0.3-1.8
						L251.5,492.5z"/>
				</g>
				<g>
					<path class="dsn_path_col" fill="rgb(0, 0, 0)" d="M248.5,542.2h8.7c-0.5,0.7-1,1.4-1.7,2c-0.5,0.5-1.1,0.9-1.7,1.2c-1.1,0.7-2.5,1.3-4,1.6
						C249.3,545.5,248.9,543.8,248.5,542.2z"/>
				</g>
				<g>
					<path class="dsn_path_col" fill="rgb(0, 0, 0)" d="M253.9,545.4c0.6-0.3,1.1-0.8,1.7-1.2C255,544.7,254.5,545.1,253.9,545.4z"/>
				</g>
				<g>
					<path class="dsn_path_col" fill="rgb(0, 0, 0)" d="M248.1,516.3l3.8,0.7c-1.1,4.6-2.3,9.3-3.4,14c-0.8,3.6-0.8,7.4-0.1,11.2h-40.2c-1.2-1.4-2.2-3.1-2.8-4.6
						c2.5-2.1,5-5,6.9-9.3c3.4-7.4,7-14.9,10.6-22.2l0.6,0.3c-0.1,0.2-0.2,0.5-0.3,0.8c-0.1,0.1-0.1,0.2-0.1,0.4
						c-0.2,0.6-0.3,1.3-0.5,2.2c-0.1,0.3-0.1,0.7-0.2,1.1c-0.1,0.5-0.2,1.1-0.3,1.7c-1.1,7-1.9,14-2.9,21.4c8.1,0,15.4,0.1,22.6-0.1
						c0.9,0,2.4-1.3,2.5-2.1c1.3-7.8,2.3-15.6,3.6-24.1l1.2,0.2L248.1,516.3z"/>
				</g>
				<g>
					<path class="dsn_path_col" fill="rgb(0, 0, 0)" d="M251.8,490.6l-0.3,1.9h-21.3l0.7-1.1l0-0.5c5.6,0,11.2,0.1,16.8-0.1C249,490.7,250.4,490.6,251.8,490.6z"/>
				</g>
				<g>
					<path class="dsn_path_col" fill="rgb(0, 0, 0)" d="M251.5,492.5l-0.8,5.8l-0.3,1.8l-1.1,7.8l-1.2-0.2c0.2-1.2,0.3-2.4,0.5-3.7c-6,0-11,0-16,0c-2.7,0-4.5,0-5.9,0.2
						c-0.2,0-0.3,0.1-0.4,0.1c-0.4,0.1-0.7,0.2-1,0.3c-0.1,0-0.2,0.1-0.3,0.1c-0.2,0.1-0.3,0.2-0.5,0.4c-0.1,0.1-0.2,0.1-0.2,0.2
						c-0.3,0.3-0.5,0.6-0.7,1l-0.6-0.3c0.4-0.9,0.8-1.7,1.2-2.5l2.6-5.4c0.1-0.2,0.5-0.8,0.8-1.3c0.3-0.5,0.7-1.1,1.1-1.9l1.5-2.5
						H251.5z"/>
				</g>
				<g>
					<path class="dsn_path_col" fill="rgb(0, 0, 0)" d="M249.9,547c-1.7,0.4-3.8,0.6-6,0.6c-9.2-0.2-18.5-0.3-27.8-0.5c-2.5-0.1-5.5-2.2-7.8-4.9h40.2
						C248.9,543.8,249.3,545.5,249.9,547z"/>
				</g>
				<g>
					<path class="dsn_path_col" fill="rgb(0, 0, 0)" d="M236.9,693.9c1.3,1.2,1.4,4.8,0.8,6.9c-0.4,1.3-3.5,2.7-5.1,2.5c-7.7-1-15.3-2.6-23.8-4.2c2.4-7.1,4.7-13.7,7.3-21.3
						C223.7,683.6,230.6,688.4,236.9,693.9z"/>
				</g>
				<g>
					<path class="dsn_path_col" fill="rgb(0, 0, 0)" d="M230.9,490.8l0,0.5l-0.7,1.1h-11.4c1.7-1,3.3-1.6,4.5-1.7c1.3,0,2.6,0,3.8,0C228.4,490.8,229.6,490.8,230.9,490.8z"/>
				</g>
				<g>
					<path class="dsn_path_col" fill="rgb(0, 0, 0)" d="M230.9,490.8c-1.2,0-2.5,0-3.7,0c-1.3,0-2.6,0-3.8,0C225.8,490.8,228.3,490.8,230.9,490.8z"/>
				</g>
				<g>
					<path class="dsn_path_col" fill="rgb(0, 0, 0)" d="M230.2,492.5l-1.5,2.5c-0.4,0.7-0.8,1.3-1.1,1.9c-0.3,0.5-0.7,1.1-0.8,1.3l-2.6,5.4c-0.4,0.8-0.8,1.7-1.2,2.5
						c-3.5,7.3-7.1,14.8-10.6,22.2c-2,4.2-4.4,7.2-6.9,9.3c-0.5-1.3-0.7-2.5-0.5-3.5c1.4-10.3,2.8-20.6,4.3-30.9
						c0.4-3.1,5.2-8.1,9.5-10.7H230.2z"/>
				</g>
				<g>
					<path class="dsn_path_col" fill="rgb(0, 0, 0)" d="M226.8,504.2c-0.1,0-0.3,0.1-0.4,0.1C226.5,504.3,226.6,504.3,226.8,504.2z"/>
				</g>
				<g>
					<path class="dsn_path_col" fill="rgb(0, 0, 0)" d="M225.3,504.7c-0.1,0-0.2,0.1-0.3,0.1C225.2,504.7,225.2,504.7,225.3,504.7z"/>
				</g>
				<g>
					<path class="dsn_path_col" fill="rgb(0, 0, 0)" d="M224.6,505.2c-0.1,0.1-0.2,0.1-0.2,0.2C224.4,505.3,224.5,505.2,224.6,505.2z"/>
				</g>
				<g>
					<path class="dsn_path_col" fill="rgb(0, 0, 0)" d="M199.2,437.7c7.6,0,15.1,0,24.7,0c-2.9,7.8-5.1,14.4-8,20.7c-0.6,1.4-3.6,2.4-5.4,2.4c-25,0.2-50,0.2-75,0.1
						c-6.6,0-13.5-11.8-11.5-20.3c3.7-16,7.9-32,11.8-47.9c0.4-1.5,0.6-3.1,1-5c-3.1-0.6-5.7-1.1-9.1-1.7c1-6.9,1.9-13.6,3-20.7
						c12.1,0,23,0,34.8,0c-5.7,24.2-11.3,47.8-17,72.1c12.6,0,24.3,0,36.7,0c3.5-24.1,6.9-47.9,10.4-72.1c8.7,0,16.8,0,26,0
						c-1.9,14.2-3.8,27.9-5.7,41.7c-0.5,3.5-1.1,7.1-1.5,10.6C213.2,427.1,213.3,437.4,199.2,437.7z"/>
				</g>
				<g>
					<path class="dsn_path_col" fill="rgb(0, 0, 0)" d="M223.4,507.2c-0.1,0.1-0.1,0.2-0.1,0.4C223.3,507.4,223.3,507.3,223.4,507.2z"/>
				</g>
				<g>
					<path class="dsn_path_col" fill="rgb(0, 0, 0)" d="M222.8,509.8c-0.1,0.3-0.1,0.7-0.2,1.1C222.7,510.5,222.7,510.1,222.8,509.8z"/>
				</g>
				<g>
					<path class="dsn_path_col" fill="rgb(0, 0, 0)" d="M223.6,568.2c-1.4,8.5-2.2,15.8-4,22.9c-0.5,1.9-4.4,4.1-6.7,4.1c-11.7,0-23.4-0.8-35.1-1
						c-12.3-0.2-12.1-3.7-14.1,13.5c9.2,0.3,18.4,0.7,29,1c-3,7.1-5.3,12.9-8.1,18.4c-0.8,1.6-3.3,2.9-5.2,3.3
						c-2.5,0.5-5.1,0-7.7-0.1c-14-0.6-14-0.6-14.5,15.9c9.3,0.3,18.6,0.8,27.9,0.9c1.3,0,3.7-1.6,3.8-2.5
						c0.3-11.6,9.1-10.1,16.4-11.1c2.2-0.3,4.4-0.6,8.2-1.1c-2.1,11.3-3.9,21.8-6,32.3c-0.3,1.4-2.5,3.3-3.9,3.4
						c-17.1,1.1-34.2,3.1-51.2,2.3c-7.3-0.3-14.6-6.1-21.5-10.1c-1.4-0.8-1.9-4.5-1.6-6.7c3.9-22.5,7.9-45,12.1-67.4
						c0.7-3.7,3.2-7.3,6.4-10.1l-0.3,2.5l21.2-7.9c4.9,0.3,9.8,0.6,14.7,0.3c10.7-0.6,21.4-2.1,32.1-3.1c0.5-0.1,1-0.1,1.6-0.1
						C218.7,567.9,220.8,568.1,223.6,568.2z"/>
				</g>
				<g>
					<path class="dsn_path_col" fill="rgb(0, 0, 0)" d="M213.9,484.9l-0.1,1.6c-1.2,2.1-1.9,3.2-2.4,4.3c-0.3,0.6-0.6,1.2-0.8,1.8h-15.3c1.5-2.7,3.4-5.2,5.7-7.6
						C205.3,484.9,209.6,484.9,213.9,484.9z"/>
				</g>
				<g>
					<path class="dsn_path_col" fill="rgb(0, 0, 0)" d="M195.3,492.5h15.3c-4.6,9.5-9.2,19-13.6,28.6c-0.2,0.4-0.4,0.9-0.7,1.3c-0.1,0.2-0.3,0.4-0.4,0.7c0,0-0.1,0.1-0.1,0.1
						c-0.1,0.2-0.3,0.4-0.5,0.6c-0.1,0.1-0.2,0.2-0.3,0.3c-0.9,0.9-2.1,1.3-3.9,1c-0.9-0.2-1.7-0.1-2.3,0.2
						c1.1-8.1,2.2-16.1,3.4-24.4C192.7,498.1,193.7,495.2,195.3,492.5z"/>
				</g>
				<g>
					<path class="dsn_path_col" fill="rgb(0, 0, 0)" d="M200.7,484.9c0.1,0,0.2,0,0.3,0c-2.3,2.3-4.2,4.9-5.7,7.6h-0.5c0.7-1.6,1.4-3.2,2.1-4.8
						C197.5,486.4,199.4,484.9,200.7,484.9z"/>
				</g>
				<g>
					<path class="dsn_path_col" fill="rgb(0, 0, 0)" d="M194.8,492.5h0.5c-1.5,2.7-2.6,5.6-3,8.4c-1.2,8.2-2.3,16.3-3.4,24.4c0,0,0,0,0,0c-0.2,0.1-0.3,0.1-0.4,0.2
						c-0.3,0.2-0.6,0.5-0.8,0.9c-0.3,0.6-0.4,1.3-0.5,2.1c0,0.6-0.2,1.3-0.3,1.9c-0.8,5.5-1.2,9.1-2.2,11.7h-15.2
						c0.7-5.6,1.4-11,2.1-16.3c-0.7-0.4-1-0.8-1.2-0.8c-2.6,0.4-4.3,0-5.5-1c-0.6-0.5-1-1.2-1.4-2c-0.5-1.2-0.9-2.7-1.1-4.3
						c-1-6.2-2.2-12.3-3.5-18.9l0-0.2l-1.2-6.2h15.4c0.3,1.4,0.7,3.2,1.1,5.3c0.5,2.7,1.4,5.4,1.5,8.1c0.2,5.4,3,7.2,7.8,6
						c1.7-0.4,3.7-1.8,4.4-3.3C190.2,503.3,192.4,497.9,194.8,492.5z"/>
				</g>
				<g>
					<path class="dsn_path_col" fill="rgb(0, 0, 0)" d="M188.4,525.5c-0.3,0.3-0.6,0.6-0.8,0.9C187.9,526,188.1,525.7,188.4,525.5z"/>
				</g>
				<g>
					<path class="dsn_path_col" fill="rgb(0, 0, 0)" d="M169.4,542.2h15.2c-1.9,4.9-5.7,6.3-16.6,10.4C168.6,549.1,169,545.6,169.4,542.2z"/>
				</g>
				<g>
					<path class="dsn_path_col" fill="rgb(0, 0, 0)" d="M172.9,492.5h-15.4l-1.1-5.4l1.5-2.5c6.7,0.5,10.1,0.6,12.1,2.1C171.4,487.7,172.2,489.4,172.9,492.5z"/>
				</g>
				<g>
					<path class="dsn_path_col" fill="rgb(0, 0, 0)" d="M163.5,522.1c0.4,0.8,0.8,1.5,1.4,2C164.3,523.6,163.8,522.9,163.5,522.1z"/>
				</g>
				<g>
					<path class="dsn_path_col" fill="rgb(0, 0, 0)" d="M152.9,536.4c-0.3,1.9-0.5,3.9-0.8,5.8H18l6.9-49.7H140l1.9,9.5l0,0l0,0.2l0,0.2c1.3,6.5,2.5,12.4,3.4,18.1
						C146.6,528.1,149.5,533.1,152.9,536.4z"/>
				</g>
				<g>
					<path class="dsn_path_col" fill="rgb(0, 0, 0)" d="M130.5,568.7c-4.1,9,2.4,19.1-8.9,24.2c-1.6,0.7-1.8,5.1-2.2,7.9c-2.9,20.4-6,40.7-8.5,61.1c-0.7,5.5-2.6,7.4-8.1,7.1
						c-6.5-0.4-13.1-0.1-20.7-0.1c1.5-12.5,3-24.1,4.6-36.8c-10,0-18.3-0.4-26.5,0.3c-2.2,0.2-5.3,3.8-5.8,6.2
						c-2.2,12.6-3.7,25.4-5.5,38.2c-0.3,2.5-0.9,4.9-1.7,8.6c-8.1-4.2-15.5-7.8-22.4-12c-1.5-0.9-2.1-4.4-1.9-6.6
						c1.2-11,2.8-22,4.3-33.5c-2.8-0.8-5.1-1.5-8.4-2.5c4.4-8.3,2.1-18.9,11.7-24.7c1.2-0.7,1.1-3.7,1.4-5.6
						c1.2-8.2,2.6-16.4,3.3-24.6c0.5-5.8,3.1-7.8,8.8-7.4c6.2,0.4,12.5,0.1,19.7,0.1c-1.7,13.1-3.2,25.2-4.9,38.1
						c10.7,0,20.7,0,31.4,0c1.6-10.4,3.4-20.8,4.5-31.3c0.5-5,2.2-7,7.4-6.8C111,568.9,119.8,568.7,130.5,568.7z"/>
				</g>
				<g>
					<path class="dsn_path_col" fill="rgb(0, 0, 0)" d="M48.5,362.8c24.4-0.4,48.9-0.3,75.1-0.3c-1.8,7.1-2.9,13.4-5.1,19.4c-0.6,1.6-4.4,2.7-6.8,2.7
						c-12.4,0.3-24.7,0.4-37.1,0c-6.6-0.2-9.8,1.2-10.5,8.6c-1.4,14.6-3.9,29.1-6.1,44.6c10.2-0.6,19.3-0.9,28.2-1.9
						c1.7-0.2,4.2-3.2,4.5-5.2c0.6-3.7-0.1-7.5-0.3-11.8c-6.3,0.6-11.9,1.2-18.3,1.8c-0.9-6.8-1.7-12.9-2.6-19.8
						c17.8,0,34.7,0,52.5,0c-0.1,5,1.2,10-5.2,13.2c-1.9,0.9-3.3,4.6-3.3,7c0.1,9.3,1.1,18.7,1,28c0,2.2-2.4,6.1-4,6.2
						c-26.7,3-53.4,5.4-81.5,8.2c3.8-27.7,7.4-53.9,11-79.7c0.2-1.6,0.4-3.1,0.6-4.7c-0.1,0-0.1-0.1-0.1-0.1l0.9-7.8
						c0.2-1.4,0.4-2.3,0.9-3.1C44,366.1,46.4,362.8,48.5,362.8z"/>
				</g>
			</g>
		</g>
	</g>
</g>
<g>
	<g>
		<path class="dsn_path_col" fill="rgb(0, 0, 0)" d="M353.9,718.1c0-0.7,0.5-1.2,1.3-1.5c0.8-0.3,1.7-0.5,2.7-0.5c0.5,0,1.3,0.3,2.2,1c1,0.7,1.4,1.6,1.3,2.9
			c0,1.9-0.8,3.6-2.5,5.2c-0.3,0.3-0.8,0.8-1.5,1.3c-0.7,0.5-1,1-1,1.4c0.1,1.5,0.4,2.8,0.7,3.8c0.1,0.4,0,0.7-0.4,0.9
			c-0.4,0.2-0.9,0.3-1.5,0.5c0,0-0.1,0-0.2,0c-0.1,0-0.1,0-0.2-0.1c-0.2-0.7-0.5-1.7-0.6-3.2c-0.2-1.4-0.3-3.2-0.4-5.3
			c-0.1-1.5-0.1-2.8-0.1-4S353.9,718.5,353.9,718.1z M355.9,719.3c0.1,0.6,0.1,1.2,0.1,1.8s0,1.2,0,1.9c0,0.3,0.1,0.5,0.1,0.6
			c0,0,0.1,0,0.2-0.1c0.4-0.2,0.9-0.7,1.5-1.5c0.6-0.7,0.9-1.4,1-2c0.1-0.3-0.2-0.6-0.7-0.9c-0.5-0.3-1.1-0.5-1.8-0.4
			c-0.3,0-0.4,0.1-0.5,0.2C355.9,719,355.9,719.1,355.9,719.3z"/>
		<path class="dsn_path_col" fill="rgb(0, 0, 0)" d="M362.7,731c0-1.2,0-2.5,0-3.9c0-1.4,0.1-2.7,0.1-4c0.1-1.3,0.1-2.4,0.2-3.5s0.1-1.8,0.2-2.3
			c0.1-0.6,0.6-0.9,1.4-1.1c0.9-0.1,1.8,0,2.7,0.3c1,0.3,1.8,0.8,2.6,1.5c0.8,0.7,1.1,1.6,1,2.6c-0.1,1-0.3,1.8-0.6,2.4
			c-0.3,0.7-1,1.3-1.8,2.1c-0.3,0.1-0.4,0.2-0.3,0.3c0,0.1,0.1,0.2,0.3,0.4c0.3,0.6,0.8,1.2,1.4,1.9c0.6,0.7,1.1,1.4,1.5,2
			c0.5,0.6,0.8,1.1,1,1.5c0.2,0.4,0.1,0.6-0.2,0.5c-0.2,0-0.3,0-0.3,0.1c0,0.1,0,0.3,0,0.4c0.1,0.5-0.2,0.8-0.9,0.9
			c-0.7,0.1-1.1-0.1-1.3-0.6c-0.5-1-1-1.9-1.6-2.9c-0.6-1-1.1-1.9-1.7-2.7c-0.3-0.4-0.4-0.6-0.5-0.5c-0.1,0-0.1,0.4-0.1,1
			c0,0.8,0,1.5,0,2.1c0,0.6,0,1.3-0.1,2.1c0,0.6-0.1,1-0.3,1.2c-0.2,0.2-0.6,0.3-1.2,0.3c-0.4,0-0.5-0.1-0.5-0.3
			c0-0.2-0.1-0.4-0.3-0.5c-0.3-0.1-0.5-0.3-0.5-0.4C362.7,731.6,362.7,731.4,362.7,731z M365.4,719.1c0,0.6,0.1,1.3,0.1,1.8
			c0,0.6,0,1.2,0,1.9c0,0.3,0.1,0.5,0.1,0.6c0.1,0.1,0.1,0.1,0.3,0c0.4-0.2,0.9-0.5,1.4-0.9s0.8-0.7,0.9-0.9
			c0.1-0.3-0.1-0.8-0.6-1.4c-0.4-0.6-1-1.2-1.6-1.6c-0.1-0.1-0.3-0.1-0.4,0C365.4,718.8,365.4,718.9,365.4,719.1z"/>
		<path class="dsn_path_col" fill="rgb(0, 0, 0)" d="M384.6,721.9c0,1.6-0.2,3-0.7,4.4c-0.4,1.4-1,2.5-1.7,3.5s-1.4,1.8-2.2,2.4c-0.8,0.6-1.5,0.9-2.2,0.9
			c-1.3,0-2.3-0.7-3-2.1c-0.7-1.4-1.1-3-1-4.7c0.1-1.2,0.3-2.4,0.6-3.7c0.3-1.2,0.7-2.3,1.2-3.3c0.5-1,1.2-1.8,1.9-2.4
			c0.7-0.6,1.6-0.9,2.6-0.9c1.3,0,2.3,0.7,3.1,2C384.2,719.4,384.6,720.7,384.6,721.9z M376.7,726.8c0,0.9,0.1,1.7,0.4,2.5
			c0.3,0.8,0.5,1.2,0.8,1.1c0.3-0.2,0.7-0.7,1.2-1.3c0.5-0.6,0.9-1.3,1.3-2.1c0.4-0.8,0.8-1.7,1.1-2.6c0.3-0.9,0.4-1.8,0.4-2.6
			c0-1-0.2-1.6-0.8-1.7c-0.6-0.1-1.2,0-1.9,0.5s-1.3,1.3-1.8,2.4C376.9,724.1,376.6,725.3,376.7,726.8z"/>
		<path class="dsn_path_col" fill="rgb(0, 0, 0)" d="M395,716.1c0.3,0.1,0.7,0.2,1,0.4c0.3,0.1,0.7,0.2,1.1,0.3c-0.8,2.5-1.6,5-2.6,7.5c-1,2.5-1.9,5.1-2.9,7.6
			c-0.2,0.4-0.3,0.7-0.5,0.9s-0.5,0.3-1.1,0.3c-0.6,0-0.9,0-1-0.1c-0.1-0.1-0.2-0.4-0.4-1c-0.6-2.4-1.2-4.8-1.6-7.3
			c-0.4-2.4-0.8-5-1.1-7.5c-0.1-0.4,0-0.7,0.1-0.8c0.1-0.2,0.6-0.2,1.4-0.2c0.9,0,1.4,0.1,1.6,0.3s0.4,0.8,0.6,1.6l1.6,5.4
			c0.1,0.3,0.2,0.5,0.3,0.4c0.1,0,0.2-0.2,0.2-0.4c0.6-1.3,1.1-2.5,1.7-3.7C393.9,718.6,394.4,717.3,395,716.1z"/>
		<path class="dsn_path_col" fill="rgb(0, 0, 0)" d="M400.5,716.2c0.5,0,0.8,0.1,0.9,0.3c0.1,0.2,0.2,0.4,0.4,0.5s0.4,0.2,0.7,0.2c0.3,0,1-0.3,1.9-0.7
			c1-0.4,1.8-0.5,2.6-0.4c0.8,0.1,1.2,0.5,1.3,1.1c0,0.7-0.3,1.2-1,1.4c-0.7,0.2-1.5,0.4-2.3,0.5c-0.8,0.1-1.6,0.3-2.3,0.6
			c-0.7,0.3-1,0.8-0.9,1.6c-0.1,0.8-0.1,1.4-0.2,1.9c-0.1,0.5,0.1,0.6,0.6,0.3c1.1-0.7,1.8-1,2.1-0.9c0.3,0,0.5,0.6,0.6,1.5
			c0,0.7-0.2,1.2-0.9,1.5c-0.6,0.3-1.3,0.5-2.1,0.7c-0.6,0.1-0.9,0.3-1,0.8c-0.1,0.5-0.1,1.1-0.1,1.8c0,0.8,0.1,1.2,0.1,1.2
			c0.1,0,0.5,0,1.2-0.2c1.8-0.3,2.9-0.4,3.2-0.2c0.3,0.2,0.5,0.7,0.6,1.5c0,0.6-0.6,1-1.8,1.3c-1.2,0.3-2.6,0.4-4.1,0.2
			c-0.7,0-1.2-0.4-1.3-1.2c-0.1-0.8-0.1-1.7,0.1-2.6c0.3-2.4,0.4-4.4,0.5-6c0.1-1.5,0.2-3,0.1-4.5c0-0.5,0-0.9,0-1.3
			c0-0.3,0.2-0.5,0.5-0.4c0.3,0,0.4-0.1,0.2-0.3S400,716.3,400.5,716.2z"/>
		<path class="dsn_path_col" fill="rgb(0, 0, 0)" d="M409.6,731c0-1.2,0-2.5,0-3.9c0-1.4,0.1-2.7,0.1-4c0.1-1.3,0.1-2.4,0.2-3.5s0.1-1.8,0.2-2.3
			c0.1-0.6,0.6-0.9,1.4-1.1c0.9-0.1,1.8,0,2.7,0.3c1,0.3,1.8,0.8,2.6,1.5c0.8,0.7,1.1,1.6,1,2.6c-0.1,1-0.3,1.8-0.6,2.4
			c-0.3,0.7-1,1.3-1.8,2.1c-0.3,0.1-0.4,0.2-0.3,0.3c0,0.1,0.1,0.2,0.3,0.4c0.3,0.6,0.8,1.2,1.4,1.9c0.6,0.7,1.1,1.4,1.5,2
			c0.5,0.6,0.8,1.1,1,1.5c0.2,0.4,0.1,0.6-0.2,0.5c-0.2,0-0.3,0-0.3,0.1c0,0.1,0,0.3,0,0.4c0.1,0.5-0.2,0.8-0.9,0.9
			c-0.7,0.1-1.1-0.1-1.3-0.6c-0.5-1-1-1.9-1.6-2.9s-1.1-1.9-1.7-2.7c-0.3-0.4-0.4-0.6-0.5-0.5c-0.1,0-0.1,0.4-0.1,1
			c0,0.8,0,1.5,0,2.1c0,0.6,0,1.3-0.1,2.1c0,0.6-0.1,1-0.3,1.2s-0.6,0.3-1.2,0.3c-0.4,0-0.5-0.1-0.5-0.3c0-0.2-0.1-0.4-0.3-0.5
			c-0.3-0.1-0.5-0.3-0.5-0.4C409.6,731.6,409.6,731.4,409.6,731z M412.2,719.1c0,0.6,0.1,1.3,0.1,1.8c0,0.6,0,1.2,0,1.9
			c0,0.3,0.1,0.5,0.1,0.6c0.1,0.1,0.1,0.1,0.3,0c0.4-0.2,0.9-0.5,1.4-0.9s0.8-0.7,0.9-0.9c0.1-0.3-0.1-0.8-0.6-1.4
			c-0.4-0.6-1-1.2-1.6-1.6c-0.1-0.1-0.3-0.1-0.4,0C412.3,718.8,412.2,718.9,412.2,719.1z"/>
		<path class="dsn_path_col" fill="rgb(0, 0, 0)" d="M424.3,733c-0.8,0.1-1.4,0.1-1.9,0.1c-0.5,0-0.9,0-1.2-0.1c-0.2-0.1-0.3-0.3-0.4-0.7
			c0-0.4-0.1-0.7-0.1-0.9c0-0.4,0.1-0.6,0.4-0.7c0.3-0.1,0.5-0.3,0.5-0.6c0-2.1,0-4.3,0-6.4c0-2.1,0-4.3-0.1-6.4
			c0-0.6,0.1-0.9,0.2-1c0.2-0.1,0.4-0.2,0.6-0.1s0.5,0.1,0.9,0.3c0.3,0.1,0.6,0.2,1,0.1c1.9-0.1,3.4,0.1,4.7,0.5
			c1.3,0.5,1.9,1.5,1.7,3c0,1.3-0.3,2.1-0.7,2.4c-0.4,0.3-0.9,0.7-1.6,1c-0.4,0.2-0.6,0.4-0.7,0.4c0,0.1,0.1,0.2,0.4,0.4
			c0.8,0.5,1.4,1.2,1.7,2.1s0.4,1.8,0.5,2.7c0.1,1.2-0.5,2-1.6,2.6C427.6,732.3,426.2,732.7,424.3,733z M428.7,720
			c0-0.2-0.3-0.5-1-0.7c-0.7-0.2-1.5-0.4-2.5-0.6c-0.7-0.1-1.1,0-1,0.4c0,0.4,0.1,0.9,0.1,1.5c0.1,0.7,0.2,1.2,0.2,1.4
			c0,0.3,0.3,0.3,0.7,0.1c0.7-0.3,1.4-0.7,2.2-1.2C428.3,720.7,428.7,720.4,428.7,720z M427.1,727.7c0-0.3-0.1-0.5-0.4-0.7
			c-0.3-0.2-0.6-0.4-0.9-0.4c-0.3-0.1-0.7-0.1-1-0.1c-0.3,0-0.5,0.2-0.5,0.4c0,0.5,0,1,0,1.4c0,0.5,0,0.9-0.1,1.4
			c0,0.2,0.2,0.3,0.7,0.2c0.5-0.2,1-0.5,1.4-0.9C426.9,728.6,427.1,728.2,427.1,727.7z"/>
		<path class="dsn_path_col" fill="rgb(0, 0, 0)" d="M432.6,722.6c0-0.8,0.2-1.7,0.6-2.5c0.4-0.8,0.9-1.6,1.5-2.2c0.6-0.6,1.3-1.1,2.1-1.5
			c0.8-0.3,1.6-0.4,2.4-0.2c0.7,0.2,1.1,0.6,1.1,1.4s-0.3,1.1-1,1.1c-0.4,0-0.9,0.2-1.5,0.5c-0.5,0.4-1,0.9-1.5,1.6
			c-0.3,0.4-0.3,0.8,0,1c0.3,0.2,0.8,0.6,1.4,1.1c0.6,0.5,1.2,1.2,1.9,2.2c0.7,1,1.1,2.4,1.5,4.3c0.2,0.6,0.1,1.2-0.3,1.7
			s-0.8,0.9-1.4,1.2c-0.6,0.3-1.1,0.5-1.8,0.7c-0.6,0.1-1.1,0.1-1.4,0c-0.3-0.2-0.7-0.4-1.1-0.4c-0.4,0-0.9-0.1-1.3-0.2
			c-0.4-0.1-0.8-0.3-1-0.6s-0.4-0.8-0.4-1.6c0-0.6,0.2-1,0.5-1.2c0.3-0.2,0.6-0.1,1,0.4c0.3,0.3,0.7,0.5,1.1,0.4
			c0.4-0.1,0.8-0.1,1.1-0.2c0.4-0.2,0.7-0.4,0.8-0.6c0.1-0.2,0.2-0.4,0.3-0.8c0.1-0.4-0.2-0.8-0.6-1.2c-0.5-0.3-1-0.7-1.5-1.1
			c-0.6-0.4-1.1-0.9-1.6-1.4C432.9,724.1,432.6,723.4,432.6,722.6z"/>
		<path class="dsn_path_col" fill="rgb(0, 0, 0)" d="M460.5,716c0.2,0,0.5,0.2,0.8,0.6c0.4,0.4,0.6,0.8,0.5,1c0,1.3-0.1,2.5-0.4,3.6c-0.2,1.1-0.3,2.3-0.3,3.6
			c0,0.1,0,0.3,0,0.4c0.1,0.1,0.2,0.2,0.4,0.2c0.1,0,0.3,0,0.4,0s0.2,0,0.4,0c0.2,0,0.2-0.1,0.2-0.2c-0.1-0.8-0.1-1.6,0-2.4
			c0-0.2,0.1-0.3,0.3-0.3c0.5-0.1,0.9-0.2,1.2-0.1c0.2,0,0.3,0.1,0.3,0.1c0,0,0.1,0.1,0.1,0.2c0,0.4,0,0.9,0,1.3c0,0.4,0,0.8,0,1.3
			c0,0.1,0.1,0.2,0.2,0.2c0.4,0,0.7,0,1,0.1c0.3,0,0.6,0,1,0.1c0.1,0,0.2,0.1,0.2,0.2c0,0.2,0,0.5,0,0.7c0,0.2,0,0.5,0,0.7
			c0,0.5-0.2,0.8-0.6,0.9c-0.3,0.1-0.5,0.1-0.8,0.1c-0.3,0-0.5,0.1-0.8,0.1c-0.4,0-0.6,0.2-0.5,0.6c0,0.6,0,1.1,0,1.7
			c0,0.6,0,1.1,0,1.7c0,0.5-0.1,0.7-0.4,0.6c-0.2,0-0.4,0-0.6-0.1c-0.2,0-0.4-0.1-0.6-0.1c-0.4,0-0.5-0.3-0.5-0.8c0-0.6,0-1.1,0-1.6
			c0-0.5,0.1-1.1,0.1-1.6c0.1-0.3-0.1-0.4-0.5-0.5c-0.4,0-0.8-0.1-1.3-0.1c-0.5-0.1-0.9-0.2-1.3-0.4c-0.4-0.2-0.5-0.6-0.3-1.2
			c0.2-1.4,0.3-2.9,0.4-4.3c0.1-1.5,0.2-3.1,0.2-4.8c0-0.1,0.1-0.4,0.4-0.9C460.3,716.3,460.4,716,460.5,716z"/>
		<path class="dsn_path_col" fill="rgb(0, 0, 0)" d="M469.4,730.2c0.1,0,0.1,0,0.1,0.1c0,0.1,0,0.1,0.1,0.1c0.3,0,0.5,0,0.5,0.1c0.4,0.3,0.5,0.6,0.5,1.1
			c0,0.4-0.1,0.7-0.4,1c-0.3,0.3-0.6,0.4-0.9,0.4s-0.6-0.1-0.8-0.4c-0.2-0.3-0.3-0.6-0.3-1C468.3,730.8,468.6,730.3,469.4,730.2z"/>
		<path class="dsn_path_col" fill="rgb(0, 0, 0)" d="M478,719.3c-0.5,0-1.1,0.2-1.6,0.5c-0.5,0.3-1,0.6-1.5,1c-0.5,0.3-0.9,0.6-1.2,0.8c-0.3,0.2-0.6,0.2-0.7,0
			c-1.6-2.3,0.1-4.1,5.1-5.3c1.2-0.3,1.9,0,2.3,1c0.4,1,0.6,2,0.6,3.1c0,2.3-0.3,4.1-1,5.2c-0.6,1.2-1.3,2.3-2,3.3
			c-0.2,0.3-0.2,0.4,0,0.5c0.3,0.1,0.7,0.2,1.1,0.4c0.5,0.2,0.9,0.4,1.3,0.6c0.5,0.3,0.8,0.5,0.9,0.8c0.1,0.3,0.2,0.7,0.2,1.2
			c0,0.4,0,0.6-0.1,0.7c-0.1,0.1-0.2,0.1-0.5,0.1c-0.8,0-1.4-0.2-1.7-0.6c-0.3-0.4-1.1-0.6-2.2-0.6c-1,0-1.8,0.2-2.4,0.5
			c-0.6,0.3-1.2,0.6-1.6,0.6c-0.4,0-0.7-0.1-1-0.3c-0.2-0.3-0.4-0.7-0.4-1.1c0-0.3,0.2-0.7,0.6-1.1c0.4-0.4,1-0.9,1.8-1.6
			c1.6-1.3,2.8-2.7,3.6-4.1c0.8-1.4,1.3-2.7,1.4-4c0-0.4,0-0.8,0-1.1S478.6,719.3,478,719.3z"/>
		<path class="dsn_path_col" fill="rgb(0, 0, 0)" d="M483.3,721.3c-0.1-0.3-0.1-0.6-0.1-0.9c0-0.3,0-0.6-0.1-0.9c0-0.3,0-0.6,0.1-0.7c0.1-0.1,0.2-0.3,0.3-0.4
			c1-0.8,1.9-1.4,2.6-1.8c0.7-0.4,1.5-0.6,2.3-0.6c1.4,0,2.4,0.3,2.9,0.8c0.5,0.6,0.8,1.3,0.8,2.1c0,1.5-0.2,2.6-0.6,3.2
			c-0.4,0.6-0.8,1.1-1.2,1.5c-0.2,0.1-0.2,0.3,0.1,0.6c0.4,0.7,0.7,1.5,0.8,2.2c0.1,0.7,0.2,1.4,0.2,2.1c0,1.4-0.5,2.4-1.5,3.2
			c-1,0.7-2.5,1.2-4.5,1.4c-0.2,0-0.5,0-0.8-0.1c-0.3-0.1-0.7-0.2-1-0.4c-0.3-0.2-0.5-0.5-0.6-0.8c-0.1-0.3-0.1-0.8,0.2-1.4
			c0-0.1,0.1-0.2,0.2-0.3s0.2-0.1,0.3,0c0.3,0.2,0.8,0.3,1.4,0.3c0.6,0,1.3-0.1,1.9-0.3c0.6-0.2,1.2-0.5,1.7-1
			c0.5-0.4,0.7-0.9,0.7-1.5c0-0.7-0.3-1.2-0.8-1.6c-0.5-0.4-1-0.6-1.5-0.6c-0.7,0-1.1-0.1-1.3-0.3c-0.1-0.2-0.2-0.6-0.2-1.2
			c0-0.3,0-0.5,0-0.6c0-0.1,0.1-0.3,0.3-0.4c0.2-0.1,0.4-0.2,0.6-0.4c0.2-0.1,0.4-0.3,0.6-0.4c0.2,0,0.3-0.1,0.4,0
			c0.1,0,0.2,0,0.4,0c0.7-0.5,1.3-1.1,1.9-1.6c0.5-0.6,0.8-1,0.8-1.3c0-0.6-0.4-0.9-1.3-0.9c-1.3,0.2-2.4,0.6-3.3,1
			c-0.9,0.5-1.6,1.1-2.1,1.8C483.6,721.7,483.4,721.7,483.3,721.3z"/>
	</g>
	<g>
		<path class="dsn_path_col" fill="rgb(0, 0, 0)" d="M159.6,804.3c-1.9-2.8-3.3-5.7-4.3-8.7c-1-2.9-1.5-5.8-1.5-8.8c0-2.9,0.5-5.8,1.5-8.8
			c1-2.9,2.4-5.8,4.3-8.7l2.1,1c-1.4,2.4-2.4,5-3.1,7.8c-0.7,2.9-1,5.7-1,8.5c0,2.8,0.3,5.7,1,8.5c0.7,2.9,1.7,5.5,3.1,7.8
			L159.6,804.3z"/>
		<path class="dsn_path_col" fill="rgb(0, 0, 0)" d="M168.7,791c0,0.5,0,0.8,0.1,0.9c0.1,0,0.3,0,0.7,0c1.6-0.3,2.9-0.6,3.8-0.9c0.9-0.3,2-0.5,3.3-0.6
			c0.5,0,1,0.2,1.3,0.6c0.4,0.4,0.6,1,0.8,1.5c0.1,0.6,0.1,1.2-0.1,1.7c-0.2,0.6-0.5,0.9-1.1,1.1c-1.8,0.7-3.5,1.2-5.1,1.5
			s-3.3,0.7-5.1,1.3c-0.7,0.2-1.6,0.2-2.5-0.1c-0.9-0.3-1.3-1.2-1.1-2.6c0.2-3.3,0.4-6.6,0.4-9.8c0-3.3,0.1-6.2,0.1-8.8
			c0-2.6,0-4.8,0-6.6c0-1.7,0.1-2.7,0.3-3c1.9-0.9,3.1-0.6,3.8,0.7c0.7,1.4,1.1,3.3,1.2,5.8c0.1,2.5,0,5.3-0.3,8.5
			C169,785.3,168.8,788.2,168.7,791z"/>
		<path class="dsn_path_col" fill="rgb(0, 0, 0)" d="M186.9,790.7c0,1.3-0.1,2.8-0.3,4.5c-0.2,1.7-0.6,2.6-1.2,2.7c-1,0.3-2.1,0.4-3.1,0.2
			c-1.1-0.2-1.4-1.2-0.9-2.9c0.3-3.3,0.4-6.6,0.5-9.8c0.1-3.2,0.1-6.1,0.2-8.6c0-2.6,0.1-4.7,0.1-6.3c0-1.7,0.1-2.6,0.3-2.9
			c2.3-1.1,3.9-1.2,4.7,0c0.9,1.1,1.3,2.9,1.4,5.3s-0.1,5.2-0.6,8.5C187.5,784.5,187.1,787.6,186.9,790.7z"/>
		<path class="dsn_path_col" fill="rgb(0, 0, 0)" d="M190.4,785.1c0-0.3,0.2-0.7,0.4-1c0.2-0.3,0.3-0.8,0.3-1.5c0.1-3.7,0.3-6.4,0.8-8.2s0.7-3.9,0.7-6.2
			c-0.2-1.1,0.2-1.7,1.2-1.7c1,0,2.1,0.1,3.3,0.3c0.2,0,0.3,0.2,0.3,0.6c0.1,0.4,0.1,0.7,0,1c-0.2,1.3-0.3,2.2-0.2,2.7
			c0.1,0.5,0.1,1.3-0.1,2.5c0,0.6,0.1,0.9,0.3,0.8c0.2-0.1,0.5-0.5,1-1c0.9-0.8,1.6-1.5,2.2-2.3c0.6-0.8,1.4-1.5,2.4-2.1
			c0.9-0.8,1.4-1.1,1.5-0.9c0.1,0.3,0.3,0.4,0.6,0.5c0.5,0.1,0.8,0,0.9-0.2c0.1-0.2,0.4-0.3,0.9-0.2c1.1,0.1,1.7,0.6,2,1.5
			c0.3,0.9,0.1,1.7-0.6,2.5c-1.1,1.2-2.7,2.8-4.8,4.7c-2.1,1.9-4,4-5.7,6.3c-0.2,0.2-0.4,0.4-0.4,0.5c0,0.1,0.1,0.3,0.4,0.5
			c2,1.5,3.9,3.1,5.6,4.7c1.7,1.6,3.7,3.1,5.7,4.4c0.5,0.4,0.9,0.7,1.1,0.9c0.3,0.2,0.5,0.5,0.7,0.8c0,0-0.5,0.3-1.5,0.7
			c-1,0.4-1.9,0.8-2.9,1.2c-0.8,0.3-1.4,0.2-1.8-0.3c-0.2-0.2-0.3-0.1-0.4,0.3c-0.1,0.4-0.2,0.5-0.5,0.3c-0.1-0.1-0.5-0.4-1.2-0.8
			c-0.6-0.5-1.3-1-2.1-1.6s-1.4-1.1-2-1.6c-0.6-0.5-1-0.8-1.1-1c-0.8-1.1-1.1-1.1-0.9,0.2c0.1,1.7,0.1,3,0.1,3.9
			c-0.1,1-0.6,1.6-1.6,1.9c-1.1,0.1-2,0-2.8-0.2c-0.8-0.2-1.1-0.9-1-2c0-0.4,0-0.9-0.1-1.5c-0.1-0.6-0.1-1.2-0.1-1.8
			c0.1-1.1,0.1-2.1,0-2.8c-0.1-0.7-0.1-1.6,0-2.7c0.1-0.8,0-1.1-0.3-1.1C190.7,786.1,190.5,785.8,190.4,785.1z"/>
		<path class="dsn_path_col" fill="rgb(0, 0, 0)" d="M217.3,767c0.9,0,1.4,0.2,1.6,0.6c0.2,0.4,0.5,0.7,0.7,1c0.3,0.3,0.7,0.4,1.3,0.3c0.6-0.1,1.8-0.5,3.5-1.4
			c1.8-0.8,3.4-1,4.9-0.8c1.5,0.2,2.3,0.9,2.3,2.1c0.1,1.3-0.5,2.2-1.8,2.6c-1.3,0.4-2.7,0.7-4.3,1c-1.6,0.3-3,0.6-4.2,1.1
			c-1.3,0.5-1.8,1.5-1.7,3c-0.1,1.4-0.2,2.6-0.3,3.6c-0.1,1,0.3,1.2,1.1,0.6c2-1.2,3.4-1.8,4-1.7c0.6,0.1,1,1,1.1,2.9
			c0.1,1.3-0.5,2.2-1.6,2.8c-1.2,0.6-2.5,1-4,1.3c-1.1,0.1-1.7,0.6-1.9,1.6c-0.1,1-0.2,2.1-0.2,3.4c0,1.5,0.1,2.3,0.2,2.3
			c0.1,0,0.9-0.1,2.2-0.3c3.3-0.6,5.3-0.7,5.9-0.4c0.6,0.3,1,1.3,1,2.8c0,1.1-1.1,1.9-3.4,2.5c-2.3,0.6-4.9,0.7-7.7,0.3
			c-1.4-0.1-2.2-0.8-2.4-2.3c-0.2-1.5-0.2-3.1,0.2-4.8c0.5-4.5,0.8-8.2,1-11.1c0.2-2.9,0.3-5.6,0.3-8.3c0-1,0-1.7,0-2.4
			c0-0.6,0.3-0.9,1-0.8c0.6,0.1,0.7-0.1,0.4-0.6C216.3,767.2,216.5,767,217.3,767z"/>
		<path class="dsn_path_col" fill="rgb(0, 0, 0)" d="M252.7,781.5c0.8-2.6,1.5-4.8,2-6.9c0.6-2,1.2-4.3,2.1-6.7c0.1-0.4,0.3-0.6,0.6-0.8c0.3-0.2,0.8-0.2,1.5,0
			c0.6,0.2,0.9,0.1,0.8-0.3c-0.1-0.4,0.3-0.4,1.2,0c1.3,0.7,2.2,2.2,2.5,4.4c0.3,2.2,0.6,4.5,1,6.8c0,0.6,0.2,0.7,0.6,0.4
			c0.4-0.3,1-0.6,1.7-0.8c0.7-0.2,1.2-0.2,1.5,0c0.4,0.5,0.6,1.3,0.3,2.5c-0.2,1.2-0.8,2-1.7,2.3c-0.9,0.3-1.2,1-1,2
			c0.3,1.2,0.7,2.5,1.1,4c0.5,1.5,0.9,3,1.3,4.4c0.4,1.4,0.7,2.6,1,3.6c0.2,1,0.3,1.6,0.1,1.7c-1.8,0-3-0.1-3.7-0.3
			c-0.6-0.2-1.1-0.9-1.3-2.1c-0.3-1.9-0.7-3.6-1.1-5c-0.4-1.4-0.8-2.9-1.2-4.3c0.1-0.8-0.2-1-0.8-0.7c-1.2,0.5-2.3,1-3.1,1.5
			c-0.8,0.5-1.4,1-1.7,1.7c-0.6,1.2-0.9,2.3-0.9,3.5c0,1.1-0.4,2.4-1.2,3.9c-0.3,0.7-0.7,1.2-1.2,1.4c-0.6,0.2-1.1,0.1-1.6-0.3
			c-0.3-0.4-0.6-0.6-1.1-0.7c-0.5-0.1-0.7-0.7-0.7-2c0-0.5,0.1-0.9,0.3-1.3c0.2-0.4,0.3-0.8,0.3-1.2c0-0.2,0.1-0.5,0.1-0.8
			c0-0.3,0-0.5-0.2-0.8c-0.3-0.4-0.6-0.9-0.9-1.3c-0.3-0.4-0.6-1-0.8-1.6c-0.2-0.3-0.3-0.6-0.4-0.8c-0.1-0.2,0-0.5,0.2-0.8
			c1-0.2,1.6-0.6,1.8-1.1c0.1-0.5,0.4-0.8,0.9-1c0.6,0.1,1-0.2,1.2-0.9C252.4,782.6,252.5,782,252.7,781.5z M257.9,781
			c-0.2,0.8,0,0.9,0.6,0.4c0.3-0.3,0.7-0.4,1.2-0.6c0.5-0.1,0.7-0.4,0.7-0.7c-0.2-0.7-0.4-1.7-0.6-2.9c-0.2-1.2-0.4-1.6-0.7-1.3
			c-0.3,0.9-0.4,1.7-0.5,2.5C258.5,779.2,258.3,780,257.9,781z"/>
		<path class="dsn_path_col" fill="rgb(0, 0, 0)" d="M285.9,797.1c0.5-5.7,0.7-10.8,0.6-15.3c-0.1-4.5-0.2-9.1-0.3-13.9c0-0.6,0.1-0.9,0.5-1.2
			c0.3-0.2,1-0.2,2.1,0c1.3,0.3,2.3,0.9,3.1,1.8c0.8,0.9,1.4,2,1.9,3.2c0.5,1.2,1.1,2.5,1.6,3.9c0.5,1.4,1.2,2.6,2,3.7
			c0.3,0.4,0.5,0.7,0.6,0.6c0.1,0,0.1-0.2,0.1-0.6c0.1-2.5,0.2-4.7,0.4-6.4c0.2-1.8,0.2-3.8,0.2-6c0-0.2,0.1-0.3,0.3-0.3
			c0.2,0,0.4,0,0.5-0.1c1.9-0.1,3.1,0,3.6,0.5c0.5,0.4,0.8,1,0.7,1.8c0,3.9-0.1,7-0.2,9.3c-0.1,2.3-0.3,4.3-0.4,6
			c-0.2,1.7-0.3,3.2-0.5,4.7s-0.3,3.3-0.3,5.5c-0.1,1-0.2,1.7-0.5,2.1c-0.3,0.4-0.9,0.6-1.8,0.6c-0.6,0-1,0.2-1.3,0.7
			c-0.3,0.4-0.7,0.3-1.2-0.4c-1.4-2.4-2.4-4.9-3-7.4s-1.5-5.1-2.6-7.5c-0.1-0.3-0.2-0.5-0.3-0.5c-0.1,0-0.2,0.1-0.2,0.5
			c-0.2,2.4-0.4,4.6-0.7,6.8c-0.3,2.2-0.5,4.5-0.5,7c0,1.1-0.3,1.5-0.7,1.2c-0.5-0.3-0.9-0.2-1.2,0.2c-0.4,0.4-0.9,0.6-1.5,0.5
			C286.2,798.2,285.9,797.8,285.9,797.1z"/>
		<path class="dsn_path_col" fill="rgb(0, 0, 0)" d="M311.9,790.7c0,1.3-0.1,2.8-0.3,4.5c-0.2,1.7-0.6,2.6-1.2,2.7c-1,0.3-2.1,0.4-3.1,0.2
			c-1.1-0.2-1.4-1.2-0.9-2.9c0.3-3.3,0.4-6.6,0.5-9.8c0.1-3.2,0.1-6.1,0.2-8.6c0-2.6,0.1-4.7,0.1-6.3c0-1.7,0.1-2.6,0.3-2.9
			c2.3-1.1,3.9-1.2,4.7,0c0.9,1.1,1.3,2.9,1.4,5.3c0.1,2.4-0.1,5.2-0.6,8.5C312.6,784.5,312.2,787.6,311.9,790.7z"/>
		<path class="dsn_path_col" fill="rgb(0, 0, 0)" d="M315.5,797.1c0.5-5.7,0.7-10.8,0.6-15.3c-0.1-4.5-0.3-9.1-0.3-13.9c0-0.6,0.1-0.9,0.5-1.2
			c0.3-0.2,1-0.2,2.1,0c1.3,0.3,2.3,0.9,3.1,1.8c0.8,0.9,1.4,2,1.9,3.2c0.5,1.2,1.1,2.5,1.6,3.9c0.5,1.4,1.2,2.6,2,3.7
			c0.3,0.4,0.5,0.7,0.6,0.6c0.1,0,0.1-0.2,0.1-0.6c0.1-2.5,0.2-4.7,0.4-6.4c0.2-1.8,0.2-3.8,0.2-6c0-0.2,0.1-0.3,0.3-0.3
			c0.2,0,0.4,0,0.5-0.1c1.9-0.1,3.1,0,3.6,0.5c0.5,0.4,0.8,1,0.7,1.8c0,3.9-0.1,7-0.2,9.3c-0.1,2.3-0.3,4.3-0.4,6
			c-0.2,1.7-0.3,3.2-0.5,4.7s-0.3,3.3-0.3,5.5c-0.1,1-0.2,1.7-0.5,2.1c-0.3,0.4-0.9,0.6-1.8,0.6c-0.6,0-1,0.2-1.3,0.7
			c-0.3,0.4-0.7,0.3-1.2-0.4c-1.4-2.4-2.4-4.9-3-7.4s-1.5-5.1-2.6-7.5c-0.1-0.3-0.2-0.5-0.3-0.5c-0.1,0-0.2,0.1-0.2,0.5
			c-0.2,2.4-0.4,4.6-0.7,6.8c-0.3,2.2-0.5,4.5-0.5,7c0,1.1-0.3,1.5-0.7,1.2c-0.5-0.3-0.9-0.2-1.2,0.2c-0.4,0.4-0.9,0.6-1.5,0.5
			C315.7,798.2,315.4,797.8,315.5,797.1z"/>
		<path class="dsn_path_col" fill="rgb(0, 0, 0)" d="M340.8,773.3c-1.4,0.1-2.3-0.3-2.8-1.2c-0.5-0.9-0.7-2.2-0.5-3.8c0.3-1,0.7-1.4,1.2-1s1,0.4,1.5,0.2
			c1.8-0.2,3.4-0.2,4.8,0c1.4,0.2,3.8,0,7.2-0.7c1.7-0.4,2.6-0.2,2.7,0.4c0.1,0.6,0.2,1.3,0.2,2c0.1,2.1,0.1,4.2,0.1,6.2
			c0,2.1,0,4.1,0.1,6.2c-0.1,5.4-0.9,9.5-2.4,12.1c-1.5,2.6-4.5,4.1-9.1,4.5c-3-0.1-5.1-0.8-6.2-2c-1.2-1.2-1.7-2.9-1.5-5.2
			c0.1-0.5,0.1-0.8-0.2-0.8c-0.2,0-0.3-0.2-0.1-0.7c0.1-0.5,0.7-0.6,1.6-0.4c0.5,0.2,1,0.2,1.5,0.2c0.5,0,0.9,0.1,1.2,0.2
			c0.5,0.2,0.8,0.8,1,2c0.2,1.2,0.8,1.8,1.8,1.9c0.5,0.1,1.1-0.2,1.9-0.8c0.8-0.6,1.6-1.4,2.3-2.5c0.7-1.1,1.4-2.4,1.8-4
			c0.5-1.6,0.7-3.3,0.5-5.2c-0.2-2.3-0.3-4.8-0.2-7.5c-1.1-0.2-2.4-0.3-4-0.3C343.7,773.2,342.2,773.3,340.8,773.3z"/>
		<path class="dsn_path_col" fill="rgb(0, 0, 0)" d="M362.3,781.5c0.8-2.6,1.5-4.8,2-6.9c0.6-2,1.2-4.3,2.1-6.7c0.1-0.4,0.3-0.6,0.6-0.8c0.3-0.2,0.8-0.2,1.5,0
			c0.6,0.2,0.9,0.1,0.8-0.3c-0.1-0.4,0.3-0.4,1.2,0c1.3,0.7,2.2,2.2,2.5,4.4c0.3,2.2,0.6,4.5,1,6.8c0,0.6,0.2,0.7,0.6,0.4
			c0.4-0.3,1-0.6,1.7-0.8c0.7-0.2,1.2-0.2,1.5,0c0.4,0.5,0.6,1.3,0.3,2.5c-0.2,1.2-0.8,2-1.7,2.3c-0.9,0.3-1.2,1-1,2
			c0.3,1.2,0.7,2.5,1.1,4c0.5,1.5,0.9,3,1.3,4.4c0.4,1.4,0.7,2.6,1,3.6c0.2,1,0.3,1.6,0.1,1.7c-1.8,0-3-0.1-3.7-0.3
			c-0.6-0.2-1.1-0.9-1.3-2.1c-0.3-1.9-0.7-3.6-1.1-5c-0.4-1.4-0.8-2.9-1.2-4.3c0.1-0.8-0.2-1-0.8-0.7c-1.2,0.5-2.3,1-3.1,1.5
			c-0.8,0.5-1.4,1-1.7,1.7c-0.6,1.2-0.9,2.3-0.9,3.5c0,1.1-0.4,2.4-1.2,3.9c-0.3,0.7-0.7,1.2-1.2,1.4c-0.6,0.2-1.1,0.1-1.6-0.3
			c-0.3-0.4-0.6-0.6-1.1-0.7c-0.5-0.1-0.7-0.7-0.7-2c0-0.5,0.1-0.9,0.3-1.3c0.2-0.4,0.3-0.8,0.3-1.2c0-0.2,0.1-0.5,0.1-0.8
			c0-0.3,0-0.5-0.2-0.8c-0.3-0.4-0.6-0.9-0.9-1.3c-0.3-0.4-0.6-1-0.8-1.6c-0.2-0.3-0.3-0.6-0.4-0.8c-0.1-0.2,0-0.5,0.2-0.8
			c1-0.2,1.6-0.6,1.8-1.1c0.1-0.5,0.4-0.8,0.9-1c0.6,0.1,1-0.2,1.2-0.9C362,782.6,362.1,782,362.3,781.5z M367.5,781
			c-0.2,0.8,0,0.9,0.6,0.4c0.3-0.3,0.7-0.4,1.2-0.6c0.5-0.1,0.7-0.4,0.7-0.7c-0.2-0.7-0.4-1.7-0.6-2.9c-0.2-1.2-0.4-1.6-0.7-1.3
			c-0.3,0.9-0.4,1.7-0.5,2.5C368.1,779.2,367.9,780,367.5,781z"/>
		<path class="dsn_path_col" fill="rgb(0, 0, 0)" d="M386.8,786.8c0,2.9-0.5,5.8-1.5,8.8c-1,2.9-2.4,5.8-4.3,8.7l-2.1-1c1.4-2.4,2.4-5,3.1-7.8
			c0.7-2.9,1-5.7,1-8.5c0-2.8-0.3-5.7-1-8.5c-0.7-2.9-1.7-5.5-3.1-7.8l2.1-1c1.9,2.8,3.3,5.7,4.3,8.7
			C386.4,781,386.8,783.9,386.8,786.8z"/>
	</g>
</g>
</svg>
