<svg version="1.1" id="Layer_1" xmlns="http://www.w3.org/2000/svg" xmlns:xlink="http://www.w3.org/1999/xlink" x="0px" y="0px"
	 width="70px" height="70px" viewBox="0 0 832.5 841.9" enable-background="new 0 0 832.5 841.9" xml:space="preserve">
<path class="dsn_path_col" fill="rgb(0, 0, 0)" d="M817,386.6l-14.9,35.3c-55.5-4.6-102.4,3.6-138.8,18.9c3.5-4.5,5.2-8.2,5.3-11.6l0.1-1.4l-0.3-0.6
	C714.8,402.4,769.8,389,817,386.6z"/>
<path class="dsn_path_col" fill="rgb(0, 0, 0)" d="M716.6,557c2.6,0,6.4-2.9,11.4-8.8c5-5.8,8.2-8.8,9.7-8.8c0.6,0,1,0.3,1,0.9c0,1.5-2.7,5.4-8.2,11.9
	c-10.9,12.9-18.9,19.4-23.8,19.4c-3.1,0-5.7-1.1-7.7-3.4c-2-2.3-3.1-5-3.1-8.1c0-3.1,0.3-6.4,0.9-9.9c2.2-4.2,3.3-8.6,3.4-13.1
	c1.5-4.5,3.3-9.2,5.6-14.3c1.5-3.4,7.6-14.9,18.5-34.6l22.4-41l19.8-0.9l-14.7,28.1h13.9l-1.3,5H748l-31,58.6
	c-2.2,4.2-3.3,9-3.3,14.2l2.1,4.5C716.2,557,716.5,557,716.6,557z"/>
<path class="dsn_path_col" fill="rgb(0, 0, 0)" d="M696.7,550.3c0.7-4.1,1.8-8.5,3.4-13.1C699.9,541.7,698.8,546.1,696.7,550.3z"/>
<path class="dsn_path_col" fill="rgb(0, 0, 0)" d="M658.3,482.7c0,4.4-0.8,7.2-2.2,8.7c-1.5,1.4-4.4,2.1-8.8,2.1c-5,0-7.5-1.2-7.5-3.7v-8.2c0-1.6,1.5-3.2,4.6-4.8
	c3.1-1.6,5.6-2.3,7.5-2.3C656.2,474.5,658.3,477.2,658.3,482.7z"/>
<path class="dsn_path_col" fill="rgb(0, 0, 0)" d="M650.7,563.2c2.2,2.2,4.8,3.4,7.8,3.4c7.6,0,13.2-6.2,17-18.6c2.6-8.7,3.9-18.2,3.9-28.4v-6c-1.2,0.9-5.6,4.7-12.9,11.5
	c-7.4,6.8-11.3,10.2-11.6,10.2c-1.2,0-1.9-0.6-1.9-1.9c0-1,3.1-4.3,9.3-10.1c4.1-3.7,8.3-7.5,12.5-11.4c4.6-4.5,8.1-8.7,10.6-12.9
	c1.9-3.2,3.5-4.8,4.9-4.8c1.9,0,2.8,0.9,2.8,2.6c0,0.4-1,1.8-3.1,4.4c-2,2.6-3.1,4.5-3.1,5.9c0,1,2.2,5,6.6,12
	c4.4,7,6.6,12.8,6.6,17.4c0,0.2,0,0.4,0,0.6c-1.6,4.6-2.7,9-3.4,13.1c-1.9,3.8-4.6,7.4-8.1,10.9c-7.7,7.6-16,11.5-24.8,11.5
	c-5.4,0-10.1-1.3-14.2-3.9c-4.7-3-7.1-7-7.1-11.9c0-3,1-5.5,2.9-7.5c1.9-2,4.4-3,7.4-3c5.6,0,8.4,2.9,8.4,8.8c0,2-0.7,3.8-2.2,5.5
	c-1.4,1.7-3.1,2.5-5.1,2.5C652.6,563.2,651.5,563.2,650.7,563.2z"/>
<path class="dsn_path_col" fill="rgb(0, 0, 0)" d="M665.4,344.8c4.9-4,7.7-9.9,7.7-16.2c0-0.8,0.6-1.5,1.5-1.5c0.8,0,1.4,0.7,1.4,1.5c0,7.2-3.2,14-8.8,18.5
	c-0.3,0.2-0.6,0.3-0.9,0.3c-0.4,0-0.9-0.2-1.2-0.6C664.7,346.2,664.8,345.3,665.4,344.8z"/>
<path class="dsn_path_col" fill="rgb(0, 0, 0)" d="M639.5,545.3c3.5-5.7,6.2-9.1,8.4-10.2h0.7c0.4,0.4,0.6,0.9,0.6,1.7c0,5.6-4.4,12.7-13.2,21.4c-8.8,8.7-16.1,13-21.8,13
	c-6,0-9-4.2-9-12.5c0-4.4,1.7-9.6,5-15.4l8.4-14.5c1-2.2,4.2-9.7,9.7-22.4h19.7c-10.1,17.7-17.5,33.6-22.4,47.7l1.9,1.3
	C632.3,553.8,636.3,550.4,639.5,545.3z"/>
<path class="dsn_path_col" fill="rgb(0, 0, 0)" d="M627.4,460.6c6.7-4.7,14.1-9.2,22-13.3c-7.8,7.1-15.6,12.4-23.5,15.9L627.4,460.6z"/>
<path class="dsn_path_col" fill="rgb(0, 0, 0)" d="M650.1,446.7c-0.2,0.2-0.5,0.4-0.7,0.6c-8,4.1-15.3,8.5-22,13.3l-1.4,2.7l7.1-13.4c9.4-7.2,19.4-13.7,30-19.6
	C662.2,434.1,657.9,439.6,650.1,446.7z"/>
<path class="dsn_path_col" fill="rgb(0, 0, 0)" d="M642.8,308.3c0.4,0.7,0.1,1.6-0.6,2c-6.7,3.7-10.8,10.7-10.8,18.3c0,2.8,0.5,5.6,1.6,8.1c0.3,0.8,0,1.7-0.8,1.9
	c-0.2,0.1-0.4,0.1-0.5,0.1c-0.6,0-1.1-0.4-1.4-0.9c-1.2-3-1.9-6.1-1.9-9.3c0-8.7,4.7-16.7,12.3-20.9
	C641.5,307.3,642.4,307.6,642.8,308.3z"/>
<path class="dsn_path_col" fill="rgb(0, 0, 0)" d="M680.2,328.7c0-15.4-12.5-28-28-28c-15.4,0-28,12.6-28,28c0,15.4,12.5,27.9,28,27.9C667.7,356.7,680.2,344.1,680.2,328.7z
	 M652.2,297c17.5,0,31.7,14.2,31.7,31.7c0,17.4-14.2,31.6-31.7,31.6s-31.7-14.2-31.7-31.6C620.6,311.2,634.8,297,652.2,297z"/>
<path class="dsn_path_col" fill="rgb(0, 0, 0)" d="M772.3,641.4c0,2.8,1.8,4.2,4.5,4.2c3.7,0,6.9-3.1,6.9-6.8c0-2.7-1.9-4.3-4.7-4.3C775.3,634.4,772.3,637.8,772.3,641.4z
	 M765.4,642.7c0-7.8,6.4-13.8,12.9-13.8c4,0,5.9,1.9,7.1,4.1l1-3.6h6.6l-5,18.9c-1.3,4.7-2.2,6.6-4.1,8.4c-2.2,2.2-5.1,3.3-9.4,3.3
	c-4.8,0-9.3-1.2-12.4-3.3l3.5-4.6c2.5,1.6,5.5,2.6,8.5,2.6c2.2,0,3.8-0.6,5.1-1.9c1-1,1.6-2.4,2.2-4.2l0.2-0.8
	c-2.5,2.2-4.5,3.1-7.4,3.1C769.6,650.9,765.4,648,765.4,642.7z"/>
<path class="dsn_path_col" fill="rgb(0, 0, 0)" d="M605,207.6c0.1-0.6,0.6-1,1.2-0.8c0.6,0.1,1,0.6,0.8,1.2c-0.8,4.9-3.7,9.1-8,11.5c-0.1,0.1-0.3,0.1-0.5,0.1
	c-0.4,0-0.7-0.2-0.9-0.5c-0.3-0.5-0.1-1.1,0.4-1.4C601.8,215.6,604.3,211.9,605,207.6z"/>
<path class="dsn_path_col" fill="rgb(0, 0, 0)" d="M591.3,130.6c1.2,5,0.1,10.3-3.1,14.4c-0.2,0.3-0.5,0.4-0.8,0.4c-0.3,0-0.5-0.1-0.7-0.2c-0.5-0.4-0.6-1-0.2-1.5
	c2.8-3.6,3.8-8.2,2.7-12.6c-0.1-0.6,0.2-1.2,0.8-1.3C590.6,129.7,591.1,130,591.3,130.6z"/>
<path class="dsn_path_col" fill="rgb(0, 0, 0)" d="M754.9,628.9c4.2,0,6.9,2.6,6.9,6.8c0,1.3-0.4,3-0.8,4.5l-3.4,12.6H751l3.4-12.9c0.2-0.7,0.3-1.5,0.3-2.1
	c0-1.9-1.2-2.9-3.3-2.9c-2.6,0-4.3,1.9-5.1,4.7l-3.5,13.2h-6.7l6.3-23.5h6.7l-0.7,2.4C750.2,630.3,752.3,628.9,754.9,628.9z"/>
<polygon class="dsn_path_col" fill="rgb(0, 0, 0)" points="738.8,620.8 737.1,626.7 730.1,626.7 731.7,620.8 "/>
<path class="dsn_path_col" fill="rgb(0, 0, 0)" d="M617.4,504.1c1.8,2.1,2.7,4.3,2.7,6.5c0,3.6-1.3,7.3-3.9,11c-2.8,4.2-5.9,6.3-9.3,6.3c-0.6,0-1.7-0.6-3.4-1.9
	c-0.7-1.5-1.1-2.6-1.1-3.2c0-2.8,1.4-5.5,4.1-8.1c2.7-2.5,5.5-3.5,8.2-3.1v-1.7c0-1.7-1.9-2.6-5.6-2.6H608c-1.8,0-6,3-12.8,8.8
	c-6.8,5.9-10.9,10-12.4,12.2c-3.7,5.6-7.6,12.6-11.5,21c-3.1,7.3-6.3,14.7-9.5,22l-18.6-0.4l4.5-9.5c0.9-1,1.9-2,2.9-3.1
	c4.5-5.1,7.1-9.1,7.7-11.9l-0.4-0.2c-2,1.7-3.8,3.2-5.1,4.4l8.7-18.6c1-1.9,2.5-4.6,4.5-8.3c2-3.7,3-6.3,3-7.9c0-2-0.6-3-1.7-3
	c-0.5,0-2.4,1.8-5.7,5.4c-3.3,3.6-5.4,5.4-6.2,5.4c-0.1-0.2-0.4-0.3-0.7-0.4l-0.2-0.6c0.1-2.2,3.6-7,10.5-14.4
	c6.9-7.4,11.4-11.1,13.5-11.1c5.6,0,8.4,4.8,8.4,14.3c0,1.1,0.3,1.7,1,1.7c12.7-8.3,20.6-12.5,23.7-12.5
	C613.6,500.9,615.6,502,617.4,504.1z"/>
<path class="dsn_path_col" fill="rgb(0, 0, 0)" d="M576.7,203c-0.3,1.9-0.3,3.8,0.2,5.7c0.1,0.5-0.2,1.1-0.7,1.2c-0.1,0-0.2,0-0.3,0c-0.4,0-0.9-0.3-1-0.8
	c-0.5-2.2-0.6-4.3-0.2-6.5c0.9-5.9,5-10.8,10.6-12.8c0.5-0.2,1.1,0.1,1.3,0.6c0.2,0.5-0.1,1.1-0.6,1.3
	C581.1,193.6,577.6,197.9,576.7,203z"/>
<polygon class="dsn_path_col" fill="rgb(0, 0, 0)" points="736.2,629.3 729.9,652.8 723.3,652.8 729.6,629.3 "/>
<path class="dsn_path_col" fill="rgb(0, 0, 0)" d="M612.3,208.9c-1.7,10.6-10.8,18.3-21.5,18.3c-1.2,0-2.3-0.1-3.5-0.3c-11.8-1.9-19.9-13.1-18-24.9
	c1.7-10.6,10.7-18.3,21.5-18.3c1.1,0,2.3,0.1,3.5,0.3C606.2,185.8,614.2,197,612.3,208.9z M590.9,224.6c9.5,0,17.4-6.8,18.9-16.1
	c1.7-10.4-5.4-20.3-15.9-22c-1-0.2-2.1-0.3-3.1-0.3c-9.5,0-17.4,6.8-18.9,16.2c-1.7,10.4,5.4,20.3,15.9,22
	C588.8,224.5,589.9,224.6,590.9,224.6z"/>
<path class="dsn_path_col" fill="rgb(0, 0, 0)" d="M550.5,558.5c-1,1.1-2,2.2-2.9,3.1l5.1-10.9c1.4-1.2,3.1-2.6,5.1-4.4l0.4,0.2C557.6,549.4,555.1,553.4,550.5,558.5z"/>
<path class="dsn_path_col" fill="rgb(0, 0, 0)" d="M549.9,446.7l-2.2,4.7c-3.9-2-7.2-3.5-9.9-4.7c0.7-0.1,1.2-0.2,1.8-0.2C540.1,446.5,543.5,446.6,549.9,446.7z"/>
<path class="dsn_path_col" fill="rgb(0, 0, 0)" d="M630.3,454.8c-9.3,5.5-18.7,8.2-27.9,8.2c-4.2,0-7.5-0.2-10-0.7c-1.7-0.3-5.9-1.6-15.5-7.3c-23.6-13.8-36.3-19.5-43.8-21.7
	c2.3-0.3,4.7-0.5,7-0.5l1.8-0.1c6.1,0.6,12.9,2.7,20.4,6.5c1.1,0.5,5.1,2.8,20.6,12.2c8.4,5.1,14.5,7.5,19.3,7.5h3.5
	C614.5,458.9,622.7,457.5,630.3,454.8z"/>
<path class="dsn_path_col" fill="rgb(0, 0, 0)" d="M559.9,138.1c0.5,2,1.3,3.8,2.5,5.4c0.3,0.5,0.3,1.1-0.2,1.5c-0.2,0.1-0.4,0.2-0.7,0.2c-0.3,0-0.7-0.2-0.8-0.4
	c-1.4-1.9-2.3-3.9-2.9-6.2c-1.5-6.1,0.5-12.5,5.2-16.7c0.4-0.4,1.1-0.4,1.5,0.1c0.4,0.4,0.4,1.1-0.1,1.5
	C560.4,127.1,558.7,132.7,559.9,138.1z"/>
<path class="dsn_path_col" fill="rgb(0, 0, 0)" d="M579.3,154.2c10.8-2.6,17.5-13.5,14.9-24.3c-2.2-9.1-10.3-15.5-19.6-15.5c-1.6,0-3.1,0.2-4.7,0.6
	c-10.8,2.6-17.5,13.5-14.9,24.3c2.2,9.1,10.2,15.5,19.6,15.5C576.2,154.8,577.7,154.6,579.3,154.2z M596.8,129.3
	c2.9,12.3-4.6,24.6-16.9,27.5c-1.7,0.4-3.5,0.6-5.3,0.6c-10.6,0-19.7-7.2-22.2-17.5c-2.9-12.3,4.6-24.6,16.9-27.6
	c1.7-0.4,3.5-0.6,5.3-0.6C585.2,111.8,594.3,119,596.8,129.3z"/>
<path class="dsn_path_col" fill="rgb(0, 0, 0)" d="M721.3,635.7c0,1.3-0.4,3-0.8,4.5l-3.4,12.6h-6.6l3.5-12.9c0.1-0.7,0.3-1.5,0.3-2.1c0-1.9-1.2-2.9-3.2-2.9
	c-2.6,0-4.3,1.9-5.1,4.7l-3.6,13.2h-6.6l8.5-32h6.7l-2.9,11c1.7-1.5,3.8-2.9,6.4-2.9C718.6,628.9,721.3,631.5,721.3,635.7z"/>
<path class="dsn_path_col" fill="rgb(0, 0, 0)" d="M539.4,568.4c-4,2.1-9.1,3.1-15.5,3.1c-8.4,0-12.7-3.8-12.7-11.5c0-2.5,3.4-9.8,10.1-22.1c6.7-12.2,10.1-21.9,10.1-28.8
	v-2.2l-0.2,0.2c-0.3-2.2-1.5-3.4-3.7-3.4c-0.3,0-0.5,0-0.8,0.1l-0.3-3.8c1.3,0,3.4-0.3,6.2-1c2.8-0.7,4.9-1,6.3-1
	c3.2,0,5.7,1.2,7.5,3.6c1.8,2.5,2.7,5.3,2.7,8.7c0,5.8-3.2,14.9-9.7,27.2c-6.5,12.3-9.7,18.8-9.7,19.6c0,0.7,0.7,1.6,2.2,2.6
	c6.5,0,12.4-2.2,17.9-6.5c0.7-0.5,1.7-1.3,2.9-2.3l-5.1,10.9C544.4,565,541.7,567.2,539.4,568.4z"/>
<path class="dsn_path_col" fill="rgb(0, 0, 0)" d="M526.7,503.8c-1.4,0.1-2.8,0.7-4.2,1.6c-5.7,7.7-11.5,17.2-17.5,28.5c-1.4,3-6.3,12.9-14.7,29.8c-4.5,2.2-11.6,3.4-21.4,3.4
	c4-7.1,8.9-16.2,14.7-27.3c4.8-9.1,10.1-19.6,16.1-31.4c6.7-13.4,12.7-25,17.8-34.9c2.6-3.6,4.5-7.4,6-11.2v0
	c2.5-4.6,4.6-8.6,6.6-12.1c2.9-1.8,5.6-3,7.9-3.4c2.7,1.2,6,2.7,9.9,4.7l-10.5,23.1c-6.8,15.1-10.9,23.2-12.3,24.4l-0.4,0.8l0.2,0.4
	h1.7L526.7,503.8z"/>
<path class="dsn_path_col" fill="rgb(0, 0, 0)" d="M550.1,309c0.6,0.1,0.9,0.6,0.9,1.2c-0.8,4.9-3.8,9.2-8.1,11.6c-0.2,0.1-0.4,0.1-0.5,0.1c-0.4,0-0.7-0.2-0.9-0.5
	c-0.3-0.5-0.1-1.1,0.4-1.4c3.8-2.2,6.4-5.9,7-10.2C549.1,309.3,549.6,308.9,550.1,309z"/>
<path class="dsn_path_col" fill="rgb(0, 0, 0)" d="M517.4,473.5c2.1-4.1,4.1-7.8,6-11.2C521.9,466.1,519.9,469.8,517.4,473.5z"/>
<path class="dsn_path_col" fill="rgb(0, 0, 0)" d="M686.7,638.4c3.1,1.4,6.4,3,6.4,6.7c0,5.1-4,8.3-9.6,8.3c-3.6,0-7.8-1.4-10.6-4.2l3.9-4c2.4,2.5,5.1,3.1,7.2,3.1
	c1.7,0,2.8-0.7,2.8-2c0-0.9-1.1-1.5-2.7-2.2c-3.7-1.6-6.8-3.1-6.8-6.9c0-4.7,3.6-8.3,9.4-8.3c3.8,0,7.3,1.7,9.2,3.4l-3.6,4.2
	c-2.3-1.8-4.2-2.5-6.1-2.5c-1.6,0-2.6,0.8-2.6,2C683.6,636.8,684.7,637.5,686.7,638.4z"/>
<path class="dsn_path_col" fill="rgb(0, 0, 0)" d="M529.2,292c0.5-0.2,1.1,0.1,1.3,0.6c0.2,0.6-0.1,1.1-0.6,1.3c-5,1.8-8.6,6.1-9.4,11.3c-0.3,1.9-0.3,3.9,0.2,5.7
	c0.1,0.6-0.2,1.1-0.8,1.2c-0.1,0-0.1,0-0.3,0c-0.4,0-0.9-0.3-1-0.8c-0.5-2.1-0.6-4.4-0.3-6.5C519.4,298.9,523.6,294,529.2,292z"/>
<path class="dsn_path_col" fill="rgb(0, 0, 0)" d="M553.8,310.7c1.7-10.6-5.5-20.5-16-22.3c-1.1-0.1-2.1-0.2-3.1-0.2c-9.5,0-17.6,6.8-19.1,16.2c-1.7,10.6,5.4,20.5,16,22.3
	c1,0.1,2.1,0.2,3.1,0.2C544.3,326.9,552.3,320.1,553.8,310.7z M534.7,285.6c1.2,0,2.4,0.1,3.5,0.3c12,1.9,20.1,13.2,18.1,25.2
	c-1.7,10.7-10.8,18.4-21.6,18.4c-1.2,0-2.4-0.1-3.6-0.3c-11.9-1.9-20.1-13.2-18.1-25.2C514.8,293.4,523.9,285.6,534.7,285.6z"/>
<path class="dsn_path_col" fill="rgb(0, 0, 0)" d="M637,684.7l-8.3,7.3h6.4L637,684.7z M649.2,674.5l-4.7,17.5h3.5l-1.9,6.9h-3.5l-1.3,5.1h-9.5l1.4-5.1H620l-1.1-7.1
	l19.6-17.3H649.2z"/>
<path class="dsn_path_col" fill="rgb(0, 0, 0)" d="M655.3,643.4c0.2,2.8,1.9,4.6,5.4,4.6c1.8,0,3.3-0.5,5.2-1.9l3,4.1c-2.1,1.8-5,3.1-9,3.1c-6.7,0-10.8-3.9-10.8-10.4
	c0-6.8,5.5-14,13.9-14c6.1,0,9.6,4,9.6,9.2c0,1.6-0.4,3.5-1.2,5.3H655.3z M662.5,634.2c-3,0-5.5,2-6.6,5h10.2
	c0.1-0.4,0.2-0.9,0.2-1.5C666.4,635.8,665.2,634.2,662.5,634.2z"/>
<polygon class="dsn_path_col" fill="rgb(0, 0, 0)" points="604.9,676.9 614.3,674.5 621.6,674.5 613.7,703.9 604.1,703.9 609.6,683.3 605.2,684.5 "/>
<polygon class="dsn_path_col" fill="rgb(0, 0, 0)" points="602.2,678.5 599.6,688.1 589.9,688.1 592.5,678.5 "/>
<path class="dsn_path_col" fill="rgb(0, 0, 0)" d="M476.5,440.3c-5,3.9-10.1,8.8-15.3,14.7c-10.9,12.2-20.5,25.9-28.3,40.7c-1.2,2.2-2.3,4.3-3.3,6.4c-0.2-1.2-0.3-2.3-0.5-3.5
	c-0.7-4.2-1.4-7.8-2.1-11.1c9.5-13.9,20.4-25.9,32.5-35.7C465.2,447.2,471,443.3,476.5,440.3z"/>
<polygon class="dsn_path_col" fill="rgb(0, 0, 0)" points="599.3,694.3 596.7,703.9 587,703.9 589.6,694.3 "/>
<path class="dsn_path_col" fill="rgb(0, 0, 0)" d="M640.7,634.1c2.3-3.5,5.1-5.5,8.9-5.2l-1.9,7h-0.4c-4.4,0-7.9,2.5-9.5,8.6l-2.2,8.3H629l6.3-23.5h6.7L640.7,634.1z"/>
<path class="dsn_path_col" fill="rgb(0, 0, 0)" d="M506.2,468.3c5-7.5,7.5-14.5,7.5-21.2c0-0.6-0.1-1.7-0.4-3.2c-0.3-1.5-0.3-2.7-0.2-3.5c-13,5.5-22.4,15.7-28.3,30.7
	c-0.9,2.3-1.3,3.9-1.3,5c0,3,1.7,4.5,4.9,4.5C494.8,480.6,500.7,476.5,506.2,468.3z M602.4,463c9.2,0,18.6-2.8,27.9-8.2
	c-7.6,2.7-15.8,4.1-24.5,4.1h-3.5c-4.7,0-10.9-2.4-19.3-7.5c-15.5-9.4-19.6-11.7-20.6-12.2c-7.4-3.8-14.3-6-20.4-6.5l-1.8,0.1
	c-2.4,0-4.8,0.2-7,0.5c7.4,2.2,20.2,7.9,43.8,21.7c9.6,5.7,13.8,7.1,15.5,7.3C594.9,462.8,598.2,463,602.4,463z M461.2,455
	c5.3-5.9,10.3-10.8,15.3-14.7c-5.6,3-11.3,6.9-17.1,11.6c-12.1,9.8-23,21.7-32.5,35.7c-0.6-2.4-1.2-4.6-1.8-6.9
	c9.1-12.8,19.4-23.8,30.8-33c16.9-13.7,32.7-20.5,47.4-20.5c1.7,0,4.2,0.6,7.3,1.7c3.1,1.1,5.3,2.2,6.7,3.4
	c7.2-3.3,14.8-4.9,22.9-4.9v-0.2c7.5,0.3,15.7,2.6,24.6,7.2c2,1,9,5.1,21,12.4c7.3,4.4,12.8,6.7,16.4,6.7h3.5
	c11.3,0,21.5-2.4,30.5-7.3c4.9-2.6,13.4-8.8,25.5-18.5h0.7v0.2l0.6,1.1c0,0.4-0.1,0.7-0.1,1.1c-10.6,5.9-20.6,12.5-30,19.6
	l-7.1,13.4h0c-7.8,3.5-15.6,5.3-23.5,5.3c-4.5,0-8.1-0.3-11-0.7c-3.6-0.6-9.4-3.3-17.3-8c-9.2-5.4-17.2-9.9-24.1-13.3
	c-11.9-6-20.2-9.1-24.8-9.1c-3.7,0-5.6,0.8-5.6,2.4c0,0.7,0.1,1.9,0.4,3.6c0.3,1.6,0.5,2.8,0.5,3.5c0,9.2-3.3,18-9.9,26.5
	c-7,8.9-15,13.4-24,13.4l-7.3-2.1l-2.8-6.5c0-7.6,3.6-15.8,10.8-24.8c7.2-9,14.5-14.8,21.9-17.5c-2.5-1-4.2-1.5-5-1.5
	c-11.5,0-24.5,8.1-39,24.2c-10.7,11.9-19.9,25.2-27.6,39.7c-2.7,5.1-5,9.9-6.9,14.4c-0.3-3.5-0.7-7.1-1.2-10.6c1-2,2.1-4.2,3.3-6.4
	C440.7,480.9,450.3,467.2,461.2,455z"/>
<path class="dsn_path_col" fill="rgb(0, 0, 0)" d="M458.1,510.1c-1.2,1.8-3,5.3-6,15.2c-2.6,1.3-5.3,3-8.1,5l-0.4,0.3c0.9-6,3.1-11.3,6.5-16.3c4.1-6.1,9-9.6,15.1-10.7
	c-1.6,1.2-3.4,2.8-5.4,4.8l-0.9,0.4L458.1,510.1z"/>
<path class="dsn_path_col" fill="rgb(0, 0, 0)" d="M440.4,567.2c-1.1,0.7-2.2,1.4-3.4,2.2c0,0,0,0-0.1,0C438.1,568.7,439.3,568,440.4,567.2z"/>
<path class="dsn_path_col" fill="rgb(0, 0, 0)" d="M440.4,567.2c-1.1,0.7-2.3,1.4-3.4,2.2h0c-2.4,0.5-4.9,0.7-7.4,0.7c-0.7,0-1.4,0-2-0.1c0-0.3,0.1-0.6,0.2-1
	c3.1-1.7,6-3.3,9-4.9c0.2,0.3,0.4,0.6,0.6,0.8c0.3,0.3,0.6,0.7,0.9,0.9C438.8,566.4,439.6,566.8,440.4,567.2z"/>
<path class="dsn_path_col" fill="rgb(0, 0, 0)" d="M437.2,564.9c0.3,0.3,0.6,0.6,0.9,0.9C437.8,565.6,437.5,565.2,437.2,564.9z"/>
<path class="dsn_path_col" fill="rgb(0, 0, 0)" d="M438,563.6c-0.5,0.1-1,0.2-1.5,0.3c-0.1-0.1-0.2-0.3-0.3-0.4C436.8,563.6,437.4,563.6,438,563.6z"/>
<path class="dsn_path_col" fill="rgb(0, 0, 0)" d="M628.5,626.1c-1.8,0-2.8,0.8-3.3,2.5l-0.2,0.7h5.7l-1.5,5.7h-5.5l-4.8,17.8h-6.7L617,635h-2.8l1.5-5.7h2.7l0.3-1.3
	c1.3-5.2,4.6-7.5,9.5-7.5c1.9,0,3.5,0.3,4.5,0.7l-1.4,5.5C630.5,626.3,629.4,626.1,628.5,626.1z"/>
<path class="dsn_path_col" fill="rgb(0, 0, 0)" d="M436.2,563.5c0.1,0.1,0.2,0.3,0.3,0.4c-2.3,0.4-4.6,0.7-6.9,0.7c-0.3,0-0.6,0-0.9,0c0.2-1,0.3-2.1,0.5-3.1
	C431.5,562.7,433.9,563.3,436.2,563.5z"/>
<path class="dsn_path_col" fill="rgb(0, 0, 0)" d="M459.7,508.4c1.9-2,3.7-3.6,5.4-4.8c-6,1.1-11,4.6-15.1,10.7c-3.4,5-5.5,10.3-6.5,16.3l0.4-0.3c2.8-2,5.5-3.6,8.1-5
	c3-9.9,4.8-13.4,6-15.2l0.8-1.2L459.7,508.4z M463,512.9l-0.4,0.2c-1.6,2.5-3.6,7.8-6,16c-3,1.4-6.2,3.2-9.5,5.6l-8.9,6.4h-0.4
	c-0.2-1.5-0.4-2.4-0.4-2.8c0-10.2,2.7-19.2,8-27c5.9-8.9,13.8-13.4,23.5-13.4c9.7,0,14.5,4.5,14.5,13.6c0,13.9-5.5,27.1-16.6,39.5
	c-9.2,10.4-19.1,16.6-29.9,18.5c1.1-0.7,2.3-1.5,3.4-2.2c-0.8-0.4-1.6-0.9-2.2-1.4c-0.3-0.3-0.7-0.6-0.9-0.9
	c-0.2-0.2-0.4-0.5-0.6-0.8c0-0.1-0.1-0.1-0.2-0.2c0.5-0.1,1-0.2,1.5-0.3c-0.6,0-1.2,0-1.8-0.1c-0.9-1.4-1.4-2.9-1.5-4.7
	c-1.8,0.9-3.7,1.8-5.6,2.6c0.3-2,0.6-4,0.8-5.9c2.2,1.8,5.1,2.6,8.7,2.6c9.6,0,18.6-5.2,27.2-15.6c8.1-9.9,12.1-19.8,12.1-29.6
	c0-1.5-0.5-3-1.7-4.5c-1.1-1.5-2.3-2.2-3.7-2.2C470.4,506.2,467.3,508.4,463,512.9z"/>
<path class="dsn_path_col" fill="rgb(0, 0, 0)" d="M434.7,558.8c0,1.8,0.6,3.3,1.5,4.7c-2.2-0.2-4.7-0.8-7.1-2v0C431,560.6,432.9,559.7,434.7,558.8z"/>
<path class="dsn_path_col" fill="rgb(0, 0, 0)" d="M429.5,564.6c2.3,0,4.7-0.2,6.9-0.7c0.1,0.1,0.1,0.1,0.2,0.2c-2.9,1.6-5.9,3.3-9,4.9c0.2-1,0.4-1.9,0.6-2.9
	c0.1-0.5,0.2-1.1,0.3-1.6C428.9,564.6,429.2,564.6,429.5,564.6z"/>
<path class="dsn_path_col" fill="rgb(0, 0, 0)" d="M577.7,684.7l-8.3,7.3h6.3L577.7,684.7z M588.8,692l-1.9,6.9h-3.4l-1.4,5.1h-9.5l1.3-5.1h-13.2l-1.2-7.1l19.6-17.3h10.9
	l-4.7,17.5H588.8z"/>
<path class="dsn_path_col" fill="rgb(0, 0, 0)" d="M405.3,543.8c0-14.8,5.9-31.6,17.6-50.2c1.3-2.1,2.6-4.1,4-6.1c0.8,3.2,1.5,6.8,2.1,11.1c0.2,1.2,0.3,2.3,0.5,3.5
	c-7.3,14.9-11,27-11,36.7c0,13.6,4.9,19.9,10.5,22.7v0c-2,0.9-4.1,1.8-6.2,2.7C407.5,562.1,405.3,552.4,405.3,543.8z"/>
<path class="dsn_path_col" fill="rgb(0, 0, 0)" d="M429.1,561.5c-0.2,1-0.3,2.1-0.5,3.1c-2,0-3.9-0.2-5.7-0.4C425,563.3,427.1,562.4,429.1,561.5z"/>
<path class="dsn_path_col" fill="rgb(0, 0, 0)" d="M427.6,569c-0.1,0.3-0.1,0.6-0.2,1c-0.6,0-1.1,0-1.7,0C426.4,569.6,427,569.3,427.6,569z"/>
<path class="dsn_path_col" fill="rgb(0, 0, 0)" d="M427.5,570c-0.4,1.8-0.7,3.7-0.9,5.5c-3.4-0.1-6.4-0.5-9.3-1.2c2.9-1.4,5.7-2.8,8.5-4.3C426.3,570,426.9,570.1,427.5,570z"
	/>
<path class="dsn_path_col" fill="rgb(0, 0, 0)" d="M426.8,575.5c-0.1,0-0.1,0.1-0.2,0.1C426.7,575.5,426.7,575.5,426.8,575.5L426.8,575.5z"/>
<path class="dsn_path_col" fill="rgb(0, 0, 0)" d="M426.7,575.5c0,0-0.1,0.1-0.1,0.1c0,0,0-0.1,0-0.1C426.6,575.5,426.7,575.5,426.7,575.5z"/>
<path class="dsn_path_col" fill="rgb(0, 0, 0)" d="M426.6,575.5C426.6,575.5,426.6,575.5,426.6,575.5c-0.4,0.3-0.8,0.6-1.2,0.8c-18.7,10.5-40.7,20.6-64.8,29.8
	c0.7-2.9,1.1-5.9,1.5-9c0,0,0,0,0,0c19.8-6.9,38.4-14.6,55.3-22.8C420.2,575,423.2,575.4,426.6,575.5z"/>
<path class="dsn_path_col" fill="rgb(0, 0, 0)" d="M425.8,570c-4.4-0.3-8.2-1-11.5-2.3c3-1.1,5.8-2.3,8.6-3.5c1.7,0.3,3.6,0.4,5.7,0.4c-0.1,0.5-0.2,1.1-0.3,1.6
	c-0.2,0.9-0.4,1.9-0.6,2.9C427,569.3,426.4,569.6,425.8,570z"/>
<path class="dsn_path_col" fill="rgb(0, 0, 0)" d="M450.8,257.8c-0.1,5.3-2.6,10.3-6.9,13.5c-0.2,0.1-0.4,0.2-0.7,0.2c-0.3,0-0.6-0.1-0.9-0.4c-0.4-0.5-0.3-1.2,0.2-1.6
	c3.7-2.9,5.9-7.2,6-11.8c0-0.6,0.4-1.1,1.1-1.1C450.4,256.7,450.8,257.2,450.8,257.8z"/>
<path class="dsn_path_col" fill="rgb(0, 0, 0)" d="M424.1,538.8c0,8.2,1.9,13.8,5.9,16.7c-0.3,2-0.5,4-0.8,5.9c-5.6-2.8-10.5-9.1-10.5-22.7c0-9.7,3.6-21.8,11-36.7
	c0.5,3.5,0.8,7.1,1.2,10.6C426.3,523,424.1,531.7,424.1,538.8z"/>
<path class="dsn_path_col" fill="rgb(0, 0, 0)" d="M407.3,570.2c2.9,1.8,6.2,3.1,10,4c-16.9,8.2-35.4,15.9-55.3,22.8c0.5-4.3,0.7-8.9,0.6-13.6
	C378.6,579.6,393.6,575.2,407.3,570.2z"/>
<path class="dsn_path_col" fill="rgb(0, 0, 0)" d="M417.3,574.3c-3.8-0.9-7.1-2.2-10-4c2.4-0.8,4.7-1.7,6.9-2.6c3.3,1.3,7.1,2,11.5,2.3C423,571.4,420.2,572.8,417.3,574.3z"/>
<path class="dsn_path_col" fill="rgb(0, 0, 0)" d="M599.8,634.2c-3,0-5.5,2-6.6,5h10.2c0.2-0.4,0.2-0.9,0.2-1.5C603.6,635.8,602.5,634.2,599.8,634.2z M586.4,642.9
	c0-6.8,5.5-14,13.9-14c6.1,0,9.6,4,9.6,9.2c0,1.6-0.4,3.5-1.2,5.3h-16.1c0.2,2.8,1.9,4.6,5.4,4.6c1.8,0,3.3-0.5,5.2-1.9l3.1,4.1
	c-2.1,1.8-5,3.1-9,3.1C590.4,653.3,586.4,649.4,586.4,642.9z"/>
<path class="dsn_path_col" fill="rgb(0, 0, 0)" d="M439.8,187.2c-1,6.9-5.1,12.9-11.1,16.4c-0.3,0.1-0.5,0.2-0.7,0.2c-0.5,0-1-0.3-1.2-0.7c-0.4-0.7-0.2-1.6,0.5-2
	c5.3-3.1,8.8-8.3,9.7-14.4c0.1-0.8,0.8-1.3,1.6-1.2C439.4,185.7,439.9,186.4,439.8,187.2z"/>
<path class="dsn_path_col" fill="rgb(0, 0, 0)" d="M428,396.7c2.5,1.5,4.2,4.1,4.6,6.9c0.1,0.3-0.2,0.6-0.5,0.7c0,0,0,0-0.1,0c-0.3,0-0.6-0.2-0.6-0.6c-0.4-2.5-1.8-4.8-4-6.1
	c-0.3-0.2-0.4-0.5-0.2-0.8C427.3,396.6,427.7,396.5,428,396.7z"/>
<path class="dsn_path_col" fill="rgb(0, 0, 0)" d="M399.8,543.8c0-15.9,6.1-33.6,18.5-53.1c2.2-3.4,4.4-6.8,6.8-10c0.7,2.2,1.3,4.5,1.8,6.9c-1.4,2-2.7,4-4,6.1
	c-11.7,18.5-17.6,35.4-17.6,50.2c0,8.6,2.2,18.3,17.6,20.4c-2.8,1.2-5.7,2.4-8.6,3.5C404.7,564,399.8,556,399.8,543.8z"/>
<path class="dsn_path_col" fill="rgb(0, 0, 0)" d="M416.8,263.7c-0.9-2.2-1.3-4.5-1.2-6.9c0.2-6.4,3.8-12.2,9.5-15.2c0.5-0.2,1.2-0.1,1.5,0.5c0.3,0.6,0.1,1.2-0.5,1.5
	c-5,2.6-8.2,7.7-8.3,13.3c-0.1,2,0.3,4.1,1.1,6c0.2,0.5-0.1,1.2-0.6,1.4c-0.1,0-0.3,0.1-0.4,0.1C417.4,264.4,417,264.2,416.8,263.7z
	"/>
<path class="dsn_path_col" fill="rgb(0, 0, 0)" d="M566.3,652.8l6.3-23.5h6.6l-1.3,4.7c2.4-3.5,5.1-5.5,9-5.2l-1.9,7h-0.3c-4.5,0-7.8,2.5-9.5,8.6l-2.3,8.3H566.3z"/>
<polygon class="dsn_path_col" fill="rgb(0, 0, 0)" points="528.7,689.4 524.7,703.9 515,703.9 522.9,674.7 532,674.7 538.7,688.7 542.4,674.7 552.1,674.7 544.3,703.9 
	535.6,703.9 "/>
<path class="dsn_path_col" fill="rgb(0, 0, 0)" d="M418,413.3c-3-1.8-4.8-5.2-4.7-8.7c0-0.3,0.3-0.6,0.6-0.6c0.3,0,0.6,0.3,0.6,0.6v0.1c-0.1,3.1,1.5,6,4.1,7.6
	c1,0.6,2,1,3.2,1.1c0.3,0,0.5,0.3,0.5,0.7c0,0.3-0.3,0.5-0.6,0.5c0,0-0.1,0-0.1,0C420.3,414.4,419.1,413.9,418,413.3z"/>
<path class="dsn_path_col" fill="rgb(0, 0, 0)" d="M412.5,256.8c-0.3,11.4,8.7,20.9,20.1,21.2l0.5,0c11.3,0,20.4-8.8,20.7-20.2c0.3-11.4-8.7-20.9-20.1-21.2l-0.6,0
	C421.9,236.7,412.8,245.6,412.5,256.8z M409.8,256.8c0.3-12.8,10.6-22.8,23.4-22.8l0.6,0c12.9,0.3,23.2,11.1,22.8,24
	c-0.4,12.8-10.6,22.8-23.4,22.8l-0.6,0C419.7,280.4,409.5,269.7,409.8,256.8z"/>
<path class="dsn_path_col" fill="rgb(0, 0, 0)" d="M416.1,435.5c-0.8,2.3-2.6,4-4.9,4.8c-0.1,0-0.1,0-0.2,0c-0.2,0-0.4-0.1-0.4-0.4c-0.1-0.3,0-0.5,0.3-0.6
	c2-0.7,3.5-2.2,4.3-4.2c0.1-0.3,0.4-0.4,0.6-0.3C416.1,435,416.2,435.3,416.1,435.5z"/>
<path class="dsn_path_col" fill="rgb(0, 0, 0)" d="M416.2,416.3c-3-1.8-5.1-4.7-6-8.1c-0.9-3.4-0.3-6.9,1.5-9.9c2.4-4,6.6-6.4,11.3-6.4c2.4,0,4.8,0.7,6.8,1.9
	c3,1.8,5.1,4.7,6,8.1c0.8,3.4,0.3,6.9-1.5,9.9c-2.4,4-6.6,6.4-11.3,6.4C420.6,418.1,418.2,417.5,416.2,416.3z M412.2,407.6
	c0.7,2.9,2.5,5.3,5,6.8c1.7,1.1,3.7,1.6,5.7,1.6c3.9,0,7.5-2,9.5-5.4c1.5-2.6,2-5.5,1.2-8.4c-0.7-2.9-2.5-5.3-5-6.8
	c-1.7-1.1-3.7-1.6-5.7-1.6c-3.9,0-7.5,2-9.5,5.4C412,401.8,411.5,404.8,412.2,407.6z"/>
<path class="dsn_path_col" fill="rgb(0, 0, 0)" d="M411.8,318.9c1,6-0.7,12.1-4.8,16.7c-0.3,0.3-0.6,0.4-0.9,0.4c-0.3,0-0.6-0.1-0.8-0.3c-0.5-0.5-0.6-1.2-0.1-1.8
	c3.5-4,5-9.3,4.2-14.6c-0.1-0.7,0.4-1.3,1-1.4C411,317.8,411.7,318.3,411.8,318.9z"/>
<g>
	<path class="dsn_path_col" fill="rgb(0, 0, 0)" d="M421.4,170c0.7-0.3,1.2-0.5,1.7-0.8c1-0.4,1.5-0.6,1.5-0.6s-0.3,0.5-0.9,1.4c-0.3,0.4-0.7,0.9-1.1,1.5
		c-0.2,0.3-0.4,0.6-0.7,1c-0.3,0.3-0.6,0.5-0.8,0.8c-0.3,0.3-0.5,0.6-0.8,0.9c-0.4-0.2-0.7-0.3-1.1-0.4c-0.5-0.2-0.9-0.4-1.4-0.6
		c0.5-0.6,1.1-1.2,1.7-1.7C420,170.6,420.7,170.3,421.4,170z"/>
	<path class="dsn_path_col" fill="rgb(0, 0, 0)" d="M432.6,184.2c0.4,0.8,0.6,1.2,0.6,1.2s-0.5-0.1-1.3-0.6c-0.4-0.2-0.9-0.4-1.4-0.7c-0.3-0.2-0.5-0.3-0.9-0.4
		c-0.3-0.2-0.4-0.5-0.7-0.7c-1.1-0.9-2.2-2-3.7-3c-0.7-0.5-1.4-1-2.2-1.5c-0.8-0.4-1.6-0.9-2.4-1.4c-0.7-0.5-1.5-0.7-2.2-1.1
		c0.3-0.3,0.6-0.7,0.8-1c0.3-0.4,0.7-0.7,1-1.1c0.5,0.2,1.1,0.5,1.6,0.8c0.8,0.5,1.7,1,2.5,1.5c0.8,0.5,1.6,1.1,2.3,1.6
		c1.5,1.1,2.7,2.3,3.9,3.2c0.6,0.4,0.9,1,1.2,1.5C432.2,183.3,432.4,183.8,432.6,184.2z"/>
	<path class="dsn_path_col" fill="rgb(0, 0, 0)" d="M416,175.2c0.5-0.6,0.9-1.2,1.5-1.7c0.1-0.1,0.2-0.3,0.4-0.4c0.5,0.2,0.9,0.4,1.4,0.6c0.3,0.2,0.7,0.3,1.1,0.4
		c-0.3,0.4-0.7,0.7-1,1.1c-0.3,0.3-0.6,0.6-0.8,1c-0.1,0-0.2-0.1-0.3-0.1C417.5,175.7,416.7,175.4,416,175.2z"/>
	<path class="dsn_path_col" fill="rgb(0, 0, 0)" d="M415.8,175.1c-1.6-0.6-3.2-1-4.5-1.2c-0.7-0.1-1.3-0.4-1.8-0.7c-0.5-0.3-1-0.5-1.4-0.7c-0.8-0.4-1.2-0.7-1.2-0.7
		s0.5-0.1,1.4-0.3c0.4-0.1,1-0.2,1.6-0.3c0.3,0,0.6-0.1,1-0.1c0.3-0.1,0.7,0.1,1,0.2c1.4,0.3,3.1,0.7,4.9,1.3
		c0.4,0.1,0.8,0.3,1.2,0.4c-0.1,0.1-0.3,0.3-0.4,0.4c-0.5,0.5-1,1.1-1.5,1.7C415.9,175.2,415.8,175.2,415.8,175.1z"/>
	<path class="dsn_path_col" fill="rgb(0, 0, 0)" d="M411.7,181.9c0.6-1,1.2-2,1.7-3c0.5-1.1,1.4-1.9,2-2.8c0.2-0.3,0.4-0.6,0.6-0.8c0.8,0.2,1.5,0.5,2.2,0.9
		c0.1,0,0.2,0.1,0.3,0.1c-0.4,0.4-0.7,0.9-1,1.4c-0.6,0.9-1.3,1.6-1.8,2.6c-0.6,1-1.1,1.9-1.7,2.9c-1,2-2,4-2.7,6
		c-0.8,2-1.4,3.9-1.9,5.5c-0.2,0.8-0.6,1.5-1,2.1c-0.4,0.6-0.7,1.2-1,1.6c-0.5,0.9-0.9,1.4-0.9,1.4s0-0.6,0-1.6c0-0.6,0-1.2,0-1.9
		c0-0.7,0-1.6,0.4-2.3c0.6-1.7,1.1-3.6,2-5.6C409.6,186.1,410.6,184,411.7,181.9z"/>
</g>
<g>
	<path class="dsn_path_col" fill="rgb(0, 0, 0)" d="M660.3,309.5c0.7-0.3,1.2-0.5,1.7-0.8c1-0.4,1.5-0.6,1.5-0.6s-0.3,0.5-0.9,1.4c-0.3,0.4-0.7,0.9-1.1,1.5
		c-0.2,0.3-0.4,0.6-0.7,1c-0.3,0.3-0.6,0.5-0.8,0.8c-0.3,0.3-0.5,0.6-0.8,0.9c-0.4-0.2-0.7-0.3-1.1-0.4c-0.5-0.2-0.9-0.4-1.4-0.6
		c0.5-0.6,1.1-1.2,1.7-1.7C658.8,310.1,659.6,309.8,660.3,309.5z"/>
	<path class="dsn_path_col" fill="rgb(0, 0, 0)" d="M671.5,323.7c0.4,0.8,0.6,1.2,0.6,1.2s-0.5-0.1-1.3-0.6c-0.4-0.2-0.9-0.4-1.4-0.7c-0.3-0.2-0.5-0.3-0.9-0.4
		c-0.3-0.2-0.4-0.5-0.7-0.7c-1.1-0.9-2.2-2-3.7-3c-0.7-0.5-1.4-1-2.2-1.5c-0.8-0.4-1.6-0.9-2.4-1.4c-0.7-0.5-1.5-0.7-2.2-1.1
		c0.3-0.3,0.6-0.7,0.8-1c0.3-0.4,0.7-0.7,1-1.1c0.5,0.2,1.1,0.5,1.6,0.8c0.8,0.5,1.7,1,2.5,1.5c0.8,0.5,1.6,1.1,2.3,1.6
		c1.5,1.1,2.7,2.3,3.9,3.2c0.6,0.4,0.9,1,1.2,1.5C671,322.8,671.3,323.3,671.5,323.7z"/>
	<path class="dsn_path_col" fill="rgb(0, 0, 0)" d="M654.8,314.7c0.5-0.6,0.9-1.2,1.5-1.7c0.1-0.1,0.2-0.3,0.4-0.4c0.5,0.2,0.9,0.4,1.4,0.6c0.3,0.2,0.7,0.3,1.1,0.4
		c-0.3,0.4-0.7,0.7-1,1.1c-0.3,0.3-0.6,0.6-0.8,1c-0.1,0-0.2-0.1-0.3-0.1C656.3,315.2,655.6,315,654.8,314.7z"/>
	<path class="dsn_path_col" fill="rgb(0, 0, 0)" d="M654.6,314.7c-1.6-0.6-3.2-1-4.5-1.2c-0.7-0.1-1.3-0.4-1.8-0.7c-0.5-0.3-1-0.5-1.4-0.7c-0.8-0.4-1.2-0.7-1.2-0.7
		s0.5-0.1,1.4-0.3c0.4-0.1,1-0.2,1.6-0.3c0.3,0,0.6-0.1,1-0.1c0.3-0.1,0.7,0.1,1,0.2c1.4,0.3,3.1,0.7,4.9,1.3
		c0.4,0.1,0.8,0.3,1.2,0.4c-0.1,0.1-0.3,0.3-0.4,0.4c-0.5,0.5-1,1.1-1.5,1.7C654.8,314.7,654.7,314.7,654.6,314.7z"/>
	<path class="dsn_path_col" fill="rgb(0, 0, 0)" d="M650.5,321.4c0.6-1,1.2-2,1.7-3c0.5-1.1,1.4-1.9,2-2.8c0.2-0.3,0.4-0.6,0.6-0.8c0.8,0.2,1.5,0.5,2.2,0.9
		c0.1,0,0.2,0.1,0.3,0.1c-0.4,0.4-0.7,0.9-1,1.4c-0.6,0.9-1.3,1.6-1.8,2.6c-0.6,1-1.1,1.9-1.7,2.9c-1,2-2,4-2.7,6
		c-0.8,2-1.4,3.9-1.9,5.5c-0.2,0.8-0.6,1.5-1,2.1c-0.4,0.6-0.7,1.2-1,1.6c-0.5,0.9-0.9,1.4-0.9,1.4s0-0.6,0-1.6c0-0.6,0-1.2,0-1.9
		c0-0.7,0-1.6,0.4-2.3c0.6-1.7,1.1-3.6,2-5.6C648.4,325.6,649.5,323.5,650.5,321.4z"/>
</g>
<g>
	<path class="dsn_path_col" fill="rgb(0, 0, 0)" d="M397.1,306.2c0.6-0.3,1.1-0.5,1.5-0.7c0.8-0.4,1.3-0.5,1.3-0.5s-0.3,0.4-0.8,1.2c-0.3,0.4-0.6,0.8-1,1.3
		c-0.2,0.3-0.4,0.5-0.6,0.8c-0.2,0.3-0.5,0.4-0.7,0.7c-0.2,0.3-0.5,0.5-0.7,0.8c-0.3-0.1-0.6-0.3-0.9-0.4c-0.4-0.2-0.8-0.4-1.2-0.5
		c0.5-0.5,1-1.1,1.4-1.5C395.8,306.7,396.5,306.4,397.1,306.2z"/>
	<path class="dsn_path_col" fill="rgb(0, 0, 0)" d="M406.9,318.5c0.4,0.7,0.5,1.1,0.5,1.1s-0.4-0.1-1.1-0.5c-0.3-0.2-0.8-0.4-1.2-0.6c-0.2-0.1-0.5-0.3-0.8-0.4
		c-0.3-0.1-0.4-0.4-0.6-0.6c-1-0.8-1.9-1.7-3.2-2.6c-0.6-0.5-1.2-0.9-1.9-1.3c-0.7-0.4-1.4-0.8-2.1-1.2c-0.6-0.4-1.3-0.6-1.9-0.9
		c0.2-0.3,0.5-0.6,0.7-0.8c0.3-0.3,0.6-0.6,0.9-0.9c0.5,0.2,1,0.4,1.4,0.7c0.7,0.4,1.5,0.9,2.2,1.3c0.7,0.5,1.4,1,2,1.4
		c1.3,0.9,2.4,2,3.4,2.8c0.5,0.3,0.8,0.9,1.1,1.3C406.4,317.8,406.7,318.2,406.9,318.5z"/>
	<path class="dsn_path_col" fill="rgb(0, 0, 0)" d="M392.3,310.7c0.4-0.5,0.8-1.1,1.3-1.5c0.1-0.1,0.2-0.2,0.3-0.3c0.4,0.2,0.8,0.4,1.2,0.5c0.3,0.1,0.6,0.3,0.9,0.4
		c-0.3,0.3-0.6,0.6-0.9,0.9c-0.3,0.3-0.5,0.5-0.7,0.8c-0.1,0-0.2-0.1-0.2-0.1C393.6,311.1,393,310.9,392.3,310.7z"/>
	<path class="dsn_path_col" fill="rgb(0, 0, 0)" d="M392.2,310.6c-1.4-0.5-2.8-0.8-3.9-1.1c-0.6-0.1-1.1-0.4-1.6-0.6c-0.4-0.2-0.9-0.5-1.2-0.6c-0.7-0.4-1.1-0.6-1.1-0.6
		s0.4-0.1,1.2-0.3c0.4-0.1,0.8-0.1,1.4-0.2c0.3,0,0.5-0.1,0.9-0.1c0.3-0.1,0.6,0.1,0.9,0.2c1.2,0.3,2.7,0.6,4.2,1.1
		c0.3,0.1,0.7,0.2,1.1,0.4c-0.1,0.1-0.2,0.2-0.3,0.3c-0.5,0.4-0.9,1-1.3,1.5C392.3,310.7,392.2,310.7,392.2,310.6z"/>
	<path class="dsn_path_col" fill="rgb(0, 0, 0)" d="M388.6,316.5c0.5-0.9,1-1.8,1.5-2.6c0.5-0.9,1.2-1.7,1.7-2.4c0.2-0.2,0.4-0.5,0.5-0.7c0.7,0.2,1.3,0.4,1.9,0.8
		c0.1,0,0.2,0.1,0.2,0.1c-0.3,0.4-0.6,0.8-0.9,1.2c-0.5,0.8-1.2,1.4-1.6,2.3c-0.5,0.8-1,1.7-1.5,2.5c-0.9,1.8-1.7,3.5-2.3,5.3
		c-0.7,1.7-1.2,3.4-1.7,4.8c-0.2,0.7-0.5,1.3-0.9,1.8c-0.3,0.5-0.6,1-0.8,1.4c-0.5,0.8-0.8,1.2-0.8,1.2s0-0.5,0-1.4c0-0.5,0-1,0-1.7
		c0-0.6,0-1.4,0.4-2c0.5-1.5,1-3.2,1.7-4.9C386.8,320.2,387.7,318.3,388.6,316.5z"/>
</g>
<path class="dsn_path_col" fill="rgb(0, 0, 0)" d="M407.6,425.9c-2.5,0.4-4.6,2.1-5.5,4.5c-0.3,0.9-0.5,1.8-0.4,2.7c0,0.3-0.2,0.5-0.5,0.5v0c-0.3,0-0.5-0.2-0.5-0.5
	c0-1.1,0.1-2.1,0.5-3.1c1-2.7,3.4-4.7,6.3-5.1c0.3,0,0.5,0.1,0.6,0.4C408.1,425.6,407.9,425.9,407.6,425.9z"/>
<path class="dsn_path_col" fill="rgb(0, 0, 0)" d="M419,436.6c-1.6,4.3-5.7,7.2-10.3,7.2c-1.3,0-2.6-0.2-3.8-0.7c-2.7-1-4.9-3-6.2-5.7c-1.2-2.7-1.3-5.6-0.3-8.4
	c1.6-4.3,5.7-7.2,10.3-7.2c1.3,0,2.6,0.2,3.8,0.6c2.8,1,5,3,6.2,5.7C419.8,430.9,420,433.8,419,436.6z M416.7,429.1
	c-1-2.2-2.8-3.8-5-4.6c-1-0.4-2-0.6-3.1-0.6c-3.7,0-7.1,2.3-8.4,5.8c-0.8,2.2-0.7,4.6,0.3,6.8c1,2.2,2.8,3.8,5,4.6
	c1,0.4,2,0.5,3.1,0.5c3.7,0,7.1-2.3,8.4-5.9C417.8,433.6,417.7,431.2,416.7,429.1z"/>
<path class="dsn_path_col" fill="rgb(0, 0, 0)" d="M402.7,389.4c0.3,3.3-1,6.6-3.4,8.9c-0.1,0.1-0.3,0.2-0.5,0.2c-0.2,0-0.4-0.1-0.5-0.2c-0.3-0.3-0.3-0.7,0-1
	c2.2-2,3.2-4.8,3-7.8c0-0.4,0.3-0.7,0.7-0.7C402.3,388.7,402.6,389,402.7,389.4z"/>
<path class="dsn_path_col" fill="rgb(0, 0, 0)" d="M410,164.9c-6.9,2.6-11.9,8.7-13,15.9c-0.4,2.7-0.3,5.4,0.4,8c0.2,0.8-0.3,1.5-1,1.7c-0.1,0-0.3,0.1-0.4,0.1
	c-0.7,0-1.2-0.4-1.4-1.1c-0.8-3-0.9-6.1-0.5-9.1c1.2-8.3,6.9-15.3,14.8-18.2c0.7-0.3,1.6,0.1,1.8,0.8
	C411.2,163.8,410.8,164.6,410,164.9z"/>
<path class="dsn_path_col" fill="rgb(0, 0, 0)" d="M413,210.7c1.3,0.2,2.7,0.3,4.1,0.3c13.3,0,24.8-9.9,26.7-23.1c1.1-7.2-0.7-14.3-5-20.1c-4.3-5.8-10.6-9.6-17.8-10.7
	c-1.4-0.2-2.7-0.3-4.1-0.3c-13.3,0-24.8,9.9-26.8,23.1c-1.1,7.1,0.7,14.3,5,20.1C399.5,205.8,405.8,209.6,413,210.7z M417,214.6
	c-1.5,0-3.1-0.1-4.6-0.4c-8.1-1.2-15.3-5.5-20.1-12.1c-4.9-6.6-6.9-14.6-5.7-22.8c2.2-14.9,15.3-26.1,30.3-26.1
	c1.5,0,3.1,0.1,4.6,0.4c8.1,1.2,15.2,5.5,20.1,12.1c4.9,6.6,6.9,14.6,5.7,22.8C445.1,203.3,432.1,214.6,417,214.6z"/>
<path class="dsn_path_col" fill="rgb(0, 0, 0)" d="M386.3,521.8c0,2.2-0.2,4.4-0.7,6.5c-1.3,5.7-4.3,11.2-9.1,16.4c-2.3-17.1-1.4-31.4,1-44c0.7,1.1,1.5,2.3,2.3,3.7
	C384.1,511.4,386.3,517.2,386.3,521.8z"/>
<path class="dsn_path_col" fill="rgb(0, 0, 0)" d="M381.8,395.3c-0.7-1.3-1.1-2.7-1.2-4.2c-0.3-4,1.6-7.9,5-10.1c0.3-0.2,0.7-0.1,1,0.2c0.2,0.3,0.1,0.8-0.2,0.9
	c-3,1.9-4.6,5.3-4.4,8.8c0.1,1.3,0.4,2.6,1.1,3.7c0.1,0.3,0,0.7-0.3,0.9c-0.1,0-0.2,0.1-0.3,0.1C382.2,395.6,382,395.5,381.8,395.3z
	"/>
<path class="dsn_path_col" fill="rgb(0, 0, 0)" d="M360.6,606.1c24.2-9.2,46.2-19.3,64.8-29.8c-18.7,10.6-40.7,20.7-64.9,30C360.6,606.2,360.6,606.2,360.6,606.1z"/>
<path class="dsn_path_col" fill="rgb(0, 0, 0)" d="M406.5,389.1c0.6,8.2-5.5,15.3-13.7,16c-0.4,0-0.8,0-1.1,0c-7.7,0-14.2-6-14.8-13.7c-0.3-3.9,0.9-7.8,3.5-10.8
	c2.6-3,6.2-4.8,10.2-5.1C398.7,374.8,405.9,381,406.5,389.1z M392.6,403c7-0.5,12.3-6.7,11.8-13.7c-0.5-6.7-6.1-11.8-12.7-11.8
	c-0.3,0-0.7,0-1,0c-3.4,0.3-6.5,1.8-8.7,4.4c-2.2,2.6-3.3,5.9-3,9.3c0.5,6.7,6.1,11.8,12.8,11.8C392,403.1,392.3,403,392.6,403z"/>
<polygon class="dsn_path_col" fill="rgb(0, 0, 0)" points="483.3,703.9 491.2,674.7 501,674.7 498.2,685 507.1,685 509.9,674.7 519.7,674.7 511.8,703.9 502,703.9 
	504.9,693.5 495.9,693.5 493.1,703.9 "/>
<path class="dsn_path_col" fill="rgb(0, 0, 0)" d="M372.1,325.6c-1.2-7.3,1.6-14.6,7.3-19.2c0.5-0.4,1.3-0.3,1.8,0.2c0.4,0.5,0.3,1.3-0.2,1.8c-5,4-7.5,10.4-6.5,16.7
	c0.4,2.3,1.2,4.6,2.5,6.5c0.4,0.6,0.2,1.4-0.4,1.8c-0.2,0.1-0.4,0.2-0.7,0.2c-0.4,0-0.8-0.2-1.1-0.6
	C373.5,330.8,372.5,328.3,372.1,325.6z"/>
<path class="dsn_path_col" fill="rgb(0, 0, 0)" d="M540.7,653.4c-3.1,4.8-5.7,6.6-9.7,6.6c-2.4,0-4-0.6-5.5-1.6l3.5-4.8c0.7,0.5,1.7,0.9,2.6,0.9c1,0,1.7-0.2,2.6-1.4
	l-2.9-23.7h6.8l1.1,16l8.8-16h7.2L540.7,653.4z"/>
<polygon class="dsn_path_col" fill="rgb(0, 0, 0)" points="529.4,620.8 520.8,652.8 514.2,652.8 522.8,620.8 "/>
<path class="dsn_path_col" fill="rgb(0, 0, 0)" d="M415.3,318.4c-1.9-11.4-11.7-19.7-23.3-19.7c-1.3,0-2.6,0.1-3.9,0.3c-6.2,1.1-11.7,4.5-15.3,9.6c-3.7,5.2-5.1,11.4-4.1,17.6
	c1.9,11.4,11.7,19.7,23.3,19.7c1.3,0,2.6-0.2,3.9-0.4c6.2-1,11.7-4.4,15.4-9.6C414.9,330.9,416.3,324.7,415.3,318.4z M392,295.6
	c13.1,0,24.2,9.4,26.4,22.3c1.2,7.1-0.4,14.1-4.6,20c-4.1,5.8-10.3,9.7-17.4,10.8c-1.5,0.3-3,0.4-4.5,0.4
	c-13.1,0-24.2-9.4-26.4-22.3c-1.2-7,0.4-14.1,4.6-20c4.1-5.8,10.3-9.7,17.4-10.9C389,295.7,390.5,295.6,392,295.6z"/>
<path class="dsn_path_col" fill="rgb(0, 0, 0)" d="M21.9,631.7c81.3,21.7,229.2,4.3,340.1-34.7c-0.4,3.1-0.8,6.1-1.5,9c-103.8,39.8-247.7,64.4-340.8,43.6L21.9,631.7z"/>
<polygon class="dsn_path_col" fill="rgb(0, 0, 0)" points="516.2,620.8 507.6,652.8 500.9,652.8 509.5,620.8 "/>
<path class="dsn_path_col" fill="rgb(0, 0, 0)" d="M326,452.1c1,0,1.7-0.3,2.6-1.5l-2.9-23.6h6.8l1.1,15.9l8.8-15.9h7.2L335,451c-3.1,4.8-5.7,6.6-9.7,6.6
	c-2.4,0-4-0.6-5.5-1.6l3.6-4.8C324.1,451.7,325.1,452.1,326,452.1z"/>
<path class="dsn_path_col" fill="rgb(0, 0, 0)" d="M344.7,551.8c7.6,0,13.2-6.2,17-18.6c2.6-8.7,3.9-18.2,3.9-28.4v-6c-1.2,0.9-5.6,4.7-12.9,11.5
	c-7.4,6.8-11.3,10.2-11.7,10.2c-1.2,0-1.8-0.6-1.9-1.8v-0.1c0-1,3.1-4.4,9.3-10.1c4.1-3.7,8.3-7.5,12.5-11.4
	c4.6-4.5,8.1-8.7,10.6-12.8c1.9-3.2,3.5-4.8,4.9-4.8c1.9,0,2.8,0.9,2.8,2.6c0,0.4-1,1.9-3.1,4.4c-2,2.6-3.1,4.5-3.1,5.9
	c0,0.8,1.4,3.6,4.3,8.3c-2.4,12.6-3.3,26.9-1,44c-0.5,0.6-1.1,1.2-1.7,1.8c-7.7,7.6-16,11.5-24.8,11.5c-5.4,0-10.1-1.3-14.2-3.9
	c-4.7-3-7.1-6.9-7.1-11.9c0-2.6,0.8-4.9,2.2-6.7c0.2-0.3,0.4-0.5,0.7-0.8c1.9-2,4.4-3,7.4-3c5.6,0,8.4,2.9,8.4,8.8
	c0,2-0.7,3.8-2.2,5.5c-1.4,1.7-3.1,2.5-5.1,2.5c-1.2,0-2.3,0-3.1,0C339.1,550.7,341.7,551.8,344.7,551.8z"/>
<path class="dsn_path_col" fill="rgb(0, 0, 0)" d="M470.4,674.1c8.6,0,14.5,5.8,14.5,13.2c0,9.1-7.4,17.2-17.2,17.2c-8.6,0-14.5-5.7-14.5-13.2
	C453.2,682.2,460.6,674.1,470.4,674.1z M475.1,688.2c0-3.1-1.9-5.5-5.4-5.5c-4.1,0-6.7,4-6.7,7.7c0,3.1,1.9,5.5,5.4,5.5
	C472.5,695.9,475.1,691.9,475.1,688.2z"/>
<path class="dsn_path_col" fill="rgb(0, 0, 0)" d="M326.9,528c3.9-5.8,6.2-8.8,7-9.2h0.7c0.1,0.1,0.3,0.3,0.3,0.5c0.3,0.5,0.4,1,0.4,1.6c0,3.5-2,7.9-6.2,13.2
	c-1.9,2.4-4.2,5-6.9,7.8c-8.7,8.9-15.6,13.3-20.7,13.3c-4,0-6.7-1-8.2-3c-0.4-0.5-1.4-3.2-3.1-8.2l-4.1-3.4c3.4,0,9.9-8,19.6-24
	c7.3-12.1,12.9-22.3,16.6-30.6l20.3-1.6L327,510.8c-1.9,3-4.6,7.4-8.2,13.2c-3,4.8-5.3,9.5-6.9,13.9l1.7,1.1
	C318.5,537.5,323,533.8,326.9,528z"/>
<path class="dsn_path_col" fill="rgb(0, 0, 0)" d="M314.1,437.6c0-3.4-2-5.3-5.1-5.3c-4.1,0-6.8,4.4-6.8,7.7c0,3.4,2,5.3,5.1,5.3C311.4,445.3,314.1,440.9,314.1,437.6z
	 M320.6,437.4c0,7-6.1,13.6-13.6,13.6c-7,0-11.3-4.6-11.3-10.8c0-7,6.1-13.6,13.6-13.6C316.3,426.5,320.6,431.1,320.6,437.4z"/>
<path class="dsn_path_col" fill="rgb(0, 0, 0)" d="M485,648.7c2.8,0,5.2-2.2,5.9-4.7l0.2-0.6c-1.1-0.4-2.7-0.8-4.4-0.8c-2.7,0-4.8,1.4-4.8,3.7
	C481.9,647.6,483.1,648.7,485,648.7z M489.4,629.1c6.3,0,9.5,2.6,9.5,7.2c0,1.2-0.2,2.3-0.6,3.6l-3.5,13h-6.4l0.7-2.7
	c-1.9,2-4.2,3.2-7,3.2c-4.1,0-6.8-2.6-6.8-6.3c0-5.5,4.4-8.4,10.1-8.4c2.6,0,4.7,0.4,6.7,1l0.1-0.3c0.1-0.5,0.3-1.1,0.3-1.7
	c0-1.6-1.1-2.7-4.4-2.7c-2.3,0-4.6,0.6-6.3,1.2l-1-5.3C483.1,629.7,486.1,629.1,489.4,629.1z"/>
<path class="dsn_path_col" fill="rgb(0, 0, 0)" d="M326.2,347.6c0.1-0.5,0.6-0.8,1.1-0.7c0.5,0.1,0.8,0.6,0.7,1.1c-0.9,4.4-3.8,8-7.8,10.1c-0.1,0.1-0.3,0.1-0.4,0.1
	c-0.3,0-0.7-0.2-0.8-0.5c-0.2-0.5,0-1,0.4-1.2C322.8,354.7,325.4,351.5,326.2,347.6z"/>
<path class="dsn_path_col" fill="rgb(0, 0, 0)" d="M331.9,201c-1.7,5.6-5.8,10.1-11.2,12.3c-0.2,0.1-0.3,0.1-0.5,0.1c-0.5,0-0.9-0.3-1.1-0.7c-0.3-0.6,0-1.3,0.7-1.6
	c4.8-1.9,8.3-5.9,9.8-10.7c0.2-0.6,0.8-1,1.5-0.8C331.7,199.8,332,200.4,331.9,201z"/>
<polygon class="dsn_path_col" fill="rgb(0, 0, 0)" points="297.8,418.5 296.3,424.4 289.2,424.4 290.8,418.5 "/>
<path class="dsn_path_col" fill="rgb(0, 0, 0)" d="M445.8,701.3c-2,2-5,3.2-9.2,3.2c-4.4,0-8.3-2-10.3-5.3l6.4-5.6c1.3,2.1,2.6,2.7,4.1,2.7c0.8,0,1.6-0.3,2.3-1
	c0.7-0.7,1.3-1.8,1.9-4l4.5-16.5h9.5l-4.8,18.1C449.2,696.6,447.8,699.3,445.8,701.3z"/>
<path class="dsn_path_col" fill="rgb(0, 0, 0)" d="M283.9,486l21.5-1.6c-5,6.6-9.8,14.4-14.5,23.5c-5.7,11.1-8.6,19.5-8.6,25.4c0,1.5,0.3,3,1,4.5c0.7,2,1.7,3,3,3l4.1,3.4
	c-4.2,7.4-10,11.2-17.4,11.2c-3.3,0-6.2-1.4-8.7-4.3c-2.5-2.9-3.7-6-3.7-9.3c0-2.5,0.6-5.1,1.9-7.8L283.9,486z"/>
<path class="dsn_path_col" fill="rgb(0, 0, 0)" d="M309.9,332.4c-4.6,1.3-8,5-9,9.6c-0.4,1.7-0.4,3.4-0.1,5.2c0.1,0.5-0.2,1-0.7,1.1c0,0-0.1,0-0.2,0c-0.4,0-0.8-0.3-0.9-0.8
	c-0.4-1.9-0.3-3.9,0.1-5.9c1.2-5.3,5.1-9.5,10.3-11c0.5-0.2,1,0.1,1.1,0.6C310.7,331.7,310.4,332.3,309.9,332.4z"/>
<path class="dsn_path_col" fill="rgb(0, 0, 0)" d="M289.2,449.9c-1.6,5.9-4.9,7.7-9,7.7c-1.5,0-2.6-0.1-3.7-0.3l1.4-5.2c0.5,0.1,1,0.2,1.6,0.2c1.5,0,2.6-1.2,3.1-3.2l5.9-22.1
	h6.7L289.2,449.9z"/>
<path class="dsn_path_col" fill="rgb(0, 0, 0)" d="M460,631.8c1.7-1.5,3.8-2.9,6.4-2.9c4.2,0,6.9,2.6,6.9,6.8c0,1.3-0.4,3-0.8,4.5l-3.4,12.6h-6.6l3.4-12.9
	c0.2-0.7,0.3-1.5,0.3-2.1c0-1.9-1.2-2.9-3.2-2.9c-2.6,0-4.4,1.9-5.1,4.7l-3.5,13.2h-6.7l6.3-23.5h6.7L460,631.8z"/>
<path class="dsn_path_col" fill="rgb(0, 0, 0)" d="M309.9,178.8c-6,1.3-10.9,5.7-12.7,11.6c-0.7,2.2-0.9,4.5-0.7,6.7c0.1,0.7-0.4,1.3-1.1,1.4c0,0-0.1,0-0.1,0
	c-0.6,0-1.1-0.5-1.2-1.1c-0.3-2.6,0-5.2,0.8-7.6c2.1-6.7,7.6-11.8,14.5-13.3c0.6-0.2,1.3,0.3,1.4,0.9
	C311,178.1,310.6,178.7,309.9,178.8z"/>
<path class="dsn_path_col" fill="rgb(0, 0, 0)" d="M294.4,340.7c2-8.9,10-15.3,19.1-15.3c1.4,0,2.8,0.2,4.2,0.5c10.5,2.3,17.2,12.8,14.9,23.3c-2,8.9-10,15.3-19.1,15.3
	c-1.4,0-2.8-0.2-4.3-0.5c-5.1-1.1-9.4-4.2-12.2-8.6C294.2,351,293.3,345.8,294.4,340.7z M313.5,327.4c-8.1,0-15.3,5.8-17.1,13.7
	c-1,4.6-0.2,9.3,2.3,13.2c2.5,3.9,6.4,6.6,11,7.7c1.2,0.2,2.5,0.4,3.8,0.4c8.1,0,15.3-5.8,17.1-13.7c2.1-9.4-3.9-18.8-13.3-20.9
	C316,327.5,314.8,327.4,313.5,327.4z"/>
<path class="dsn_path_col" fill="rgb(0, 0, 0)" d="M313.3,172.8c-10.1,0-18.7,6.5-21.7,16.1c-1.7,5.8-1.2,12,1.7,17.3c2.9,5.4,7.6,9.3,13.4,11c2.2,0.7,4.4,1,6.6,1
	c0,0,0,0,0,0c10,0,18.7-6.5,21.7-16.1c1.8-5.8,1.2-11.9-1.7-17.3c-2.8-5.3-7.6-9.3-13.4-11C317.8,173.1,315.6,172.8,313.3,172.8z
	 M288.8,188c3.3-10.9,13.2-18.2,24.6-18.2c2.5,0,5.1,0.4,7.5,1.1c6.5,2,12,6.5,15.2,12.5c3.2,6.1,3.9,13,1.9,19.6
	c-3.3,10.9-13.2,18.2-24.5,18.2c0,0,0,0,0,0c-2.5,0-5-0.4-7.5-1.1c-6.6-2-12-6.4-15.2-12.5C287.4,201.5,286.8,194.5,288.8,188z"/>
<path class="dsn_path_col" fill="rgb(0, 0, 0)" d="M273.7,426.5c4.2,0,6.9,2.6,6.9,6.8c0,1.3-0.4,3-0.8,4.5l-3.4,12.6h-6.7l3.5-12.9c0.1-0.6,0.3-1.5,0.3-2.1
	c0-1.9-1.2-2.9-3.3-2.9c-2.6,0-4.3,1.9-5.1,4.7l-3.5,13.2H255l6.3-23.5h6.6l-0.7,2.4C268.9,427.9,271,426.5,273.7,426.5z"/>
<path class="dsn_path_col" fill="rgb(0, 0, 0)" d="M450,628.9l-1.9,7h-0.4c-4.4,0-7.8,2.5-9.5,8.6l-2.2,8.3h-6.6l6.2-23.5h6.7l-1.3,4.7C443.4,630.6,446.1,628.6,450,628.9z"/>
<path class="dsn_path_col" fill="rgb(0, 0, 0)" d="M247.6,435.3c0-1.9-1.2-3.5-3.9-3.5c-3,0-5.5,2-6.6,5h10.2C247.5,436.4,247.6,435.9,247.6,435.3z M252.7,441h-16.2
	c0.2,2.7,1.9,4.6,5.4,4.6c1.8,0,3.3-0.5,5.2-1.9l3.1,4.1c-2.1,1.7-5,3.1-9.1,3.1c-6.7,0-10.9-3.9-10.9-10.4c0-6.8,5.5-14,13.9-14
	c6.1,0,9.6,3.9,9.6,9.1C253.8,437.4,253.4,439.3,252.7,441z"/>
<path class="dsn_path_col" fill="rgb(0, 0, 0)" d="M418.6,628.9c6.1,0,9.6,4,9.6,9.2c0,1.6-0.4,3.5-1.2,5.3h-16.2c0.2,2.8,1.9,4.6,5.4,4.6c1.8,0,3.3-0.5,5.2-1.9l3.1,4.1
	c-2.1,1.8-5,3.1-9,3.1c-6.8,0-10.9-3.9-10.9-10.4C404.7,636.1,410.2,628.9,418.6,628.9z M421.7,639.2c0.1-0.4,0.2-0.9,0.2-1.5
	c0-1.9-1.1-3.5-3.9-3.5c-3,0-5.5,2-6.6,5H421.7z"/>
<path class="dsn_path_col" fill="rgb(0, 0, 0)" d="M399.9,646.6l-1.5,5.6c-1.3,0.6-3,1-4.8,1c-4,0-6-2-6-4.6c0-1,0.2-1.9,0.4-3l2.9-10.6H388l1.5-5.7h2.8l1.6-6h6.7l-1.6,6h5.5
	L403,635h-5.5l-2.6,9.9c-0.1,0.3-0.2,0.8-0.2,1.1c0,0.9,0.6,1.4,1.8,1.4C397.5,647.3,398.8,647.1,399.9,646.6z"/>
<path class="dsn_path_col" fill="rgb(0, 0, 0)" d="M252.2,486.5c-2,2.6-3.1,4.5-3.1,5.9c0,1,2.2,5,6.6,12c4.4,7,6.6,12.8,6.6,17.4c0,8.8-3.9,17-11.6,24.7
	c-7.7,7.6-15.9,11.5-24.8,11.5c-5.3,0-10.1-1.3-14.1-3.9c-4.8-3-7.1-6.9-7.1-11.9c0-2.6,0.7-4.9,2.2-6.7c0.2-0.3,0.4-0.5,0.7-0.8
	c1.9-2,4.4-3,7.3-3c5.6,0,8.4,2.9,8.4,8.8c0,2-0.7,3.8-2.2,5.5c-1.4,1.7-3.1,2.5-5.1,2.5c-1.2,0-2.3,0-3.2,0
	c2.2,2.2,4.9,3.4,7.8,3.4c7.6,0,13.2-6.2,17-18.6c2.6-8.7,3.9-18.2,3.9-28.4v-6c-1.3,0.9-5.6,4.7-13,11.5
	c-7.4,6.8-11.2,10.2-11.7,10.2c-0.9,0-1.5-0.4-1.7-1.1c-0.1-0.2-0.1-0.5-0.1-0.8c0-1,3.1-4.4,9.3-10.1c4.1-3.7,8.3-7.5,12.5-11.4
	c4.6-4.5,8.1-8.7,10.6-12.8c1.9-3.2,3.5-4.8,4.8-4.8c1.9,0,2.8,0.9,2.8,2.6C255.3,482.5,254.2,484,252.2,486.5z"/>
<path class="dsn_path_col" fill="rgb(0, 0, 0)" d="M377.3,639.2c0.1-0.4,0.2-0.9,0.2-1.5c0-1.9-1.1-3.5-3.8-3.5c-3,0-5.5,2-6.6,5H377.3z M374.2,628.9c6.1,0,9.6,4,9.6,9.2
	c0,1.6-0.4,3.5-1.2,5.3h-16.1c0.2,2.8,1.9,4.6,5.4,4.6c1.7,0,3.3-0.5,5.2-1.9l3.1,4.1c-2.1,1.8-5,3.1-9,3.1
	c-6.8,0-10.9-3.9-10.9-10.4C360.3,636.1,365.8,628.9,374.2,628.9z"/>
<path class="dsn_path_col" fill="rgb(0, 0, 0)" d="M199,514.9c6.8-6.6,10.2-13.2,10.2-19.8c0-1.9-0.3-3.3-0.9-4.5c-0.5-0.2-1.1-0.4-1.7-0.4c-4.1,0-9.4,5-15.9,15.1
	c-4.8,7.5-8.7,14.5-11.5,21.2C186.2,524.9,192.8,521,199,514.9z M178.3,546.1c5.2,0,10.5-2.3,15.9-6.7c2.4-2,6.4-6.1,11.9-12.5
	c4-4.5,6.7-6.7,8.2-6.7c0.5,0,0.7,0.3,0.7,0.9c0,1.2-3.1,5.7-9.2,13.5c-0.7,0.9-1.4,1.8-2.2,2.7c-10.6,13.2-21.4,19.7-32.4,19.7
	c-9.4,0-14.6-4-15.5-12c0.7-0.4,1.5-0.9,2.2-1.4c8.1-5.4,12.1-12,12.1-19.5c0-5-1.5-8.9-4.5-11.5c1.8-2.7,3.7-5.4,5.9-8.1
	c11.2-13.8,22.6-20.7,34.3-20.7c7.6,0,11.4,4.3,11.4,13c0,8.7-4.5,16.3-13.6,22.7c-7.2,5.2-15.8,8.9-25.7,11
	c-1.9,4.8-2.8,8.4-2.8,11C174.9,544.6,176,546.1,178.3,546.1z"/>
<path class="dsn_path_col" fill="rgb(0, 0, 0)" d="M162.8,517c1.3,1.8,2,4.1,2,7c0,6.2-3,11.2-9.1,15C156.2,531.9,158.6,524.5,162.8,517z"/>
<path class="dsn_path_col" fill="rgb(0, 0, 0)" d="M165.5,512.5c3,2.7,4.5,6.5,4.5,11.5c0,7.6-4.1,14.1-12.1,19.5c-0.7,0.5-1.5,1-2.2,1.4c-0.1-0.9-0.2-1.9-0.2-2.8
	c0-1,0-2.1,0.1-3.1c6.1-3.8,9.1-8.8,9.1-15c0-2.9-0.7-5.2-2-7C163.6,515.5,164.5,514,165.5,512.5z"/>
<path class="dsn_path_col" fill="rgb(0, 0, 0)" d="M155.7,539c-0.1,1-0.1,2.1-0.1,3.1c0,1,0,2,0.2,2.8c-6.5,3.9-13.4,5.9-20.5,5.9c-2.2,0-3.4-0.9-3.4-2.6c0-1.1,1.9-2,5.8-2.8
	C145.2,544,151.3,541.8,155.7,539z"/>
<path class="dsn_path_col" fill="rgb(0, 0, 0)" d="M19.8,649.6c93.1,20.9,236.9-3.8,340.8-43.6c0,0.1,0,0.1,0,0.2c-104,40.2-247.9,65.5-340.9,44.4L19.8,649.6z"/>
<path class="dsn_path_col" fill="rgb(0, 0, 0)" d="M127.2,513.3c-11.3,1.2-22.4,5.3-33.2,12.3c-10.3,6.6-19,14.7-25.9,24.4c-4.5,6.2-6.7,11.1-6.7,14.7c0,5.8,3.1,8.7,9.1,8.7
	c9,0,19.8-8,32.5-24C108.7,542.1,116.7,530,127.2,513.3z M135.4,430.3c22.9-13.7,48-20.5,75.3-20.5c2.6,0,4,0.8,4.3,2.3
	c-1.5,1.1-4.6,2.5-9.3,4.1c-4.1,1.4-7.6,3.5-10.6,6.5c-3.8,3.9-10.4,16.3-19.7,37.2c-9.2,20.9-16.7,37-22.3,48.2
	c5.5,0.5,9.6,2,12.4,4.5c-1,1.5-1.9,3-2.7,4.5c-2.3-3-6.5-4.5-12.5-4.5c-8.8,16.6-19.6,30.5-32.4,41.5
	c-18.9,16.4-34.6,24.6-47.1,24.6c-11.8,0-17.7-5.8-17.7-17.5c0-13.8,9.7-26.1,29.1-36.9c15.1-8.6,30.9-14,47.3-16.2
	c3.5-6.8,6.8-12.9,9.8-18.6c7.8-14.6,13.9-25.5,18.4-32.6c13.4-21.3,26.2-35,38.4-41.2c-13.6,1.5-26.5,5.7-38.9,12.6
	c-12.3,7-22.6,15.8-30.7,26.5c-6.7,8.9-10,16.3-10,22c0,6.2,3.1,9.3,9.3,9.3c0.9,0,2.2-0.3,4-0.8c1.8-0.5,3.1-0.8,4-0.8
	c1.4,0,2,0.7,2,2.2c0,0.3,0,0.6-0.1,0.9c-0.7,2-4,3-9.9,3c-5.8,0-10.5-2-14-6c-3.5-4-5.2-9-5.2-14.9
	C106.5,455,116.1,441.9,135.4,430.3z"/>
<path class="dsn_path_col" fill="rgb(0, 0, 0)" d="M19,649.5l3.6-63.2c68.1,25.3,226.7,24.8,340-2.8c0.1,4.7-0.1,9.2-0.6,13.6c0,0,0,0,0,0c-110.9,39-258.8,56.4-340.1,34.7
	l-2.2,17.9C19.5,649.6,19.3,649.6,19,649.5z"/>
</svg>
