<?xml version="1.0" encoding="utf-8"?>
<!-- Generator: Adobe Illustrator 16.0.0, SVG Export Plug-In . SVG Version: 6.00 Build 0)  -->
<!DOCTYPE svg PUBLIC "-//W3C//DTD SVG 1.1//EN" "http://www.w3.org/Graphics/SVG/1.1/DTD/svg11.dtd">
<svg version="1.1" id="Layer_1" xmlns="http://www.w3.org/2000/svg" xmlns:xlink="http://www.w3.org/1999/xlink" x="0px" y="0px"
	 width="70px" height="70px" viewBox="0 0 70 70" enable-background="new 0 0 70 70" xml:space="preserve">
<g>
	<path class="dsn_path_col" fill="rgb(0, 0, 0)" d="M57.764,26.157h4.633c0.193,0.083,0.376,0.175,0.55,0.258h-5.2C57.755,26.332,57.764,26.249,57.764,26.157z"/>
	<path class="dsn_path_col" fill="rgb(0, 0, 0)" d="M60.905,17.951c0-0.017-0.011-0.033-0.011-0.05c0.011,0,0.011,0.008,0.011,0.008v0.008
		C60.905,17.935,60.905,17.943,60.905,17.951z"/>
	<path class="dsn_path_col" fill="rgb(0, 0, 0)" d="M60.647,11.84c0.156,2.794,0.247,4.839,0.258,6.078c0,0,0-0.017-0.011-0.017c0-0.083-0.055-0.158-0.146-0.2
		c-0.008,0-0.174-0.075-0.484-0.208c-0.019-1.23-0.101-3.076-0.247-5.512c0.046,0.025,0.082,0.05,0.119,0.066
		c0.054,0.033,0.118,0.05,0.19,0.05c0.093,0,0.193-0.042,0.258-0.108C60.631,11.948,60.647,11.898,60.647,11.84z"/>
	<path class="dsn_path_col" fill="rgb(0, 0, 0)" d="M60.399,18.125C60.399,18.134,60.41,18.134,60.399,18.125L60.399,18.125z"/>
	<path class="dsn_path_col" fill="rgb(0, 0, 0)" d="M60.337,12.098c-0.073,0-0.138-0.017-0.192-0.05c-0.036-0.025-0.082-0.05-0.119-0.066c0-0.042,0-0.083-0.009-0.125
		c-0.011-0.141,0.128-0.258,0.302-0.266c0.073,0,0.138,0.017,0.183,0.042c0.009,0,0.019,0.008,0.019,0.008
		c0.019,0.017,0.037,0.025,0.046,0.042c0.009,0,0.009,0,0.009,0.009c0.02,0.017,0.027,0.025,0.037,0.042l0.009,0.017
		c0.011,0.017,0.019,0.033,0.019,0.05c0.009,0.025,0.009,0.042,0.009,0.058c0,0.05-0.017,0.1-0.063,0.15
		C60.529,12.064,60.428,12.098,60.337,12.098z"/>
	<path class="dsn_path_col" fill="rgb(0, 0, 0)" d="M60.273,17.926c-0.01-0.133-0.01-0.274-0.01-0.424c0.32,0.125,0.484,0.2,0.484,0.208c0.092,0.042,0.146,0.116,0.146,0.2
		c-0.027-0.108-0.154-0.191-0.301-0.2C60.428,17.693,60.3,17.793,60.273,17.926z"/>
	<path class="dsn_path_col" fill="rgb(0, 0, 0)" d="M60.602,17.702c0.146,0.008,0.266,0.091,0.304,0.2c0,0.008,0.009,0.033,0.009,0.05c0,0.008,0,0.008,0,0.008
		s0,0.017-0.009,0.017c-0.011,0.017-0.011,0.033-0.019,0.05c-0.01,0.017-0.01,0.025-0.02,0.033c0,0-0.009,0.008-0.009,0.017
		c-0.009,0.017-0.019,0.025-0.037,0.042h-0.008c-0.01,0.017-0.02,0.017-0.028,0.025c-0.009,0-0.009,0-0.009,0
		c-0.019,0.008-0.036,0.017-0.056,0.025c-0.017,0.009-0.036,0.009-0.046,0.017c-0.008,0-0.008,0-0.018,0.009h-0.01
		c-0.009,0-0.027,0.008-0.046,0.008c-0.008,0-0.008,0-0.008,0s0,0-0.01,0c-0.019,0-0.038-0.008-0.055-0.008
		c-0.02-0.009-0.046-0.009-0.064-0.017c-0.009,0-0.028-0.009-0.037-0.017c0,0-0.009-0.009-0.018-0.009h-0.011
		c-0.008,0-0.008,0-0.008-0.008c-0.065-0.042-0.109-0.1-0.118-0.174v-0.008v-0.017C60.3,17.793,60.428,17.693,60.602,17.702z"/>
	<path class="dsn_path_col" fill="rgb(0, 0, 0)" d="M60.273,17.951c0.009,0.075,0.053,0.133,0.118,0.174c-0.028-0.017-0.073-0.033-0.138-0.058
		C60.264,18.042,60.273,18.001,60.273,17.951z"/>
	<path class="dsn_path_col" fill="rgb(0, 0, 0)" d="M55.346,21.942l2.584,0.391c-0.02,0.582-0.057,1.38-0.093,2.361c-0.777-0.208-1.611-0.408-2.472-0.599
		C55.365,23.364,55.365,22.641,55.346,21.942z"/>
	<path class="dsn_path_col" fill="rgb(0, 0, 0)" d="M57.828,24.694c-0.019,0.449-0.045,0.939-0.064,1.463h-2.445c0.019-0.698,0.027-1.388,0.038-2.062
		C56.217,24.295,57.049,24.495,57.828,24.694z"/>
	<polygon class="dsn_path_col" fill="rgb(0, 0, 0)"  points="56.034,34.962 56.034,36.684 53.771,36.684 53.771,46.328 51.638,46.328 51.638,36.684 49.367,36.684 
		49.367,34.962 	"/>
	<path class="dsn_path_col" fill="rgb(0, 0, 0)" d="M67.881,49.23c0.174,0,0.313,0.116,0.313,0.258c0,0.141-0.139,0.258-0.313,0.258H55.63c0.02-0.075,0.027-0.142,0.046-0.217
		c0.028-0.133-0.083-0.273-0.256-0.291c-0.018-0.008-0.027-0.008-0.055-0.008H67.881z"/>
	<path class="dsn_path_col" fill="rgb(0, 0, 0)" d="M55.356,24.096c-6.41-1.447-14.55-2.636-18.615-3.185c0.008-0.017,0.008-0.033,0.008-0.05l-0.108-1.779l18.716,2.86
		C55.365,22.641,55.365,23.364,55.356,24.096z"/>
	<path class="dsn_path_col" fill="rgb(0, 0, 0)" d="M57.746,26.415H55.31c0-0.083,0.009-0.174,0.009-0.258h2.445C57.764,26.249,57.755,26.332,57.746,26.415z"/>
	<path class="dsn_path_col" fill="rgb(0, 0, 0)" d="M55.365,49.488h-0.321c0.01-0.017,0.01-0.033,0.01-0.051c0.027-0.124,0.165-0.207,0.312-0.207c0.019,0,0.037,0,0.055,0.008
		c0.173,0.018,0.293,0.158,0.256,0.291c-0.019,0.075-0.026,0.142-0.046,0.217h-0.32C55.318,49.662,55.337,49.58,55.365,49.488z"/>
	<path class="dsn_path_col" fill="rgb(0, 0, 0)" d="M55.365,49.488c-0.02,0.083-0.047,0.166-0.056,0.258h-0.321c0.02-0.092,0.038-0.175,0.056-0.258H55.365z"/>
	<path class="dsn_path_col" fill="rgb(0, 0, 0)" d="M54.212,15.598c3.14,0.782,5.182,1.546,6.052,1.896c0.01,0.15,0.01,0.291,0.01,0.424c0,0.008,0,0.017,0,0.017v0.008
		c-0.01,0.058-0.01,0.091-0.02,0.116c-0.604-0.25-2.738-1.098-6.227-1.987c0.174,0.034,0.34-0.058,0.376-0.199
		C54.44,15.756,54.348,15.64,54.212,15.598z"/>
	<path class="dsn_path_col" fill="rgb(0, 0, 0)" d="M54.092,15.831c-0.008,0-0.008,0-0.018,0C54.084,15.831,54.084,15.831,54.092,15.831z"/>
	<path class="dsn_path_col" fill="rgb(0, 0, 0)" d="M53.239,49.488h1.797c-0.02,0.083-0.038,0.166-0.056,0.258h-1.768C53.223,49.662,53.231,49.58,53.239,49.488z"/>
	<path class="dsn_path_col" fill="rgb(0, 0, 0)" d="M54.185,15.59c0.009,0,0.017,0,0.027,0.008c0.136,0.042,0.22,0.166,0.191,0.283c-0.028,0.141-0.202,0.232-0.376,0.199
		c-0.009,0-0.009,0-0.017,0c-0.011,0-0.011,0-0.02,0c-0.695-0.174-1.409-0.341-2.144-0.499c0.661,0.033,1.392,0.116,2.218,0.25
		c0.009,0,0.009,0,0.019,0c-0.01,0-0.01,0-0.019,0c-0.669-0.175-1.374-0.333-2.134-0.499c0.677,0.042,1.418,0.125,2.216,0.25
		C54.175,15.582,54.175,15.582,54.185,15.59z"/>
	<path class="dsn_path_col" fill="rgb(0, 0, 0)" d="M51.94,15.332c0.76,0.166,1.475,0.333,2.134,0.499c-0.815-0.125-1.558-0.216-2.216-0.25c-0.432-0.1-0.87-0.191-1.309-0.274
		C50.979,15.291,51.446,15.291,51.94,15.332z"/>
	<path class="dsn_path_col" fill="rgb(0, 0, 0)" d="M67.881,26.673H50.704v-0.042l0.019-0.216h4.596h2.437h5.2c-0.175-0.083-0.356-0.174-0.55-0.258h5.484
		c0.175,0,0.312,0.117,0.312,0.258C68.193,26.557,68.055,26.673,67.881,26.673z"/>
	<polygon class="dsn_path_col" fill="rgb(0, 0, 0)"  points="49.568,26.415 50.723,26.415 50.704,26.631 	"/>
	<path class="dsn_path_col" fill="rgb(0, 0, 0)" d="M50.723,26.415h-1.154l-1.345-0.258h7.095c0,0.083-0.009,0.175-0.009,0.258H50.723z"/>
	<polygon class="dsn_path_col" fill="rgb(0, 0, 0)"  points="49.568,26.415 36.786,26.415 36.777,26.157 48.224,26.157 	"/>
	<path class="dsn_path_col" fill="rgb(0, 0, 0)" d="M49.084,18.575c0.009,0,0.009,0.008,0.009,0.017C49.103,18.583,49.093,18.575,49.084,18.575z"/>
	<polygon class="dsn_path_col" fill="rgb(0, 0, 0)"  points="48.992,49.488 48.983,49.488 48.992,49.479 	"/>
	<path class="dsn_path_col" fill="rgb(0, 0, 0)" d="M58.239,17.91c1.183,0.216,1.851,0.283,1.998,0.199c0,0,0.008-0.008,0.017-0.042c0.057,0.025,0.109,0.042,0.138,0.058
		c0.008,0.008,0.008,0.008,0.008,0.008h0.011c0.009,0.008,0.018,0.008,0.018,0.008c0.009,0.008,0.028,0.017,0.037,0.017
		c0.019,0.008,0.045,0.017,0.064,0.017c0.017,0,0.036,0.008,0.055,0.008c0.01,0,0.01,0,0.01,0c0.008,0,0.008,0,0.008,0
		c0.019,0,0.029-0.008,0.046-0.008c0.01,0,0.01,0,0.01,0c0.01-0.009,0.01-0.009,0.018-0.009c0.019,0,0.029-0.008,0.046-0.017
		c0.02-0.008,0.037-0.017,0.056-0.025c0.009,0,0.009,0,0.009,0c0.009-0.008,0.019-0.008,0.028-0.025c0.008,0,0.008,0,0.008,0
		c0.019-0.017,0.028-0.025,0.037-0.042c0.009,0,0.009-0.008,0.009-0.017c0.01-0.008,0.02-0.017,0.02-0.033
		c0.008-0.017,0.008-0.033,0.019-0.05c0.009,0,0.009-0.008,0.009-0.017c0,0,0,0.008,0,0.017c-0.009,0.174-0.047,0.399-0.283,0.541
		c-0.349,0.216-0.935,0.191-2.52-0.1c-0.823-0.149-1.914-0.308-2.921-0.432c-4.221-0.516-6.061-0.299-6.364,0.025
		c-0.017,0.025-0.081,0.091,0.038,0.274c0.063,0.1,0.137,0.183,0.209,0.258c-0.319-0.266-0.548-0.549-0.723-0.873
		c0.642-0.607,2.976-0.673,6.932-0.2C56.29,17.594,57.406,17.76,58.239,17.91z"/>
	<path class="dsn_path_col" fill="rgb(0, 0, 0)" d="M48.59,18.891c0.009,0.008,0.009,0.008,0.018,0.017l0,0C48.599,18.899,48.599,18.899,48.59,18.891z"/>
	<polygon class="dsn_path_col" fill="rgb(0, 0, 0)"  points="34.452,49.488 48.983,49.488 48.534,49.746 34.452,49.746 	"/>
	<path class="dsn_path_col" fill="rgb(0, 0, 0)" d="M47.93,14.567c1.456,0.233,2.793,0.499,4.011,0.757c-0.494-0.033-0.961-0.042-1.383-0.025
		c-0.859-0.175-1.748-0.333-2.637-0.474C47.921,14.742,47.93,14.659,47.93,14.567z"/>
	<path class="dsn_path_col" fill="rgb(0, 0, 0)" d="M48.388,43.493c0.019,0.79-0.238,1.464-0.769,2.028c-0.348,0.383-0.842,0.657-1.475,0.807
		c-0.338,0.084-0.732,0.125-1.189,0.125c-0.834,0-1.528-0.166-2.08-0.498c-0.466-0.275-0.823-0.641-1.088-1.106
		c-0.275-0.466-0.421-1.006-0.478-1.613l2.033-0.116c0.092,0.665,0.312,1.139,0.651,1.438c0.256,0.225,0.549,0.333,0.877,0.315
		c0.468-0.016,0.844-0.199,1.127-0.557c0.146-0.175,0.211-0.424,0.211-0.748c0-0.475-0.266-0.939-0.807-1.405
		c-0.421-0.324-1.052-0.798-1.895-1.438c-0.706-0.549-1.209-1.048-1.502-1.48c-0.312-0.49-0.476-1.022-0.476-1.596
		c0-1.031,0.439-1.821,1.3-2.354c0.531-0.316,1.2-0.482,1.987-0.482c0.759,0,1.409,0.133,1.96,0.407
		c0.42,0.216,0.759,0.507,1.015,0.889c0.257,0.383,0.413,0.824,0.469,1.322l-2.052,0.3c-0.056-0.466-0.22-0.823-0.494-1.089
		c-0.202-0.191-0.477-0.283-0.852-0.283c-0.386,0-0.687,0.133-0.897,0.416c-0.165,0.225-0.248,0.498-0.248,0.831
		c0,0.524,0.276,1.048,0.833,1.589c0.21,0.207,0.522,0.448,0.944,0.723c0.503,0.332,0.833,0.565,0.979,0.698
		c0.531,0.425,0.935,0.84,1.228,1.247c0.138,0.199,0.248,0.375,0.329,0.541C48.277,42.812,48.379,43.178,48.388,43.493z"/>
	<path class="dsn_path_col" fill="rgb(0, 0, 0)" d="M48.343,17.668c0.173,0.324,0.402,0.607,0.723,0.873c0,0.008,0,0.008,0.008,0.008c0.011,0.008,0.011,0.017,0.02,0.025
		c0.01,0.008,0.01,0.008,0.01,0.017c0.018,0.017,0.027,0.033,0.036,0.058c0.019,0.033,0.019,0.058,0.019,0.083
		c0,0.033-0.011,0.067-0.027,0.1c-0.01,0.017-0.02,0.033-0.027,0.042c-0.01,0.008-0.019,0.017-0.029,0.025
		c0,0.008-0.008,0.008-0.017,0.017c-0.02,0.008-0.037,0.025-0.056,0.033c-0.018,0.008-0.027,0.017-0.045,0.025
		c-0.019,0.008-0.028,0.008-0.037,0.008c-0.028,0.008-0.055,0.008-0.083,0.008c-0.072,0-0.146-0.017-0.192-0.058
		c-0.008-0.008-0.018-0.008-0.026-0.025c-0.01,0-0.01-0.008-0.019-0.017c-0.12-0.108-0.22-0.233-0.312-0.374
		c-0.247-0.383-0.118-0.657,0.019-0.807C48.314,17.693,48.323,17.677,48.343,17.668z"/>
	<polygon class="dsn_path_col" fill="rgb(0, 0, 0)"  points="48.224,26.157 36.777,26.157 36.632,23.962 	"/>
	<path class="dsn_path_col" fill="rgb(0, 0, 0)" d="M47.812,17.319c0.175-0.017,0.302-0.133,0.284-0.274v-0.008c0.063,0.233,0.146,0.44,0.247,0.632
		c-0.02,0.017-0.028,0.025-0.047,0.042c-0.137,0.158-0.256,0.424-0.019,0.807c0.092,0.141,0.192,0.266,0.313,0.374
		c-0.567-0.482-0.924-1.048-1.118-1.746c0.047,0.108,0.165,0.183,0.303,0.183C47.792,17.328,47.802,17.319,47.812,17.319z"/>
	<path class="dsn_path_col" fill="rgb(0, 0, 0)" d="M48.096,17.012c-0.056-0.191-0.093-0.399-0.12-0.632c0-0.009,0-0.009,0-0.009c0.467-0.59,1.759-0.923,3.893-0.79
		c0.731,0.158,1.437,0.316,2.143,0.499c-3.864-0.615-5.175-0.033-5.559,0.25c-0.257,0.191-0.376,0.416-0.339,0.699
		C48.096,17.02,48.096,17.02,48.096,17.012z"/>
	<path class="dsn_path_col" fill="rgb(0, 0, 0)" d="M51.868,15.582c-2.134-0.133-3.426,0.208-3.893,0.79c-0.019-0.116-0.026-0.241-0.026-0.374
		c0.018-0.017,0.045-0.042,0.073-0.058c0.53-0.382,1.392-0.599,2.545-0.64C50.997,15.39,51.437,15.481,51.868,15.582z"/>
	<path class="dsn_path_col" fill="rgb(0, 0, 0)" d="M47.692,14.268c2.253,0.357,4.423,0.798,6.464,1.314c-0.797-0.125-1.538-0.216-2.216-0.25
		c-1.209-0.266-2.555-0.524-4.011-0.757c0-0.017,0-0.025,0-0.042C47.939,14.401,47.828,14.301,47.692,14.268z"/>
	<path class="dsn_path_col" fill="rgb(0, 0, 0)" d="M47.921,14.833c0.889,0.142,1.767,0.299,2.637,0.474c-1.144,0.05-2.014,0.258-2.545,0.64
		c-0.026,0.017-0.056,0.042-0.073,0.058C47.921,15.673,47.913,15.291,47.921,14.833z"/>
	<path class="dsn_path_col" fill="rgb(0, 0, 0)" d="M47.93,14.567c0,0.092-0.009,0.175-0.009,0.258c-0.109-0.017-0.211-0.033-0.32-0.05c0-0.083,0.008-0.175,0.008-0.258
		C47.719,14.534,47.82,14.55,47.93,14.567z"/>
	<path class="dsn_path_col" fill="rgb(0, 0, 0)" d="M47.967,16.38c-0.155,0.199-0.22,0.432-0.192,0.69c-0.064-0.233-0.108-0.482-0.129-0.757
		c0.073-0.108,0.175-0.216,0.294-0.316C47.949,16.139,47.957,16.255,47.967,16.38C47.967,16.371,47.967,16.371,47.967,16.38z"/>
	<path class="dsn_path_col" fill="rgb(0, 0, 0)" d="M47.921,14.833c-0.008,0.458-0.008,0.84,0.019,1.172c-0.119,0.1-0.221,0.2-0.294,0.316
		c-0.045-0.449-0.053-0.948-0.045-1.538C47.71,14.792,47.82,14.816,47.921,14.833z"/>
	<path class="dsn_path_col" fill="rgb(0, 0, 0)" d="M48.096,17.045c0.018,0.141-0.109,0.266-0.284,0.274c-0.01,0-0.02,0.008-0.028,0.008c-0.138,0-0.256-0.075-0.302-0.183
		c-0.01-0.017-0.01-0.033-0.01-0.05c-0.037-0.283,0.028-0.549,0.184-0.782c0.026,0.274,0.073,0.524,0.128,0.757
		c-0.028-0.258,0.028-0.491,0.192-0.69c0.027,0.232,0.073,0.44,0.12,0.632c0,0,0,0.008,0.008,0.017v0.008
		C48.096,17.037,48.096,17.037,48.096,17.045z"/>
	<path class="dsn_path_col" fill="rgb(0, 0, 0)" d="M47.601,14.775c-0.019,0.582-0.008,1.089,0.045,1.538c-0.154,0.233-0.219,0.499-0.183,0.782
		c-0.155-0.582-0.211-1.28-0.183-2.37c0.092,0.017,0.183,0.033,0.266,0.042C47.564,14.775,47.593,14.775,47.601,14.775z"/>
	<path class="dsn_path_col" fill="rgb(0, 0, 0)" d="M47.93,14.567c-0.109-0.017-0.211-0.033-0.321-0.05c0,0.091-0.008,0.175-0.008,0.258c-0.019,0-0.036,0-0.055-0.008
		c-0.083-0.008-0.174-0.025-0.266-0.042c0.008-0.066,0.008-0.142,0.008-0.216c0.011-0.141,0.146-0.25,0.313-0.25
		c0.008,0,0.008,0,0.008,0c0.021,0.008,0.037,0.008,0.058,0.008c0.008,0,0.008,0,0.016,0c0.146,0.033,0.248,0.133,0.239,0.258
		C47.93,14.542,47.93,14.559,47.93,14.567z"/>
	<path class="dsn_path_col" fill="rgb(0, 0, 0)" d="M45.751,53.105c0-0.258,0.266-0.467,0.586-0.467s0.587,0.209,0.587,0.467s-0.257,0.465-0.587,0.465
		C46.017,53.57,45.751,53.363,45.751,53.105z"/>
	<path class="dsn_path_col" fill="rgb(0, 0, 0)" d="M43.343,24.146c-0.283,0-0.504-0.183-0.504-0.408c0-0.224,0.221-0.407,0.504-0.407c0.274,0,0.504,0.183,0.504,0.407
		C43.847,23.962,43.626,24.146,43.343,24.146z"/>
	<polygon class="dsn_path_col" fill="rgb(0, 0, 0)"  points="43.133,15.831 43.133,16.404 36.137,16.404 36.1,15.831 	"/>
	<path class="dsn_path_col" fill="rgb(0, 0, 0)" d="M41.228,11.2l0.256,1.322l-0.595-0.05l-0.21-1.131c-0.019,0-0.037,0-0.055,0l-0.32-0.025l-0.129,1.106l-0.55-0.042
		l0.339-2.943l0.87,0.066c0.313,0.025,0.521,0.108,0.649,0.25c0.11,0.133,0.156,0.299,0.138,0.516l-0.045,0.432
		C41.557,10.909,41.438,11.075,41.228,11.2z M41.09,10.235c0.02-0.175-0.082-0.266-0.283-0.283l-0.339-0.025l-0.11,0.939l0.33,0.025
		c0.092,0.008,0.165-0.017,0.238-0.058c0.073-0.042,0.109-0.1,0.109-0.175L41.09,10.235z"/>
	<rect class="dsn_path_col" fill="rgb(0, 0, 0)" x="37.886" y="34.962" width="2.133" height="11.366"/>
	<path class="dsn_path_col" fill="rgb(0, 0, 0)" d="M39.552,57.486c0,0.258-0.256,0.466-0.585,0.466c-0.321,0-0.587-0.208-0.587-0.466s0.256-0.465,0.587-0.465
		C39.287,57.021,39.552,57.229,39.552,57.486z"/>
	<polygon class="dsn_path_col" fill="rgb(0, 0, 0)"  points="39.104,10.643 39.076,11.092 38.325,11.059 38.271,11.865 39.296,11.915 39.26,12.364 37.675,12.281 37.905,9.329 
		39.479,9.404 39.442,9.853 38.426,9.803 38.361,10.609 	"/>
	<path class="dsn_path_col" fill="rgb(0, 0, 0)" d="M37.208,30.481v-0.939h0.34c0.21,0,0.32,0.083,0.32,0.258v0.432c0,0.075-0.028,0.133-0.092,0.183
		c-0.055,0.05-0.139,0.075-0.22,0.075h-0.349V30.481z"/>
	<path class="dsn_path_col" fill="rgb(0, 0, 0)" d="M55.044,50.769c0.083-0.324,0.175-0.665,0.257-1.022h0.32c-0.082,0.35-0.174,0.698-0.275,1.072
		c0,0.017-0.009,0.033-0.017,0.041c-0.093,0.184-0.377,0.74-18.762,11.566l0.009-0.125c0-0.059-0.018-0.116-0.063-0.166
		C43.682,57.928,54.753,51.334,55.044,50.769z"/>
	<polygon class="dsn_path_col" fill="rgb(0, 0, 0)"  points="37.317,9.313 37.19,12.272 36.632,12.256 36.769,9.304 	"/>
	<path class="dsn_path_col" fill="rgb(0, 0, 0)" d="M54.742,50.669c-0.504,0.565-7.37,4.772-18.46,11.3l0.084-1.563L53.14,50.203c0.019-0.142,0.037-0.299,0.063-0.457h1.768
		C54.907,50.045,54.834,50.353,54.742,50.669z"/>
	<polygon class="dsn_path_col" fill="rgb(0, 0, 0)"  points="36.786,26.415 34.452,26.415 34.452,26.157 36.777,26.157 	"/>
	<polygon class="dsn_path_col" fill="rgb(0, 0, 0)"  points="36.632,23.962 36.777,26.157 34.452,26.157 34.452,23.555 	"/>
	<path class="dsn_path_col" fill="rgb(0, 0, 0)" d="M36.632,19.09l0.109,1.779c0.008,0.017,0,0.033-0.008,0.05c-0.11-0.008-0.212-0.025-0.313-0.042l-0.119-1.838L36.632,19.09
		z"/>
	<path class="dsn_path_col" fill="rgb(0, 0, 0)" d="M36.256,62.551l0.019-0.25c0.081-0.05,0.165-0.1,0.256-0.15c0.046,0.051,0.064,0.101,0.064,0.167l-0.008,0.124
		c-0.037,0.025-0.084,0.051-0.121,0.076c-0.054,0.033-0.118,0.049-0.184,0.049C36.266,62.559,36.256,62.559,36.256,62.551z"/>
	<path class="dsn_path_col" fill="rgb(0, 0, 0)" d="M34.975,41.365l1.584,4.963h-2.317l-1.291-4.281c-0.064,0-0.128,0-0.192,0h-1.236v4.281h-2.133V34.962h3.37
		c1.19,0,2.059,0.266,2.619,0.79c0.486,0.458,0.731,1.098,0.731,1.921v1.655C36.119,40.126,35.734,40.808,34.975,41.365z
		 M34.031,39.361v-1.663c0-0.657-0.412-0.989-1.228-0.989h-1.291v3.633h1.291c0.339,0,0.623-0.092,0.871-0.291
		C33.921,39.868,34.031,39.635,34.031,39.361z"/>
	<path class="dsn_path_col" fill="rgb(0, 0, 0)" d="M55.044,50.769c-0.283,0.573-11.354,7.159-18.522,11.382c-0.056-0.058-0.146-0.1-0.239-0.1v-0.074
		c11.079-6.527,17.956-10.734,18.46-11.299c0.092-0.325,0.165-0.624,0.238-0.924h0.32C55.219,50.104,55.127,50.444,55.044,50.769z"
		/>
	<path class="dsn_path_col" fill="rgb(0, 0, 0)" d="M36.312,19.04l0.117,1.838c-0.109-0.017-0.219-0.025-0.32-0.042l-0.117-1.846L36.312,19.04z"/>
	<path class="dsn_path_col" fill="rgb(0, 0, 0)" d="M36.282,62.043L36.282,62.043c0.103,0.008,0.193,0.041,0.248,0.1c-0.091,0.051-0.175,0.1-0.256,0.15L36.282,62.043z"/>
	<path class="dsn_path_col" fill="rgb(0, 0, 0)" d="M36.282,62.043c-0.072-0.008-0.128,0.017-0.183,0.041c0.065-0.041,0.12-0.074,0.183-0.107V62.043L36.282,62.043z"/>
	<path class="dsn_path_col" fill="rgb(0, 0, 0)" d="M36.256,62.551c-0.091,0-0.184-0.033-0.247-0.101c0.083-0.05,0.174-0.1,0.257-0.149L36.256,62.551z"/>
	<path class="dsn_path_col" fill="rgb(0, 0, 0)" d="M35.872,17.12h0.301c0.175,0,0.321-0.116,0.321-0.258h0.009l0.146,2.229l-0.32-0.05l-0.32-0.05L35.872,17.12z"/>
	<polygon class="dsn_path_col" fill="rgb(0, 0, 0)"  points="36.137,16.404 34.452,16.404 34.452,15.831 36.1,15.831 	"/>
	<path class="dsn_path_col" fill="rgb(0, 0, 0)" d="M36.256,62.551l-0.102,1.804c-0.1-0.058-0.2-0.116-0.31-0.183l0.091-1.688c0.019-0.009,0.046-0.025,0.073-0.043
		C36.064,62.518,36.165,62.551,36.256,62.551z"/>
	<path class="dsn_path_col" fill="rgb(0, 0, 0)" d="M36.282,62.043l-0.008,0.258c-0.082,0.05-0.175,0.1-0.256,0.149c-0.037-0.05-0.056-0.1-0.056-0.149v-0.017
		c0-0.05,0.019-0.091,0.056-0.125c0-0.009,0.009-0.017,0.018-0.017c0,0,0.01-0.017,0.019-0.017c0.01-0.009,0.01-0.009,0.018-0.017
		c0.02-0.017,0.027-0.025,0.047-0.033C36.154,62.06,36.21,62.043,36.282,62.043z"/>
	<path class="dsn_path_col" fill="rgb(0, 0, 0)" d="M35.991,18.99l0.117,1.846c-0.777-0.1-1.345-0.174-1.656-0.216v-1.613c0.155,0,0.284-0.091,0.311-0.208L35.991,18.99z"/>
	<path class="dsn_path_col" fill="rgb(0, 0, 0)" d="M35.936,62.492l0.01-0.191c0,0.05,0.018,0.1,0.054,0.149C35.991,62.467,35.963,62.484,35.936,62.492z"/>
	<path class="dsn_path_col" fill="rgb(0, 0, 0)" d="M35.954,13.461l0.019,0.257c-0.01,0-0.019,0-0.027,0c-0.486-0.008-0.98-0.017-1.475-0.033c0.174,0,0.311-0.116,0.311-0.249
		C35.167,13.444,35.56,13.453,35.954,13.461z"/>
	<path class="dsn_path_col" fill="rgb(0, 0, 0)" d="M35.936,62.492l-0.091,1.688c-0.267-0.158-0.55-0.324-0.853-0.498l0.009-0.641C35.304,62.866,35.625,62.684,35.936,62.492z
		"/>
	<path class="dsn_path_col" fill="rgb(0, 0, 0)" d="M36.485,16.862c0,0.142-0.146,0.258-0.32,0.258h-0.302l-0.029-0.416c-0.009-0.033,0-0.067,0.019-0.1h0.302
		C36.339,16.604,36.485,16.721,36.485,16.862z"/>
	<path class="dsn_path_col" fill="rgb(0, 0, 0)" d="M35.845,64.18l-0.166,2.943l-0.777,1.081l0.091-4.522C35.295,63.855,35.578,64.021,35.845,64.18z"/>
	<path class="dsn_path_col" fill="rgb(0, 0, 0)" d="M34.452,1.688c0.642,0,1.173,0.416,1.173,0.939c0,0.516-0.531,0.931-1.173,0.931c-0.641,0-1.171-0.416-1.171-0.931
		C33.29,2.104,33.811,1.688,34.452,1.688z"/>
	<path class="dsn_path_col" fill="rgb(0, 0, 0)" d="M35.386,4.772l0.166,2.569c-0.706-0.025-1.1-0.025-1.1-0.025s-0.394,0-1.098,0.025l0.164-2.569
		c0.293,0.083,0.604,0.125,0.934,0.125C34.782,4.906,35.094,4.864,35.386,4.772z"/>
	<path class="dsn_path_col" fill="rgb(0, 0, 0)" d="M35.322,3.841l0.028,0.507C35.075,4.44,34.772,4.49,34.452,4.49c-0.321,0-0.623-0.05-0.897-0.141l0.028-0.507
		c0.256,0.125,0.549,0.191,0.87,0.191C34.772,4.033,35.075,3.966,35.322,3.841z"/>
	<path class="dsn_path_col" fill="rgb(0, 0, 0)" d="M35.991,67.198l-1.108,1.521l0.009-0.524l0.778-1.08l0.164-2.943c0.111,0.058,0.212,0.125,0.312,0.183L35.991,67.198z"/>
	<path class="dsn_path_col" fill="rgb(0, 0, 0)" d="M36.282,61.977c-0.063,0.033-0.117,0.074-0.183,0.107c-0.018,0.009-0.027,0.018-0.045,0.033
		c-0.009,0-0.009,0.009-0.019,0.018c-0.009,0-0.018,0.008-0.018,0.008c-0.01,0.008-0.02,0.017-0.02,0.025
		c-0.026,0.041-0.054,0.083-0.054,0.125v0.016l-0.01,0.191c-0.32,0.191-0.631,0.375-0.934,0.549l0.037-1.82l1.328-0.815
		L36.282,61.977z"/>
	<path class="dsn_path_col" fill="rgb(0, 0, 0)" d="M37.52,29.084h-0.879v2.96h0.559V30.93h0.32c0.019,0,0.037,0,0.056,0l0.338,1.114h0.605l-0.414-1.289
		c0.194-0.141,0.294-0.324,0.294-0.532v-0.432c0-0.216-0.063-0.383-0.192-0.499C38.06,29.151,37.832,29.084,37.52,29.084z
		 M34.984,31.87c0.173-0.142,0.255-0.308,0.255-0.499v-1.613c0-0.2-0.082-0.366-0.255-0.499c-0.037-0.033-0.073-0.058-0.12-0.083
		v-0.798h20.363c-0.073,1.488-0.155,3.001-0.266,4.515H34.874v-0.939C34.911,31.928,34.947,31.895,34.984,31.87z"/>
	<path class="dsn_path_col" fill="rgb(0, 0, 0)" d="M34.874,31.944v0.939h-0.833v-0.865c0.1,0.034,0.21,0.05,0.319,0.05C34.553,32.069,34.727,32.027,34.874,31.944z"/>
	<path class="dsn_path_col" fill="rgb(0, 0, 0)" d="M36.266,67.322l-1.529,2.121c0.045-0.075,0.055-0.175-0.009-0.25l-0.275-0.383l0.44-0.615l-0.009,0.524l1.108-1.521
		l0.163-2.844l0.102-1.804c0.01,0,0.01,0,0.019,0c0.064,0,0.128-0.018,0.184-0.051c0.045-0.024,0.082-0.05,0.118-0.074l-0.265,4.772
		C36.312,67.248,36.293,67.289,36.266,67.322z"/>
	<path class="dsn_path_col" fill="rgb(0, 0, 0)" d="M35.963,13.212c4.011,0.108,7.93,0.465,11.646,1.056c-0.174,0-0.31,0.108-0.31,0.25c-0.011,0.075-0.011,0.142-0.011,0.216
		c-3.614-0.557-7.424-0.898-11.315-1.006l-0.019-0.258c-0.385-0.008-0.778-0.017-1.172-0.025v-0.008c0-0.133-0.137-0.233-0.292-0.25
		C34.984,13.187,35.468,13.195,35.963,13.212z"/>
	<path class="dsn_path_col" fill="rgb(0, 0, 0)" d="M34.754,16.604h1.109c-0.019,0.033-0.029,0.067-0.019,0.1l0.027,0.416h-1.1v-0.424
		C34.772,16.662,34.772,16.629,34.754,16.604z"/>
	<path class="dsn_path_col" fill="rgb(0, 0, 0)" d="M34.131,17.12h0.641v1.638c0,0.017,0,0.033-0.009,0.05l-0.311-0.05l-0.312,0.05c0-0.008-0.009-0.033-0.009-0.05V17.12z"/>
	<path class="dsn_path_col" fill="rgb(0, 0, 0)" d="M34.131,16.688c0-0.034,0.009-0.059,0.019-0.083h0.595c0.019,0.025,0.019,0.058,0.019,0.083v0.424h-0.641v-0.424H34.131z"
		/>
	<path class="dsn_path_col" fill="rgb(0, 0, 0)" d="M34.452,21.875c0.275,0,0.504,0.183,0.504,0.408c0,0.224-0.229,0.399-0.504,0.399V21.875z"/>
	<path class="dsn_path_col" fill="rgb(0, 0, 0)" d="M34.471,7.774c0,0,0.412,0.008,1.145,0.033c4.56,0.142,19.787,0.848,24.895,3.825c-0.054-0.033-0.118-0.042-0.184-0.042
		c-0.174,0.008-0.31,0.125-0.301,0.266c0.01,0.042,0.01,0.083,0.01,0.125c-5.064-2.835-19.961-3.525-24.43-3.667
		c-0.64-0.017-1.043-0.025-1.125-0.033c0.174,0,0.311-0.116,0.311-0.258C34.772,7.882,34.635,7.774,34.471,7.774z"/>
	<path class="dsn_path_col" fill="rgb(0, 0, 0)" d="M34.041,31.42v-1.746c0.008-0.05,0.045-0.083,0.081-0.117c0.064-0.05,0.138-0.075,0.221-0.075
		c0.091,0,0.164,0.025,0.229,0.075c0.054,0.05,0.091,0.108,0.091,0.175v1.621c0,0.075-0.028,0.133-0.091,0.183
		c-0.065,0.05-0.138,0.075-0.229,0.075c-0.083,0-0.157-0.025-0.221-0.075C34.086,31.504,34.049,31.471,34.041,31.42z"/>
	<path class="dsn_path_col" fill="rgb(0, 0, 0)" d="M39.058,52.406v-0.225h-0.284v0.225H39.058z M38.773,51.542v0.232h0.284v-0.232H38.773z M39.827,52.041
		c0,0.1-0.063,0.149-0.192,0.149c-0.046,0-0.083-0.017-0.119-0.042c-0.027-0.024-0.045-0.059-0.045-0.092l-0.01-0.049l-0.266,0.016
		v0.042c0,0.101,0.045,0.183,0.128,0.249c0.092,0.075,0.192,0.108,0.32,0.108s0.238-0.033,0.33-0.1
		c0.092-0.075,0.138-0.157,0.138-0.274v-0.116c0-0.058-0.009-0.108-0.027-0.142c-0.047-0.074-0.11-0.133-0.193-0.174
		c0.047-0.025,0.073-0.051,0.109-0.075c0.074-0.067,0.111-0.149,0.111-0.241v-0.066c0-0.1-0.037-0.184-0.111-0.241
		c-0.082-0.075-0.183-0.108-0.319-0.108s-0.246,0.033-0.32,0.117c-0.073,0.066-0.101,0.148-0.101,0.257v0.034h0.274v-0.042
		c0-0.05,0.01-0.083,0.027-0.108c0.027-0.033,0.073-0.05,0.137-0.05c0.11,0,0.156,0.05,0.156,0.142v0.033
		c0,0.083-0.019,0.141-0.072,0.191c-0.056,0.049-0.139,0.074-0.248,0.074v0.191c0.201,0,0.302,0.074,0.302,0.232v0.084H39.827z
		 M37.09,51.774l0.385-0.873h-0.312l-0.212,0.54l-0.21-0.54h-0.313l0.377,0.873v0.632h0.284V51.774z M34.901,52.406v-1.271h0.302
		v-0.233h-0.742v-1.155h14.083L36.595,56.53l-2.133,1.206v-6.61h0.155v1.272h0.285V52.406z M38.023,51.217
		c0.036-0.074,0.091-0.107,0.174-0.107c0.055,0,0.102,0.017,0.138,0.05c0.026,0.033,0.045,0.075,0.045,0.116
		c0,0.059-0.019,0.117-0.045,0.175c-0.047,0.083-0.109,0.175-0.202,0.267c-0.092,0.107-0.154,0.183-0.201,0.232l-0.073,0.083
		c-0.026,0.024-0.046,0.05-0.063,0.075c-0.047,0.05-0.064,0.074-0.064,0.083v0.208h0.896v-0.225h-0.549c0,0,0.009-0.008,0.009-0.025
		c0.018-0.024,0.046-0.059,0.073-0.092l0.055-0.066c0.056-0.074,0.11-0.124,0.138-0.157c0.11-0.134,0.183-0.225,0.22-0.274
		c0.055-0.1,0.083-0.199,0.083-0.3c0-0.1-0.047-0.19-0.137-0.257c-0.084-0.076-0.193-0.109-0.321-0.109
		c-0.138,0-0.239,0.034-0.32,0.101c-0.093,0.075-0.146,0.183-0.146,0.333v0.041h0.274v-0.059
		C38.005,51.275,38.014,51.242,38.023,51.217z M35.981,50.901v0.641h-0.339v-0.641h-0.285v1.505h0.285v-0.641h0.339v0.641h0.284
		v-1.505H35.981z"/>
	<path class="dsn_path_col" fill="rgb(0, 0, 0)" d="M34.232,69.501c-0.009-0.009-0.019-0.017-0.028-0.024c-0.009-0.009-0.019-0.025-0.019-0.033l-0.018-0.033
		c-0.037-0.075-0.028-0.15,0.018-0.225l0.275-0.383l0.275,0.383c0.055,0.083,0.055,0.174,0.008,0.249
		c-0.027,0.033-0.055,0.066-0.1,0.083c-0.019,0.017-0.037,0.025-0.054,0.033c-0.037,0.017-0.083,0.017-0.12,0.017
		C34.37,69.576,34.287,69.551,34.232,69.501z"/>
	<path class="dsn_path_col" fill="rgb(0, 0, 0)" d="M34.452,18.758l0.311,0.05c-0.027,0.116-0.156,0.208-0.311,0.208V18.758z"/>
	<path class="dsn_path_col" fill="rgb(0, 0, 0)" d="M35.011,9.72l-0.036,2.062h0.338c0.092,0,0.165-0.025,0.23-0.075c0.054-0.05,0.09-0.108,0.09-0.183l0.028-1.546
		c0-0.075-0.028-0.133-0.092-0.183c-0.056-0.05-0.138-0.075-0.22-0.075H35.011z M36.192,9.986l-0.027,1.546
		c0,0.2-0.093,0.366-0.266,0.499c-0.175,0.133-0.375,0.208-0.615,0.199l-0.869-0.008l0.045-2.96l0.87,0.008
		c0.247,0,0.448,0.075,0.614,0.216C36.119,9.628,36.192,9.794,36.192,9.986z"/>
	<path class="dsn_path_col" fill="rgb(0, 0, 0)" d="M34.452,13.694v-0.257c0.11,0,0.211,0.008,0.32,0.008C34.772,13.578,34.635,13.686,34.452,13.694L34.452,13.694z"/>
	<path class="dsn_path_col" fill="rgb(0, 0, 0)" d="M34.461,13.694c0.504,0.008,0.998,0.017,1.474,0.034c0.01,0,0.019,0,0.027,0l0.119,1.821h-1.63L34.461,13.694
		L34.461,13.694z"/>
	<polygon class="dsn_path_col" fill="rgb(0, 0, 0)"  points="34.452,23.555 34.452,26.157 32.145,26.157 32.282,23.962 	"/>
	<path class="dsn_path_col" fill="rgb(0, 0, 0)" d="M34.141,18.799l0.312-0.05v0.258C34.296,19.007,34.168,18.924,34.141,18.799z"/>
	<polygon class="dsn_path_col" fill="rgb(0, 0, 0)"  points="34.452,16.404 32.776,16.404 32.813,15.831 34.452,15.831 	"/>
	<path class="dsn_path_col" fill="rgb(0, 0, 0)" d="M34.452,13.694v1.854h-1.63l0.119-1.821c0.009,0,0.019,0,0.028,0C33.454,13.71,33.949,13.702,34.452,13.694L34.452,13.694z
		"/>
	<path class="dsn_path_col" fill="rgb(0, 0, 0)" d="M33.958,22.274c0-0.224,0.219-0.407,0.503-0.407v0.807C34.178,22.682,33.958,22.499,33.958,22.274z"/>
	<path class="dsn_path_col" fill="rgb(0, 0, 0)" d="M34.131,13.437v-0.009c0.009-0.133,0.138-0.241,0.312-0.249c0.009,0,0.009,0,0.009,0c0.009,0,0.019,0,0.028,0
		c0.155,0.017,0.292,0.116,0.292,0.249c0,0.009,0,0.009,0,0.009c-0.109,0.008-0.21,0-0.32,0
		C34.352,13.437,34.242,13.437,34.131,13.437z"/>
	<path class="dsn_path_col" fill="rgb(0, 0, 0)" d="M34.452,13.694c-0.173,0-0.312-0.116-0.312-0.25c0.11,0,0.211-0.008,0.321-0.008L34.452,13.694L34.452,13.694z"/>
	<path class="dsn_path_col" fill="rgb(0, 0, 0)" d="M34.131,8.023c0.009-0.133,0.147-0.241,0.312-0.25h0.009h0.009c0.165,0.008,0.302,0.108,0.311,0.25
		c0.009,0.142-0.137,0.258-0.311,0.258c0,0-0.009,0-0.019,0C34.279,8.281,34.131,8.165,34.131,8.023z"/>
	<path class="dsn_path_col" fill="rgb(0, 0, 0)" d="M34.874,28.377v0.798c-0.146-0.083-0.32-0.125-0.513-0.125c-0.119,0-0.22,0.017-0.319,0.05v-0.715h0.833V28.377z"/>
	<path class="dsn_path_col" fill="rgb(0, 0, 0)" d="M34.141,18.799c0.028,0.116,0.156,0.208,0.312,0.208v1.613c-0.312,0.042-0.879,0.108-1.648,0.216l0.12-1.846L34.141,18.799
		z"/>
	<path class="dsn_path_col" fill="rgb(0, 0, 0)" d="M32.941,13.719l0.019-0.257c0.385-0.008,0.778-0.017,1.171-0.025c0.009,0.133,0.147,0.249,0.312,0.249
		c-0.503,0.008-0.998,0.017-1.474,0.033C32.969,13.719,32.96,13.719,32.941,13.719z"/>
	<path class="dsn_path_col" fill="rgb(0, 0, 0)" d="M34.041,29.683v1.746c-0.01-0.017-0.01-0.042-0.01-0.066v-1.621C34.031,29.725,34.031,29.699,34.041,29.683z"/>
	<path class="dsn_path_col" fill="rgb(0, 0, 0)" d="M33.61,52.148c-0.037-0.024-0.045-0.059-0.045-0.092v-0.822c0-0.033,0.018-0.066,0.045-0.092
		c0.028-0.025,0.073-0.041,0.119-0.041c0.046,0,0.083,0.016,0.11,0.041s0.046,0.059,0.046,0.092v0.822
		c0,0.042-0.019,0.067-0.046,0.092c-0.028,0.025-0.073,0.042-0.11,0.042C33.683,52.19,33.646,52.182,33.61,52.148z"/>
	<polygon class="dsn_path_col" fill="rgb(0, 0, 0)"  points="33.07,11.79 34.031,11.773 34.031,12.222 32.529,12.239 32.465,9.287 33.024,9.279 	"/>
	<path class="dsn_path_col" fill="rgb(0, 0, 0)" d="M34.159,16.604c-0.019,0.025-0.019,0.058-0.019,0.083v0.424h-1.098l0.027-0.416c0.009-0.033,0-0.066-0.019-0.1h1.108
		V16.604z"/>
	<path class="dsn_path_col" fill="rgb(0, 0, 0)" d="M32.868,60.604l0.092,1.696h-0.009c0-0.083-0.046-0.158-0.128-0.208c-0.046-0.024-0.1-0.058-0.146-0.083L32.868,60.604z"/>
	<path class="dsn_path_col" fill="rgb(0, 0, 0)" d="M33.234,67.123l1.227,1.696l-0.275,0.382c-0.055,0.076-0.055,0.15-0.018,0.225l-1.52-2.095
		c-0.027-0.033-0.046-0.075-0.046-0.116l-0.266-4.773c0.045,0.025,0.082,0.051,0.119,0.076c0.055,0.033,0.119,0.049,0.184,0.049
		c0.101,0,0.201-0.041,0.256-0.107c0.046-0.051,0.055-0.1,0.055-0.15h0.009L33.234,67.123z"/>
	<path class="dsn_path_col" fill="rgb(0, 0, 0)" d="M32.804,20.836c-0.109,0.017-0.21,0.034-0.32,0.042l0.12-1.838l0.32-0.05L32.804,20.836z"/>
	<polygon class="dsn_path_col" fill="rgb(0, 0, 0)"  points="32.813,15.831 32.776,16.404 25.782,16.404 25.782,15.831 	"/>
	<path class="dsn_path_col" fill="rgb(0, 0, 0)" d="M36.201,2.627c0-0.773-0.778-1.405-1.749-1.405s-1.749,0.632-1.749,1.405c0,0.524,0.357,0.981,0.879,1.214l-0.028,0.507
		c-0.842-0.283-1.437-0.948-1.437-1.721c0-1.04,1.043-1.879,2.334-1.879s2.334,0.84,2.334,1.879c0,0.773-0.585,1.438-1.437,1.721
		l-0.028-0.507C35.845,3.6,36.201,3.143,36.201,2.627z"/>
	<path class="dsn_path_col" fill="rgb(0, 0, 0)" d="M32.74,16.604h0.311c0.019,0.033,0.019,0.067,0.019,0.1l-0.027,0.416H32.74c-0.174,0-0.312-0.108-0.312-0.241l0.009-0.066
		C32.456,16.695,32.585,16.604,32.74,16.604z"/>
	<path class="dsn_path_col" fill="rgb(0, 0, 0)" d="M32.319,62.102l-0.018-0.324c0.128,0.074,0.256,0.149,0.385,0.225l-0.046,0.291C32.539,62.234,32.429,62.176,32.319,62.102
		z"/>
	<path class="dsn_path_col" fill="rgb(0, 0, 0)" d="M32.603,19.04l-0.12,1.838c-0.101,0.017-0.21,0.033-0.312,0.042c-0.008-0.017-0.008-0.033-0.008-0.05l0.119-1.779
		L32.603,19.04z"/>
	<path class="dsn_path_col" fill="rgb(0, 0, 0)" d="M32.429,16.87c0.009,0.133,0.146,0.241,0.312,0.241h0.302l-0.119,1.871l-0.32,0.05l-0.321,0.05L32.429,16.87z"/>
	<path class="dsn_path_col" fill="rgb(0, 0, 0)" d="M32.429,16.812l-0.009,0.066c-0.009-0.008-0.009-0.008-0.009-0.017C32.419,16.845,32.429,16.829,32.429,16.812z"/>
	<path class="dsn_path_col" fill="rgb(0, 0, 0)" d="M32.832,62.093c0.083,0.05,0.128,0.125,0.128,0.208c0,0.05-0.019,0.1-0.056,0.149c-0.064,0.067-0.155,0.108-0.255,0.108
		c-0.064,0-0.129-0.017-0.184-0.05c-0.037-0.024-0.083-0.05-0.119-0.075l-0.018-0.324c0.11,0.066,0.22,0.133,0.321,0.199
		l0.045-0.291C32.731,62.035,32.786,62.068,32.832,62.093z"/>
	<path class="dsn_path_col" fill="rgb(0, 0, 0)" d="M32.292,60.256l0.576,0.349l-0.182,1.397c-0.129-0.075-0.257-0.158-0.385-0.225l-0.083-1.355
		C32.218,60.363,32.245,60.305,32.292,60.256z"/>
	<polygon class="dsn_path_col" fill="rgb(0, 0, 0)"  points="32.282,23.962 32.145,26.157 20.69,26.157 	"/>
	<path class="dsn_path_col" fill="rgb(0, 0, 0)" d="M13.668,28.377h20.373v0.715v0.008c-0.11,0.034-0.202,0.083-0.294,0.15c-0.174,0.141-0.256,0.308-0.256,0.507v1.613
		c0,0.2,0.083,0.366,0.256,0.499c0.092,0.075,0.184,0.125,0.294,0.158v0.865H13.934C13.833,31.379,13.741,29.866,13.668,28.377z
		 M32.2,29.533v-0.449h-1.584v2.96h0.559v-1.255h0.75V30.34h-0.75v-0.807H32.2z"/>
	<path class="dsn_path_col" fill="rgb(0, 0, 0)" d="M32.172,20.919c-4.065,0.549-12.204,1.729-18.614,3.185c-0.009-0.74,0-1.455,0.009-2.154l18.715-2.86l-0.119,1.779
		C32.164,20.886,32.164,20.903,32.172,20.919z"/>
	<polygon class="dsn_path_col" fill="rgb(0, 0, 0)"  points="34.452,26.415 32.118,26.415 32.145,26.157 34.452,26.157 	"/>
	<path class="dsn_path_col" fill="rgb(0, 0, 0)" d="M31.349,11.782c0.055-0.05,0.083-0.117,0.083-0.183l-0.092-1.613c-0.009-0.066-0.046-0.125-0.11-0.175
		C31.165,9.761,31.092,9.736,31,9.745c-0.083,0.008-0.156,0.033-0.22,0.083c-0.064,0.05-0.091,0.108-0.083,0.183l0.092,1.613
		c0.009,0.075,0.046,0.133,0.11,0.183c0.064,0.05,0.146,0.066,0.229,0.066C31.211,11.856,31.285,11.832,31.349,11.782z
		 M30.241,11.64l-0.092-1.613c-0.009-0.2,0.064-0.366,0.229-0.507c0.164-0.141,0.366-0.224,0.604-0.233
		c0.247-0.008,0.458,0.05,0.641,0.183c0.183,0.133,0.274,0.299,0.284,0.491l0.092,1.613c0.009,0.2-0.064,0.366-0.229,0.507
		c-0.164,0.141-0.366,0.225-0.614,0.233c-0.247,0.008-0.458-0.05-0.632-0.183C30.351,11.998,30.259,11.84,30.241,11.64z"/>
	<path class="dsn_path_col" fill="rgb(0, 0, 0)" d="M29.947,57.021c0.321,0,0.586,0.207,0.586,0.465s-0.256,0.466-0.586,0.466c-0.32,0-0.585-0.208-0.585-0.466
		S29.627,57.021,29.947,57.021z"/>
	<path class="dsn_path_col" fill="rgb(0, 0, 0)" d="M33.729,52.423c0.12,0,0.23-0.042,0.32-0.108c0.083-0.074,0.137-0.157,0.137-0.258v-0.822c0-0.1-0.045-0.184-0.137-0.25
		c-0.09-0.074-0.201-0.107-0.32-0.107c-0.119,0-0.229,0.033-0.311,0.1c-0.091,0.074-0.137,0.158-0.137,0.258v0.822
		c0,0.101,0.045,0.184,0.127,0.258C33.5,52.39,33.61,52.423,33.729,52.423z M31.248,50.901v1.505h0.284v-1.505H31.248z
		 M30.195,51.126h0.302v1.272h0.284v-1.272h0.302v-0.233h-0.878v0.233H30.195z M33.024,50.901H32.64l-0.257,1.081l-0.256-1.081
		h-0.413v1.505h0.284v-0.939l0.274,0.939h0.229l0.248-0.947v0.947h0.284v-1.505H33.024z M20.379,49.746h14.082v1.155h-0.146v0.233
		h0.146v6.609l-2.124-1.205L20.379,49.746z M29.938,51.268c0-0.1-0.046-0.191-0.128-0.258c-0.091-0.075-0.192-0.108-0.32-0.108
		c-0.137,0-0.248,0.033-0.321,0.101c-0.091,0.074-0.146,0.182-0.146,0.332v0.041h0.274v-0.058c0-0.033,0.009-0.066,0.019-0.092
		c0.037-0.075,0.092-0.108,0.174-0.108c0.055,0,0.091,0.018,0.137,0.051c0.027,0.033,0.046,0.074,0.046,0.116
		c0,0.058-0.019,0.116-0.056,0.175c-0.045,0.083-0.11,0.174-0.192,0.266c-0.092,0.108-0.156,0.184-0.202,0.232l-0.073,0.084
		c-0.019,0.024-0.046,0.049-0.064,0.074c-0.037,0.051-0.055,0.075-0.055,0.084v0.207h0.896v-0.225h-0.558
		c0,0,0.009-0.008,0.019-0.024c0.018-0.025,0.045-0.059,0.073-0.092l0.045-0.066c0.064-0.075,0.11-0.124,0.137-0.158
		c0.12-0.133,0.183-0.224,0.22-0.274C29.911,51.467,29.938,51.375,29.938,51.268z"/>
	<path class="dsn_path_col" fill="rgb(0, 0, 0)" d="M29.773,11.607c0,0.017,0.01,0.042,0.01,0.058c0.008,0.183-0.046,0.341-0.156,0.482c-0.083,0.1-0.201,0.183-0.367,0.233
		c-0.082,0.025-0.182,0.042-0.302,0.05c-0.22,0.017-0.403-0.025-0.549-0.1c-0.129-0.067-0.229-0.15-0.312-0.266
		c-0.083-0.116-0.138-0.258-0.166-0.407l0.532-0.067c0.037,0.175,0.109,0.291,0.21,0.366c0.074,0.059,0.147,0.075,0.238,0.067
		c0.12-0.008,0.211-0.067,0.275-0.167c0.027-0.05,0.045-0.108,0.037-0.199c-0.009-0.125-0.091-0.241-0.247-0.358
		c-0.119-0.075-0.293-0.191-0.531-0.341c-0.193-0.133-0.339-0.25-0.431-0.366c-0.091-0.116-0.146-0.258-0.155-0.407
		c-0.027-0.266,0.064-0.474,0.275-0.632c0.128-0.091,0.293-0.141,0.503-0.158c0.193-0.017,0.367,0.008,0.514,0.075
		c0.118,0.05,0.21,0.117,0.283,0.216c0.083,0.091,0.128,0.208,0.156,0.333l-0.521,0.108c-0.027-0.116-0.083-0.208-0.156-0.274
		c-0.055-0.05-0.137-0.066-0.229-0.058c-0.101,0.008-0.174,0.05-0.22,0.125c-0.037,0.058-0.045,0.133-0.045,0.216
		c0.018,0.133,0.101,0.266,0.255,0.399c0.064,0.05,0.147,0.108,0.266,0.174c0.138,0.083,0.229,0.133,0.274,0.167
		c0.147,0.1,0.266,0.2,0.348,0.299c0.037,0.05,0.073,0.091,0.091,0.133C29.719,11.433,29.765,11.516,29.773,11.607z"/>
	<polygon class="dsn_path_col" fill="rgb(0, 0, 0)"  points="27.969,34.962 27.969,46.328 25.836,46.328 25.836,41.506 23.254,41.506 23.254,46.328 21.121,46.328 
		21.121,43.76 21.121,37.557 21.121,34.962 23.254,34.962 23.254,39.785 25.836,39.785 25.836,34.962 	"/>
	<path class="dsn_path_col" fill="rgb(0, 0, 0)" d="M25.562,24.146c-0.274,0-0.504-0.183-0.504-0.408c0-0.224,0.22-0.407,0.504-0.407c0.284,0,0.513,0.183,0.513,0.407
		C26.074,23.962,25.846,24.146,25.562,24.146z"/>
	<path class="dsn_path_col" fill="rgb(0, 0, 0)" d="M23.153,53.105c0,0.258-0.265,0.465-0.585,0.465s-0.586-0.207-0.586-0.465s0.257-0.467,0.586-0.467
		C22.888,52.639,23.153,52.848,23.153,53.105z"/>
	<path class="dsn_path_col" fill="rgb(0, 0, 0)" d="M32.941,13.719c-3.891,0.108-7.7,0.449-11.317,1.006c-0.009-0.066-0.009-0.142-0.009-0.216
		c-0.009-0.141-0.156-0.25-0.321-0.25c3.187-0.499,6.529-0.84,9.934-0.998c0.568-0.025,1.136-0.042,1.712-0.058
		c0.494-0.017,0.989-0.025,1.492-0.033c-0.173,0.008-0.302,0.116-0.312,0.249c0,0.008,0,0.008,0,0.008
		c-0.394,0.017-0.787,0.025-1.171,0.034L32.941,13.719z"/>
	<path class="dsn_path_col" fill="rgb(0, 0, 0)" d="M21.305,14.775c-0.11,0.017-0.211,0.033-0.321,0.05c0-0.083,0-0.174-0.009-0.258c0.11-0.017,0.21-0.033,0.32-0.05
		C21.305,14.608,21.305,14.692,21.305,14.775z"/>
	<path class="dsn_path_col" fill="rgb(0, 0, 0)" d="M21.305,14.259c0.164,0,0.311,0.108,0.32,0.25c0,0.075,0,0.142,0.009,0.216c-0.091,0.017-0.184,0.033-0.266,0.042
		c-0.019,0.008-0.037,0.008-0.055,0.008c0-0.083-0.008-0.175-0.008-0.258c-0.11,0.017-0.211,0.033-0.321,0.05
		c0-0.017,0-0.025,0-0.042c-0.009-0.125,0.101-0.233,0.248-0.258c0.009,0,0.009,0,0.009,0c0.009,0,0.009,0,0.009,0
		c0.019,0,0.037-0.008,0.045-0.008C21.295,14.259,21.295,14.259,21.305,14.259z"/>
	<path class="dsn_path_col" fill="rgb(0, 0, 0)" d="M20.938,16.38c0.055-0.416,0.073-0.907,0.046-1.547c0.11-0.017,0.21-0.033,0.321-0.05c0.027,0.931-0.01,1.671-0.174,2.295
		C21.167,16.812,21.103,16.579,20.938,16.38z"/>
	<path class="dsn_path_col" fill="rgb(0, 0, 0)" d="M20.984,14.833c0.018,0.64,0.009,1.131-0.046,1.547c-0.467-0.591-1.758-0.932-3.891-0.798
		C18.319,15.299,19.647,15.049,20.984,14.833z"/>
	<polygon class="dsn_path_col" fill="rgb(0, 0, 0)"  points="32.118,26.415 19.345,26.415 20.69,26.157 32.145,26.157 	"/>
	<path class="dsn_path_col" fill="rgb(0, 0, 0)" d="M20.818,17.012c0.055-0.191,0.092-0.399,0.12-0.632c0.156,0.199,0.22,0.432,0.192,0.69
		c0.165-0.615,0.201-1.355,0.174-2.295c0.018,0,0.036,0,0.054-0.008c0.083-0.008,0.174-0.025,0.266-0.042
		c0.028,1.098-0.027,1.804-0.183,2.395c-0.192,0.715-0.549,1.272-1.126,1.763c0.119-0.108,0.219-0.233,0.312-0.382
		c0.237-0.383,0.119-0.649-0.019-0.807c-0.009-0.017-0.027-0.025-0.045-0.042C20.673,17.469,20.754,17.252,20.818,17.012z"/>
	<polygon class="dsn_path_col" fill="rgb(0, 0, 0)"  points="34.452,49.746 20.379,49.746 19.931,49.488 34.452,49.488 	"/>
	<path class="dsn_path_col" fill="rgb(0, 0, 0)" d="M19.848,18.55c0.311-0.266,0.549-0.549,0.724-0.881c0.019,0.017,0.028,0.025,0.046,0.042
		c0.146,0.158,0.256,0.424,0.019,0.807c-0.092,0.141-0.202,0.266-0.312,0.382c-0.009,0.008-0.009,0.008-0.019,0.017
		c-0.009,0-0.009,0.008-0.018,0.017c-0.009,0-0.009,0.008-0.019,0.017c0,0.008-0.009,0.008-0.009,0.008
		c-0.018,0.008-0.037,0.025-0.055,0.025c-0.046,0.017-0.083,0.025-0.128,0.025c-0.019,0-0.045,0-0.073-0.008
		c-0.009,0-0.028,0-0.037-0.008c-0.019-0.008-0.037-0.008-0.055-0.025c-0.009-0.008-0.019-0.017-0.028-0.025
		c-0.009,0-0.009,0-0.009-0.008h-0.018c0-0.008,0-0.008,0-0.008c-0.009,0-0.019-0.008-0.027-0.017
		c-0.009-0.008-0.009-0.017-0.019-0.025c-0.009-0.017-0.018-0.033-0.037-0.042c-0.018-0.033-0.027-0.075-0.027-0.108
		c0-0.017,0.009-0.033,0.009-0.042c0-0.017,0.009-0.025,0.009-0.042c0.009-0.008,0.009-0.025,0.019-0.033
		C19.802,18.591,19.821,18.575,19.848,18.55z"/>
	<polygon class="dsn_path_col" fill="rgb(0, 0, 0)"  points="19.931,49.488 19.922,49.488 19.922,49.479 	"/>
	<path class="dsn_path_col" fill="rgb(0, 0, 0)" d="M19.867,42.172v1.588c0,0.756-0.339,1.396-0.999,1.92c-0.659,0.532-1.455,0.79-2.38,0.79c-0.943,0-1.749-0.267-2.408-0.798
		c-0.659-0.532-0.989-1.164-0.989-1.912v-6.211c0-0.757,0.33-1.397,0.998-1.921c0.668-0.532,1.465-0.79,2.398-0.79
		c0.943,0,1.74,0.266,2.399,0.799c0.65,0.531,0.98,1.172,0.98,1.92v1.297h-2.215v-1.33c0-0.274-0.12-0.499-0.367-0.698
		c-0.247-0.191-0.531-0.291-0.869-0.291c-0.339,0-0.623,0.1-0.87,0.291c-0.238,0.199-0.348,0.424-0.348,0.698v6.219
		c0,0.275,0.118,0.508,0.348,0.699c0.238,0.191,0.531,0.282,0.87,0.282c0.338,0,0.632-0.091,0.869-0.282
		c0.239-0.191,0.367-0.424,0.367-0.699V42.18h2.215V42.172z"/>
	<polygon class="dsn_path_col" fill="rgb(0, 0, 0)"  points="50.704,26.673 18.209,26.673 18.209,26.631 19.345,26.415 32.118,26.415 34.452,26.415 36.786,26.415 
		49.568,26.415 50.704,26.631 	"/>
	<polygon class="dsn_path_col" fill="rgb(0, 0, 0)"  points="18.191,26.415 19.345,26.415 18.209,26.631 	"/>
	<path class="dsn_path_col" fill="rgb(0, 0, 0)" d="M14.822,15.831c1.73-0.433,3.791-0.881,6.162-1.264c0.009,0.092,0.009,0.175,0.009,0.258
		c-1.346,0.216-2.664,0.466-3.937,0.749C16.388,15.615,15.646,15.698,14.822,15.831z"/>
	<path class="dsn_path_col" fill="rgb(0, 0, 0)" d="M15.765,50.203l16.526,10.053c-0.046,0.049-0.074,0.1-0.074,0.166l0.083,1.355c-10.942-6.453-17.689-10.585-18.129-11.1
		c-0.082-0.316-0.165-0.633-0.238-0.932h1.768C15.729,49.912,15.747,50.062,15.765,50.203z"/>
	<path class="dsn_path_col" fill="rgb(0, 0, 0)" d="M15.673,49.488c0.019,0.083,0.019,0.166,0.028,0.258h-1.768c-0.019-0.084-0.046-0.175-0.064-0.258H15.673z"/>
	<path class="dsn_path_col" fill="rgb(0, 0, 0)" d="M14.171,50.678c0.44,0.515,7.188,4.646,18.129,11.1l0.018,0.324C25.15,57.877,14.162,51.334,13.87,50.76
		c-0.083-0.324-0.174-0.664-0.257-1.022h0.321C14.006,50.045,14.089,50.361,14.171,50.678z"/>
	<path class="dsn_path_col" fill="rgb(0, 0, 0)" d="M13.558,49.23h41.807c-0.146,0-0.284,0.083-0.312,0.207c-0.01,0.018-0.01,0.034-0.01,0.051H53.25
		c-0.011,0.083-0.019,0.166-0.027,0.258h-4.67l0.448-0.258h0.01v-0.009l-0.01,0.009H34.452H19.931l-0.009-0.009v0.009h0.009
		l0.448,0.258H15.71c-0.009-0.084-0.018-0.166-0.027-0.258h-1.795c-0.009-0.017-0.009-0.033-0.009-0.051
		C13.833,49.322,13.704,49.23,13.558,49.23z"/>
	<path class="dsn_path_col" fill="rgb(0, 0, 0)" d="M13.558,49.488h0.32c0.019,0.083,0.046,0.166,0.064,0.258h-0.321C13.595,49.662,13.567,49.58,13.558,49.488z"/>
	<path class="dsn_path_col" fill="rgb(0, 0, 0)" d="M32.337,62.434C13.952,51.6,13.668,51.043,13.576,50.868c-0.009-0.017-0.009-0.033-0.018-0.042
		c-0.101-0.373-0.192-0.723-0.274-1.072h0.32c0.083,0.357,0.174,0.699,0.257,1.023c0.293,0.573,11.28,7.117,18.449,11.34
		L32.337,62.434z"/>
	<path class="dsn_path_col" fill="rgb(0, 0, 0)" d="M13.604,26.415c-0.009-0.083-0.009-0.174-0.009-0.258h7.096l-1.345,0.258h-1.154H13.604z"/>
	<path class="dsn_path_col" fill="rgb(0, 0, 0)" d="M13.558,24.096c0.009,0.673,0.018,1.363,0.037,2.062H11.15c-0.018-0.523-0.046-1.014-0.064-1.463
		C11.864,24.495,12.697,24.295,13.558,24.096z"/>
	<path class="dsn_path_col" fill="rgb(0, 0, 0)" d="M13.567,21.942c-0.009,0.699-0.018,1.414-0.009,2.154c-0.852,0.191-1.694,0.391-2.473,0.599
		c-0.046-0.973-0.073-1.779-0.091-2.361L13.567,21.942z"/>
	<path class="dsn_path_col" fill="rgb(0, 0, 0)" d="M13.238,49.529c-0.027-0.133,0.082-0.273,0.256-0.291c0.019-0.008,0.037-0.008,0.055-0.008
		c0.146,0,0.284,0.083,0.312,0.207c0.009,0.018,0.009,0.034,0.009,0.051h-0.321c0.018,0.083,0.037,0.166,0.055,0.258h-0.32
		C13.265,49.671,13.256,49.604,13.238,49.529z"/>
	<path class="dsn_path_col" fill="rgb(0, 0, 0)" d="M13.292,49.746H1.884c-0.183,0-0.32-0.117-0.32-0.258c0-0.142,0.138-0.258,0.32-0.258h11.674c-0.019,0-0.046,0-0.055,0.008
		c-0.174,0.018-0.284,0.158-0.256,0.291C13.256,49.604,13.265,49.671,13.292,49.746z"/>
	<path class="dsn_path_col" fill="rgb(0, 0, 0)" d="M13.604,26.415h-2.444c-0.009-0.083-0.009-0.174-0.018-0.258h2.444C13.595,26.249,13.595,26.332,13.604,26.415z"/>
	<path class="dsn_path_col" fill="rgb(0, 0, 0)" d="M20.984,14.567c-2.38,0.383-4.432,0.832-6.162,1.264c0.824-0.133,1.566-0.216,2.225-0.25
		c-0.733,0.158-1.438,0.316-2.134,0.499c-3.507,0.881-5.649,1.738-6.254,1.996c-0.009-0.033-0.018-0.075-0.018-0.149v-0.008
		c0-0.008,0-0.008,0-0.008c0-0.133,0-0.266,0.009-0.416c0.879-0.357,2.93-1.114,6.08-1.904c2.06-0.524,4.239-0.956,6.501-1.322
		c-0.147,0.025-0.248,0.133-0.248,0.258C20.984,14.542,20.984,14.559,20.984,14.567z"/>
	<path class="dsn_path_col" fill="rgb(0, 0, 0)" d="M8.595,11.59c0.174,0.008,0.312,0.125,0.303,0.266c0,0.042-0.009,0.083-0.009,0.125c-0.046,0.025-0.083,0.05-0.12,0.066
		c-0.055,0.033-0.119,0.05-0.192,0.05c-0.092,0-0.192-0.042-0.256-0.108c-0.046-0.05-0.064-0.1-0.064-0.15c0-0.008,0-0.008,0-0.008
		c0-0.017,0.009-0.033,0.009-0.05c0-0.008,0.009-0.017,0.009-0.025s0.009-0.017,0.019-0.033s0.018-0.033,0.037-0.05
		c0-0.009,0.009-0.009,0.009-0.009c0.009,0,0.009-0.008,0.009-0.008l0.009-0.009c0.019-0.008,0.027-0.025,0.046-0.025
		C8.458,11.599,8.522,11.59,8.595,11.59z"/>
	<path class="dsn_path_col" fill="rgb(0, 0, 0)" d="M8.403,11.632c5.1-2.977,20.345-3.683,24.896-3.825c0.732-0.025,1.144-0.033,1.144-0.033
		c-0.173,0.008-0.312,0.108-0.312,0.25c-0.009,0.142,0.138,0.258,0.312,0.258c-0.083,0.008-0.475,0.017-1.125,0.033
		c-1.081,0.033-2.757,0.1-4.762,0.225C22.248,8.921,12.734,9.828,8.889,11.99c0-0.042,0.009-0.083,0.009-0.125
		c0.009-0.141-0.129-0.258-0.303-0.266C8.522,11.59,8.458,11.599,8.403,11.632z"/>
	<path class="dsn_path_col" fill="rgb(0, 0, 0)" d="M8.357,11.665c-0.009,0-0.009,0.009-0.009,0.009C8.339,11.665,8.348,11.665,8.357,11.665z"/>
	<path class="dsn_path_col" fill="rgb(0, 0, 0)" d="M8.192,17.685c0.055-0.025,0.211-0.1,0.449-0.191c-0.009,0.142-0.009,0.283-0.009,0.416
		c-0.009-0.133-0.146-0.241-0.32-0.241h0.009C8.275,17.668,8.229,17.677,8.192,17.685z"/>
	<path class="dsn_path_col" fill="rgb(0, 0, 0)" d="M8.321,17.668L8.321,17.668c0.174,0,0.311,0.108,0.32,0.241c0,0,0,0,0,0.008v0.008c-0.009,0.133-0.146,0.241-0.32,0.241
		c-0.174,0-0.302-0.1-0.321-0.232c0-0.008,0-0.008,0-0.008v-0.008l0,0c0-0.008,0-0.017,0.009-0.033
		c0.009-0.042,0.027-0.067,0.046-0.1c0.009-0.017,0.018-0.025,0.037-0.033h0.009c0.009-0.017,0.028-0.025,0.046-0.033
		c0.009-0.008,0.009-0.008,0.019-0.017h0.009c0.01,0,0.019,0,0.028-0.008C8.229,17.677,8.275,17.668,8.321,17.668z"/>
	<path class="dsn_path_col" fill="rgb(0, 0, 0)" d="M10.812,18.408c-1.593,0.291-2.18,0.316-2.527,0.1C8.009,18.333,8,18.059,8,17.926c0,0.042,0.019,0.083,0.046,0.125
		c0.064,0.083,0.165,0.125,0.275,0.125c0.055,0,0.11-0.017,0.156-0.042c0.009,0,0.064-0.025,0.174-0.075
		c0.009,0.033,0.018,0.042,0.018,0.042c0.137,0.083,0.806,0.025,1.987-0.199c0.843-0.15,1.951-0.316,2.976-0.441
		c3.956-0.474,6.291-0.407,6.922,0.2c-0.174,0.333-0.412,0.615-0.723,0.881c0.083-0.075,0.146-0.167,0.22-0.266
		c0.119-0.183,0.055-0.25,0.027-0.274c-0.302-0.324-2.143-0.532-6.364-0.025C12.725,18.101,11.635,18.259,10.812,18.408z"/>
	<path class="dsn_path_col" fill="rgb(0, 0, 0)" d="M8.257,11.84c0,0.05,0.018,0.1,0.064,0.15c0.064,0.066,0.156,0.108,0.256,0.108c0.073,0,0.128-0.017,0.192-0.05
		c0.037-0.025,0.083-0.05,0.12-0.066c-0.101,1.721-0.22,3.966-0.248,5.512c-0.238,0.091-0.394,0.167-0.449,0.191
		c-0.009,0.008-0.019,0.008-0.027,0.008c-0.009,0-0.009,0-0.009,0c-0.009,0.008-0.009,0.008-0.019,0.017
		c-0.018,0.008-0.027,0.017-0.045,0.033H8.083c-0.019,0.008-0.027,0.017-0.037,0.033C8.028,17.81,8,17.834,8,17.876
		c-0.009,0.017-0.009,0.025-0.009,0.034C8.019,16.313,8.156,13.735,8.257,11.84z"/>
	<path class="dsn_path_col" fill="rgb(0, 0, 0)" d="M8,17.926c0.019,0.133,0.146,0.233,0.321,0.233c0.174,0,0.311-0.108,0.32-0.241c0,0.075,0.009,0.116,0.018,0.149
		c-0.109,0.05-0.174,0.075-0.174,0.075c-0.045,0.025-0.109,0.042-0.155,0.042c-0.11,0-0.211-0.05-0.275-0.125
		C8.019,18.009,8,17.968,8,17.926z"/>
	<path class="dsn_path_col" fill="rgb(0, 0, 0)" d="M11.159,26.415H5.968c0.173-0.083,0.357-0.174,0.549-0.258h4.624C11.15,26.249,11.159,26.332,11.159,26.415z"/>
	<path class="dsn_path_col" fill="rgb(0, 0, 0)" d="M18.209,26.673H1.884c-0.183,0-0.32-0.116-0.32-0.258c0-0.141,0.138-0.258,0.32-0.258h4.633
		c-0.202,0.083-0.376,0.175-0.549,0.258h5.191h2.444h4.587l0.019,0.216V26.673z"/>
</g>
</svg>
