<?xml version="1.0" encoding="utf-8"?>
<!-- Generator: Adobe Illustrator 16.0.0, SVG Export Plug-In . SVG Version: 6.00 Build 0)  -->
<!DOCTYPE svg PUBLIC "-//W3C//DTD SVG 1.1//EN" "http://www.w3.org/Graphics/SVG/1.1/DTD/svg11.dtd">
<svg version="1.1" id="Layer_1" xmlns="http://www.w3.org/2000/svg" xmlns:xlink="http://www.w3.org/1999/xlink" x="0px" y="0px"
	 width="70px" height="70px" viewBox="0 0 70 70" enable-background="new 0 0 70 70" xml:space="preserve">
<g id="XMLID_1_">
	<g>
		<rect class="dsn_path_col" fill="rgb(0, 0, 0)" x="11.747" y="59.544" width="52.434" height="1.17"/>
		<polygon class="dsn_path_col" fill="rgb(0, 0, 0)"  points="64.181,44.681 64.181,45.837 44.948,45.837 46.018,44.681 		"/>
		<path class="dsn_path_col" fill="rgb(0, 0, 0)" d="M64.461,55.865v-5.71h-1.522v5.71H64.461z M61.404,48.912h3.694c0.595,0,0.898,0.333,0.898,0.986v6.226
			c0,0.664-0.293,0.984-0.898,0.984h-3.694v-1.243V48.912z"/>
		<polygon class="dsn_path_col" fill="rgb(0, 0, 0)"  points="56.78,57.108 56.78,48.912 61.025,48.912 60.561,50.155 58.304,50.155 58.304,52.396 60.141,52.396 
			59.664,53.639 58.304,53.639 58.304,55.865 61.025,55.865 60.561,57.108 		"/>
		<path class="dsn_path_col" fill="rgb(0, 0, 0)" d="M49.779,48.912h5.725c0.596,0,0.887,0.333,0.887,0.986v7.21h-1.523v-6.953H53.84v6.953h-1.521v-6.953h-1.027v6.953h-1.522
			v-8.196H49.779z"/>
		<path class="dsn_path_col" fill="rgb(0, 0, 0)" d="M44.775,48.912h3.695c0.595,0,0.896,0.333,0.896,0.986v2.755c0,0.652-0.302,0.985-0.896,0.985h-0.065l0.985,3.482h-1.535
			l-1.34-4.726h1.308v-2.24h-1.535v6.953h-1.521v-8.196H44.775z"/>
		<path class="dsn_path_col" fill="rgb(0, 0, 0)" d="M46.83,62.682h-1.027l0.173-0.468h1.091c0.217,0,0.335,0.124,0.335,0.37v1.034c0,0.245-0.118,0.367-0.335,0.367h-0.669
			v0.85h1.025l-0.184,0.469h-1.424V63.9c0-0.247,0.105-0.368,0.344-0.368h0.671V62.682z"/>
		<polygon class="dsn_path_col" fill="rgb(0, 0, 0)"  points="44.841,62.682 45.024,62.214 45.685,62.214 45.685,65.304 45.1,65.304 45.1,62.682 		"/>
		<rect class="dsn_path_col" fill="rgb(0, 0, 0)" x="44.148" y="63.47" width="0.574" height="0.641"/>
		<rect class="dsn_path_col" fill="rgb(0, 0, 0)" x="44.148" y="64.675" width="0.574" height="0.629"/>
		<path class="dsn_path_col" fill="rgb(0, 0, 0)" d="M42.387,62.682l0.174-0.468h1.082c0.226,0,0.333,0.124,0.333,0.37v1.034c0,0.245-0.107,0.367-0.333,0.367h-0.671v0.85
			h1.027l-0.176,0.469h-1.424V63.9c0-0.247,0.118-0.368,0.336-0.368h0.669v-0.851H42.387z"/>
		<polygon class="dsn_path_col" fill="rgb(0, 0, 0)"  points="41.674,62.682 41.415,62.682 41.601,62.214 42.259,62.214 42.259,65.304 41.674,65.304 		"/>
		<path class="dsn_path_col" fill="rgb(0, 0, 0)" d="M42.864,55.865v-5.71H41.33v5.71H42.864z M40.702,48.912h2.799c0.595,0,0.886,0.333,0.886,0.986v6.226
			c0,0.664-0.291,0.984-0.886,0.984h-2.799c-0.594,0-0.886-0.32-0.886-0.984v-6.226C39.816,49.245,40.108,48.912,40.702,48.912z"/>
		<path class="dsn_path_col" fill="rgb(0, 0, 0)" d="M38.542,63.63v-1.034c0-0.245,0.118-0.369,0.346-0.369h1.254l-0.174,0.467h-0.854v0.851h0.671
			c0.215,0,0.335,0.123,0.335,0.368v1.033c0,0.247-0.108,0.37-0.335,0.37H38.51l0.183-0.468h0.854v-0.849h-0.67
			C38.66,63.999,38.542,63.876,38.542,63.63z"/>
		<path class="dsn_path_col" fill="rgb(0, 0, 0)" d="M36.672,62.214h1.393c0.218,0,0.336,0.124,0.336,0.37v2.72h-0.571v-2.622h-0.573v2.622h-0.573v-3.09H36.672z"/>
		<polygon class="dsn_path_col" fill="rgb(0, 0, 0)"  points="36.705,50.155 36.705,52.396 38.542,52.396 38.064,53.639 36.705,53.639 36.705,57.108 35.182,57.108 
			35.182,48.912 39.429,48.912 38.963,50.155 		"/>
		<polygon class="dsn_path_col" fill="rgb(0, 0, 0)"  points="35.182,62.214 35.841,62.214 36.521,65.304 35.16,65.304 35.333,64.848 35.841,64.848 35.506,63.348 
			35.063,65.304 34.49,65.304 		"/>
		<path class="dsn_path_col" fill="rgb(0, 0, 0)" d="M31.854,62.214h2.161c0.227,0,0.346,0.124,0.346,0.37v2.72h-0.573v-2.622h-0.389v2.622h-0.572v-2.622h-0.389v2.622h-0.573
			v-3.09H31.854z"/>
		<path class="dsn_path_col" fill="rgb(0, 0, 0)" d="M32.07,52.396h1.783c0.594,0,0.896,0.332,0.896,0.983v2.757c0,0.665-0.292,0.985-0.896,0.985h-3.36l0.465-1.242h2.247
			v-2.24h-1.772c-0.594,0-0.886-0.333-0.886-0.997v-2.743c0-0.653,0.292-0.986,0.896-0.986h3.361l-0.465,1.243h-2.258v2.24H32.07z"
			/>
		<polygon class="dsn_path_col" fill="rgb(0, 0, 0)"  points="30.979,45.837 11.747,45.837 11.747,44.681 29.909,44.681 		"/>
		<path class="dsn_path_col" fill="rgb(0, 0, 0)" d="M31.141,62.682h-0.573v2.153h0.573V62.682z M31.378,62.214c0.227,0,0.335,0.124,0.335,0.37v2.35
			c0,0.246-0.108,0.37-0.335,0.37H30.33c-0.227,0-0.346-0.124-0.346-0.37v-2.35c0-0.246,0.12-0.37,0.346-0.37H31.378z"/>
		<path class="dsn_path_col" fill="rgb(0, 0, 0)" d="M28.688,62.682v2.622h-0.573v-3.09h1.384c0.227,0,0.346,0.124,0.346,0.37v1.034c0,0.245-0.108,0.367-0.346,0.367h-0.022
			l0.368,1.318h-0.573l-0.507-1.771h0.497v-0.851H28.688z"/>
		<path class="dsn_path_col" fill="rgb(0, 0, 0)" d="M30.158,49.898v7.21h-1.524v-6.953H27.11v6.953h-1.534v-8.196h3.695C29.865,48.912,30.158,49.245,30.158,49.898z"/>
		<g>
			<polygon class="dsn_path_col" fill="rgb(0, 0, 0)"  points="55.32,20.367 54.445,22.114 57.232,8.457 56.878,8.457 57.029,7.706 53.766,7.706 53.84,6.956 57.85,6.956 			
				"/>
			<polygon class="dsn_path_col" fill="rgb(0, 0, 0)"  points="53.16,23.197 54.705,20.097 56.878,8.457 57.232,8.457 54.445,22.114 53.809,23.418 53.743,24.637 
				53.053,25.129 			"/>
			<g>
				<polygon class="dsn_path_col" fill="rgb(0, 0, 0)"  points="53.84,6.956 53.766,7.706 52.025,7.706 53.053,6.956 				"/>
				<polygon class="dsn_path_col" fill="rgb(0, 0, 0)"  points="53.496,15.544 52.891,15.987 53.56,9.588 55.224,9.588 53.302,19.026 				"/>
				<polygon class="dsn_path_col" fill="rgb(0, 0, 0)"  points="53.074,20.171 52.393,20.65 52.891,15.987 53.496,15.544 53.302,19.026 				"/>
				<polygon class="dsn_path_col" fill="rgb(0, 0, 0)"  points="52.371,35.81 47.543,40.854 52.382,35.563 				"/>
				<polygon class="dsn_path_col" fill="rgb(0, 0, 0)"  points="52.272,20.736 52.607,16.196 52.891,15.987 52.393,20.65 				"/>
				<polygon class="dsn_path_col" fill="rgb(0, 0, 0)"  points="51.367,23.025 51.238,25.449 48.772,26.335 48.772,24.982 				"/>
				<polygon class="dsn_path_col" fill="rgb(0, 0, 0)"  points="52.911,12.099 51.216,13.034 51.302,12.258 47.467,15.064 46.72,15.47 46.72,11.582 49.443,9.588 53.56,9.588 
					52.891,15.987 52.607,16.196 				"/>
				<polygon class="dsn_path_col" fill="rgb(0, 0, 0)"  points="51.184,26.458 50.729,34.604 47.294,38.196 47.294,29.202 				"/>
				<polygon class="dsn_path_col" fill="rgb(0, 0, 0)"  points="52.188,20.798 47.509,24.107 46.754,24.107 46.775,23.763 				"/>
				<polygon class="dsn_path_col" fill="rgb(0, 0, 0)"  points="52.188,20.798 46.775,23.763 46.83,22.915 47.585,21.388 50.363,20.392 50.558,17.734 52.607,16.196 
					52.272,20.736 				"/>
				<polygon class="dsn_path_col" fill="rgb(0, 0, 0)"  points="50.914,7.706 49.281,7.706 49.423,7.165 50.967,7.165 				"/>
				<polygon class="dsn_path_col" fill="rgb(0, 0, 0)"  points="50.967,15.446 51.216,13.034 52.911,12.099 52.607,16.196 50.558,17.734 50.578,17.426 48.547,18.534 
					48.914,16.565 				"/>
				<polygon class="dsn_path_col" fill="rgb(0, 0, 0)"  points="50.525,5.565 50.492,5.725 41.708,5.725 41.708,5.565 				"/>
				<polygon class="dsn_path_col" fill="rgb(0, 0, 0)"  points="52.025,7.706 50.914,7.706 50.967,7.165 49.423,7.165 49.648,6.328 41.708,6.328 41.708,5.725 50.492,5.725 
					50.167,6.956 53.053,6.956 				"/>
				<polygon class="dsn_path_col" fill="rgb(0, 0, 0)"  points="51.184,26.458 47.294,29.202 47.294,27.86 48.772,26.679 48.772,26.335 51.238,25.449 				"/>
				<polygon class="dsn_path_col" fill="rgb(0, 0, 0)"  points="46.72,17.771 48.914,16.565 48.547,18.534 46.72,19.53 				"/>
				<polygon class="dsn_path_col" fill="rgb(0, 0, 0)"  points="47.294,41.285 47.294,41.111 47.294,41.101 47.543,40.854 52.371,35.81 52.382,35.563 52.458,35.477 
					53.053,25.129 53.743,24.637 53.095,35.82 46.516,42.995 45.685,42.995 				"/>
				<polygon class="dsn_path_col" fill="rgb(0, 0, 0)"  points="46.72,15.47 47.467,15.064 46.72,15.618 				"/>
				<polygon class="dsn_path_col" fill="rgb(0, 0, 0)"  points="47.294,29.202 47.294,38.196 46.267,39.268 46.267,32.5 46.279,32.487 46.45,29.399 47.023,29.399 				"/>
				<polygon class="dsn_path_col" fill="rgb(0, 0, 0)"  points="47.294,27.86 47.294,29.202 47.023,29.399 46.45,29.399 46.516,28.488 				"/>
				<polygon class="dsn_path_col" fill="rgb(0, 0, 0)"  points="47.294,41.285 45.685,42.995 45.554,42.995 47.294,41.111 				"/>
				<polygon class="dsn_path_col" fill="rgb(0, 0, 0)"  points="46.72,22.139 46.72,21.696 47.585,21.388 46.83,22.915 46.775,23.763 46.148,24.107 43.522,24.107 
					43.101,23.85 43.101,23.333 43.954,22.692 45.499,22.139 				"/>
				<polygon class="dsn_path_col" fill="rgb(0, 0, 0)"  points="46.775,23.763 46.754,24.107 46.148,24.107 				"/>
				<polygon class="dsn_path_col" fill="rgb(0, 0, 0)"  points="46.72,17.771 46.72,19.53 46.385,19.715 46.385,17.956 				"/>
				<polygon class="dsn_path_col" fill="rgb(0, 0, 0)"  points="46.72,15.47 46.72,15.618 46.612,15.704 46.385,15.704 46.385,15.667 				"/>
				<polygon class="dsn_path_col" fill="rgb(0, 0, 0)"  points="46.72,11.582 46.72,15.47 46.385,15.667 46.385,11.828 				"/>
				<polygon class="dsn_path_col" fill="rgb(0, 0, 0)"  points="46.72,11.188 42.55,11.188 42.55,8.051 48.374,8.051 48.222,9.588 49.443,9.588 46.72,11.582 				"/>
				<polygon class="dsn_path_col" fill="rgb(0, 0, 0)"  points="46.612,15.704 46.385,15.864 46.385,15.704 				"/>
				<polygon class="dsn_path_col" fill="rgb(0, 0, 0)"  points="46.267,28.685 46.516,28.488 46.45,29.399 46.267,29.399 				"/>
				<polygon class="dsn_path_col" fill="rgb(0, 0, 0)"  points="46.516,42.995 45.079,44.569 44.203,44.569 45.685,42.995 				"/>
				<polygon class="dsn_path_col" fill="rgb(0, 0, 0)"  points="46.45,29.399 46.279,32.487 46.267,32.5 46.267,29.399 				"/>
				<polygon class="dsn_path_col" fill="rgb(0, 0, 0)"  points="46.385,15.667 46.385,15.704 46.311,15.704 				"/>
				<polygon class="dsn_path_col" fill="rgb(0, 0, 0)"  points="46.385,11.828 46.385,15.667 46.311,15.704 45.272,15.704 45.272,12.64 				"/>
				<polygon class="dsn_path_col" fill="rgb(0, 0, 0)"  points="46.72,22.139 45.499,22.139 46.72,21.696 				"/>
				<polygon class="dsn_path_col" fill="rgb(0, 0, 0)"  points="46.311,15.704 45.272,16.27 45.272,15.704 				"/>
				<polygon class="dsn_path_col" fill="rgb(0, 0, 0)"  points="45.685,42.995 44.203,44.569 44.128,44.569 45.554,42.995 				"/>
				<polygon class="dsn_path_col" fill="rgb(0, 0, 0)"  points="44.528,34.308 44.528,34.395 44.484,34.443 				"/>
				<polygon class="dsn_path_col" fill="rgb(0, 0, 0)"  points="44.528,30.224 44.528,34.308 44.484,34.443 42.594,36.51 42.594,30.224 				"/>
				<rect class="dsn_path_col" fill="rgb(0, 0, 0)" x="42.594" y="29.399" width="1.943" height="0.825"/>
				<polygon class="dsn_path_col" fill="rgb(0, 0, 0)"  points="44.528,28.956 44.528,29.399 42.594,29.399 42.594,28.562 43.394,28.279 				"/>
				<polygon class="dsn_path_col" fill="rgb(0, 0, 0)"  points="44.203,44.569 43.976,44.791 43.761,44.791 43.892,44.657 44.041,44.657 44.128,44.569 				"/>
				<polygon class="dsn_path_col" fill="rgb(0, 0, 0)"  points="44.311,45.406 43.168,45.406 43.761,44.791 43.976,44.791 44.203,44.569 45.079,44.569 				"/>
				<polygon class="dsn_path_col" fill="rgb(0, 0, 0)"  points="43.425,14.94 43.425,13.993 43.836,13.686 43.836,15.409 42.279,15.409 42.41,14.94 				"/>
				<polygon class="dsn_path_col" fill="rgb(0, 0, 0)"  points="43.761,44.791 43.168,45.406 41.708,45.406 41.708,44.791 				"/>
				<polygon class="dsn_path_col" fill="rgb(0, 0, 0)"  points="43.522,24.107 43.101,24.107 43.101,23.85 				"/>
				<polygon class="dsn_path_col" fill="rgb(0, 0, 0)"  points="43.425,13.993 43.425,14.94 42.41,14.94 42.463,14.695 				"/>
				<polygon class="dsn_path_col" fill="rgb(0, 0, 0)"  points="43.425,13.341 43.425,13.993 42.463,14.695 42.508,14.547 41.784,14.547 41.784,13.341 				"/>
				<polygon class="dsn_path_col" fill="rgb(0, 0, 0)"  points="41.784,12.862 43.836,12.862 43.836,13.686 43.425,13.993 43.425,13.341 41.784,13.341 				"/>
				<polygon class="dsn_path_col" fill="rgb(0, 0, 0)"  points="43.101,23.85 43.101,24.107 42.594,24.107 42.594,23.554 				"/>
				<polygon class="dsn_path_col" fill="rgb(0, 0, 0)"  points="43.005,23.025 43.954,22.692 43.101,23.333 43.101,23.85 42.594,23.554 42.594,22.139 43.254,22.139 				"/>
				<polygon class="dsn_path_col" fill="rgb(0, 0, 0)"  points="42.594,28.562 42.594,27.787 43.394,28.279 				"/>
				<polygon class="dsn_path_col" fill="rgb(0, 0, 0)"  points="42.594,30.224 42.594,36.51 42.248,36.88 42.248,30.224 				"/>
				<rect class="dsn_path_col" fill="rgb(0, 0, 0)" x="42.248" y="29.399" width="0.346" height="0.825"/>
				<polygon class="dsn_path_col" fill="rgb(0, 0, 0)"  points="42.594,28.562 42.594,29.399 42.248,29.399 42.248,28.685 				"/>
				<polygon class="dsn_path_col" fill="rgb(0, 0, 0)"  points="42.248,28.685 42.248,27.577 42.594,27.787 42.594,28.562 				"/>
				<polygon class="dsn_path_col" fill="rgb(0, 0, 0)"  points="42.594,23.554 42.594,24.107 42.248,24.107 42.248,23.345 				"/>
				<polygon class="dsn_path_col" fill="rgb(0, 0, 0)"  points="42.594,22.139 42.594,23.554 42.248,23.345 42.248,21.745 43.349,21.745 43.254,22.139 				"/>
				<polygon class="dsn_path_col" fill="rgb(0, 0, 0)"  points="46.385,11.582 42.206,11.582 42.206,8.051 42.55,8.051 42.55,11.188 46.72,11.188 46.72,11.582 46.385,11.828 
									"/>
				<polygon class="dsn_path_col" fill="rgb(0, 0, 0)"  points="42.463,14.695 42.41,14.94 42.13,14.94 				"/>
				<polygon class="dsn_path_col" fill="rgb(0, 0, 0)"  points="44.992,16.417 41.21,18.485 41.21,16.455 				"/>
				<rect class="dsn_path_col" fill="rgb(0, 0, 0)" x="41.784" y="29.399" width="0.453" height="0.825"/>
				<polygon class="dsn_path_col" fill="rgb(0, 0, 0)"  points="42.248,28.685 42.248,29.399 41.784,29.399 41.784,28.857 				"/>
				<polygon class="dsn_path_col" fill="rgb(0, 0, 0)"  points="41.784,28.131 41.621,28.131 41.545,28.131 41.545,27.147 42.248,27.577 42.248,28.685 41.784,28.857 				"/>
				<polygon class="dsn_path_col" fill="rgb(0, 0, 0)"  points="42.248,23.345 42.248,24.107 41.168,24.107 41.168,22.692 				"/>
				<polygon class="dsn_path_col" fill="rgb(0, 0, 0)"  points="41.794,37.359 42.161,36.966 42.248,36.966 42.248,36.88 42.594,36.51 42.594,37.359 				"/>
				<polygon class="dsn_path_col" fill="rgb(0, 0, 0)"  points="42.248,36.966 42.161,36.966 42.248,36.88 				"/>
				<polygon class="dsn_path_col" fill="rgb(0, 0, 0)"  points="42.206,11.582 46.385,11.582 46.385,11.828 45.272,12.64 45.272,11.803 41.784,11.803 41.784,8.051 
					42.206,8.051 				"/>
				<polygon class="dsn_path_col" fill="rgb(0, 0, 0)"  points="41.784,36.966 41.784,30.224 42.248,30.224 42.248,36.88 42.161,36.966 				"/>
				<polygon class="dsn_path_col" fill="rgb(0, 0, 0)"  points="42.279,15.409 41.784,15.409 41.784,15.199 42.13,14.94 42.41,14.94 				"/>
				<polygon class="dsn_path_col" fill="rgb(0, 0, 0)"  points="41.784,37.359 41.784,36.966 42.161,36.966 41.794,37.359 				"/>
				<polygon class="dsn_path_col" fill="rgb(0, 0, 0)"  points="42.13,14.94 41.784,15.199 41.784,14.94 				"/>
				<polygon class="dsn_path_col" fill="rgb(0, 0, 0)"  points="46.385,19.715 43.47,21.302 43.349,21.745 42.248,21.745 42.248,23.345 41.168,22.692 41.168,20.404 
					41.21,20.404 41.21,18.485 44.992,16.417 45.272,16.417 45.272,16.27 46.311,15.704 46.385,15.704 46.385,15.864 44.117,17.538 
					43.729,19.42 46.385,17.956 				"/>
				<polygon class="dsn_path_col" fill="rgb(0, 0, 0)"  points="42.13,14.94 41.784,14.94 41.784,14.547 42.508,14.547 42.463,14.695 				"/>
				<polygon class="dsn_path_col" fill="rgb(0, 0, 0)"  points="41.708,42.22 41.708,37.729 41.708,37.47 41.794,37.359 42.594,37.359 42.594,36.51 44.484,34.443 
					41.826,42.22 				"/>
				<polygon class="dsn_path_col" fill="rgb(0, 0, 0)"  points="44.528,41.322 43.37,42.553 41.708,42.553 41.708,42.22 41.826,42.22 44.484,34.443 44.528,34.395 				"/>
				<polygon class="dsn_path_col" fill="rgb(0, 0, 0)"  points="41.784,37.359 41.794,37.359 41.708,37.47 41.708,37.359 				"/>
				<rect class="dsn_path_col" fill="rgb(0, 0, 0)" x="41.708" y="36.966" width="0.086" height="0.394"/>
				<polygon class="dsn_path_col" fill="rgb(0, 0, 0)"  points="41.784,29.399 41.784,30.224 41.708,30.224 41.621,30.224 41.621,29.399 				"/>
				<polygon class="dsn_path_col" fill="rgb(0, 0, 0)"  points="41.784,28.857 41.784,29.399 41.621,29.399 41.621,28.907 				"/>
				<polygon class="dsn_path_col" fill="rgb(0, 0, 0)"  points="41.784,28.131 41.784,28.857 41.621,28.907 41.621,28.131 				"/>
				<polygon class="dsn_path_col" fill="rgb(0, 0, 0)"  points="41.784,15.199 41.784,15.409 41.621,15.409 41.621,15.31 				"/>
				<polygon class="dsn_path_col" fill="rgb(0, 0, 0)"  points="41.784,14.94 41.784,15.199 41.621,15.31 41.621,14.94 				"/>
				<polygon class="dsn_path_col" fill="rgb(0, 0, 0)"  points="41.708,14.547 41.784,14.547 41.784,14.94 41.621,14.94 41.621,14.547 				"/>
				<rect class="dsn_path_col" fill="rgb(0, 0, 0)" x="41.708" y="13.341" width="0.086" height="1.206"/>
				<rect class="dsn_path_col" fill="rgb(0, 0, 0)" x="41.708" y="12.862" width="0.086" height="0.479"/>
				<rect class="dsn_path_col" fill="rgb(0, 0, 0)" x="41.708" y="8.051" width="0.086" height="3.752"/>
				<polygon class="dsn_path_col" fill="rgb(0, 0, 0)"  points="41.784,30.224 41.784,36.966 41.708,36.966 41.708,34.53 41.708,30.224 				"/>
				<polygon class="dsn_path_col" fill="rgb(0, 0, 0)"  points="41.708,44.791 41.708,44.657 43.892,44.657 43.761,44.791 				"/>
				<rect class="dsn_path_col" fill="rgb(0, 0, 0)" x="41.005" y="44.657" width="0.703" height="0.134"/>
				<rect class="dsn_path_col" fill="rgb(0, 0, 0)" x="41.005" y="42.22" width="0.703" height="0.319"/>
				<polygon class="dsn_path_col" fill="rgb(0, 0, 0)"  points="41.708,37.47 41.708,37.729 41.524,37.729 41.524,37.667 				"/>
				<rect class="dsn_path_col" fill="rgb(0, 0, 0)" x="41.621" y="36.966" width="0.087" height="0.394"/>
				<rect class="dsn_path_col" fill="rgb(0, 0, 0)" x="41.621" y="34.53" width="0.087" height="2.449"/>
				<rect class="dsn_path_col" fill="rgb(0, 0, 0)" x="41.621" y="13.341" width="0.087" height="1.206"/>
				<rect class="dsn_path_col" fill="rgb(0, 0, 0)" x="41.621" y="12.862" width="0.087" height="0.479"/>
				<rect class="dsn_path_col" fill="rgb(0, 0, 0)" x="41.621" y="8.051" width="0.087" height="3.752"/>
				<rect class="dsn_path_col" fill="rgb(0, 0, 0)" x="41.005" y="44.791" width="0.703" height="0.615"/>
				<rect class="dsn_path_col" fill="rgb(0, 0, 0)" x="41.621" y="30.224" width="0.087" height="4.306"/>
				<rect class="dsn_path_col" fill="rgb(0, 0, 0)" x="37.829" y="5.565" width="3.868" height="0.16"/>
				<rect class="dsn_path_col" fill="rgb(0, 0, 0)" x="37.829" y="5.725" width="3.868" height="0.604"/>
				<rect class="dsn_path_col" fill="rgb(0, 0, 0)" x="41.535" y="34.53" width="0.086" height="2.449"/>
				<polygon class="dsn_path_col" fill="rgb(0, 0, 0)"  points="41.621,30.224 41.621,34.53 41.535,34.53 41.545,30.224 				"/>
				<rect class="dsn_path_col" fill="rgb(0, 0, 0)" x="41.545" y="29.399" width="0.076" height="0.825"/>
				<polygon class="dsn_path_col" fill="rgb(0, 0, 0)"  points="41.621,28.907 41.621,29.399 41.545,29.399 41.545,28.931 				"/>
				<polygon class="dsn_path_col" fill="rgb(0, 0, 0)"  points="41.621,15.31 41.621,15.409 41.48,15.409 				"/>
				<rect class="dsn_path_col" fill="rgb(0, 0, 0)" x="40.043" y="14.547" width="1.578" height="0.393"/>
				<rect class="dsn_path_col" fill="rgb(0, 0, 0)" x="40.043" y="13.341" width="1.578" height="1.206"/>
				<rect class="dsn_path_col" fill="rgb(0, 0, 0)" x="40.043" y="12.862" width="1.578" height="0.479"/>
				<rect class="dsn_path_col" fill="rgb(0, 0, 0)" x="40.043" y="8.051" width="1.578" height="3.752"/>
				<rect class="dsn_path_col" fill="rgb(0, 0, 0)" x="41.535" y="36.966" width="0.086" height="0.394"/>
				<polygon class="dsn_path_col" fill="rgb(0, 0, 0)"  points="41.708,37.47 41.524,37.667 41.535,37.359 41.621,37.359 41.708,37.359 				"/>
				<polygon class="dsn_path_col" fill="rgb(0, 0, 0)"  points="41.545,28.931 41.545,28.131 41.621,28.131 41.621,28.907 				"/>
				<polygon class="dsn_path_col" fill="rgb(0, 0, 0)"  points="41.005,40.816 41.524,40.816 41.524,37.729 41.708,37.729 41.708,42.22 41.005,42.22 				"/>
				<polygon class="dsn_path_col" fill="rgb(0, 0, 0)"  points="41.21,16.455 41.21,18.485 40.043,19.112 40.043,16.467 				"/>
				<polygon class="dsn_path_col" fill="rgb(0, 0, 0)"  points="41.168,22.692 41.168,24.107 40.043,24.107 40.043,22.029 				"/>
				<polygon class="dsn_path_col" fill="rgb(0, 0, 0)"  points="41.21,18.485 41.21,20.404 41.168,20.404 41.168,22.692 40.043,22.029 40.043,19.112 				"/>
				<rect class="dsn_path_col" fill="rgb(0, 0, 0)" x="37.829" y="44.791" width="3.176" height="0.615"/>
				<rect class="dsn_path_col" fill="rgb(0, 0, 0)" x="37.829" y="44.657" width="3.176" height="0.134"/>
				<rect class="dsn_path_col" fill="rgb(0, 0, 0)" x="37.829" y="42.22" width="3.176" height="0.319"/>
				<rect class="dsn_path_col" fill="rgb(0, 0, 0)" x="37.829" y="40.816" width="3.176" height="1.417"/>
				<polygon class="dsn_path_col" fill="rgb(0, 0, 0)"  points="37.829,35.649 40.735,35.649 40.291,36.966 37.829,36.966 				"/>
				<polygon class="dsn_path_col" fill="rgb(0, 0, 0)"  points="40.043,15.409 40.043,14.94 41.621,14.94 41.621,15.31 41.48,15.409 				"/>
				<polygon class="dsn_path_col" fill="rgb(0, 0, 0)"  points="40.291,36.966 40.161,37.359 37.829,37.359 37.829,36.966 				"/>
				<polygon class="dsn_path_col" fill="rgb(0, 0, 0)"  points="40.161,37.359 40.033,37.729 37.829,37.729 37.829,37.359 				"/>
				<polygon class="dsn_path_col" fill="rgb(0, 0, 0)"  points="40.043,22.029 40.043,24.107 39.807,24.107 39.807,21.868 				"/>
				<polygon class="dsn_path_col" fill="rgb(0, 0, 0)"  points="39.807,21.868 39.807,19.247 40.043,19.112 40.043,22.029 				"/>
				<polygon class="dsn_path_col" fill="rgb(0, 0, 0)"  points="40.043,16.467 40.043,19.112 39.807,19.247 39.807,16.639 				"/>
				<rect class="dsn_path_col" fill="rgb(0, 0, 0)" x="39.807" y="8.051" width="0.248" height="3.752"/>
				<polygon class="dsn_path_col" fill="rgb(0, 0, 0)"  points="40.043,16.467 39.807,16.639 39.807,16.467 				"/>
				<polygon class="dsn_path_col" fill="rgb(0, 0, 0)"  points="40.033,37.729 39.448,39.464 37.829,39.464 37.829,37.729 				"/>
				<polygon class="dsn_path_col" fill="rgb(0, 0, 0)"  points="38.888,30.224 38.888,30.654 38.606,30.555 38.606,30.224 				"/>
				<polygon class="dsn_path_col" fill="rgb(0, 0, 0)"  points="38.888,29.891 38.888,30.224 38.606,30.224 38.606,30.001 				"/>
				<polygon class="dsn_path_col" fill="rgb(0, 0, 0)"  points="38.888,28.131 38.888,29.005 38.672,28.205 38.79,28.131 				"/>
				<polygon class="dsn_path_col" fill="rgb(0, 0, 0)"  points="38.888,28.083 38.888,28.131 38.79,28.131 				"/>
				<polygon class="dsn_path_col" fill="rgb(0, 0, 0)"  points="38.888,21.314 38.888,28.083 38.79,28.131 38.649,28.131 38.606,27.947 38.586,22.299 38.854,21.302 				"/>
				<polygon class="dsn_path_col" fill="rgb(0, 0, 0)"  points="38.888,21.192 38.888,21.314 38.854,21.302 				"/>
				<polygon class="dsn_path_col" fill="rgb(0, 0, 0)"  points="38.888,20.502 38.888,21.192 38.854,21.302 38.735,21.241 				"/>
				<polygon class="dsn_path_col" fill="rgb(0, 0, 0)"  points="38.586,20.22 38.467,20.282 38.467,16.381 38.888,16.381 38.888,20.502 38.735,21.241 38.586,21.143 				"/>
				<polygon class="dsn_path_col" fill="rgb(0, 0, 0)"  points="38.467,16.381 38.467,14.94 40.043,14.94 40.043,15.409 38.888,15.409 38.888,16.381 				"/>
				<polygon class="dsn_path_col" fill="rgb(0, 0, 0)"  points="38.606,30.001 38.606,28.242 38.672,28.205 38.888,29.005 38.888,29.891 				"/>
				<polygon class="dsn_path_col" fill="rgb(0, 0, 0)"  points="38.854,21.302 38.586,22.299 38.586,21.979 38.735,21.241 				"/>
				<polygon class="dsn_path_col" fill="rgb(0, 0, 0)"  points="38.79,28.131 38.672,28.205 38.649,28.131 				"/>
				<polygon class="dsn_path_col" fill="rgb(0, 0, 0)"  points="38.735,21.241 38.586,21.979 38.586,21.143 				"/>
				<polygon class="dsn_path_col" fill="rgb(0, 0, 0)"  points="38.649,28.131 38.672,28.205 38.606,28.242 38.606,28.131 				"/>
				<polygon class="dsn_path_col" fill="rgb(0, 0, 0)"  points="38.606,27.947 38.649,28.131 38.606,28.131 				"/>
				<polygon class="dsn_path_col" fill="rgb(0, 0, 0)"  points="38.617,33.631 38.606,30.555 38.888,30.654 38.888,33.631 				"/>
				<polygon class="dsn_path_col" fill="rgb(0, 0, 0)"  points="38.606,30.224 38.606,30.555 38.467,30.506 38.467,30.224 				"/>
				<polygon class="dsn_path_col" fill="rgb(0, 0, 0)"  points="38.606,30.001 38.606,30.224 38.467,30.224 38.467,30.051 				"/>
				<polygon class="dsn_path_col" fill="rgb(0, 0, 0)"  points="38.606,28.242 38.606,30.001 38.467,30.051 38.467,29.018 38.51,29.042 38.467,28.845 38.467,28.316 				"/>
				<polygon class="dsn_path_col" fill="rgb(0, 0, 0)"  points="38.606,28.131 38.606,28.242 38.467,28.316 38.467,28.131 				"/>
				<polygon class="dsn_path_col" fill="rgb(0, 0, 0)"  points="38.606,27.947 38.606,28.131 38.467,28.131 38.467,27.467 				"/>
				<polygon class="dsn_path_col" fill="rgb(0, 0, 0)"  points="38.586,22.299 38.606,27.947 38.467,27.467 38.467,22.729 				"/>
				<polygon class="dsn_path_col" fill="rgb(0, 0, 0)"  points="38.586,21.979 38.586,22.299 38.467,22.729 38.467,22.545 				"/>
				<polygon class="dsn_path_col" fill="rgb(0, 0, 0)"  points="38.586,21.143 38.586,21.979 38.467,22.545 38.467,21.081 				"/>
				<polygon class="dsn_path_col" fill="rgb(0, 0, 0)"  points="38.586,20.22 38.586,21.143 38.467,21.081 38.467,20.282 				"/>
				<polygon class="dsn_path_col" fill="rgb(0, 0, 0)"  points="38.467,28.845 38.51,29.042 38.467,29.018 				"/>
				<polygon class="dsn_path_col" fill="rgb(0, 0, 0)"  points="38.467,30.224 38.467,30.506 37.829,30.272 37.979,30.224 				"/>
				<polygon class="dsn_path_col" fill="rgb(0, 0, 0)"  points="38.467,30.051 38.467,30.224 37.979,30.224 				"/>
				<polygon class="dsn_path_col" fill="rgb(0, 0, 0)"  points="38.467,29.018 38.467,30.051 37.979,30.224 37.677,30.224 37.18,30.051 37.18,30.039 37.18,29.018 
					37.829,28.673 				"/>
				<polygon class="dsn_path_col" fill="rgb(0, 0, 0)"  points="38.467,28.845 38.467,29.018 37.829,28.673 38.368,28.365 				"/>
				<polygon class="dsn_path_col" fill="rgb(0, 0, 0)"  points="38.467,28.316 38.467,28.845 38.368,28.365 				"/>
				<polygon class="dsn_path_col" fill="rgb(0, 0, 0)"  points="38.467,28.131 38.467,28.316 38.368,28.365 38.326,28.131 				"/>
				<polygon class="dsn_path_col" fill="rgb(0, 0, 0)"  points="38.467,27.467 38.467,28.131 38.326,28.131 37.829,25.695 37.893,25.35 				"/>
				<polygon class="dsn_path_col" fill="rgb(0, 0, 0)"  points="38.467,22.729 38.467,27.467 37.893,25.35 38.313,23.296 				"/>
				<polygon class="dsn_path_col" fill="rgb(0, 0, 0)"  points="38.467,22.545 38.467,22.729 38.313,23.296 				"/>
				<polygon class="dsn_path_col" fill="rgb(0, 0, 0)"  points="38.467,21.081 38.467,22.545 38.313,23.296 37.829,25.104 37.32,23.234 37.18,22.545 37.18,21.068 
					37.817,20.675 				"/>
				<polygon class="dsn_path_col" fill="rgb(0, 0, 0)"  points="38.467,20.282 38.467,21.081 37.817,20.675 				"/>
				<polygon class="dsn_path_col" fill="rgb(0, 0, 0)"  points="38.467,16.381 38.467,20.282 37.817,20.675 37.18,20.293 37.18,16.381 				"/>
				<polygon class="dsn_path_col" fill="rgb(0, 0, 0)"  points="38.467,33.164 38.467,30.506 38.606,30.555 38.617,33.631 37.926,33.631 37.926,33.164 				"/>
				<polygon class="dsn_path_col" fill="rgb(0, 0, 0)"  points="40.043,13.341 38.423,13.341 38.423,8.53 37.926,8.53 37.926,8.051 38.832,8.051 38.832,12.862 40.043,12.862 
									"/>
				<polygon class="dsn_path_col" fill="rgb(0, 0, 0)"  points="38.326,28.131 38.368,28.365 37.829,28.673 37.277,28.365 37.32,28.131 				"/>
				<polygon class="dsn_path_col" fill="rgb(0, 0, 0)"  points="37.829,25.695 38.326,28.131 37.32,28.131 				"/>
				<polygon class="dsn_path_col" fill="rgb(0, 0, 0)"  points="37.829,25.104 38.313,23.296 37.893,25.35 				"/>
				<polygon class="dsn_path_col" fill="rgb(0, 0, 0)"  points="37.979,30.224 37.829,30.272 37.677,30.224 				"/>
				<rect class="dsn_path_col" fill="rgb(0, 0, 0)" x="37.731" y="8.051" width="0.194" height="0.467"/>
				<rect class="dsn_path_col" fill="rgb(0, 0, 0)" x="37.731" y="33.164" width="0.194" height="0.48"/>
				<polygon class="dsn_path_col" fill="rgb(0, 0, 0)"  points="37.829,25.104 37.893,25.35 37.829,25.695 37.763,25.363 				"/>
				<rect class="dsn_path_col" fill="rgb(0, 0, 0)" x="34.652" y="44.791" width="3.177" height="0.615"/>
				<rect class="dsn_path_col" fill="rgb(0, 0, 0)" x="34.652" y="44.657" width="3.177" height="0.134"/>
				<rect class="dsn_path_col" fill="rgb(0, 0, 0)" x="34.652" y="42.22" width="3.177" height="0.319"/>
				<rect class="dsn_path_col" fill="rgb(0, 0, 0)" x="34.652" y="40.816" width="3.177" height="1.417"/>
				<polygon class="dsn_path_col" fill="rgb(0, 0, 0)"  points="37.829,37.729 37.829,39.464 36.219,39.464 35.624,37.729 				"/>
				<polygon class="dsn_path_col" fill="rgb(0, 0, 0)"  points="37.829,37.359 37.829,37.729 35.624,37.729 35.506,37.359 				"/>
				<polygon class="dsn_path_col" fill="rgb(0, 0, 0)"  points="37.829,36.966 37.829,37.359 35.506,37.359 35.365,36.966 				"/>
				<polygon class="dsn_path_col" fill="rgb(0, 0, 0)"  points="37.677,30.224 37.829,30.272 37.18,30.506 37.18,30.224 				"/>
				<polygon class="dsn_path_col" fill="rgb(0, 0, 0)"  points="37.32,23.234 37.829,25.104 37.763,25.363 				"/>
				<rect class="dsn_path_col" fill="rgb(0, 0, 0)" x="33.95" y="5.565" width="3.879" height="0.16"/>
				<polygon class="dsn_path_col" fill="rgb(0, 0, 0)"  points="37.829,25.695 37.32,28.131 37.18,28.131 37.18,27.491 37.763,25.363 				"/>
				<polygon class="dsn_path_col" fill="rgb(0, 0, 0)"  points="37.829,28.673 37.18,29.018 37.18,28.845 37.277,28.365 				"/>
				<polygon class="dsn_path_col" fill="rgb(0, 0, 0)"  points="34.911,35.649 37.829,35.649 37.829,36.966 35.365,36.966 				"/>
				<polygon class="dsn_path_col" fill="rgb(0, 0, 0)"  points="37.817,20.675 37.18,21.068 37.18,20.293 				"/>
				<polygon class="dsn_path_col" fill="rgb(0, 0, 0)"  points="37.32,23.234 37.763,25.363 37.18,27.491 37.18,22.717 				"/>
				<polygon class="dsn_path_col" fill="rgb(0, 0, 0)"  points="37.18,33.164 37.18,30.506 37.829,30.272 38.467,30.506 38.467,33.164 37.926,33.164 37.731,33.164 				"/>
				<polygon class="dsn_path_col" fill="rgb(0, 0, 0)"  points="37.677,30.224 37.18,30.224 37.18,30.051 				"/>
				<rect class="dsn_path_col" fill="rgb(0, 0, 0)" x="33.95" y="5.725" width="3.879" height="0.604"/>
				<polygon class="dsn_path_col" fill="rgb(0, 0, 0)"  points="37.32,28.131 37.277,28.365 37.18,28.316 37.18,28.131 				"/>
				<polygon class="dsn_path_col" fill="rgb(0, 0, 0)"  points="37.18,22.545 37.32,23.234 37.18,22.717 				"/>
				<polygon class="dsn_path_col" fill="rgb(0, 0, 0)"  points="37.277,28.365 37.18,28.845 37.18,28.316 				"/>
				<polygon class="dsn_path_col" fill="rgb(0, 0, 0)"  points="37.18,30.039 37.18,30.051 37.05,30.001 37.05,29.99 				"/>
				<polygon class="dsn_path_col" fill="rgb(0, 0, 0)"  points="37.039,33.631 37.05,30.555 37.18,30.506 37.18,33.164 37.731,33.164 37.731,33.631 				"/>
				<polygon class="dsn_path_col" fill="rgb(0, 0, 0)"  points="37.18,30.224 37.18,30.506 37.05,30.555 37.05,30.224 				"/>
				<polygon class="dsn_path_col" fill="rgb(0, 0, 0)"  points="37.18,30.051 37.18,30.224 37.05,30.224 37.05,30.001 				"/>
				<polygon class="dsn_path_col" fill="rgb(0, 0, 0)"  points="37.18,28.845 37.18,29.018 37.137,29.042 				"/>
				<polygon class="dsn_path_col" fill="rgb(0, 0, 0)"  points="37.18,28.131 37.18,28.316 37.05,28.242 37.05,28.131 				"/>
				<polygon class="dsn_path_col" fill="rgb(0, 0, 0)"  points="37.18,27.491 37.18,28.131 37.05,28.131 37.05,27.958 				"/>
				<polygon class="dsn_path_col" fill="rgb(0, 0, 0)"  points="37.18,22.717 37.18,27.491 37.05,27.958 37.073,22.287 				"/>
				<polygon class="dsn_path_col" fill="rgb(0, 0, 0)"  points="37.18,22.545 37.18,22.717 37.073,22.287 37.073,21.979 				"/>
				<polygon class="dsn_path_col" fill="rgb(0, 0, 0)"  points="37.18,21.068 37.18,22.545 37.073,21.979 37.073,21.13 				"/>
				<polygon class="dsn_path_col" fill="rgb(0, 0, 0)"  points="37.18,20.293 37.18,21.068 37.073,21.13 37.073,20.232 				"/>
				<polygon class="dsn_path_col" fill="rgb(0, 0, 0)"  points="35.603,14.547 40.043,14.547 40.043,14.94 38.467,14.94 38.467,16.381 37.18,16.381 37.18,14.94 35.603,14.94 
									"/>
				<polygon class="dsn_path_col" fill="rgb(0, 0, 0)"  points="37.05,29.99 37.05,28.242 37.18,28.316 37.18,28.845 37.137,29.042 37.18,29.018 37.18,30.039 				"/>
				<polygon class="dsn_path_col" fill="rgb(0, 0, 0)"  points="37.073,20.232 37.073,21.13 36.911,21.229 36.759,20.502 36.759,16.381 37.18,16.381 37.18,20.293 				"/>
				<polygon class="dsn_path_col" fill="rgb(0, 0, 0)"  points="37.073,21.13 37.073,21.979 36.911,21.229 				"/>
				<polygon class="dsn_path_col" fill="rgb(0, 0, 0)"  points="37.073,21.979 37.073,22.287 36.792,21.29 36.911,21.229 				"/>
				<polygon class="dsn_path_col" fill="rgb(0, 0, 0)"  points="37.073,22.287 37.05,27.958 37.008,28.131 36.867,28.131 36.759,28.083 36.759,21.314 36.792,21.29 				"/>
				<polygon class="dsn_path_col" fill="rgb(0, 0, 0)"  points="37.008,28.131 37.05,27.958 37.05,28.131 				"/>
				<polygon class="dsn_path_col" fill="rgb(0, 0, 0)"  points="37.05,28.131 37.05,28.242 36.986,28.205 37.008,28.131 				"/>
				<polygon class="dsn_path_col" fill="rgb(0, 0, 0)"  points="36.759,29.878 36.759,29.03 36.986,28.205 37.05,28.242 37.05,29.99 36.759,29.891 				"/>
				<polygon class="dsn_path_col" fill="rgb(0, 0, 0)"  points="37.05,29.99 37.05,30.001 37.05,30.224 36.759,30.224 36.759,29.891 				"/>
				<polygon class="dsn_path_col" fill="rgb(0, 0, 0)"  points="37.05,30.224 37.05,30.555 36.759,30.654 36.759,30.224 				"/>
				<path class="dsn_path_col" fill="rgb(0, 0, 0)" d="M37.05,29.99l-0.28-0.099L37.05,29.99z"/>
				<polygon class="dsn_path_col" fill="rgb(0, 0, 0)"  points="36.759,30.654 37.05,30.555 37.039,33.631 36.759,33.631 				"/>
				<polygon class="dsn_path_col" fill="rgb(0, 0, 0)"  points="37.008,28.131 36.986,28.205 36.867,28.131 				"/>
				<polygon class="dsn_path_col" fill="rgb(0, 0, 0)"  points="36.759,20.502 36.911,21.229 36.792,21.29 36.759,21.179 				"/>
				<polygon class="dsn_path_col" fill="rgb(0, 0, 0)"  points="37.233,8.53 37.233,13.341 35.603,13.341 35.603,12.862 36.813,12.862 36.813,8.051 37.731,8.051 37.731,8.53 
									"/>
				<polygon class="dsn_path_col" fill="rgb(0, 0, 0)"  points="40.043,14.547 35.603,14.547 35.603,13.341 37.233,13.341 37.233,8.53 37.731,8.53 37.926,8.53 38.423,8.53 
					38.423,13.341 40.043,13.341 				"/>
				<polygon class="dsn_path_col" fill="rgb(0, 0, 0)"  points="36.867,28.131 36.759,28.131 36.759,28.083 				"/>
				<polygon class="dsn_path_col" fill="rgb(0, 0, 0)"  points="36.759,21.179 36.792,21.29 36.759,21.314 				"/>
				<polygon class="dsn_path_col" fill="rgb(0, 0, 0)"  points="36.759,29.03 36.759,28.131 36.867,28.131 36.986,28.205 				"/>
				<polygon class="dsn_path_col" fill="rgb(0, 0, 0)"  points="36.759,15.409 35.603,15.409 35.603,14.94 37.18,14.94 37.18,16.381 36.759,16.381 				"/>
				<polygon class="dsn_path_col" fill="rgb(0, 0, 0)"  points="35.852,21.868 35.852,24.107 35.603,24.107 35.603,22.016 				"/>
				<polygon class="dsn_path_col" fill="rgb(0, 0, 0)"  points="35.852,19.247 35.852,21.868 35.603,22.016 35.603,19.112 				"/>
				<polygon class="dsn_path_col" fill="rgb(0, 0, 0)"  points="35.852,16.639 35.852,19.247 35.603,19.112 35.603,16.467 				"/>
				<polygon class="dsn_path_col" fill="rgb(0, 0, 0)"  points="35.852,16.467 35.852,16.639 35.603,16.467 				"/>
				<rect class="dsn_path_col" fill="rgb(0, 0, 0)" x="35.603" y="8.051" width="0.249" height="3.752"/>
				<polygon class="dsn_path_col" fill="rgb(0, 0, 0)"  points="35.603,22.016 35.603,24.107 34.501,24.107 34.501,22.681 				"/>
				<polygon class="dsn_path_col" fill="rgb(0, 0, 0)"  points="35.603,16.467 35.603,19.112 34.446,18.485 34.446,16.455 				"/>
				<polygon class="dsn_path_col" fill="rgb(0, 0, 0)"  points="35.603,14.94 35.603,15.409 34.176,15.409 34.025,15.31 34.025,14.94 				"/>
				<rect class="dsn_path_col" fill="rgb(0, 0, 0)" x="34.025" y="13.341" width="1.577" height="1.206"/>
				<rect class="dsn_path_col" fill="rgb(0, 0, 0)" x="34.025" y="12.862" width="1.577" height="0.479"/>
				<rect class="dsn_path_col" fill="rgb(0, 0, 0)" x="34.025" y="8.051" width="1.577" height="3.752"/>
				<rect class="dsn_path_col" fill="rgb(0, 0, 0)" x="34.025" y="14.547" width="1.577" height="0.393"/>
				<polygon class="dsn_path_col" fill="rgb(0, 0, 0)"  points="35.603,19.112 35.603,22.016 34.501,22.681 34.501,20.404 34.446,20.404 34.446,18.485 				"/>
				<rect class="dsn_path_col" fill="rgb(0, 0, 0)" x="33.95" y="44.791" width="0.702" height="0.615"/>
				<rect class="dsn_path_col" fill="rgb(0, 0, 0)" x="33.95" y="44.657" width="0.702" height="0.134"/>
				<rect class="dsn_path_col" fill="rgb(0, 0, 0)" x="33.95" y="42.22" width="0.702" height="0.319"/>
				<polygon class="dsn_path_col" fill="rgb(0, 0, 0)"  points="34.501,22.681 34.501,24.107 33.409,24.107 33.409,23.333 				"/>
				<polygon class="dsn_path_col" fill="rgb(0, 0, 0)"  points="34.176,15.409 34.025,15.409 34.025,15.31 				"/>
				<polygon class="dsn_path_col" fill="rgb(0, 0, 0)"  points="34.144,40.816 34.652,40.816 34.652,42.22 33.95,42.22 33.95,37.729 34.134,37.729 				"/>
				<rect class="dsn_path_col" fill="rgb(0, 0, 0)" x="34.025" y="36.966" width="0.097" height="0.394"/>
				<rect class="dsn_path_col" fill="rgb(0, 0, 0)" x="34.025" y="34.53" width="0.097" height="2.449"/>
				<polygon class="dsn_path_col" fill="rgb(0, 0, 0)"  points="34.122,30.224 34.134,34.53 34.025,34.53 34.025,30.224 				"/>
				<polygon class="dsn_path_col" fill="rgb(0, 0, 0)"  points="34.112,29.399 34.122,30.224 34.025,30.224 34.025,29.399 				"/>
				<polygon class="dsn_path_col" fill="rgb(0, 0, 0)"  points="34.112,28.931 34.112,29.399 34.025,29.399 34.025,28.907 				"/>
				<polygon class="dsn_path_col" fill="rgb(0, 0, 0)"  points="34.112,28.131 34.112,28.931 34.025,28.907 34.025,28.131 				"/>
				<polygon class="dsn_path_col" fill="rgb(0, 0, 0)"  points="34.112,27.147 34.112,28.131 34.025,28.131 33.863,28.131 33.863,28.845 33.409,28.685 33.409,27.577 				"/>
				<rect class="dsn_path_col" fill="rgb(0, 0, 0)" x="33.95" y="36.966" width="0.086" height="0.394"/>
				<rect class="dsn_path_col" fill="rgb(0, 0, 0)" x="33.95" y="34.53" width="0.086" height="2.449"/>
				<rect class="dsn_path_col" fill="rgb(0, 0, 0)" x="33.95" y="30.224" width="0.086" height="4.306"/>
				<polygon class="dsn_path_col" fill="rgb(0, 0, 0)"  points="34.025,29.399 34.025,30.224 33.95,30.224 33.863,30.224 33.863,29.399 				"/>
				<polygon class="dsn_path_col" fill="rgb(0, 0, 0)"  points="34.025,28.907 34.025,29.399 33.863,29.399 33.863,28.845 				"/>
				<polygon class="dsn_path_col" fill="rgb(0, 0, 0)"  points="34.025,28.131 34.025,28.907 33.863,28.845 33.863,28.131 				"/>
				<polygon class="dsn_path_col" fill="rgb(0, 0, 0)"  points="34.025,15.31 34.025,15.409 33.863,15.409 33.863,15.199 				"/>
				<polygon class="dsn_path_col" fill="rgb(0, 0, 0)"  points="34.025,14.94 34.025,15.31 33.863,15.199 33.863,14.94 				"/>
				<polygon class="dsn_path_col" fill="rgb(0, 0, 0)"  points="33.95,14.547 34.025,14.547 34.025,14.94 33.863,14.94 33.863,14.547 				"/>
				<rect class="dsn_path_col" fill="rgb(0, 0, 0)" x="33.95" y="13.341" width="0.086" height="1.206"/>
				<rect class="dsn_path_col" fill="rgb(0, 0, 0)" x="33.95" y="12.862" width="0.086" height="0.479"/>
				<rect class="dsn_path_col" fill="rgb(0, 0, 0)" x="33.95" y="8.051" width="0.086" height="3.752"/>
				<polygon class="dsn_path_col" fill="rgb(0, 0, 0)"  points="34.025,37.359 34.134,37.359 34.134,37.679 33.95,37.47 33.95,37.359 				"/>
				<polygon class="dsn_path_col" fill="rgb(0, 0, 0)"  points="33.95,37.47 34.134,37.679 34.134,37.729 33.95,37.729 				"/>
				<polygon class="dsn_path_col" fill="rgb(0, 0, 0)"  points="33.95,44.791 33.95,45.406 32.48,45.406 31.897,44.791 				"/>
				<polygon class="dsn_path_col" fill="rgb(0, 0, 0)"  points="33.95,44.657 33.95,44.791 31.897,44.791 31.767,44.657 				"/>
				<polygon class="dsn_path_col" fill="rgb(0, 0, 0)"  points="33.95,37.729 33.95,42.22 33.819,42.22 31.162,34.431 33.063,36.51 33.063,37.359 33.853,37.359 33.95,37.47 
									"/>
				<rect class="dsn_path_col" fill="rgb(0, 0, 0)" x="33.863" y="36.966" width="0.087" height="0.394"/>
				<polygon class="dsn_path_col" fill="rgb(0, 0, 0)"  points="33.95,34.53 33.95,36.966 33.863,36.966 33.863,30.224 33.95,30.224 				"/>
				<rect class="dsn_path_col" fill="rgb(0, 0, 0)" x="33.863" y="13.341" width="0.087" height="1.206"/>
				<rect class="dsn_path_col" fill="rgb(0, 0, 0)" x="33.863" y="12.862" width="0.087" height="0.479"/>
				<rect class="dsn_path_col" fill="rgb(0, 0, 0)" x="33.863" y="8.051" width="0.087" height="3.752"/>
				<polygon class="dsn_path_col" fill="rgb(0, 0, 0)"  points="33.863,36.966 33.863,37.359 33.853,37.359 33.484,36.966 				"/>
				<polygon class="dsn_path_col" fill="rgb(0, 0, 0)"  points="33.863,30.224 33.863,36.966 33.484,36.966 33.409,36.88 33.409,30.224 				"/>
				<rect class="dsn_path_col" fill="rgb(0, 0, 0)" x="33.409" y="29.399" width="0.454" height="0.825"/>
				<polygon class="dsn_path_col" fill="rgb(0, 0, 0)"  points="33.863,28.845 33.863,29.399 33.409,29.399 33.409,28.685 				"/>
				<polygon class="dsn_path_col" fill="rgb(0, 0, 0)"  points="33.863,15.199 33.863,15.409 33.366,15.409 33.247,14.94 33.518,14.94 				"/>
				<polygon class="dsn_path_col" fill="rgb(0, 0, 0)"  points="33.863,14.94 33.863,15.199 33.518,14.94 				"/>
				<polygon class="dsn_path_col" fill="rgb(0, 0, 0)"  points="33.518,14.94 33.183,14.683 33.14,14.547 33.863,14.547 33.863,14.94 				"/>
				<polygon class="dsn_path_col" fill="rgb(0, 0, 0)"  points="33.863,37.359 33.95,37.359 33.95,37.47 33.853,37.359 				"/>
				<polygon class="dsn_path_col" fill="rgb(0, 0, 0)"  points="32.286,42.553 31.119,41.322 31.119,34.395 31.162,34.431 33.819,42.22 33.95,42.22 33.95,42.553 				"/>
				<polygon class="dsn_path_col" fill="rgb(0, 0, 0)"  points="33.409,36.88 33.484,36.966 33.409,36.966 				"/>
				<polygon class="dsn_path_col" fill="rgb(0, 0, 0)"  points="33.409,36.966 33.484,36.966 33.853,37.359 33.063,37.359 33.063,36.51 33.409,36.88 				"/>
				<polygon class="dsn_path_col" fill="rgb(0, 0, 0)"  points="33.409,30.224 33.409,36.88 33.063,36.51 33.063,30.224 				"/>
				<rect class="dsn_path_col" fill="rgb(0, 0, 0)" x="33.063" y="29.399" width="0.346" height="0.825"/>
				<polygon class="dsn_path_col" fill="rgb(0, 0, 0)"  points="33.409,28.685 33.409,29.399 33.063,29.399 33.063,28.55 				"/>
				<polygon class="dsn_path_col" fill="rgb(0, 0, 0)"  points="33.409,27.577 33.409,28.685 33.063,28.55 33.063,27.787 				"/>
				<polygon class="dsn_path_col" fill="rgb(0, 0, 0)"  points="33.409,23.333 33.409,24.107 33.063,24.107 33.063,23.542 				"/>
				<polygon class="dsn_path_col" fill="rgb(0, 0, 0)"  points="33.183,14.683 33.518,14.94 33.247,14.94 				"/>
				<polygon class="dsn_path_col" fill="rgb(0, 0, 0)"  points="33.183,14.683 33.247,14.94 32.232,14.94 32.232,13.993 				"/>
				<polygon class="dsn_path_col" fill="rgb(0, 0, 0)"  points="33.14,14.547 33.183,14.683 32.232,13.993 32.232,13.341 33.863,13.341 33.863,14.547 				"/>
				<polygon class="dsn_path_col" fill="rgb(0, 0, 0)"  points="33.063,30.224 33.063,36.51 31.162,34.431 31.119,34.308 31.119,30.224 				"/>
				<rect class="dsn_path_col" fill="rgb(0, 0, 0)" x="31.119" y="29.399" width="1.944" height="0.825"/>
				<polygon class="dsn_path_col" fill="rgb(0, 0, 0)"  points="33.063,28.55 33.063,29.399 31.119,29.399 31.119,28.956 32.264,28.279 				"/>
				<polygon class="dsn_path_col" fill="rgb(0, 0, 0)"  points="33.063,27.787 33.063,28.55 32.264,28.279 				"/>
				<polygon class="dsn_path_col" fill="rgb(0, 0, 0)"  points="33.063,23.542 33.063,24.107 32.556,24.107 32.556,23.85 				"/>
				<polygon class="dsn_path_col" fill="rgb(0, 0, 0)"  points="32.296,21.745 33.409,21.745 33.409,23.333 33.063,23.542 33.063,22.139 32.405,22.139 				"/>
				<polygon class="dsn_path_col" fill="rgb(0, 0, 0)"  points="34.446,18.485 30.665,16.417 34.446,16.455 				"/>
				<polygon class="dsn_path_col" fill="rgb(0, 0, 0)"  points="32.556,23.333 31.703,22.692 32.642,23.025 32.405,22.139 33.063,22.139 33.063,23.542 32.556,23.85 				"/>
				<polygon class="dsn_path_col" fill="rgb(0, 0, 0)"  points="32.556,23.85 32.556,24.107 32.124,24.107 				"/>
				<polygon class="dsn_path_col" fill="rgb(0, 0, 0)"  points="31.811,15.409 31.811,13.686 32.232,13.993 32.232,14.94 33.247,14.94 33.366,15.409 				"/>
				<polygon class="dsn_path_col" fill="rgb(0, 0, 0)"  points="31.811,13.686 31.811,12.862 33.863,12.862 33.863,13.341 32.232,13.341 32.232,13.993 				"/>
				<polygon class="dsn_path_col" fill="rgb(0, 0, 0)"  points="31.681,44.791 31.454,44.569 31.541,44.569 31.616,44.657 31.767,44.657 31.897,44.791 				"/>
				<polygon class="dsn_path_col" fill="rgb(0, 0, 0)"  points="31.357,45.406 30.579,44.569 31.454,44.569 31.681,44.791 31.897,44.791 32.48,45.406 				"/>
				<polygon class="dsn_path_col" fill="rgb(0, 0, 0)"  points="31.541,44.569 31.454,44.569 29.984,42.995 30.104,42.995 				"/>
				<polygon class="dsn_path_col" fill="rgb(0, 0, 0)"  points="29.984,42.995 31.454,44.569 30.579,44.569 29.142,42.995 				"/>
				<polygon class="dsn_path_col" fill="rgb(0, 0, 0)"  points="31.119,34.308 31.162,34.431 31.119,34.395 				"/>
				<polygon class="dsn_path_col" fill="rgb(0, 0, 0)"  points="32.178,21.302 29.283,19.715 29.283,17.968 31.929,19.42 31.541,17.538 29.283,15.876 29.283,15.704 
					29.348,15.704 30.384,16.27 30.384,16.417 30.665,16.417 34.446,18.485 34.446,20.404 34.501,20.404 34.501,22.681 
					33.409,23.333 33.409,21.745 32.296,21.745 				"/>
				<polygon class="dsn_path_col" fill="rgb(0, 0, 0)"  points="30.384,15.704 30.384,16.27 29.348,15.704 				"/>
				<polygon class="dsn_path_col" fill="rgb(0, 0, 0)"  points="30.384,12.64 30.384,15.704 29.348,15.704 29.283,15.667 29.283,11.841 				"/>
				<polygon class="dsn_path_col" fill="rgb(0, 0, 0)"  points="30.384,11.803 30.384,12.64 29.283,11.841 29.283,11.582 33.463,11.582 33.463,8.051 33.863,8.051 
					33.863,11.803 				"/>
				<polygon class="dsn_path_col" fill="rgb(0, 0, 0)"  points="29.509,24.107 28.904,24.107 28.882,23.763 				"/>
				<polygon class="dsn_path_col" fill="rgb(0, 0, 0)"  points="29.38,32.487 29.206,29.399 29.38,29.399 				"/>
				<polygon class="dsn_path_col" fill="rgb(0, 0, 0)"  points="29.38,28.685 29.38,29.399 29.206,29.399 29.152,28.501 				"/>
				<polygon class="dsn_path_col" fill="rgb(0, 0, 0)"  points="29.348,15.704 29.283,15.704 29.283,15.667 				"/>
				<polygon class="dsn_path_col" fill="rgb(0, 0, 0)"  points="29.283,17.968 29.283,19.715 28.937,19.53 28.937,17.771 				"/>
				<polygon class="dsn_path_col" fill="rgb(0, 0, 0)"  points="29.283,15.704 29.283,15.876 29.034,15.704 				"/>
				<polygon class="dsn_path_col" fill="rgb(0, 0, 0)"  points="29.283,15.667 29.283,15.704 29.034,15.704 28.937,15.618 28.937,15.482 				"/>
				<polygon class="dsn_path_col" fill="rgb(0, 0, 0)"  points="29.283,11.841 29.283,15.667 28.937,15.482 28.937,11.582 				"/>
				<polygon class="dsn_path_col" fill="rgb(0, 0, 0)"  points="33.463,11.582 29.283,11.582 29.283,11.841 28.937,11.582 28.937,11.188 33.118,11.188 33.118,8.051 
					33.463,8.051 				"/>
				<polygon class="dsn_path_col" fill="rgb(0, 0, 0)"  points="29.206,29.399 29.38,32.487 29.38,39.268 28.353,38.183 28.353,29.202 28.634,29.399 				"/>
				<polygon class="dsn_path_col" fill="rgb(0, 0, 0)"  points="28.937,22.139 28.937,21.696 30.168,22.139 				"/>
				<polygon class="dsn_path_col" fill="rgb(0, 0, 0)"  points="28.937,17.771 28.937,19.53 27.122,18.534 26.743,16.565 				"/>
				<polygon class="dsn_path_col" fill="rgb(0, 0, 0)"  points="28.937,15.482 28.937,15.618 28.159,15.052 				"/>
				<polygon class="dsn_path_col" fill="rgb(0, 0, 0)"  points="28.937,11.188 28.937,11.582 26.225,9.588 27.435,9.588 27.283,8.051 33.118,8.051 33.118,11.188 				"/>
				<polygon class="dsn_path_col" fill="rgb(0, 0, 0)"  points="28.937,22.139 30.168,22.139 31.703,22.692 32.556,23.333 32.556,23.85 32.124,24.107 29.509,24.107 
					28.882,23.763 28.839,22.915 28.072,21.388 28.937,21.696 				"/>
				<polygon class="dsn_path_col" fill="rgb(0, 0, 0)"  points="28.882,23.763 28.904,24.107 28.148,24.107 23.469,20.798 				"/>
				<polygon class="dsn_path_col" fill="rgb(0, 0, 0)"  points="28.353,29.202 28.353,27.86 29.152,28.501 29.206,29.399 28.634,29.399 				"/>
				<polygon class="dsn_path_col" fill="rgb(0, 0, 0)"  points="28.353,41.285 28.353,41.101 28.526,41.285 30.104,42.995 29.984,42.995 				"/>
				<polygon class="dsn_path_col" fill="rgb(0, 0, 0)"  points="28.353,29.202 28.353,38.183 24.928,34.604 24.485,26.458 				"/>
				<polygon class="dsn_path_col" fill="rgb(0, 0, 0)"  points="28.353,27.86 28.353,29.202 24.485,26.458 24.42,25.449 26.873,26.335 26.873,26.679 				"/>
				<polygon class="dsn_path_col" fill="rgb(0, 0, 0)"  points="23.275,35.563 28.353,41.101 23.286,35.81 				"/>
				<polygon class="dsn_path_col" fill="rgb(0, 0, 0)"  points="26.873,24.982 26.873,26.335 24.42,25.449 24.291,23.025 				"/>
				<polygon class="dsn_path_col" fill="rgb(0, 0, 0)"  points="26.235,7.165 26.375,7.706 24.734,7.706 24.69,7.165 				"/>
				<polygon class="dsn_path_col" fill="rgb(0, 0, 0)"  points="25.123,5.565 33.95,5.565 33.95,5.725 25.166,5.725 				"/>
				<polygon class="dsn_path_col" fill="rgb(0, 0, 0)"  points="28.072,21.388 28.839,22.915 28.882,23.763 23.469,20.798 23.383,20.736 23.048,16.208 25.09,17.734 
					25.295,20.392 				"/>
				<polygon class="dsn_path_col" fill="rgb(0, 0, 0)"  points="25.166,5.725 33.95,5.725 33.95,6.328 26.019,6.328 26.235,7.165 24.69,7.165 24.734,7.706 23.642,7.706 
					23.632,7.706 22.616,6.956 25.49,6.956 				"/>
				<polygon class="dsn_path_col" fill="rgb(0, 0, 0)"  points="23.048,16.208 22.746,12.099 24.431,13.021 24.69,15.446 26.743,16.565 27.122,18.534 25.069,17.426 
					25.09,17.734 				"/>
				<polygon class="dsn_path_col" fill="rgb(0, 0, 0)"  points="23.632,7.706 21.902,7.706 21.816,6.956 22.616,6.956 				"/>
				<polygon class="dsn_path_col" fill="rgb(0, 0, 0)"  points="23.048,16.208 23.383,20.736 23.253,20.65 22.767,15.999 				"/>
				<polygon class="dsn_path_col" fill="rgb(0, 0, 0)"  points="22.583,20.171 22.345,19.026 22.151,15.544 22.767,15.999 23.253,20.65 				"/>
				<polygon class="dsn_path_col" fill="rgb(0, 0, 0)"  points="22.746,12.099 23.048,16.208 22.767,15.999 22.098,9.588 26.225,9.588 28.937,11.582 28.937,15.482 
					28.159,15.052 24.355,12.258 24.431,13.021 				"/>
				<polygon class="dsn_path_col" fill="rgb(0, 0, 0)"  points="22.151,15.544 22.345,19.026 20.422,9.588 22.098,9.588 22.767,15.999 				"/>
				<polygon class="dsn_path_col" fill="rgb(0, 0, 0)"  points="28.353,41.285 29.984,42.995 29.142,42.995 22.551,35.82 21.914,24.637 22.616,25.129 23.188,35.477 
					23.275,35.563 23.286,35.81 28.353,41.101 				"/>
				<polygon class="dsn_path_col" fill="rgb(0, 0, 0)"  points="22.497,23.197 22.616,25.129 21.914,24.637 21.837,23.418 21.211,22.151 18.423,8.457 18.769,8.457 
					20.941,20.097 				"/>
				<polygon class="dsn_path_col" fill="rgb(0, 0, 0)"  points="18.423,8.457 21.211,22.151 20.325,20.367 20.314,20.306 17.808,6.956 21.816,6.956 21.902,7.706 18.629,7.706 
					18.769,8.457 				"/>
			</g>
		</g>
		<polygon class="dsn_path_col" fill="rgb(0, 0, 0)"  points="23.361,48.912 25.198,57.108 21.557,57.108 22.021,55.865 23.383,55.865 22.497,51.878 21.33,57.108 
			19.785,57.108 21.633,48.912 		"/>
		<path class="dsn_path_col" fill="rgb(0, 0, 0)" d="M19.407,49.898v2.755c0,0.652-0.292,0.985-0.885,0.985h-0.065l0.983,3.482h-1.534l-1.34-4.726h1.307v-2.24h-1.534v6.953
			h-1.523v-8.196h3.695C19.104,48.912,19.407,49.245,19.407,49.898z"/>
		<polygon class="dsn_path_col" fill="rgb(0, 0, 0)"  points="12.859,50.155 12.859,57.108 11.336,57.108 11.336,50.155 9.759,50.155 10.223,48.912 14.437,48.912 
			13.973,50.155 		"/>
		<rect class="dsn_path_col" fill="rgb(0, 0, 0)" x="3.643" y="55.928" width="5.165" height="0.885"/>
		<polygon class="dsn_path_col" fill="rgb(0, 0, 0)"  points="6.571,54.586 6.571,49.701 9.11,49.701 8.829,50.438 7.479,50.438 7.479,51.768 8.57,51.768 8.3,52.519 
			7.479,52.519 7.479,53.835 9.11,53.835 8.829,54.586 		"/>
		<path class="dsn_path_col" fill="rgb(0, 0, 0)" d="M4.54,52.519v1.316h0.907v-1.328H4.54V52.519z M5.437,50.438H4.529v1.329h0.908V50.438z M3.622,54.586v-4.885h2.193
			c0.356,0,0.53,0.197,0.53,0.591v1.465c0,0.219-0.033,0.355-0.12,0.381c0.087,0.037,0.12,0.159,0.12,0.394v1.464
			c0,0.395-0.174,0.591-0.52,0.591H3.622z"/>
	</g>
</g>
</svg>
