<?xml version="1.0" encoding="utf-8"?>
<!-- Generator: Adobe Illustrator 16.0.0, SVG Export Plug-In . SVG Version: 6.00 Build 0)  -->
<!DOCTYPE svg PUBLIC "-//W3C//DTD SVG 1.1//EN" "http://www.w3.org/Graphics/SVG/1.1/DTD/svg11.dtd">
<svg version="1.1" id="Layer_1" xmlns="http://www.w3.org/2000/svg" xmlns:xlink="http://www.w3.org/1999/xlink" x="0px" y="0px"
	 width="70px" height="70px" viewBox="0 0 768 958" enable-background="new 0 0 768 958" xml:space="preserve">
<text class="dsn_path_col" fill="rgb(0, 0, 0)"   transform="matrix(1 0 0 1 112.1333 104.3765)" font-family="'SuperstarM54'" font-size="100.4474">ROMANS</text>
<g>
	<rect class="dsn_path_col" fill="rgb(0, 0, 0)" x="112.1" y="161.8" width="554" height="10.4"/>
</g>
<g>
	<rect class="dsn_path_col" fill="rgb(0, 0, 0)" x="112.1" y="129.6" width="554" height="25.7"/>
</g>
<g>
	<rect class="dsn_path_col" fill="rgb(0, 0, 0)" x="107.1" y="802.6" width="554" height="10.4"/>
</g>
<g>
	<rect class="dsn_path_col" fill="rgb(0, 0, 0)" x="107.1" y="819.5" width="554" height="25.7"/>
</g>
<g>
	<path class="dsn_path_col" fill="rgb(0, 0, 0)" d="M110.8,774.1V667.2h30.6V326.7h-30.6V219.9l66-24.7h71.5v472h30.6v106.9H110.8z"/>
	<path class="dsn_path_col" fill="rgb(0, 0, 0)" d="M650.2,712.9l-68.9,60.4H398.5l-68.2-60.4v-92.5h106.9v46.8H543V498.4H398.5L330.4,438V195.2h315.4v153.6H538.5v-46.8h-101
		v89.5h144.1l68.5,60.1V712.9z"/>
</g>
<text class="dsn_path_col" fill="rgb(0, 0, 0)"   transform="matrix(1 0 0 1 465.8726 948.0366)" font-family="'SuperstarM54'" font-size="116.8463">five</text>
</svg>
