<svg version="1.1" id="Layer_1" xmlns="http://www.w3.org/2000/svg" xmlns:xlink="http://www.w3.org/1999/xlink" x="0px" y="0px" width="70px" height="70px" viewBox="0 0 768 750" enable-background="new 0 0 768 750" xml:space="preserve">
<g>
	<g>
		<path fill="#AB1E23" d="M666.3,399c-5.3-19.2-27.9-34.5-47.9-27.2c-46.7,17-93.2,34.4-138.5,54.8c-19.3,8.7-23.8,36.4-14,53.3
			c11.6,19.7,33.9,22.7,53.3,14c39.2-17.7,79.6-32.3,119.9-47C659,439.6,672.2,420.7,666.3,399z"/>
	</g>
	<g>
		<g>
			<path fill="#AB1E23" d="M700.4,419.5c-0.6,2.1-1.2,4.2-1.8,6.2c-0.7,2-1.5,4-2.3,5.9c-3.8,9-9.3,16.8-15.6,23
				c-6.3,6.3-13.4,11.2-20.9,14.8c-1.9,0.9-3.7,1.8-5.7,2.5l-2.9,1.1l-1.4,0.5L649,474l-0.5,0.2c-2.5,0.8-5,1.5-7.4,2.3
				c-5,1.6-9.9,3.2-14.9,4.8c-20,6.6-40.2,13.6-61.6,20.3c-7.7,1.9-15.2,4.7-23,7.6c-3.9,1.5-7.7,3-11.6,4.6l-3.5,1.4
				c-1.4,0.5-2.8,1.2-4.2,1.6l-4.3,1.4l-4.5,1.1c-12,2.6-25.7,2.6-38.6-2.7c-6.4-2.6-12.3-6.4-17.3-10.9c-1.2-1.1-2.4-2.3-3.5-3.5
				c-1.2-1.3-2.5-2.9-3.6-4.4l-0.9-1.1c-0.3-0.4-0.6-0.8-0.7-0.9l-0.8-1.3l-0.8-1.3l-0.4-0.6l-0.7-1.2l-0.1-0.3l-0.3-0.6l0.3,0.7
				l0.1,0.2l0,0.1l0.6,1l0.1,0.2l0.5,0.8l0.9,1.5l0.5,0.8c0.1,0.1,0.1,0.2,0.3,0.4l0.5,0.7l2,2.7c0.7,0.9,1.4,1.8,2.1,2.6l2,2.1
				c1.3,1.4,2.7,2.8,4.3,4.1c6,5.2,13.2,9.2,20.7,11.6c15.2,4.8,30.5,3.3,43.7-1.2c9.3-3.7,18.7-7.3,28-11l6.6-2.6l6.7-2.4l13.4-4.7
				c8.9-3.1,18-5.9,27-8.7c9-2.8,18.1-5.3,27.3-7.7c4.6-1.2,9.1-2.3,13.7-3.5l3.4-0.8l5.5-1.8c3.7-1.4,7.3-2.9,10.8-4.8
				c7.1-3.7,13.8-8.6,19.9-14.8c6-6.1,11.4-13.6,15.2-22.2c-0.4,7.8-2.6,16.5-7,24.6c-4.4,8.2-11.1,15.7-19.6,21.4
				c-5.2,3.1-10.6,5.8-16.1,7.9l-4.1,1.5l-2.3,0.7l-4.4,1.3c-5.8,1.8-11.7,3.5-17.5,5.3c-11.6,3.6-22.8,7.3-34.1,11.1
				c-0.7-1.8-2-5.2-2.7-6.9c-7.6,3.7-15.1,7.1-22.7,10.3c-7.7,3.1-15.1,6.3-22.5,9.2c-3.8,1.4-7.5,2.9-11.3,4.3
				c-2.7,0.9-10.2,4.1-16.6,5.7c-13.4,3.2-28.5,3.7-43.6-1.4c-7.5-2.5-14.7-6.4-21-11.4c-1.5-1.3-3-2.6-4.5-3.9
				c-1.4-1.4-2.7-2.8-4.1-4.2l-1-1.1l-1.1-1.3l-2.1-2.7l-2-2.8c-0.5-0.7-0.6-1-0.9-1.5l-2.6-4.3c-0.9-1.8-1.8-3.6-2.7-5.5
				c-1.5-3.6-2.8-7.3-3.7-10.9c-1.8-7.3-2.6-14.4-2.3-21.6c0.3-7.1,1.4-14.3,3.6-21.4c2.3-7.1,5.8-14.4,10.9-21.1
				c2.5-3.4,5.5-6.5,8.9-9.7c2.2-1.8,4.5-3.6,6.9-5.2l3.4-2.3c2.6-1.4,5.1-2.9,7.7-4.3c1.9-1.1,3.8-2.2,5.7-3.4
				c-2.7,0.1-2-1.9-2-3.2c0.2-0.1,0.3-0.1,0.5-0.2c-0.1,0.1-0.3,0.1-0.5,0.2c0-1.2-0.6-1.8-4.6-0.1c4-1.7,4.6-1.1,4.6,0.1l-5.9,2.7
				l-2.9,1.4l-1.5,0.7l-2.4,1.2l-0.1,0.1l-0.2,0.1l-0.3,0.2l-0.7,0.4l-1.4,0.8l-0.7,0.4l-1.9,1.2c-2.6,1.7-5.2,3.6-7.6,5.5
				c-1.8,1.6-3.5,3.2-5.1,4.9c-1.7,1.7-3,3.4-4.5,5.2c-5.6,7.1-9.5,14.8-12,22.4c-2.5,7.6-3.8,15.2-4.1,22.8
				c-0.3,7.6,0.5,15.2,2.4,22.9c0.5,1.9,1,3.9,1.7,5.8c0.7,2,1.4,3.9,2.2,5.8c0.8,1.9,1.9,3.9,2.8,5.8l0.8,1.4l0.2,0.4l1.1,1.8
				l0.2,0.3l0.8,1.3c8,13.1,22.5,25,38.3,30.4c15.9,5.4,31.9,5.3,45.7,2c3.5-0.8,6.9-1.8,10.2-2.9l8-3.1c3.7-1.4,7.3-2.8,11-4.2
				c14.6-5.8,30-10.8,45.4-16c-6,2.2-11.9,4.3-17.8,6.5c-5.9,2.2-11.9,4.3-17.6,6.7c-5.7,2.4-11.5,4.7-17.2,7.1l-4.3,1.8l-2.9,1.2
				l-3.9,1.6c-5.3,1.9-10.8,3.5-16.6,4.5c-5.8,1.1-11.9,1.4-18.2,1.3c-6.3-0.3-12.8-1.1-19.3-3.1c-13-3.5-25.6-11.5-34.8-21.3
				c-2.3-2.5-5.4-6.4-7.3-9.1l-1.3-2l-0.7-1l-0.2-0.3l-1.1-1.8l-0.1-0.1l-0.2-0.3l-0.6-1.2c-1.7-3.1-3.3-6.4-4.4-9.5
				c-1.3-3.2-2.2-6.3-3-9.5c-3.1-12.6-3.1-24.9-0.7-37.2c2.5-12.2,8-25,17.9-36.3c1.2-1.4,2.6-2.7,4-4.1l2.1-2l1.1-1l1.5-1.1
				c2-1.6,4.1-3,6.3-4.4l1.6-1l0.7-0.4l0.3-0.1l1.1-0.6l1.1-0.6l0.5-0.3l0.3-0.1l0.1-0.1l2.7-1.3l2.3-1l4.6-2.1
				c6.1-2.7,12.2-5.5,18.4-8.2l9.2-4.1l9.3-3.9c12.4-5.1,24.8-10.4,37.4-15.2c12.6-4.9,25.3-9.9,37.8-14.4
				c4.3-1.6,12.9-4.7,17.1-6.3c1.2-0.1,2.4-0.2,3.6-0.2l0.9-0.1l0.4,0l0.2,0l0.1,0c0.3-0.1,0.2,0,0.3-0.1l0.2-0.1l4-0.8
				c2.6-0.5,5.2-0.9,7.9-1c2.6-0.1,5.3-0.4,7.8-0.2c10.3,0.3,19.8,2.7,28,6.2c8.2,3.5,15.4,8.1,21.7,13.4
				c6.3,5.4,11.9,11.5,16.5,18.6c-3.1-0.4-5.2,1.7-7.3,4.1c-2,2.3-4.1,4.9-6.6,6c-2.5,1.1-5.4,0.8-9.2-1.8
				c-3.9-2.5-8.7-7.4-18.5-13.5c-0.8,1.7-2.5,5.1-3.3,6.7c7.8,6.5,10.6,15,10,21.1c-0.2,1.6-0.5,3-1,4.3c-0.6,1.1-1.3,2.1-2.1,2.8
				c-0.4,0.3-0.8,1-1.1,1.5c-0.4,0.6-0.8,1.1-1.2,1.6c-0.8,1-1.6,1.9-2.5,2.7c-3.6,3-7.8,3.8-12.3,1.9c-0.6-0.2-1.1-0.5-1.7-0.9
				c-0.3-0.3-0.5,0.1-0.7,0.2c-0.2,0.2-0.4,0.4-0.5,0.6c-0.3,0.4-0.6,0.8-0.8,1.3l-0.1,0.3l-0.3,0.1l-0.5,0.2
				c-1.3,0.6-2.5,1.1-3.4,1.5c-0.2,0.1-0.4,0.2-0.6,0.3c-0.2,0.1-0.3,0.2-0.5,0.4l-0.2,0.2c-0.1,0.2,0.1-0.1,0.2-0.4
				c0.3-0.5,0.5-1.1,0.8-1.8c1.2-2.6,1.7-6.6,1.5-8c0-0.1,0-0.2,0-0.3c0-0.1-0.1-0.4,0-0.2c0,0.1,0,0.1,0,0.1l0,0l0,0l0,0
				c2,5.4-4.6-12,4.6,12.1l0,0l-0.1,0l-1,0.4c-2.8,1.1-5.6,2.1-8.5,3.2c-5.7,2.1-11.6,4.2-17.5,6.2c-6,2.1-11.9,4.1-17.7,6.2
				c-5.9,2.2-11.8,4.3-17.7,6.5c-11.8,4.4-23.2,9.5-34.2,14.8c-8.1,3.7-15.9,7.8-23.9,11.6l-11.9,5.7l-1.5,0.7l-0.4,0.2l-0.2,0.1
				l0,0c-2.3-7.3,5.2,16.3-5.2-16.3l0,0l-0.1,0l-0.8,0.4l-1.6,0.7l-0.8,0.3c-0.1,0-0.4,0.2-0.2,0.1h0.3c0.7,0,1.3-0.2,1.8-0.4
				c0.3,0.4,0.6,0.7,0.9,1c1.6,1.6,4.7,3.5,7.4,4.5c1.4,0.5,2.7,0.9,3.6,1c1,0.2,1.4,0.2,1.5,0.2c-0.1,0-0.2,0-0.3,0
				c-0.3,0-0.7,0-1.1,0.1c-1,0.1-2.3,0.4-4,0.8c-0.8,0.3-1.6,0.5-2.5,0.8c-0.4,0.2-0.9,0.4-1.3,0.6c-0.4,0.2-0.8,0.3-1.3,0.6
				c-0.4,0.2-0.8,0.4-1.3,0.7l-0.2,0.1l-0.1,0.1l0,0c-2,1.7,17.5-15,9.2-7.9l0,0.1l-0.1,0.6l-0.2,1.1l-0.3,2.3
				c-0.1,0.7-0.1,1.8-0.7,1.4c-0.6-0.1-1.2-0.1-1.9,0c-0.3,0-0.7,0.1-0.9,0.1l-0.4,0.3c-0.2,0.2-0.5,0.5-0.7,0.8l-0.4,0.4l-0.3,0.4
				c-0.1,0.1,0.1-0.2,0.1-0.2l0.2-0.4c0.2-0.5,0.3-0.8,0.6-1.6c0.1-0.6,0.4-1.6,0.5-2.4c0-0.3,0.2-1.1,0.2-1.4c0,0,0,0.2,0,0.2
				c0.1,0,0.2,0.2,0.4,0.3c0.4,0.2,1,0.2,1.8,0.2c0.4-0.1,0.8,0,1.3-0.2c0.2-0.1,0.5-0.1,0.7-0.1c0,0,0.5-0.2,0.9-0.3l1.2-0.5
				c6.4-2.4,12.8-4.9,19.2-7.3l9.6-3.6l9.6-3.3c6.4-2.1,12.8-4.3,19.1-6.3c12.7-3.9,25.4-7.2,37.9-9.9c4.5-1.1,9.6-3,14.9-5.1
				c2.7-1.1,5.4-2.2,8.1-3.3c1.4-0.6,2.7-1.1,4.1-1.7l0.5-0.2c0.2-0.1,0.1-0.1,0.2-0.1l0.3-0.2c0.2-0.1,0.4-0.2,0.7-0.4
				c1.7-1,2.8-2,3.8-2.5c1-0.5,1.8-0.6,3.3-0.3c3,0.3,6.8,1.2,10.7,3.4c-0.7,1.6-1.7,3.1-3.1,4.6c-1.3,1.4-2.8,2.8-4.6,4
				c-1.7,1.2-3.7,2.2-5.8,3l-0.8,0.3l-0.4,0.2l-0.7,0.2l-2.7,0.9l-5.3,1.8c-14.2,4.9-28.3,9.9-42.4,14.7c-8.8,2.7-17.5,5.6-26.3,8.5
				l-13.2,4.3c-4.4,1.4-8.8,3.1-13.2,4.6l-13.2,4.6l-6.6,2.3c-1.3,0.3-2.4,0.6-3.5,0.7c-4.5,0.6-8.2-0.5-9.6-1.9
				c1.2,1.8,4.9,3.2,9.6,2.7l1.8-0.2l1.8-0.4c0.1,0,0.4-0.1,0.7-0.2l0.8-0.3l1.7-0.5l3.3-1.1c4.4-1.5,8.8-3,13.2-4.5
				c4.4-1.6,8.8-3.1,13.2-4.7c4.4-1.5,8.8-3,13.2-4.5c8.8-3.1,17.6-6.1,26.5-9.2l21.4-6.7l21.3-6.4l10.1-3c2.3-0.6,4.4-1.6,6.5-2.7
				c4-2.3,7.4-5.4,9.5-9c3.3,2.1,6.4,4.8,10.4,5c0,0,0.2-0.5,0.5-1.2c0.2-0.4,0.3-0.8,0.6-1.3c0.2-0.5,0.3-1.1,0.5-1.7
				c0.8-2.4,1.2-5.4,1.3-7.3c2.5-3.9,4.6-7.4,6.8-10c2.2-2.6,4.6-4.5,7.3-5.2c2.7-0.8,5.7-0.4,8.8,1.1c3.1,1.4,6.1,4.2,8.8,7.9
				c1.1,1.9,2.1,4.1,3.1,6.5C698.9,413.9,699.7,416.6,700.4,419.5z"/>
		</g>
	</g>
</g>
<g>
	<g>
		<path fill="#F2E802" d="M573.5,227.1c-2,1.2-4,2.5-6,3.7c-35.6,24.3-63.7,56-100.8,85.5c-27.1,19.5-51.9,47.9-75.2,71.2
			C450.2,335.9,507,276.7,573,236.7c-1,9.8-3.9,19.7-11.3,27.1C542,280,523,296.5,504.6,313.2c-1.9-1.9-5.6-5.6-7.4-7.4
			c-44.4,55.4-106,86.9-146.7,146.1c2.8-0.8,3.2,1.8,4.1,3.4c-0.1,0.1-0.2,0.2-0.3,0.4c0.1-0.1,0.2-0.2,0.3-0.4
			c0.7,1.4,1.7,2,4.9-1.1c-3.1,3.1-4.1,2.5-4.9,1.1c47.4-50.8,95.2-94.9,147.9-140.2c-79.8,72.5-149.7,149.4-227.8,227.3
			c-3.3,3.3-10,10-13.3,13.3c-18.9,7.7-34.1,19.1-47.5,32.4c-6-12.7-38-18.1-7.6-40.9c-1.9-1.9-5.6-5.6-7.5-7.5
			c-36,17.2-72.1,1-52.9-33.1c22.5-37.4,70-69.7,102.9-110c24.8-28.4,49.6-56.9,80-79.7c42.3-30.9,80.4-72.6,124.5-101.7
			c15.2-11.4,32.9-40.3,45.2-41.3c7.5-2.1,11.6,1.7,15.3,6.9c-22.6,21.2-44.6,42.7-67,63.4c-28.6,24.3-57.4,48.4-87.6,71.1
			c31-20.7,59.6-45.2,87.6-71.1c23.3-19.8,46.4-39.7,69.9-59.2c3,4.6,6.2,9.3,11.2,11.7c0,0,6.7-6.6,10-10
			c22.7-3.9,32.4,12.5,35.1,28.5C573.2,218.8,573.5,222.9,573.5,227.1z"/>
	</g>
</g>
<g>
	<g>
		<path fill="#F2E802" d="M590.9,296.8c-1.8,0.8-3.7,1.7-5.5,2.5c-4,2.2-7.7,4.9-11.5,7.6l-5.6,4.1c-1.9,1.4-3.7,2.8-5.5,4.4
			c-7.1,6.3-14.1,12.7-21,20c-13.8,14.1-27.8,30.2-44.5,45.8c-6.3,5.3-12.2,11-18.3,17.2c-3.1,3.1-6.2,6.3-9.3,9.5
			c-3.1,3.2-6,6.5-9.4,9.8c-3.3,3.3-6.4,6.4-10,9.8c-3.5,3.3-7.4,6.8-11.7,10.1c-2,1.7-4.5,3.3-6.8,4.9c-0.6,0.4-1.1,0.8-1.8,1.2
			l-2.3,1.4c-1.5,0.9-3,1.8-4.6,2.6l-1.1,0.6c-0.4,0.2-0.8,0.4-1,0.5l-1.4,0.6l-2.7,1.3l-0.7,0.3l-1.8,0.8l-1.4,0.6l-2.7,1.1
			l3.3-1.1l0.8-0.3l0.4-0.1l1.4-0.6l0.2-0.1l1.6-0.6l3.3-1.3c0.2-0.1,0.8-0.3,1.2-0.5l1.4-0.7l2.7-1.4l2.7-1.4l1.3-0.7l1.1-0.7
			l4.1-2.6c2.9-1.8,5.1-3.6,7.7-5.4c2.4-1.8,4.6-3.6,6.9-5.5c2.1-1.8,4.3-3.6,6.2-5.3l5.8-5.3c2-1.8,3.9-3.6,5.6-5.4
			c14.5-14.5,27.9-28.9,40.9-42.7l9.9-10.2l9.8-9.8c6.6-6.6,13.2-12.4,20-18.3c6.8-5.8,13.7-10.8,20.6-15.8
			c7.1-4.5,14.2-8.8,21.4-12.4c-0.4,8.8-2.2,17.7-8.4,23.6c-16.5,13.6-32.4,29.4-48.3,46.5c-2-1.7-6-5.1-8-6.7
			c-4.7,7.1-9.7,13.9-14.9,20.4c-5.5,6.7-11.1,13.1-17,19.4c-6.4,6.5-12.6,12.8-19.3,19l-5.4,4.7l-5.4,4.5c-2,1.6-3.8,3.1-6,4.8
			c-2.2,1.7-4.2,3.3-6.6,4.9c-2.5,1.7-4.7,3.3-7.4,5l-4,2.5c-1.4,0.8-2.5,1.6-4.6,2.6c-1.8,1-3.7,1.9-5.5,2.9l-2.8,1.3
			c-0.6,0.3-0.6,0.3-0.9,0.4l-0.7,0.3l-7.3,2.8c-7.5,2.7-15.3,5.5-22.5,8.6c-3.6,1.6-7.2,3.2-10.8,4.9c-3.6,1.7-6.9,3.6-10.3,5.5
			c-3.3,1.9-6.8,3.9-9.9,6.1c-3.1,2.2-6.2,4.5-9.2,6.9c2.6,0.3,2.4,2.8,2.8,4.5c-0.1,0.1-0.3,0.1-0.4,0.2c0.1-0.1,0.2-0.1,0.4-0.2
			c0.3,1.5,1.1,2.4,4.4,0.8c-3.3,1.7-4.1,0.7-4.4-0.8c3.2-1.8,6.4-3.5,9.6-5.3c3.2-1.8,6.7-3.3,10.1-5c3.4-1.6,6.7-3.3,10.2-4.8
			c3.5-1.5,7.1-3.1,10.6-4.6l5.3-2.3l5.5-2.2c3.7-1.5,7.3-2.9,11-4.4l1.4-0.5l0.3-0.1l2.2-1l0.7-0.3l2.7-1.2l1.4-0.6
			c0.3-0.1,0.3-0.1,0.8-0.4l1.5-0.7c2-1,3.9-2,5.8-3.1c4.3-2.4,6.5-3.9,9.3-5.8c2.8-1.8,5.1-3.6,7.5-5.4c2.5-1.9,4.5-3.6,6.7-5.3
			c2.2-1.8,4-3.4,5.9-5.1c2-1.7,3.7-3.2,5.4-4.8l5.2-4.8l2.6-2.4l2.4-2.4l4.7-4.8c3.2-3.2,6.3-6.4,9.5-9.5
			c11.6-12,23.4-24,35.3-36.3c-8.9,9.7-17.7,19.4-26.4,29.1c-2.3,2.5-4.3,4.9-6.8,7.5l-7.3,7.8c-4.9,5.2-9.4,10.3-15.1,15.7
			c-5.1,5-11,10.5-18.1,16.4l-5.7,4.5c-1.9,1.5-4.3,3-6.4,4.5c-1.2,0.8-2,1.4-3.5,2.3c-1.5,0.9-3.1,1.8-4.7,2.7
			c-1.6,0.9-3.2,1.7-4.8,2.6l-1.2,0.6l-0.9,0.4l-1.1,0.5l-2.1,1l-1.1,0.5l-0.5,0.3l-2.6,1.1l-4.3,1.8l-8.6,3.7
			c-5.8,2.4-11.2,4.9-16.7,7.3c-21.8,9.8-41.8,20-59.3,31.6l-6.6,4.4c-2.3,1.4-4.1,3.1-6.2,4.6l-6.1,4.7c-1,0.8-2,1.4-3.1,2.4
			l-3.1,2.8c-9.3,8.2-18.6,16.5-28,24.8c-3.4,3-10.3,9.1-13.8,12.1c-19.4,5.5-35.2,14.9-49.4,26.4c-4.9-13-35.8-22-4.4-40.6
			c-1.7-2-5.1-6.1-6.8-8.1c-36.5,12.5-69.9-8-49.4-38.3c11.9-16.6,30.2-30.6,48.4-46.3c4.7-3.9,9.4-7.8,14.1-11.7
			c5.5-4.6,11.1-9.3,16.6-13.9c1.3-1.2,2.9-2.3,4.4-3.5l4.6-3.4c3-2.3,6-4.6,9.1-7c3-2.4,6-4.6,9-6.7c3-2.2,5.9-4.4,8.9-6.6
			c2.2-1.5,4.3-3.2,6.5-4.6l6.6-4.2c4.4-2.8,8.8-5.7,13.2-8.4c4.4-2.5,8.8-5,13.3-7.4c2.2-1.2,4.5-2.5,6.7-3.6l6.6-3.2
			c4.4-2.1,8.9-4.2,13.4-6.1c4.4-1.8,8.8-3.6,13.2-5.2l6.7-2.4l6.5-2.1l6.6-1.9l3.3-0.9l1.7-0.4l0.8-0.2l0.2-0.1l0.1,0l0.1,0
			c-0.5,10.4-0.1,2.9-0.2,5.2v0l0.2-0.7l0.9-3.6c0.1-0.3,0.1-0.7,0.3-0.8l0.6-0.2l1.1-0.3c1.2-0.4,0.5-0.1,0.3,0.1
			c-0.2,0.2-0.5,0.4-0.6,0.6c-0.1,0.2-0.5,0.6-0.4,0.6l0.7-0.2c0.5-0.2,0.9-0.1,1.6-0.5l2-0.9l2.4-1.5c0.8-0.4,1.8-1.2,2.7-1.9
			c0.9-0.6,1.9-1.3,2.9-2.2l6.1-5c2-1.8,4.1-3.9,6.1-5.8l6.2-5.9l3.1-3c1-1,2.1-2.2,3.2-3.3c17.2-17.2,35.1-36.3,56-52.2
			c3.6-3.1,7.3-7.3,10.9-11.9c3.9-4.6,7.9-9.5,11.8-14.2c2-2.3,3.8-4.6,5.8-6.6c2-2,4-3.9,5.9-5.5c3.8-3.2,7.4-5.3,10.5-5.5
			c7.6-2.2,11.7,1.9,15.1,7.2c-23.7,20.7-44.1,43.8-63.9,65.5c-12.8,12.9-25.2,25.4-37.9,37.2c-6.3,5.8-12.5,11-18.8,16.4l-4.7,3.5
			c-1.6,1.2-3.3,2.4-4.8,3.5c-3.1,2.1-6,3.9-8.6,5.1c2.7-1,5.7-2.6,8.9-4.5c1.6-0.9,3.3-2.1,4.9-3.2l4.8-3.3
			c6.4-5.2,12.7-10.4,19-16.2c12.7-11.9,24.9-24.9,37.2-38.5c20.7-20.8,42.2-42.3,66.6-61.1c2.9,4.7,6,9.6,10.8,12.1
			c0,0,0.4-0.4,1.1-1c0.7-0.6,1.7-1.4,2.7-2.4c2.2-1.9,4.7-4.1,6.5-5.6c11.2-1,18.6,3.1,23.6,9.3c5,6.2,7.6,14.4,8.8,22.1
			C590.5,289.1,590.8,292.9,590.9,296.8z"/>
	</g>
</g>
<g>
	<g>
		<path fill="#F2E802" d="M713.6,327.5c-2.5,1.6-5.1,3.2-7.6,4.8c-22.6,15.5-43.4,34.2-65.3,53.7c-21.9,19.5-44.9,39.9-72.3,58.5
			c-19.7,12.3-40.3,26.2-62.2,39c-5.6,3.1-11.2,6.1-16.7,9.2c-2.7,1.6-5.6,3-8.5,4.3c-2.9,1.4-5.7,2.7-8.6,4.1
			c-2.9,1.3-5.7,2.8-8.5,4c-2.9,1.2-5.8,2.3-8.6,3.4c-5.6,2.2-11.7,4.6-16.5,6.3l4.6-1.4l5-1.7l10.1-3.5c6.8-2.1,13.4-5.1,20-7.9
			c3.3-1.5,6.7-2.8,9.9-4.4l9.6-4.8l9.6-4.9l9.3-5.3c24.8-14.2,47.9-30.8,69.7-47.6c43.7-33.8,83.3-69.2,124.6-94.9
			c-2.8,11.1-7.8,22.7-17.7,32.2c-25.6,21.2-51.1,43.9-78,66.2c-1.8-2-5.2-5.9-7-7.9c-17.2,17.8-36.4,33.7-57.3,47.8
			c-20.8,14.1-43.8,25.9-67.7,35.7l-9,3.6c-1.5,0.6-3,1.2-4.5,1.8l-4.6,1.5l-18.2,6.1c-10.6,3.4-21.3,7-31.9,10.8
			c-21.4,7.6-41.3,16.8-61,27.8c3.5,0.2,2.6,2.8,2.6,4.6c-0.2,0.1-0.4,0.2-0.6,0.2c0.2-0.1,0.4-0.2,0.6-0.2c0,1.6,0.8,2.5,6,0.5
			c-5.2,2-6,1-6-0.5c20.4-8.4,39.9-16.6,61-24.1c10.4-3.8,20.7-7.5,31.1-11.1c6-2.2,12-4.4,17.9-6.6c6.1-2.1,12-4.9,17.9-7.4
			c23.7-10.4,46.2-22.8,67.2-36.5c21.1-13.6,41.1-28.3,60.4-43.6c-29.5,24.1-60.9,48-96.4,67.9c-9.1,4.7-17.8,9.9-27.4,14l-14.1,6.5
			l-14.4,5.6l-7.2,2.8l-6.3,2.4l-12.2,4.5c-8.1,3-16.2,6.1-24.3,9.1c-4,1.5-8.2,3-12.1,4.6l-11.7,4.7c-7.8,3.1-15.6,6.2-23.4,9.3
			l-11.7,4.7l-13.6,5.7l-13.9,5.7c-5.1,1.7-10.2,3.4-15.3,5.1l-7.7,2.5l-3.8,1.2l-1.9,0.6l-1,0.3l-0.8,0.2
			c-4.1,1.2-8.1,2.3-12.2,3.5c-4.1,1.2-8.2,2.3-12.3,3.5c-4.1,1.1-8.2,2.3-12.1,3.7c-7.9,2.6-15.9,5.2-23.9,7.8
			c-8,2.9-16,5.8-24,8.8c-5.5,1.8-16.4,6.3-21.9,8.6c-3.1,0.2-6.2,0.5-9.3,0.8l-4.6,0.6L172,634c-0.4,0.1-0.8,0.1-0.9,0.1l-1-0.2
			l-0.8-0.1c-0.2,0-0.1-0.1-0.6,0l-1.1,0.3l-4.5,1.3c-3,0.9-5.9,1.9-8.8,3c-11.7,4.2-22.9,9.2-33.8,14.9
			c-0.7-14.5-35.1-26.5,11.5-44.7c-1.2-2.3-3.6-7-4.9-9.4C77,610.4,42.2,586.7,82.4,554c5.7-4.4,11.8-8.7,18.3-12.9
			c3.2-2.1,6.6-4.2,10-6.2c1.7-1,3.4-2,5.2-3l3.9-2.2c1.6-0.9,3.1-1.6,4.7-2.2c4.1-1.8,8.3-3.6,12.5-5.4c4-1.6,8-3.3,12-5
			c8-3.4,16.7-6.3,25.3-9.3c17.1-6.2,35.4-11.2,53.3-16.9c8.9-2.4,17.8-4.9,26.6-7.6l6.6-2c1.1-0.3,2.3-0.7,3.2-1l2.4-1
			c3.2-1.3,6.3-2.6,9.4-3.9l6.8-2.7l7.3-3.5l7.3-3.5l3.7-1.7l1.8-0.9l2.2-1c12-5.2,24.2-10.3,36.4-15.2c6.1-2.4,12.3-4.9,18.3-7
			c6-2.1,12-4.2,18-6.1c6-2,12.1-3.8,18.2-5.6l9.2-2.6l8.8-2.3c3.4-0.8,6.9-1.7,10.4-2.5c1.7-0.5,3.5-0.9,5.2-1.4l5.1-1.8
			c3.4-1.2,6.8-2.4,10.2-3.6c3.4-1.4,6.8-3,10.2-4.5c6.8-2.8,13.5-6.8,20.3-10.4c3.4-1.8,6.7-4,10.1-6c3.3-2.1,6.8-4,10.1-6.3
			c26.8-17.6,53.2-38.4,81.1-57.7c9.8-7.5,21-20.1,31.9-31.5c10.8-11.3,21.3-21.3,28.6-22.8c9.4-3.5,13.5,0.4,16.7,5.9
			c-31.3,27.8-60,56.7-90,82.1c-18.9,15-38,29.2-57.7,41.1c-19.8,11.9-40.1,21.8-60.9,28.5c20.7-5.6,41.3-15,61.1-27
			c19.8-12.1,38.8-26.7,57.5-42.6c30.7-24.4,60.6-51.7,92.5-77.5c2.6,5,5.4,10,10.8,12.2c0,0,2.3-2.1,5.2-4.8
			c2.9-2.7,6.3-5.9,8.7-7.9c27.5-6.9,34.6,11.6,34.6,29.3C714.9,318.2,714.4,322.7,713.6,327.5z"/>
	</g>
</g>
<g>
	<defs>
		<path id="SVGID_1_" d="M288.2,220.7l76.2,167.4l-127.5,128L91.2,575.5c0,0-114.5-95-114.5-103.8c0-8.7-13.2-136.2-13.2-136.2
			l30.8-55.5L288.2,220.7z"/>
	</defs>
	<clipPath id="SVGID_2_">
		<use xlink:href="#SVGID_1_"  overflow="visible"/>
	</clipPath>
	<g clip-path="url(#SVGID_2_)">
		<g>
			<g>
				<path fill="#AB1E23" d="M617.5,308c-2.6,0.5-5.1,1-7.7,1.5c-46.2,11-88.2,31.8-138.2,47.3c-35.6,9.4-72.8,28.1-106.3,42.3
					c81.3-29.3,164.1-66.5,247.5-82.1c-5.3,9-12.5,17.5-23.3,22.1c-26.8,8.7-52.9,18-78.7,27.6c-1-2.4-3.1-7.2-4.1-9.7
					c-68.7,37.8-144,46.9-210.6,89.6c3.1,0.2,2.4,2.8,2.6,4.6c-0.2,0.1-0.3,0.2-0.5,0.2c0.2-0.1,0.3-0.1,0.5-0.2
					c0.1,1.6,0.9,2.5,5.3,0.6c-4.5,1.9-5.2,1-5.3-0.6c69.6-32.4,136.7-58.2,209.2-83.4c-111.5,42-215,91.7-327.3,139.4
					c-4.8,2-14.4,6.1-19.1,8.1c-22.3,0.9-42.4,6.6-61.6,14.7c-0.4-14.2-29.9-30.4,10.5-41.8c-1-2.4-3.1-7.3-4.1-9.7
					c-43.5,4.1-72.3-23.8-38.2-49.8c38.9-28.1,100.5-42.8,151.1-70c37.3-18.7,74.5-37.4,114.9-48.9c55.8-15.1,112.2-42,169-54.6
					c20.2-5.7,50.6-27.3,63.3-24c8.4,0.6,10.8,5.6,12.2,11.9c-31.8,12.5-63.3,25.6-94.8,37.7c-39.2,13.5-78.6,26.6-118.7,38
					c40-9.2,79.3-22.8,118.7-38c31.9-11,63.7-22.1,95.8-32.7c1,5.5,2.1,11.1,6,15.1c0,0,9.6-4.1,14.4-6.1
					c24.3,4,26.8,23.1,22.4,39.3C620.9,300,619.3,303.9,617.5,308z"/>
			</g>
		</g>
		<g>
			<g>
				<path fill="#AB1E23" d="M379.6,406.6c-1.6-0.3-3.3-0.5-4.9-0.7c-29.6-2.5-57.2,5.3-89.3,6c-22.8-1.1-47.3,6.2-69.1,10.3
					c52.7-4.9,106.7-16.9,159.9-8.2c-3.9,7.1-9,13.1-16,14.4c-17.3,0.7-34.2,2.2-50.9,4.1c-0.5-2.6-1.5-7.7-1.9-10.3
					c-45.4,16.6-92.9,3.9-137.3,25.7c1.9,1.1,1.3,3.4,1.3,5.1l-0.3,0.1l0.3-0.1c0,1.5,0.4,2.6,3.3,2.1c-2.9,0.5-3.3-0.6-3.3-2.1
					c45.6-11.1,89.1-16.7,136-20.3C234.9,441.1,167,459,93.9,472.7c-3.1,0.6-9.4,1.7-12.5,2.3c-14-5.5-26.9-5.7-39.4-3.4
					c0.7-13.6-16.7-37.2,9.3-36.7c-0.5-2.6-1.5-7.8-1.9-10.4c-27.4-8.3-43.6-42.9-20.6-58c26.1-15.7,65.5-12.3,98.9-23.9
					c24.5-7.3,49-14.5,74.9-14c35.8,1.4,72.8-8.2,109-4.3c13,0.3,33.4-11.6,41.1-5c5.2,2.9,6.4,8.4,6.9,14.7
					c-20.7,2.9-41.2,6.5-61.6,9.1c-25.4,1.7-50.8,3.1-76.5,2.6c25.6,2.6,51,0.7,76.5-2.6c20.6-1.4,41.2-3,61.9-4
					c0.3,5.4,0.6,11.1,2.8,16c0,0,6.2-1.2,9.4-1.8c14.9,10.7,15.2,29.4,11.4,43.6C382.2,400,381,403.3,379.6,406.6z"/>
			</g>
		</g>
		<g>
			<g>
				<path fill="#AB1E23" d="M353.6,427c-1.4-0.5-2.7-1-4.1-1.5c-24.9-7-49.4-3.5-76.9-7.8c-19.3-4.6-41.1-1.1-60.2-0.5
					c45.5,3.2,93.1-0.3,137.3,16.4c-4.2,6.4-9.3,11.6-15.4,11.8c-14.8-1.9-29.4-3.1-43.9-3.8c-0.1-2.7-0.3-7.9-0.4-10.5
					c-40.7,9.4-79.7-10.3-120.3,4.4c1.5,1.4,0.7,3.5,0.5,5.3l-0.3,0l0.3,0c-0.2,1.5,0,2.7,2.5,2.6c-2.6,0.1-2.8-1.1-2.5-2.6
					c40.2-4,78-2.9,118.5,0.8c-62.7-2.7-122.8,4.7-186.9,7c-2.7,0.1-8.2,0.3-10.9,0.4c-11.2-7.5-22.3-9.8-33.2-9.4
					c2.3-13.3-9.6-39.3,12.4-34.8c-0.1-2.6-0.3-7.9-0.4-10.6c-22.4-12.4-31.9-49.1-10.4-60.5c24.2-11.5,57.4-2.1,87.3-8.5
					c21.8-3.4,43.5-6.9,65.6-2.4c30.3,6.8,63,3,93.5,12.5c11,2.3,29.9-6.4,35.6,1.3c4.1,3.7,4.4,9.3,4.1,15.6
					c-18-0.3-35.9,0.1-53.7-0.4c-21.8-2.2-43.7-4.7-65.6-9.1c21.5,6.5,43.4,8.5,65.6,9.1c17.8,1.8,35.5,3.3,53.3,5.5
					c-0.5,5.4-0.9,11.1,0.4,16.2c0,0,5.5-0.2,8.2-0.3c11.4,12.8,9.3,31.4,4.4,44.8C356.7,420.8,355.3,423.9,353.6,427z"/>
			</g>
		</g>
	</g>
</g>
<g>
	<g>
		<g>
			<path fill="#F3EA04" d="M338.6,698.5c-0.8-0.3-1.6-0.6-1.6-0.6l-0.2,0.5C337.5,698.5,338,698.5,338.6,698.5z"/>
		</g>
		<g>
			<path fill="#F3EA04" d="M342.4,692.6l-0.5-0.2c0,0.2,0,0.3-0.1,0.5C342,692.7,342.2,692.6,342.4,692.6z"/>
		</g>
		<g>
			<path fill="#F3EA04" d="M336.8,698.5c-0.6,2-0.7,4.2-2.2,5.9c-0.9-0.3-2.7-1-3.7-1.4c-1.4,0.7-0.8,2.1-1.3,3.2
				c-0.5-0.2-1-0.4-1.4-0.5c-0.5-0.1-0.9-0.1-1,0.1c-0.5,0.6-0.8,1.1-0.4,1.8c0.5,0.7,1,1.3,2,1.9
				C335.4,705.2,345.4,706.2,336.8,698.5z"/>
		</g>
		<g>
			<path fill="#F3EA04" d="M345.2,696.5l-4.5-1.5c-0.9,1.1-2,2.1-2,3.5C341.4,698.5,343.2,697.8,345.2,696.5z"/>
		</g>
		<g>
			<path fill="#F3EA04" d="M691.1,660c-0.2-0.3-0.2-0.5,0.8-0.4C691.5,659.7,691.3,659.9,691.1,660c0.1,0.3,0.4,0.7,0.2,1.1
				c2.4-2.1,5.2-4.3,8.1-6.1c0.1-0.7,0.2-1.5,0.2-2.2c-3.6,2.2-7.3,4.3-10.7,6.7c-1.7,1.2-3.3,2.4-4.7,3.7c-1.5,1.3-2.9,2.6-4.1,4
				C684.5,665,687,662.4,691.1,660z"/>
		</g>
		<g>
			<path fill="#F3EA04" d="M698.4,649.4c0.3-0.1,0.5-0.3,0.7-0.4C698.2,648.9,698.2,649.1,698.4,649.4z"/>
		</g>
		<g>
			<path fill="#F3EA04" d="M560.4,714.4c-5.2,1.4-9.5,4.3-14,6.8c4.9-1.4,9.9-3.1,14.5-4.6c4.7-1.5,8.9-3.2,12.5-5.1
				C569.2,712.6,564.8,713.6,560.4,714.4z"/>
		</g>
		<g>
			<path fill="#F3EA04" d="M523.5,731.6c6.9,0.4,12.4-1.6,17.4-4.4c-5.3,1.3-10.6,2.4-15.9,3.3C524.4,731,523.9,731.3,523.5,731.6z"
				/>
		</g>
		<g>
			<path fill="#F3EA04" d="M530.6,727.3c6.2-0.6,11.1-3.4,15.9-6.1C540.9,722.8,535.4,725,530.6,727.3z"/>
		</g>
		<g>
			<path fill="#F3EA04" d="M629.3,648.3c2.7-2.9,4.5-4.3,5.5-5c0.2-1,0.5-2.2,0.9-3.7c-0.2,0.1-0.4,0.2-0.6,0.3
				c-2.9,2.5-6.1,4.6-9.3,6.9c-1.2,1.2-2.3,2.5-3.1,3.9C624.9,649.8,627.2,649.1,629.3,648.3z"/>
		</g>
		<g>
			<path fill="#F3EA04" d="M634.8,643.3C633.2,651.5,639,640.6,634.8,643.3L634.8,643.3z"/>
		</g>
		<g>
			<path fill="#F3EA04" d="M625.4,685.6l-0.6,0.2l-1.5,0.9C624,686.4,624.7,686,625.4,685.6z"/>
		</g>
		<g>
			<path fill="#F3EA04" d="M575.4,683.5c3.2-1,6.2-2.3,9.2-3.6c-3.2,1.1-6.3,2.3-9.4,3.5c-3,1.1-5.9,2.3-8.5,3.8
				c0.8-0.2,1.8,0.2,2.6,0C570.8,685.7,573,684.1,575.4,683.5z"/>
		</g>
		<g>
			<path fill="#F3EA04" d="M648.4,670.8c-3.9,2.6-8,4.9-11.9,7.5c-3.9,2.6-7.8,5.1-11.7,7.5c-17,6.5-33.5,12.3-48,20.5
				c-3.2,1.9-7.1,3.5-11.4,5.2c-4.4,1.4-9,2.9-13.7,4.5c-9.4,2.9-18.9,6.3-25.6,11.5c1.6,0.1,3.1,0,4.5-0.1c-2,1-3.9,2.1-5.7,3.3
				c-23.7,4.4-47.6,6.2-72.3,4.8c-3.6-0.2-6.5,1.4-10.2,1.1c-3.7-0.2-7.4-0.4-11-0.6c0,0.1,0,0.3,0.1,0.4c-15.2-0.8-30.1-1.9-46-3.1
				c-7.4-0.9-14.6-3.1-21.9-5c-2.7-0.7-2.1-2.9-3.8-4c-6.5-4.7-11.2-8.4-18.8-12.2c0,0,0.4-1.1,0.5-1.6c-1.3-0.2-2.4-0.6-3.2-1.1
				c6-4.7,15.9-4.1,7.4-11.4v0c0.6,0,1.2,0,1.7-0.1l0.2,0.1l0-0.1c2.6-0.2,4.3-0.8,6.3-2.2l-4.4-1.4c0.5-0.7,0.9-1.4,1-2.2
				c0.2-0.1,0.3-0.2,0.5-0.3c0.6,0.2,1.2,0.4,1.2,0.4c0.3-0.3,0.6-0.7,0.9-1.1c4.5-1.2,10.8-0.7,10.3-3.3c-0.6-1.4-3.6-1.2-6.9-1.4
				c-0.1-0.3-0.3-0.5-0.5-0.7c4.2,0.7,1.2-3.8,3.8-3.7c3.2,1,6.6,1.3,9.8,2.2c13.2,3.5,24.7,5.3,38.2,5.9l1.8,0.1
				c3.3,0.2,6.4,0.5,9.5,0.8c3.1,0.4,6.2,0.9,9.3,1.5c-0.4,0.3-0.9,0.7-1.4,1c5,0.9,10.1,1.7,15.3,1.2c12.7-1.2,25.2-2.9,38.5-3.6
				c6.9-0.2,13.7-1,20.5-1.8c6.8-1.1,13.5-2.2,20.4-4c-5.5,1.9-11.2,3.5-17,4.3c-2.6,0.2-5.3,0.3-7.8,0.4c2.7,0.1,5.3-0.1,7.8-0.4
				c10.1-0.4,20.7-0.8,27.7-7.1c0.9,0.4,1,0.9,1.8,0.8c5.7-0.8,11.5-1,15.9-4.2c-0.1-0.6,2.3-1,1.3-2c2.3-0.7,4.9-1.3,7.5-2
				c2.5-0.8,5-1.6,7.3-2.7c2-0.8,3.8-2.3,5.5-4.1c16-7,31.3-14.9,47.2-24c4-2.2,8.8-4.1,13-5.8c-5.5,4.2-11.3,8.4-17.6,12.1
				c-6.7,1.8-12.8,4.1-17.2,8.4c-1.1,0.9-2.1,1.7-3.2,2.6c3.5-1.8,7-3.4,10.4-5.3c3.4-1.9,6.7-3.8,10-5.7c4-1,7.9-2.3,11.8-3.8
				l-0.2,0.2c-2.7,1.9-5.5,3.8-8.3,5.5c-6,1.6-11.5,3.7-15.8,7.2c-0.5,0.4-1.1,0.9-1.5,1.4c-1.1,0.9-2.1,1.8-3.2,2.6
				c2.2-1.1,4.3-2.1,6.5-3.2c2.1-1.2,4.2-2.3,6.3-3.5c2.6-1.5,5.1-2.9,7.7-4.4c1.8-0.5,3.5-1.1,5.2-1.6c-0.1,0.2-0.3,0.4-0.4,0.6
				c-1.3,1.1-3.2,9.1-0.3,9.8c5.8-2.4,12.7-5.7,17.9-8.7c5.2-3,9-5.3,9.1-5c0.9,0.9-3.3,4.2-7.7,7.3c-4.3,3.2-8.9,5.8-8.4,5.9
				c1.2-0.2,2.5-0.5,3.7-0.7c-0.9,0.9-1.8,1.7-2.6,2.6c-2.1,1.5-5.4,2.1-6.5,3.8c-4.2,5.4-11,6.3-16.6,10.8
				c-3.5,3-7.7,6.6-11.9,10.3c0.3,1.1-2.3,1.3-1.2,2.2c-4.6,1.4-10.1,2.7-11.3,6.5l-0.3,0.2c-0.3,0.1-0.8,0.4-1.2,0.8
				c-2,0.4-3.8,0.9-5.5,1.6c-1.7,0.6-3.3,1.4-4.8,2.2c-3.1,1.7-6,3.7-9.4,5.6c-2.5,0.8-5,1.4-7.6,1.9c1.7-0.3,4.4-0.2,6-1.1
				c0.5-0.2,1.1-0.5,1.6-0.8c6.3-2.2,12.2-4.9,18-7.7c0.4-0.5,1.1-1.2,1.7-1.8c0.4-0.1,0.9-0.2,1.3-0.2c0.1-0.3,0.1-0.5,0.2-0.7
				c2.7-1.5,5.6-2.9,8.4-4.2c2.8-1.4,5.4-2.8,7.6-4.3c8.6-4.5,18.3-7,27.5-10c-4.2,2.6-8.3,5.2-12.4,7.7c5.2-2.9,10.2-5.5,14.7-8.5
				c0.8-0.3,1.5-0.6,2.3-0.9l4.8-1.9c-1.6,0.4-3.1,0.8-4.7,1.2c2.7-1.8,5.4-3.6,8-5.4c3.7-2.3,7.3-4.6,11.1-6.8l5.6-3.2l5.6-3.3
				c3.7-2.2,7.5-4.3,11.4-6.2c3.8-2.1,7.6-4.1,11.4-6c0.1,0.8,0.1,1.6,0,2.4c-3.6,2.1-7.1,4.3-10.4,6.5c-3.4,2.1-6.4,4.5-8.8,7.4
				c4.3-2.2,6.9-4.5,10.9-6.7c0.1,0.3,0.4,0.7,0.2,1.1c2.3-2,5-4.2,7.9-6c-0.2,1.8-0.6,3.7-0.9,5.6c-1,1.8-3.2,3.1-5.2,4.9
				c-4.8,2.9-9.6,5.5-14.3,8.1c-4.8,2.6-9.7,4.9-14.4,7.9c-4.5,2-9.2,3.7-13.8,5.4c-4.6,1.7-9.1,3.6-13.7,5.1
				c4.3-2.3,8.3-4.8,12.1-7.2C641.3,675.9,645,673.6,648.4,670.8z M363.2,705.6c0.9,0,1.9,0,2.9-0.1c-0.1-0.2-0.2-0.3-0.3-0.5
				C365,704.8,364,705.2,363.2,705.6z M383.3,711.1c-5.7-2.2-13.8-2.8-21.6-4c-0.1,0.1-0.1,0.3-0.2,0.4
				C367.7,709.7,375.9,710.3,383.3,711.1z M405.4,727.3l-0.1-0.2l0,0.3L405.4,727.3z M514.4,713.4c-3.4,1.7-7.3,2.7-11.4,3.5
				c-4.1,0.7-8.5,1.1-12.9,1.9c-2.6,0.1-5.2,2.4-8.8,2.4c-4.4,0.6-7.1,1.8-10.7,2.3l2.7,1.2c-6.2-0.8-9.9,2.7-16.1,1.2
				c0,0.6-1,1.7-1.9,1.6c-4.5,0.3-8.9-1-12.6-0.2c-4.5,0.2-9-0.1-12.7,0.6c-0.9-0.1-2.9,1.4-4.8,1.8c-2.2,0-4.5-0.1-6.7-0.3
				c0.1,0.2,0.1,0.3,0.2,0.5c1.8,0.3,3.6,0.4,5.5,0.2c2.8-0.3,5.8-0.5,8.8-0.7c3-0.2,6-0.4,8.7-0.5c13.6-0.1,26.3-1.9,38.8-4.3
				c2.7-0.6,5.3-1.7,8-2.3c4-1.3,8.4-1.9,12.4-2.7c4.1-0.8,7.7-2,10.2-4.2C511.9,714.7,513.6,714.6,514.4,713.4z M521.6,687.7
				c-2.1,0.8-4.3,1.6-6.5,2.3c-2.2,0.6-4.5,1.1-6.7,1.5c-4.5,0.9-9,1.3-13.1,1.2c-3.3,0.1-9.7,1.2-15,2.9c-5.2,1.8-9.3,4.3-7.6,7.8
				c2.2-3.1,6.7-4.7,12.2-5.5c5.5-0.9,12-1.2,18-1.6C515,695.3,525.2,693.9,521.6,687.7z M586.4,664.9c-3,1.7-6,3.3-9.7,4.3
				L586.4,664.9z M557.3,695.5c10.1-5.9,21.4-9.1,31.4-14.2c3.8-1.8,8.1-2.9,12.2-4.1c4.1-1.2,8-2.7,10.9-5.9l-0.6-1.6l-0.6,0.8
				c-2.8,0.7-5.4,0.5-7.8,0.7l0.4-0.3l-0.7,0.3c-1.6,0.2-3.3,0.6-5,1.6c-0.8,0.5-1.6,1-2.4,1.6c-9.7,3.9-19.8,7.3-28.3,12.8
				c-5.3,3-9.8,6.6-15.4,9.4C553.1,696.3,555.7,696.4,557.3,695.5z"/>
		</g>
		<g>
			<path fill="#F3EA04" d="M633.3,675.5c3.2-2,6.4-4,9.6-5.9c2.4-1.7,4.7-3.7,6.9-5.6c2.8-2.1,5.8-4,8.9-5.8
				c3.1-1.9,6.3-3.7,9.6-5.5c3.2-1.8,6.6-3.5,9.8-5.4c3.2-1.9,6.3-3.9,9.3-6c-0.5-1.7-1.3-3.2-2.6-4.5c-3.6,1.5-7.1,3.2-10.5,5.1
				c-3.4,1.9-6.8,3.7-10.2,5.6c-6.7,4-13.6,7.5-20.9,10.2l-0.3,0.3c-2.3,3-6.2,5-10.3,7.2c-4.1,2.2-8.4,4.4-11.9,7
				c-3.4,3-7,5.5-10.7,7.9c-3.7,2.3-7.5,4.4-11.2,7.1C611,683.8,621.6,678.9,633.3,675.5z"/>
		</g>
		<g>
			<path fill="#F3EA04" d="M540.8,727.3c3.5-0.8,6.9-1.7,10.5-2.6c4.8-1.6,9.3-3.1,13.7-4.8c4.3-1.7,8.5-3.6,12.6-5.6
				c-3.2,0.8-6.4,1.6-9.6,2.5c-3.2,0.8-6.5,1.3-9.8,1.9c-3.2,0.9-6.1,2.3-9,3.8C546.4,724.2,543.6,725.7,540.8,727.3z"/>
		</g>
		<g>
			<path fill="#F3EA04" d="M584.3,711.1c-2.2,1.2-4.5,2.2-6.7,3.3c4.7-1.2,9.4-2.7,14-4.2c4.6-1.5,9.2-3.1,13.7-4.9l10.8-5.1
				c3.6-1.8,7.1-3.7,10.6-5.5c7.1-3.6,13.8-7.8,20.5-12c1.5-0.9,3.1-1.9,4.6-2.8c-26.9,11-54.3,18.5-77,30.9
				c-0.4,0.2-0.9,0.5-1.3,0.7c2.9-0.7,5.7-1.5,8.6-2.2l8.4-2.7l8.3-2.8l8.2-3.2C599.5,704.3,591.9,707.4,584.3,711.1z"/>
		</g>
		<g>
			<path fill="#F3EA04" d="M630.2,677.5c0.8-0.3,1.5-0.6,2.3-0.9c0.8-0.5,1.6-1.1,2.4-1.6l-1.7,0.5L630.2,677.5z"/>
		</g>
		<g>
			<path fill="#F3EA04" d="M602.7,671.2l-0.3,0c-2.4,1.1-4.9,2.1-7.4,3.1c-3.2,2.1-6.8,3.9-10.4,5.6
				C591.5,677.6,598.1,674.8,602.7,671.2z"/>
		</g>
		<g>
			<path fill="#F3EA04" d="M577.4,664.1c-0.8,0.2-2.3,0.6-3.1,0.8l-1.2,1.4l2.2-0.5L577.4,664.1z"/>
		</g>
		<g>
			<path fill="#F3EA04" d="M532.4,682.1c14.1-4,26.8-9,39.2-14.2c0.5-0.5,1.1-1.1,1.6-1.7c-8.7,1.6-17.1,4.2-24.6,8.7
				c-1.5,0.8-3.6,3-5.2,3.3c-7.5,1.6-14.5,4.5-21.7,6.8c3.5-0.9,6.9-1.7,10.4-2.8L532.4,682.1z"/>
		</g>
	</g>
	<g>
		<g>
			<path fill="#AB1E23" d="M408.9,646.1c16.1,0.4,33.7,2.5,51.5,3.4c17.7,1,35.7,0.8,51.5-2.7c37.8-8.8,77.7-18.5,112.9-33.2
				c1,2.5-0.5,7.4,3,7.4c13.5-1.3,15.7,3.3,17.9,8.3c1.1,2.4-9.2,4.1-5.1,5.2c-9.3,4-24.6,11.3-14.2,10.1c4.1,1.2,15.8-6.2,20.5-4.1
				c4.8,2.3,0,8.7,4.8,11c3.2-1.5,9.7-4.3,12.9-5.8c4.3,0.8,0.2,8.8,3.4,7.2c5.4-1.2,11.2-3.7,17.2-6.7c5.9-3.3,12-7,18.3-10.5
				c0.7,1.2,2.1,1.9,2.7,2.9c0.6,1,0.4,2.3-2.5,4.7c-27.4,16.4-56.6,30.4-87.3,41.4c-30.7,10.6-62.8,18.5-95.3,22.2
				c-32.6,4-65.6,4.1-98,0.6c-16.2-1.7-32.4-4.4-48.3-8.1c-8-1.8-15.9-3.9-23.7-6.3c-7.9-2.4-15.7-5-23.7-8.1
				c-3.7-1.7-5.5-3-6.7-4.3c-0.2-0.5-0.2-0.9,0.1-1.3c0.1-0.2,0.3-0.3,0.6-0.5c0.3-0.1,0.8-0.2,1.3-0.3c3.4-0.8,9.5-1,15.4-1.2
				c-4,0.1-2.6-3.7-6.6-3.7c1.5-3.8,10.5-7.4,24.3-4.9c-3.4-0.9-6.7-2-10.1-3c-2.9-2.3,1.2-3.8,2-6.4c3.3,1.1,6.6,2,7,0.7
				c0.4-1.3,1.1-3.8,1.5-5.1c-3.2-0.9-9.7-2.9-12.9-4.1c3.2,1.1,6.4,2.1,6.8,0.8c0.4-1.3,1.2-3.8,1.6-5.1c6.7,0.7,15.6,6,22.4,6.2
				l0.9-3.9c-6.1-2.9-15.9-4.2-22.1-6.2c3.5-0.3,3.9-1.6,4.7-4.1c9.5,1.5,18.1,7.8,28.5,6c-3.2-0.6-6.3-1.5-9.5-2.2
				c3.9-2.5,9.4-1.5,15.3,0C397.8,643.9,404,646.1,408.9,646.1z"/>
		</g>
	</g>
	<g>
		<path fill="#FFFFFF" d="M419,654l0.3-1.2c2.4-0.6,4.9-1,7.3-1.2c2.4-0.2,4.7-0.2,7,0c0.1,0,0.2,0,0.3,0c2.1,0.2,4.1,0.5,5.9,1
			c1.9,0.5,3.5,1.3,4.8,2.4c1.2,0.9,2.2,2.1,2.8,3.4c0.7,1.3,1,2.7,1,4.3c0,0.4,0,0.8,0,1.2c-0.1,1.2-0.4,2.5-0.9,3.8
			c-0.6,1.7-1.6,3.5-2.9,5.2c-0.3,0.4-0.6,0.8-1.1,1.3c-0.5,0.5-1,1.1-1.6,1.7c-0.6,0.6-1.2,1.2-1.9,1.7c-0.7,0.6-1.3,1.1-1.9,1.5
			c0.4,1.3,0.9,2.7,1.4,4.1c0.5,1.4,1,2.8,1.4,4.1c0.5,1.3,0.9,2.5,1.4,3.6c0.4,1.1,0.8,2,1,2.6L443,694l-3.6-2.4l-0.5,3.2l-1.3-0.7
			l-1.2,0.7l-6.7-12.7l-4.2,1.3l-1.2,9.6l-1-0.2l-1.9-3.6l-2.1,4.2l-1.1-0.6c0.1-1.3,0.2-3.1,0.3-5.5c0.1-2.4,0.2-5,0.4-7.8
			c0.2-2.8,0.4-5.7,0.6-8.6c0.2-2.9,0.6-5.5,0.9-7.9l0.4-2.5l-1.9-1.7l3.7-2.8L419,654z M426.6,675.1c1.6-0.5,3.3-1.2,5-2
			c1.7-0.9,3.2-1.9,4.5-3c1.3-1.1,2.3-2.3,2.9-3.6c0.3-0.6,0.5-1.1,0.5-1.7c0.1-0.7-0.1-1.4-0.4-2.1c-0.3-0.7-1.1-1.2-2.3-1.5
			c-1-0.3-2-0.4-3.1-0.5c-0.2,0-0.5,0-0.7-0.1c-1.6,0-3.3,0-5.1,0.2L426.6,675.1z"/>
		<path fill="#FFFFFF" d="M450.6,657.9l0.9-2.1l-0.4-0.9l18.5-0.9l0.5,2.5l-4.1,2.7l3.8,1.3l-0.5,1.4l-9.5,0.7l-0.4,10l9.5-0.1
			l-1.1,3.4l1.9,0.8l-0.4,1.7l-9.8,0.8l0.2,10.6l9.8-0.2l-0.7,3.3l1.7,0.8l-0.8,2.4l-15.3,0.6l0.3-3.3l-4,0.2l1-30.3l-0.8-1.3
			l2.8-2.4L450.6,657.9z"/>
		<path fill="#FFFFFF" d="M472.8,694.8l0-1.3l3-0.9l-2.5-3.3l1-1.3c1,0.4,2,0.7,3,1c1,0.3,1.9,0.5,2.6,0.4c0.5,0,1.1-0.1,1.7-0.4
			c0.6-0.2,1.1-0.5,1.7-0.9c0.5-0.4,1-0.9,1.3-1.4c0.3-0.6,0.5-1.2,0.5-1.9c0-2.5,0-5.1-0.1-7.7c0-1.3-0.1-2.6-0.1-3.9
			c0-1.3-0.1-2.6-0.2-3.9c-0.1-2.6-0.3-5.1-0.4-7.6c-0.2-2.5-0.3-4.8-0.4-6.9l1.1,0.4l1.5-0.9l2.5,2.6l2.2-3.4l1,0
			c0.1,1.1,0.2,2.7,0.3,4.9c0.1,2.1,0.3,4.6,0.4,7.4c0.1,1.4,0.1,2.8,0.2,4.3c0.1,1.5,0.1,3.1,0.1,4.7c0.1,3.3,0.1,6.6,0,9.9
			c0,1.9-0.1,3.5-0.4,5.1c-0.2,1.5-0.7,2.8-1.3,3.9c-0.7,1.1-1.7,1.9-3,2.6c-1.3,0.6-3.1,1-5.3,1.1c-1.2,0-2.2,0-3.1,0
			c-0.9-0.1-1.8-0.2-2.6-0.4c-0.8-0.2-1.6-0.5-2.4-0.8C474.7,695.8,473.8,695.3,472.8,694.8z"/>
		<path fill="#FFFFFF" d="M497.9,680c-0.2-1.1-0.4-2.3-0.5-3.4c-0.1-1.3-0.2-2.6-0.2-3.9c-0.1-4.4,0.2-7.9,0.7-10.5
			c0.5-2.6,1.5-4.6,2.9-6.1c0.5-0.5,1.2-1.1,2-1.7c0.8-0.6,1.7-1.1,2.8-1.6c1-0.5,2.2-0.9,3.4-1.1c0.6-0.1,1.2-0.2,1.7-0.3l2-0.1
			l0.3,3.7l2.9-2.2l1.6,1.8l2-1.1c1.8,1.5,3.2,3.7,4.4,6.6c1.2,3,2,6.6,2.5,11c0.2,1.5,0.3,3.1,0.3,4.9c0,1.8-0.1,3.5-0.3,5.2
			c-0.3,1.7-0.7,3.3-1.2,4.8c-0.6,1.5-1.3,2.7-2.3,3.6c-1.4,1.2-2.8,2.2-4.3,3c-1.5,0.7-2.9,1.3-4.3,1.6c-0.7,0.1-1.3,0.2-2,0.3
			c-0.7,0.1-1.4,0.1-2.1,0.1c-1.3,0-2.5-0.2-3.6-0.5c-1.4-0.3-2.6-1.2-3.7-2.5c-1.1-1.3-2.1-3-2.9-4.9
			C499,684.6,498.4,682.4,497.9,680z M504.9,673.2c0,0.8,0.1,1.7,0.2,2.5c0.2,1.5,0.4,3,0.8,4.5c0.6,2.2,1.3,3.9,2.3,5.2
			c0.5,0.7,1.2,1.1,2,1.4c0.9,0.3,1.7,0.3,2.7,0.2c0.9-0.1,1.8-0.4,2.6-0.8c0.8-0.4,1.4-1,1.8-1.7c0.3-0.7,0.6-1.8,0.9-3.2
			c0.3-1.4,0.4-2.9,0.5-4.5c0.1-1.6,0-3.3-0.1-5c0-0.2-0.1-0.5-0.1-0.7c-0.2-1.5-0.4-2.9-0.8-4.2c-0.5-1.6-1.1-2.9-1.8-4.1
			c-0.8-1.2-1.7-2-2.9-2.6c-0.7-0.3-1.6-0.5-2.5-0.4c0,0-0.1,0-0.2,0c-1,0.1-1.8,0.6-2.4,1.3c-1.1,1.3-1.9,3-2.4,5.2
			C505,668.4,504.8,670.8,504.9,673.2z"/>
		<path fill="#FFFFFF" d="M534,690.3l-6.9-39.7l1.2-0.7l2.8,4.6l1.7-5.2l2,0.7l1.6-0.9l6,40.5l-0.7,0.4l-3.2-3.4l-1.1,3.7l-1.7-0.3
			L534,690.3z"/>
		<path fill="#FFFFFF" d="M544.4,669c-0.3-1.2-0.5-2.9-0.6-5c-0.1-2.1,0-4.3,0.3-6.6c0.3-2.3,0.9-4.4,1.7-6.4c0.9-2,2.2-3.5,3.9-4.5
			c1.9-1.1,3.8-2,5.6-2.7c0.6-0.2,1.2-0.4,1.9-0.5c1.3-0.3,2.7-0.5,4.2-0.5c0.1,0.1,0.2,0.2,0.3,0.4c0.1,0.2,0.2,0.3,0.3,0.4l-4,2.6
			l3.4,1l-1.1,1.5l0.9,1.5c-0.5,0.2-1.1,0.4-1.8,0.6c-0.7,0.2-1.3,0.5-1.9,0.8c-0.6,0.3-1.2,0.6-1.8,0.9c-0.6,0.3-1.1,0.6-1.5,1
			c-0.7,0.6-1.3,1.5-1.6,2.8c-0.3,1.3-0.5,2.6-0.5,4.1c0,1.4,0,2.8,0.1,4.2c0.1,1.4,0.3,2.4,0.5,3.3c0.2,0.7,0.4,1.6,0.8,2.5
			c0.3,1,0.8,1.9,1.3,2.9c0.5,1,1.1,1.9,1.7,2.7c0.7,0.8,1.4,1.5,2.3,1.9c0.5,0.2,1.1,0.4,1.9,0.4c0.8,0,1.7-0.1,2.6-0.2
			c0.9-0.1,1.9-0.3,2.9-0.5c1-0.2,1.9-0.4,2.7-0.6c-0.1,0.1-0.1,0.2-0.2,0.4c-0.1,0.2-0.1,0.4-0.2,0.6l1.7,1.1l-2.7,2.5l3.7,0.5
			c0,0.3,0,0.6-0.1,0.8c-2.4,1.2-4.8,2.1-7.4,2.8c-0.4,0.1-0.7,0.2-1.1,0.3c-2.1,0.5-4.1,0.6-6,0.3c-1.7-0.3-3.3-1-4.6-2.2
			c-1.3-1.2-2.5-2.7-3.5-4.3c-1-1.7-1.8-3.5-2.5-5.4C545.3,672.5,544.8,670.7,544.4,669z"/>
		<path fill="#FFFFFF" d="M564.8,645.7l0.2-2.3l-0.7-0.7l17.3-6.8l1.3,2.2l-3,3.9l4-0.1l-0.1,1.5l-8.7,3.7l2.8,9.6l8.9-3.2v3.5
			l2,0.2l0.2,1.7l-9,3.9l3.6,9.9l9.2-3.3l0.4,3.4l1.9,0.2l0.1,2.6l-14.3,5.5l-0.8-3.2l-3.7,1.5l-8.8-29l-1.1-1l1.9-3.1L564.8,645.7z
			"/>
	</g>
	<g>
		<path fill="#AB1E23" d="M433.1,735.2l1.8-24.5l0.9,0.2l1-0.7l1,3.4l1.7-3.6l0.7,0.1l-2.1,25.1l-1-0.7l-1,1.1l-0.8-2.6l-1.2,2.5
			L433.1,735.2z"/>
		<path fill="#AB1E23" d="M441,735.2l1.6-24.6l1-0.2l1.9,2.4l1.1-2.4l0.4,0.2l5.4,12.6l0.9-0.2l0.6-11.5l0.7,0.5l0.8-0.8l1.1,1.6
			l1.4-1.5l-1.4,24.6l-0.3,0.1l-1.2-2.5l-1,2.5l-0.8-0.5l-0.7,0.3l-5.6-13.4l-0.7,0l-1,13.2l-0.4,0.2l-1.1-2l-1.2,1.6l-0.5-0.4
			L441,735.2z"/>
		<path fill="#AB1E23" d="M464.3,716.4l1.7-1.1l-1.7-1.2l1-1.4l-0.4-0.6l12.8-0.6l-0.5,1.1l1,0.9l-2.2,1.2l2.2,0.5l-0.1,0.9
			l-4.8,0.3l-0.1,19.4l-0.9,0.4l-1.7-2.5l-1.3,2.4l-0.3-0.3l-0.1-19.3l-4.3,0.4L464.3,716.4z"/>
		<path fill="#AB1E23" d="M480.1,736.8l-0.4-25.1l0.6,0.2l0.5-0.5l1.2,2.4l1.3-2.6l0.7,0.1l0.2,9.4l7.2-0.5l-0.1-9.4l0.7-0.2l1,2.3
			l1.3-2.3l0.9,0.7l0.7-0.3l0.2,25l-0.7,0.5l-0.8-3.1l-0.8,2.8l-1.1-0.7l-0.5,0.3l-0.3-9.6l-7.6,0.4v9.3l-0.9-0.2l-0.8,1l-1.1-2.2
			l-1,2.3L480.1,736.8z"/>
		<path fill="#AB1E23" d="M497,712.3l0.7-0.6l-0.5-0.7l10.8-1.4l-0.4,0.7l0.9,0.5l-1.5,0.9l1.7,1.2l-0.3,0.7l-5.6,1l0.3,6l6-0.6
			l0.2,0.6l-1.2,1.5l1.1,0.6l-0.1,0.7l-5.7,1.2l0.6,7l5.8-0.7l0.2,0.4l-1.9,0.9l2.2,0.6l-0.7,1.2l0.5,0.6l-7.1,1.1l0.2-1.1l-2.1,0.2
			l0-1.9l-1.4,0.4l-1.2-18l-0.8,0.1l-0.2-0.6l2.1-1.6L497,712.3z"/>
		<path fill="#AB1E23" d="M518.6,731.8l-2.3-22l1.2,0.4l0.8-1.4l1.6,2l0.8-1.9l0.3,0.1l1.9,20.5l5.9-0.8l0.3,0.7l-2.7,1.5l2.7,0.7
			l-0.8,1.4l0.9,0.5l-7.9,1.2l0.1-1.4l-1.4,0.1l0-1.7L518.6,731.8z"/>
		<path fill="#AB1E23" d="M529.3,720.3c-0.1-1-0.2-1.9-0.2-2.8c0-0.9,0-1.6,0-2.1c0.1-1.4,0.3-2.6,0.7-3.6c0.3-1,0.8-1.8,1.4-2.5
			c0.6-0.7,1.2-1.3,2-1.7c0.8-0.4,1.6-0.7,2.5-1c0.1,0,0.3-0.1,0.4-0.1c0.1,0,0.2,0,0.3,0c0.3,0,0.5-0.1,0.8-0.1l0.7,2.2l1.8-1
			l0.8,2.1l2-0.8c0.5,0.5,1,1,1.3,1.5c0.4,0.5,0.7,1.2,0.9,1.9c0.4,1.6,0.8,3.2,1,4.8c0,0.2,0.1,0.5,0.1,0.7c0.2,1.4,0.3,2.7,0.3,4
			c0,1.5-0.1,2.9-0.4,4.1c-0.3,1.3-0.8,2.3-1.5,3.1c-0.7,0.9-1.6,1.5-2.6,2c-0.9,0.4-1.9,0.7-2.8,0.8c-0.1,0-0.2,0-0.3,0
			c-1,0.1-2,0.1-2.9-0.1c-0.9-0.2-1.6-0.4-2-0.8c-0.6-0.5-1.2-1.1-1.6-1.9c-0.5-0.8-0.9-1.7-1.2-2.7c-0.3-1-0.6-2-0.9-3.1
			c-0.2-0.8-0.3-1.6-0.4-2.4C529.3,720.8,529.3,720.6,529.3,720.3z M533.6,719.9c0,0.2,0.1,0.3,0.1,0.5c0.2,1.1,0.4,2.2,0.7,3.3
			c0.4,1.2,0.9,2.2,1.6,3c0.2,0.2,0.5,0.4,1,0.5c0.4,0.1,0.9,0.2,1.4,0.1c0,0,0.1,0,0.1,0c0.4-0.1,0.8-0.2,1.2-0.4
			c0.4-0.3,0.7-0.7,0.9-1.2c0.4-1.1,0.6-2.3,0.6-3.5c0-1.1,0-2.1-0.2-3.1c0-0.2-0.1-0.3-0.1-0.5c-0.2-1.1-0.5-2.2-0.8-3.1
			c-0.3-0.9-0.7-1.7-1-2.2c-0.4-0.7-0.9-1.1-1.4-1.3c-0.4-0.1-0.9-0.2-1.3-0.1c-0.1,0-0.2,0-0.3,0.1c-0.5,0.1-1,0.4-1.4,0.8
			c-0.4,0.4-0.7,0.8-0.9,1.2c-0.2,0.5-0.3,1.3-0.4,2.5C533.4,717.4,533.5,718.6,533.6,719.9z"/>
		<path fill="#AB1E23" d="M545.1,708.4l0.6-1.1l-0.3-0.2c-0.1-0.1-0.2-0.1-0.3-0.2c-0.1-0.1-0.2-0.2-0.2-0.3c0.8-0.4,1.8-0.8,3-1.3
			c1.2-0.4,2.4-0.8,3.6-1.1c0.4-0.1,0.8-0.2,1.2-0.3c0.8-0.2,1.6-0.3,2.4-0.3c1.2-0.1,2.2,0,3.1,0.3c1.1,0.4,2,1.1,2.7,2.1
			c0.5,0.8,0.9,1.7,1.1,2.7c0.1,0.3,0.1,0.6,0.1,0.9c0.1,1.3,0,2.7-0.4,4.1c-0.4,1.4-1.1,2.6-2.1,3.7c0.5,0.7,1.1,1.6,1.7,2.5
			c0.6,0.9,1.3,1.8,1.9,2.6c0.6,0.8,1.1,1.6,1.6,2.2c0.5,0.6,0.8,1,0.9,1.2l-0.4,0.5l-2.9-1.4l0.9,2.2l-0.9-0.1l-0.4,0.6l-6.6-7.4
			l-2.5,1.1c0.1,1.1,0.2,2.1,0.3,3.1c0,0.4,0.1,0.8,0.1,1.2c0,0.4,0.1,0.8,0.1,1.2c0.1,0.4,0.1,0.7,0.2,1c0,0.3,0.1,0.5,0.1,0.7
			l-0.2,0.3l-1.5-1.6l-0.4,2.1l-1.3-1.1l-0.3,0.4c-0.1-0.6-0.3-1.3-0.4-2.2c-0.2-0.9-0.4-1.8-0.5-2.8c-0.2-1-0.4-2.1-0.6-3.1
			c-0.2-1.1-0.4-2.2-0.6-3.2l-0.6-3.2l-0.5-2.8l-0.7-0.4l1.7-2.2L545.1,708.4z M552.2,717.3c0.6-0.3,1.3-0.7,2-1.1
			c0.7-0.4,1.3-0.9,1.9-1.4c0.6-0.5,1-1.1,1.3-1.7c0.3-0.6,0.4-1.3,0.3-2c0-0.1,0-0.2,0-0.3c-0.1-0.7-0.4-1.3-0.8-1.6
			c-0.5-0.4-1-0.7-1.7-0.7c-0.5-0.1-1,0-1.6,0.1c-0.2,0-0.4,0.1-0.5,0.1c-0.8,0.2-1.5,0.5-2.2,0.8c0.2,1.3,0.4,2.5,0.6,3.8
			C551.7,714.7,551.9,716,552.2,717.3z"/>
		<path fill="#AB1E23" d="M562.4,704.9l0.9-1.2l-0.3-0.3c-0.1-0.1-0.2-0.2-0.3-0.3c-0.1-0.1-0.2-0.3-0.3-0.4c1.4-0.7,2.7-1.2,4-1.7
			c0.7-0.3,1.5-0.5,2.1-0.6c0.5-0.1,1.1-0.2,1.6-0.3c1.2-0.2,2.3-0.2,3.2-0.1c1,0.1,1.8,0.4,2.5,0.8c1,0.7,1.9,1.5,2.6,2.5
			c0.7,1,1.3,2.1,1.7,3.4c0.2,0.6,0.4,1.2,0.6,1.9c0.1,0.7,0.3,1.3,0.4,2c0.2,1.4,0.3,2.8,0.2,4.3c0,1.7-0.4,3.1-1.1,4.4
			c-0.7,1.3-1.5,2.4-2.5,3.3c-1,0.9-2,1.7-3,2.3c-1.1,0.6-2,1-2.9,1.4l-0.3-1.6l-2,0.7l-0.1-1.8l-1.9,0.5l-3.7-16.7l-0.8-0.1
			l1.3-1.7L562.4,704.9z M569.4,713c0.3,1.3,0.6,2.6,1,3.9c0.3,1.3,0.7,2.6,1,3.8c0.2,0,0.5,0,0.7-0.1c0.3-0.1,0.6-0.2,0.9-0.3
			c0.5-0.3,1-0.6,1.4-1c0.4-0.4,0.8-0.8,1-1.2c0.3-0.4,0.5-0.7,0.5-1c0.5-1.1,0.7-2.3,0.8-3.3c0.1-1.1,0-2.1-0.2-3
			c0-0.1-0.1-0.3-0.1-0.4c-0.2-0.8-0.4-1.5-0.7-2.1c-0.4-0.7-0.8-1.3-1.2-1.8c-0.5-0.5-1-0.8-1.5-1c-0.5-0.2-1.1-0.3-1.7-0.3
			c-0.4,0-0.8,0-1.2,0.1c-0.1,0-0.3,0.1-0.4,0.1c-0.6,0.2-1.1,0.4-1.6,0.7c0.1,1,0.3,2.1,0.6,3.3c0.2,1,0.4,1.9,0.6,2.9
			C569.2,712.5,569.3,712.8,569.4,713z"/>
	</g>
</g>
<g>
	<g>
		<g>
			<path fill="#AB1E23" d="M375.9,106.4c1.1-1.4,1.7-2.2,2.8-3.6c-0.5-1.5-0.7-2.3-1.1-3.8c3.3-0.8,6.6-1.3,10.1-1.6
				c2.8-0.2,5.5-0.3,8-0.1c0.7,0,1.3,0,1.9,0.1c3.1,0.2,6.1,0.8,8.7,1.7c2.6,0.9,4.7,2,6.1,3.3c1.7,1.6,3,3.7,3.8,6
				c0.7,2,0.9,4.1,0.8,6.3c0,0.3,0,0.7-0.1,1c-0.2,2.5-1.2,5.1-2.7,7.7c-1.5,2.6-6.2,7.1-6.2,7.3c0,0.4,3.9,2.4,5.8,4.1
				c1.8,1.7,3,3.5,3.4,5.6c0.3,1.3,0.4,2.6,0.3,3.8c-0.1,0.7-0.2,1.3-0.3,1.9c-0.4,1.7-1.1,3.3-2.1,4.8c-1,1.5-2.1,2.8-3.5,4
				c-1.4,1.2-2.8,2.2-4.2,3.2c-1.5,1-3.3,1.8-5.3,2.5c-2,0.7-4.1,1.3-6.2,1.7c-2.2,0.4-4.4,0.7-6.6,0.8c-1.7,0.1-3.4,0.1-5.1,0.1
				c-0.5,0-0.9,0-1.4,0c0.1-2.1,0.1-3.1,0.1-5.2c-1.8,0-2.7,0-4.4,0.1c0.1-2.3,0.1-4.6,0.2-6.9c0.1-4.8,0.1-9.6,0.2-14.5
				c0-2.4,0.1-5,0.1-7.6c0.1-5.2,0.3-10.7,0.6-16.4c-0.5,0-0.8,0-1.3,0c-0.3,0-0.7-0.1-1-0.1c0.8-1.3,1.2-2,1.9-3.3
				C377.8,108,377.2,107.5,375.9,106.4z M388.2,143.9c-0.1,2.2-0.5,6.7,0.2,7.6c0.2,0.3,1.6,0.3,2.6,0.4c0.8,0,1.6,0,2.5-0.1
				c2-0.2,4-0.6,5.8-1.4c1.8-0.8,3.4-1.9,4.7-3.2c1.1-1.2,1.7-2.6,1.9-4.4c0-0.2,0-0.5,0-0.8c0-1.6-0.6-2.9-1.8-3.9
				c-1.2-0.9-2.6-1.6-4.3-2c-0.9-0.2-1.9-0.3-3-0.4c-0.8,0-1.6,0-2.5,0c-1.9,0.1-4.7,0.3-5.2,0.8
				C388.2,137.5,388.3,141.7,388.2,143.9z M389.4,118c-0.1,0.8-0.1,1.7-0.1,2.6c0,1.8-0.4,5.6-0.1,5.9c0.4,0.4,3.9-0.5,5.9-1
				c2-0.6,3.7-1.4,5.3-2.3c1.5-0.9,2.8-2,3.7-3.2c1-1.2,1.5-2.3,1.5-3.5c0.1-1.6-0.3-2.9-1.3-3.9c-1-1-2.3-1.8-3.8-2.3
				c-1.1-0.4-2.3-0.6-3.7-0.7c-0.5,0-1,0-1.5,0c-1.9,0-5,0.4-5.5,1.1C389.1,111.5,389.5,115.5,389.4,118z"/>
			<path fill="#AB1E23" d="M419.4,163.9c1.9-24.4,2.9-36.5,4.8-60.9c0.8-0.2,1.3-0.3,2.1-0.6c1,3.2,1.5,4.8,2.4,7.9
				c1.8-2.8,2.7-4.2,4.5-6.9c1,0.8,1.6,1.1,2.6,1.9c1.1-0.3,1.6-0.4,2.7-0.7c-3.1,24.6-4.5,36.9-7.5,61.6c-0.4,0.1-0.7,0.2-1.1,0.3
				c-1.2-2.5-1.8-3.8-3-6.3c-1.2,2-1.8,2.9-2.9,4.9c-0.8-0.5-1.3-0.7-2.1-1.2C420.9,163.9,420.4,163.9,419.4,163.9z"/>
			<path fill="#AB1E23" d="M444.7,107.8c0.2-0.7,0.3-1.1,0.5-1.8c3.8-0.7,7.5-1.1,11.2-1.2c3.7-0.1,7.3,0.1,10.7,0.7
				c0.2,0,0.4,0.1,0.5,0.1c3.2,0.5,6.2,1.3,9,2.3c2.9,1.1,5.3,2.6,7.2,4.3c1.8,1.6,3.1,3.5,3.9,5.5c0.9,2.1,1.2,4.3,1,6.7
				c0,0.6-0.1,1.2-0.2,1.8c-0.3,1.8-0.9,3.6-1.8,5.6c-1.1,2.5-2.9,5-4.9,7.5c-0.4,0.5-1,1.1-1.8,1.8c-0.8,0.7-1.6,1.5-2.5,2.3
				c-0.9,0.8-1.9,1.6-2.9,2.4c-1,0.8-2.8,1.6-2.9,2c-0.3,0.8,1,4.1,1.6,6.3c0.6,2.2,1.1,4.4,1.6,6.4c0.5,2.1,1,4,1.5,5.7
				c0.5,1.7,0.9,3.1,1.2,4.1c-0.3,0.2-0.5,0.3-0.8,0.6c-1.9-1.7-2.9-2.5-4.9-4.1c-0.4,1.9-0.6,2.9-1,4.8c-0.7-0.5-1-0.7-1.7-1.2
				c-0.7,0.4-1.1,0.5-1.8,0.9c-3.3-8-5-12-8.5-20c-2.5,0.6-3.7,0.9-6.1,1.5c-0.9,5.8-1.4,8.7-2.3,14.5c-0.6-0.2-0.9-0.2-1.4-0.4
				c-1-2.2-1.4-3.3-2.4-5.5c-1.3,2.5-1.9,3.7-3.1,6.2c-0.6-0.4-0.9-0.5-1.6-0.9c0.1-1.9,0.4-4.7,0.6-8.4c0.3-3.6,0.6-7.6,0.9-11.9
				c0.3-4.3,0.8-8.6,1.2-13c0.5-4.4,1.1-8.4,1.7-11.9c0.3-1.5,0.4-2.3,0.7-3.8c-1.1-1.1-1.7-1.6-2.8-2.6c2.3-1.6,3.4-2.4,5.7-4
				C447.9,109.9,446.9,109.2,444.7,107.8z M455.1,140.4c2.4-0.6,4.9-1.5,7.5-2.6c2.6-1.2,4.9-2.5,7-4.1c2-1.5,3.6-3.3,4.7-5.1
				c0.5-0.8,0.8-1.7,1-2.6c0.2-1,0.1-2.1-0.3-3.2c-0.4-1.1-1.5-2-3.4-2.6c-1.5-0.5-3-0.9-4.6-1.2c-0.4-0.1-0.7-0.1-1.1-0.2
				c-2.3-0.3-4.9-0.3-7.8-0.3C456.8,127.3,456.3,131.7,455.1,140.4z"/>
			<path fill="#AB1E23" d="M493,118.9c1.1-0.8,1.7-1.2,2.8-2c-0.1-0.1-0.1-0.5-0.1-1c-0.1-0.5-0.5-1.9-0.4-2c0.3-0.4,4.2-0.1,6.9,0
				c2.7,0.1,5.5,0.5,8.4,1.1c0.3,0.1,0.7,0.2,1.1,0.3c2.5,0.6,5.1,1.4,7.6,2.5c2.8,1.2,5.4,2.7,7.6,4.7c2.4,2.2,4.2,4.8,5.3,7.8
				c1.1,3,1.7,6.2,1.9,9.5c0.1,3.2-0.2,6.5-1,9.7c-0.8,3.5-2.1,6.9-3.7,10c-1.5,3-3.3,5.6-5.4,8c-2.1,2.3-4.4,4.1-6.8,5.3
				c-4.2,2-8.5,3.5-13,4.2c-4.5,0.7-8.8,0.9-13,0.4c0.1-2.3,0.2-3.5,0.4-5.7c-2.3-0.2-3.5-0.2-5.7-0.4c3.3-17.8,4.9-26.8,8.3-44.6
				c-0.4-0.4-0.6-0.6-1-1c1.4-0.9,2.1-1.4,3.5-2.4C495,121.4,494.3,120.6,493,118.9z M504.8,128.4c-1.5,1.2-2,10.7-2.9,15.5
				c-0.4,2.1-0.8,4.2-1.1,6.3c-0.3,2.1-0.7,4.2-1,6.1c-0.3,1.9-0.6,3.7-0.8,5.2c-0.2,1.5-0.5,3.7-0.4,3.8c0.4,0.4,4.2-0.5,6.2-1
				c1.9-0.5,3.8-1.3,5.6-2.2c1.7-1,3.3-2.2,4.8-3.7c1.4-1.5,2.7-3.4,3.7-5.6c0.9-2.2,1.7-4.4,2.3-6.4c0.1-0.3,0.2-0.7,0.2-1
				c0.3-1.6,0.5-3.4,0.4-5c-0.1-1.9-0.6-3.7-1.5-5.4c-0.9-1.7-2.4-3.2-4.3-4.5c-0.7-0.5-1.7-0.9-2.8-1.1c-0.1,0-0.2-0.1-0.3-0.1
				c-1.2-0.3-2.5-0.5-3.7-0.6C507.8,128.5,505.1,128.1,504.8,128.4z"/>
			<path fill="#AB1E23" d="M537.3,147.3c1-3.1,2.7-5.8,5.1-8c2.4-2.2,5.1-3.8,8.3-4.9c3.2-1.1,6.6-1.8,10.2-1.9
				c3.6-0.2,7.3,0.2,10.8,1c0.7,0.1,1.5,0.3,2.5,0.6c0.3,0.1,0.5,0.2,0.8,0.3c1.2,0.5,2.4,0.9,3.3,1.3c0,0.5,0,0.8,0,1.3
				c-2.9,0.5-4.4,0.7-7.3,1.2c1.7,1.6,2.6,2.4,4.3,4.1c-1.1,0.5-1.6,0.8-2.7,1.3c0.3,1.3,0.4,1.9,0.7,3.2c-2.3-0.6-4.7-1.1-7-1.4
				c-2.3-0.3-4.5-0.4-6.4-0.1c-2,0.2-3.7,0.7-5.2,1.4c-1.5,0.7-2.5,1.8-3.2,3.1c-0.2,0.4-0.3,0.7-0.4,1.1c-0.3,1.2-0.2,2.3,0.4,3.3
				c0.7,1.4,1.7,2.8,2.9,3.9c0.6,0.5,1.3,1.1,2,1.6c0.7,0.5,1.5,1,2.2,1.5c0.7,0.5,1.3,1,2,1.4c0.6,0.4,1.2,0.8,1.6,1.1
				c2.8,1.8,4.8,4.1,6.1,6.3c1.2,2.2,1.4,4.9,0.4,8.1c-1,3.3-2.8,5.9-5.3,7.9c-2.6,1.9-6,3.2-10.4,3.9c-1.7,0.3-3.4,0.4-5.1,0.3
				c-1.6,0-3.2-0.1-4.8-0.1c-1.5,0-2.9-0.1-4.2-0.3c-1.3-0.2-2.5-0.4-3.5-0.6c0.9-1,1.4-1.5,2.3-2.5c-1.5-1-2.3-1.5-3.8-2.5
				c1-0.9,1.5-1.3,2.5-2.2c-0.5-0.9-0.7-1.3-1.1-2.2c1,0.1,2.2,0.1,3.5,0.2c1.3,0.1,2.7,0.2,4,0.2c1.2,0,2.6-0.1,3.9-0.3
				c1.3-0.2,2.6-0.4,3.8-0.9c1.2-0.4,2.2-1,3.1-1.7c0.9-0.7,1.5-1.6,1.8-2.6c0.4-1.3,0-2.6-1-3.9c-1.1-1.3-2.3-2.4-3.7-3.4
				c-1.4-1-3-1.9-4.4-2.8c-1.4-0.9-2.5-1.6-3.2-2.2c-2.5-1.9-4.3-4.2-5.4-6.6c-1-2.1-1.1-4.5-0.4-7.2
				C537,148.2,537.1,147.7,537.3,147.3z"/>
		</g>
		<g>
			<path class="dsn_path_col" fill="rgb(0, 0, 0)" d="M160.7,185c-4.3-14.4-6.4-21.7-10.7-36.1c0.4-0.4,0.6-0.5,1.1-0.9c1.3,1.6,1.9,2.3,3.1,3.9
				c0.4-2.1,0.6-3.1,1-5.2c0.8,0.2,1.1,0.2,1.9,0.4c0.5-0.5,0.8-0.7,1.4-1.1c3.8,14.9,5.7,22.3,9.6,37.2c-0.2,0.2-0.3,0.3-0.6,0.5
				c-1.3-1.1-1.9-1.7-3.2-2.8c-0.3,1.4-0.4,2.1-0.6,3.6c-0.6,0-0.9,0-1.5-0.1C161.6,184.6,161.3,184.8,160.7,185z"/>
			<path class="dsn_path_col" fill="rgb(0, 0, 0)" d="M166,158.1c-0.4-2-0.3-4,0.3-6c0.6-2,1.5-3.8,2.8-5.6c1.3-1.7,2.9-3.3,4.7-4.7c1.8-1.4,3.8-2.5,5.8-3.4
				c0.4-0.2,0.9-0.4,1.5-0.6c0.1-0.1,0.3-0.1,0.5-0.1c0.8-0.2,1.5-0.4,2.1-0.5c0.2,0.3,0.2,0.4,0.4,0.7c-1.3,1.3-2,2-3.3,3.3
				c1.4,0.2,2.1,0.3,3.5,0.6c-0.4,0.7-0.6,1-1,1.6c0.5,0.6,0.8,0.9,1.3,1.4c-1.4,0.5-2.7,1.2-4,1.8c-1.3,0.7-2.4,1.4-3.4,2.2
				c-1,0.8-1.7,1.7-2.3,2.6c-0.6,0.9-0.8,1.9-0.7,2.8c0,0.2,0.1,0.5,0.1,0.7c0.2,0.7,0.6,1.3,1.2,1.6c0.8,0.5,1.7,0.8,2.7,1
				c0.5,0.1,1,0.1,1.6,0.1c0.5,0,1.1,0,1.6,0c0.5,0,1,0,1.5,0c0.4,0,0.8,0,1.2,0c2-0.1,3.8,0.4,5.1,1.1c1.3,0.7,2.2,2.1,2.7,4.1
				c0.5,2.1,0.4,4.1-0.4,6.1c-0.7,1.9-2.2,3.9-4.3,5.9c-0.8,0.8-1.7,1.5-2.6,2c-0.9,0.6-1.7,1.1-2.6,1.7c-0.8,0.5-1.6,1-2.3,1.4
				c-0.7,0.4-1.4,0.7-2.1,1c0.2-0.9,0.3-1.3,0.5-2.2c-1.1,0-1.7,0.1-2.8,0.1c0.3-0.8,0.4-1.2,0.7-2.1c-0.5-0.3-0.8-0.4-1.3-0.7
				c0.6-0.3,1.2-0.7,1.9-1.2c0.7-0.4,1.5-0.9,2.2-1.3c0.7-0.4,1.3-1,2-1.5c0.7-0.6,1.2-1.2,1.7-1.8c0.5-0.7,0.9-1.3,1.1-2
				s0.3-1.4,0.1-2c-0.2-0.8-0.8-1.4-1.7-1.7c-0.9-0.3-2-0.5-3-0.4c-1.1,0-2.1,0.1-3.2,0.1c-1,0-1.8,0-2.4,0
				c-1.9-0.1-3.5-0.7-4.8-1.5c-1.1-0.7-1.9-1.9-2.4-3.6C166.1,158.7,166,158.4,166,158.1z"/>
			<path class="dsn_path_col" fill="rgb(0, 0, 0)" d="M199.5,138c0.3-0.8,0.5-1.2,0.8-2c-0.4-0.7-0.5-1-0.9-1.6c7.5-2.4,11.3-3.5,18.8-5.7
				c-0.1,1.6-0.2,2.4-0.3,4c0.6,0.2,0.9,0.3,1.6,0.5c-0.1,0.7-0.2,1-0.3,1.6c-3.9,1.2-5.8,1.8-9.6,3.1c0.7,3.5,1,5.3,1.7,8.8
				c3.4-0.9,5.2-1.4,8.6-2.3c-0.1,1.3-0.1,2-0.1,3.3c0.8,0.1,1.1,0.2,1.9,0.3c0,0.7,0,1.1,0,1.8c-3.6,1.3-5.4,2-9.1,3.4
				c1.4,6,2.1,9.1,3.5,15.1c-0.4,0.3-0.6,0.4-1,0.7c-1.1-1.5-1.7-2.3-2.9-3.8c-0.4,1.7-0.6,2.6-0.9,4.4c-0.3-0.3-0.5-0.5-0.9-0.8
				c-0.6,0.4-0.9,0.5-1.4,0.9c-2.7-11.5-4-17.3-6.8-28.8c-0.5,0-0.8,0-1.3,0c0.9-0.9,1.3-1.4,2.2-2.3
				C201.6,138.3,200.9,138.2,199.5,138z"/>
			<path class="dsn_path_col" fill="rgb(0, 0, 0)" d="M225.3,151.9c-0.3-1-0.6-2.1-0.8-3.2c-0.2-1.2-0.4-2.4-0.5-3.6c-0.4-4.1-0.5-7.5-0.2-10
				c0.3-2.5,1-4.5,2.2-6c0.4-0.6,1-1.2,1.7-1.8c0.7-0.6,1.5-1.2,2.5-1.8c0.9-0.6,2-1,3.1-1.4c0.5-0.2,1.1-0.3,1.6-0.4
				c0.7-0.1,1.1-0.2,1.9-0.3c0.2,1.4,0.3,2.1,0.5,3.4c1.1-0.9,1.6-1.4,2.6-2.3c0.6,0.6,0.9,0.9,1.5,1.5c0.7-0.5,1.1-0.7,1.9-1.1
				c1.7,1.2,3.2,3.2,4.4,5.9c1.2,2.7,2.2,6.1,2.8,10.2c0.2,1.4,0.4,2.9,0.5,4.6s0.1,3.3-0.1,4.9c-0.1,1.6-0.4,3.2-0.9,4.6
				c-0.4,1.4-1.1,2.6-1.9,3.5c-1.2,1.3-2.4,2.3-3.6,3.1c-1.3,0.8-2.5,1.4-3.8,1.8c-0.6,0.2-1.2,0.3-1.8,0.5
				c-0.6,0.1-1.3,0.2-1.9,0.3c-1.1,0.1-2.2,0-3.2-0.1c-1.2-0.2-2.4-0.9-3.5-2c-1.1-1.2-2.1-2.6-3-4.4
				C226.6,156.1,225.9,154.1,225.3,151.9z M231.1,144.8c0.1,0.8,0.2,1.5,0.4,2.3c0.3,1.4,0.6,2.8,1.1,4.1c0.7,2,1.5,3.6,2.5,4.7
				c0.5,0.6,1.1,0.9,1.9,1.1c0.8,0.2,1.6,0.2,2.4,0c0.8-0.2,1.6-0.5,2.3-1c0.7-0.5,1.2-1.1,1.5-1.8c0.3-0.7,0.5-1.7,0.6-3.1
				c0.2-1.3,0.2-2.7,0.2-4.2c0-1.5-0.1-3.1-0.4-4.7c0-0.2-0.1-0.4-0.1-0.6c-0.2-1.4-0.6-2.7-1-3.9c-0.5-1.4-1.1-2.7-1.9-3.7
				c-0.8-1-1.7-1.8-2.9-2.2c-0.7-0.3-1.5-0.3-2.4-0.1c0,0-0.1,0-0.1,0c-0.9,0.2-1.7,0.7-2.2,1.4c-0.9,1.3-1.6,3-1.9,5.1
				C230.9,140.4,230.9,142.6,231.1,144.8z"/>
			<path class="dsn_path_col" fill="rgb(0, 0, 0)" d="M250.3,123.8c0-0.5,0-0.7,0-1.1c2.1-1.1,4.2-2.1,6.4-2.8c2.2-0.8,4.3-1.3,6.4-1.7c0.1,0,0.2,0,0.3-0.1
				c2-0.3,3.9-0.4,5.6-0.4c1.8,0.1,3.5,0.5,4.9,1.1c1.3,0.6,2.4,1.4,3.2,2.5c0.9,1.1,1.4,2.3,1.7,3.8c0.1,0.4,0.1,0.7,0.2,1.1
				c0.1,1.1,0.1,2.3-0.1,3.6c-0.2,1.7-0.8,3.6-1.6,5.4c-0.2,0.4-0.4,0.9-0.7,1.5c-0.4,0.6-0.7,1.2-1.1,1.9c-0.4,0.7-0.8,1.3-1.3,2
				c-0.5,0.7-1.4,1.5-1.4,1.8c-0.1,0.5,1.3,2.2,2,3.5c0.7,1.2,1.4,2.4,2.1,3.5c0.7,1.1,1.3,2.1,1.9,3.1c0.6,0.9,1.1,1.6,1.4,2.2
				c-0.1,0.2-0.2,0.3-0.3,0.5c-1.4-0.6-2.2-0.9-3.6-1.5c0.1,1.2,0.1,1.8,0.2,3c-0.5-0.1-0.7-0.2-1.2-0.4c-0.4,0.4-0.6,0.5-0.9,0.9
				c-3.3-4.1-5-6.2-8.4-10.2c-1.4,0.8-2.1,1.3-3.4,2.1c0.4,3.6,0.6,5.5,1,9.1c-0.4,0-0.6,0-0.9,0c-0.9-1.1-1.4-1.7-2.4-2.8
				c-0.4,1.7-0.5,2.6-0.9,4.3c-0.4-0.1-0.7-0.2-1.1-0.3c-0.2-1.2-0.5-2.9-1-5.1s-0.9-4.6-1.3-7.2c-0.5-2.6-0.9-5.3-1.3-8
				c-0.4-2.7-0.7-5.2-0.9-7.4c-0.1-0.9-0.1-1.4-0.2-2.4c-0.8-0.4-1.3-0.6-2.1-1c1.1-1.4,1.6-2.1,2.7-3.4
				C252.5,124.4,251.7,124.2,250.3,123.8z M261.6,141.2c1.3-0.8,2.7-1.8,4-3c1.4-1.2,2.5-2.5,3.5-3.8c0.9-1.3,1.6-2.6,1.9-3.9
				c0.2-0.6,0.2-1.2,0.1-1.7c-0.1-0.6-0.3-1.3-0.7-1.8c-0.4-0.6-1.3-0.9-2.4-0.9c-0.9,0-1.9,0.1-2.9,0.2c-0.2,0-0.4,0.1-0.7,0.1
				c-1.4,0.3-3,0.8-4.6,1.3C260.5,133.1,260.9,135.8,261.6,141.2z"/>
			<path class="dsn_path_col" fill="rgb(0, 0, 0)" d="M290.4,119c0.1-0.4,0.1-0.7,0.2-1.1c9.5-1.8,14.2-2.6,23.8-4c-0.4,0.6-0.5,1-0.9,1.6
				c0.7,0.7,1.1,1,1.8,1.7c-1.1,0.8-1.7,1.3-2.8,2.1c1.2,0.4,1.8,0.6,3,1.1c-0.1,0.4-0.1,0.6-0.2,1.1c-3.1,0.5-4.7,0.7-7.8,1.2
				c0.7,12.1,1.1,18.2,1.9,30.3c-0.3,0.1-0.5,0.2-0.8,0.3c-0.9-1.7-1.3-2.5-2.2-4.2c-0.4,1.5-0.6,2.3-1,3.8
				c-0.6-0.6-0.9-0.8-1.5-1.4c-0.6,0.5-0.9,0.8-1.6,1.3c-1.1-11.6-1.7-17.4-2.8-29.1c-2.9,0.5-4.3,0.7-7.2,1.3
				c0.1-0.4,0.1-0.7,0.2-1.1c-0.4-0.3-0.7-0.4-1.1-0.7c1.2-1.2,1.9-1.8,3.1-2.9C292.8,119.7,292,119.5,290.4,119z"/>
			<path class="dsn_path_col" fill="rgb(0, 0, 0)" d="M320.3,152c-0.8-15.1-1.2-22.6-2-37.7c1.1,0.7,1.6,1,2.6,1.6c1.2-1.2,1.8-1.8,3.1-3
				c0.6,0.3,0.8,0.5,1.4,0.8c0.4-0.1,0.6-0.2,0.9-0.4c0.2,6.6,0.2,9.9,0.4,16.5c4.4-0.6,6.5-0.9,10.9-1.4c-0.2-6.6-0.3-9.8-0.5-16.4
				c0.7,0.7,1,1.1,1.7,1.9c1.2-1.2,1.8-1.8,3-3c0.9,0.4,1.3,0.7,2.2,1.1c0.3-0.1,0.4-0.2,0.7-0.3c0.3,15.7,0.4,23.5,0.7,39.2
				c-0.2,0.1-0.3,0.1-0.6,0.1c-0.8-1.2-1.2-1.8-2.1-3c-0.7,1.2-1,1.8-1.7,3.1c-0.5-0.4-0.8-0.6-1.3-1.1c-0.7,0.2-1,0.3-1.7,0.5
				c-0.1-5.8-0.2-8.7-0.3-14.5c-4.3,0.5-6.4,0.8-10.7,1.3c0.3,5.5,0.4,8.2,0.7,13.7c-0.7,0.2-1,0.3-1.6,0.6
				c-0.8-0.9-1.2-1.3-1.9-2.2c-0.8,1.1-1.2,1.6-2,2.7c-0.5-0.2-0.7-0.4-1.2-0.6C320.7,151.7,320.6,151.8,320.3,152z"/>
			<path class="dsn_path_col" fill="rgb(0, 0, 0)" d="M348,115.1c0.3-0.8,0.5-1.2,0.8-2c-0.2-0.3-0.3-0.5-0.4-0.8c6.9-0.6,10.4-0.9,17.4-1.3
				c0.2,1,0.3,1.4,0.5,2.4c-1.5,1-2.3,1.6-3.8,2.6c1.4,0.4,2.1,0.7,3.6,1.1c-0.2,0.5-0.3,0.8-0.5,1.3c-3.5,0.3-5.3,0.5-8.8,0.8
				c0,3.8-0.1,5.6-0.1,9.4c3.5-0.2,5.2-0.2,8.7-0.3c-0.4,1.3-0.6,1.9-1,3.2c0.7,0.3,1,0.4,1.7,0.7c-0.1,0.7-0.2,1-0.3,1.6
				c-3.6,0.4-5.4,0.5-8.9,1c0.2,4,0.3,6,0.5,9.9c3.5-0.2,5.3-0.3,8.8-0.4c-0.2,1.3-0.3,1.9-0.6,3.2c0.6,0.3,0.9,0.4,1.6,0.7
				c-0.3,0.9-0.4,1.4-0.7,2.3c-5.4,0.3-8.2,0.5-13.6,0.9c0.1-1.2,0.1-1.9,0.2-3.1c-1.4,0.1-2.1,0.2-3.5,0.3
				c-0.1-11.4-0.1-17.1-0.2-28.6c-0.3-0.5-0.5-0.7-0.8-1.2c1-0.9,1.5-1.4,2.5-2.3C349.9,116,349.2,115.7,348,115.1z"/>
		</g>
		<g>
			<path class="dsn_path_col" fill="rgb(0, 0, 0)" d="M151.5,80.8c0.5-1.2,0.8-1.8,1.3-3.1c-0.6-0.9-0.9-1.4-1.6-2.3c2.2-1.3,4.5-2.5,7-3.6
				c1.9-0.8,3.8-1.5,5.7-2.1c0.5-0.1,1-0.3,1.4-0.4c2.3-0.6,4.5-1,6.6-1c2.1-0.1,3.8,0.1,5.1,0.7c1.5,0.6,2.9,1.6,3.9,3
				c0.9,1.2,1.5,2.5,1.9,4c0.1,0.2,0.1,0.4,0.2,0.7c0.3,1.7,0.2,3.7-0.3,5.8c-0.5,2.1-3,6.4-3,6.4c0.1,0.2,3.4,0.6,5,1.2
				c1.7,0.6,2.9,1.6,3.6,2.8c0.5,0.8,0.8,1.6,1,2.4c0.1,0.5,0.1,0.9,0.2,1.4c0,1.2-0.1,2.5-0.5,3.7c-0.4,1.2-1,2.4-1.8,3.5
				c-0.8,1.1-1.6,2.2-2.4,3.2c-0.9,1.1-2.1,2.1-3.4,3c-1.3,1-2.7,1.9-4.3,2.7c-1.5,0.9-3.1,1.6-4.7,2.3c-1.3,0.5-2.5,1-3.7,1.3
				c-0.4,0.1-0.7,0.2-1,0.3c-0.4-1.4-0.5-2.1-0.9-3.5c-1.3,0.5-2,0.7-3.3,1.2c-0.4-1.5-0.8-3.1-1.2-4.7c-0.8-3.2-1.8-6.4-2.7-9.6
				c-0.5-1.6-0.9-3.3-1.4-5c-0.9-3.5-1.8-7.1-2.7-11c-0.4,0.1-0.6,0.2-0.9,0.3c-0.3,0.1-0.5,0.1-0.8,0.2c0.3-1.1,0.5-1.6,0.8-2.7
				C153.2,81.4,152.6,81.2,151.5,80.8z M167.8,102.6c0.4,1.5,1,4.6,1.6,5c0.2,0.1,1.2-0.2,2-0.4c0.6-0.2,1.2-0.4,1.8-0.7
				c1.5-0.6,2.8-1.4,4-2.4c1.2-1,2.1-2.1,2.8-3.3c0.6-1.1,0.7-2.2,0.5-3.4c0-0.2-0.1-0.4-0.2-0.5c-0.4-1.1-1-1.8-2.1-2.1
				c-1-0.3-2.2-0.4-3.5-0.2c-0.7,0.1-1.5,0.3-2.3,0.5c-0.6,0.2-1.2,0.4-1.8,0.6c-1.4,0.6-3.4,1.3-3.7,1.9
				C166.5,98.3,167.4,101.1,167.8,102.6z M163.5,85.1c0.1,0.6,0.3,1.2,0.5,1.7c0.3,1.2,0.8,3.8,1.1,3.9c0.3,0.2,2.8-1.3,4.1-2.2
				c1.3-0.9,2.4-1.8,3.4-2.9c0.9-1,1.6-2,2.1-3c0.5-1,0.6-1.9,0.4-2.7c-0.3-1.1-0.8-1.8-1.8-2.2c-0.9-0.4-2-0.6-3.2-0.6
				c-0.9,0-1.8,0.2-2.8,0.5c-0.4,0.1-0.7,0.2-1.1,0.4c-1.3,0.5-3.5,1.5-3.7,2.1C162.1,80.9,163.1,83.4,163.5,85.1z"/>
			<path class="dsn_path_col" fill="rgb(0, 0, 0)" d="M185.1,69.9c0.2-1,0.3-1.4,0.5-2.4c-0.3-0.3-0.4-0.4-0.7-0.7c8.2-2.7,12.3-4,20.6-6.5
				c0.5,1,0.7,1.5,1.2,2.5c-1.6,1.6-2.4,2.3-3.9,3.9c1.8,0.1,2.7,0.1,4.5,0.2c-0.1,0.6-0.2,1-0.3,1.6c-4.2,1.3-6.2,2-10.4,3.4
				c0.8,4.1,1.1,6.2,1.9,10.3c4.1-1.2,6.2-1.7,10.3-2.8c-0.2,1.5-0.3,2.3-0.5,3.8c0.9,0.1,1.3,0.2,2.2,0.3c0,0.7,0,1.1,0,1.9
				c-4.2,1.4-6.3,2.1-10.5,3.6c1.1,4.3,1.6,6.4,2.7,10.7c4.2-1.2,6.3-1.8,10.4-2.9c0,1.4,0,2.2,0,3.6c0.8,0.1,1.2,0.2,2,0.4
				c-0.1,1.1-0.2,1.6-0.3,2.7c-6.5,1.9-9.7,2.9-16.1,4.9c-0.2-1.4-0.3-2.1-0.5-3.4c-1.7,0.5-2.5,0.8-4.2,1.4
				c-2.6-12.5-3.9-18.7-6.5-31.2c-0.5-0.4-0.7-0.7-1.2-1.1c1-1.3,1.5-2,2.6-3.3C187.6,70.4,186.8,70.2,185.1,69.9z"/>
			<path class="dsn_path_col" fill="rgb(0, 0, 0)" d="M219,101.7c-3.1-16.6-4.7-25-7.9-41.6c0.6-0.3,0.8-0.5,1.4-0.9c1.3,1.9,1.9,2.8,3.2,4.7
				c0.8-2.3,1.2-3.4,1.9-5.7c0.9,0.3,1.3,0.4,2.2,0.6c0.7-0.4,1.1-0.7,1.8-1.1c2.5,17.1,3.8,25.6,6.3,42.7c-0.3,0.2-0.4,0.3-0.7,0.4
				c-1.4-1.4-2.1-2.1-3.5-3.4c-0.5,1.6-0.7,2.4-1.2,3.9c-0.7-0.1-1.1-0.2-1.8-0.3C220.1,101.4,219.8,101.5,219,101.7z"/>
			<path class="dsn_path_col" fill="rgb(0, 0, 0)" d="M227.7,57.2c1.2-0.9,1.7-1.3,2.9-2.2c1.2,0.8,1.8,1.2,2.9,2c1.2-0.6,1.8-1,3-1.6
				c7.6,8.9,11.3,13.3,18.5,22.4c0.6-0.1,0.9-0.1,1.4-0.2c-1.5-9.9-2.3-14.8-3.8-24.8c0.7-0.5,1.1-0.8,1.8-1.3
				c1.6,1.5,2.3,2.2,3.9,3.7c1-1.9,1.5-2.8,2.6-4.7c0.5,0,0.8,0,1.4,0c2.1,17.4,3.2,26.1,5.3,43.5c-0.3,0.2-0.4,0.3-0.7,0.6
				c-1.1-0.9-1.7-1.3-2.8-2.1c-1.3,1.2-1.9,1.7-3.2,2.9c-0.6,0-0.9,0-1.5,0c-6.8-7.7-10.3-11.5-17.4-19c-0.7,0.1-1.1,0.1-1.8,0.1
				c1.1,8.7,1.7,13.1,2.9,21.8c-0.8,0-1.2,0.1-2,0.1c-1.3-1.2-1.9-1.8-3.3-3.1c-0.5,1.7-0.8,2.6-1.4,4.4c-0.5-0.1-0.8-0.2-1.3-0.3
				C232.1,82.4,230.7,74,227.7,57.2z"/>
			<path class="dsn_path_col" fill="rgb(0, 0, 0)" d="M269.9,76.5c-0.2-1-0.4-2.1-0.5-3.1c-0.1-1.1-0.2-2.2-0.2-3.3c0-2.8,0.1-5.3,0.3-7.6
				c0.3-2.3,0.8-4.3,1.5-6c0.7-1.8,1.8-3.3,3.1-4.6c1.3-1.3,3.1-2.4,5.2-3.3c2.1-0.9,4.2-1.5,6.2-1.8c0.5-0.1,1-0.2,1.5-0.2
				c1.5-0.2,3.2-0.2,4.9-0.1c0.2,0.3,0.3,0.5,0.5,0.7c-1.5,0.7-2.3,1.1-3.8,1.8c1.3,0.9,1.9,1.4,3.2,2.3c-0.7,0.6-1.1,0.9-1.9,1.4
				c0.5,0.7,0.7,1,1.2,1.7c-0.8,0.1-1.7,0.3-2.6,0.5c-0.9,0.2-1.9,0.4-2.8,0.7c-0.9,0.3-1.8,0.6-2.6,0.9c-0.8,0.3-1.5,0.8-1.9,1.2
				c-1.1,1.1-2,2.6-2.5,4.7c-0.5,2-0.8,4.2-0.7,6.5c0,0.6,0.1,1.3,0.1,1.9c0.2,1.6,0.5,3.2,1,4.7c0.7,2.2,1.6,4,2.9,5.3
				c0.6,0.7,1.4,1.1,2.3,1.4c0.9,0.3,1.8,0.4,2.7,0.4c0.4,0,0.9,0,1.3-0.1c0.6-0.1,0.9-0.2,1.6-0.3c0.9-0.2,2.4-0.7,2.6-1
				c0.5-0.9-0.2-4.5-0.3-6.7c-0.1-1.4-0.2-2.8-0.3-4c-0.1-0.6-0.1-1.2-0.2-1.8c0.5-0.4,0.8-0.6,1.3-1c1.1,1.5,1.6,2.3,2.7,3.9
				c1-1.7,1.5-2.5,2.5-4.2c0.4-0.1,0.6-0.2,0.9-0.4c0.1,2.4,0.3,4.8,0.5,7.3c0.1,1.2,0.2,2.5,0.3,3.8c0.4,3.8,0.7,7.7,1.1,11.6
				c-1,0.4-1.4,0.6-2.4,1c-0.9-1.4-1.3-2-2.2-3.4c-1.2,1.1-1.7,1.7-2.9,2.8c0-0.2-0.1-0.5-0.1-0.8c-0.1-0.3-0.3-1.1-0.4-1.2
				c-0.7-0.3-5.2,1.9-7.5,2.2c-0.5,0.1-1,0.1-1.5,0.1c-2.7,0.1-4.9-0.4-6.5-1.3c-1.1-0.6-2.1-1.6-3.1-2.8c-1-1.2-1.9-2.7-2.7-4.3
				C271,80.3,270.4,78.5,269.9,76.5z"/>
			<path fill="#AB1E23" d="M314.8,86.7c3.8-25.1,5.9-37.7,10.5-62.8c1.8,0.4,2.7,0.6,4.5,1c1.6-1.4,2.4-2.1,4-3.4
				c2.6,2.6,3.8,3.9,6.4,6.6c1.3-2.5,2-3.8,3.3-6.3c1.6,0.8,2.4,1.2,3.9,2c1.4-0.8,2.1-1.2,3.6-1.9c5.6,25.3,8.2,38,13,63.4
				c-0.9-0.6-1.4-0.9-2.3-1.5c-1.5,0.9-2.3,1.3-3.8,2.1c-1.2-1.4-1.8-2.2-3-3.6c-1.1,1.1-1.6,1.7-2.7,2.8c-1.6-5.4-2.4-8.1-4.1-13.5
				c-7.8,0.8-11.7,1.2-19.5,2.3c-1.3,5.5-1.9,8.3-3.1,13.9c-0.4,0.2-0.6,0.3-1,0.5c-1.4-1.5-2.1-2.3-3.5-3.8c-1.6,1.4-2.4,2.1-4,3.5
				C316.1,87.4,315.7,87.2,314.8,86.7z M330.8,62.3c6.1-0.8,9.1-1.2,15.2-1.9c-2.3-8.9-3.5-13.4-6-22.3c-1.8,0.2-2.7,0.3-4.6,0.5
				C333.5,48,332.6,52.8,330.8,62.3z"/>
			<path fill="#AB1E23" d="M367.9,24.1c1.9-0.9,2.9-1.4,4.9-2.3c1.5,1.5,2.3,2.2,3.8,3.7c1.9-0.6,2.9-0.8,4.8-1.4
				c8.8,15.1,13,22.7,21,38.1c0.9,0.1,1.3,0.1,2.1,0.1c0.5-14.8,0.7-22.1,1.2-36.9c1.2-0.5,1.8-0.8,3-1.3c1.9,2.6,2.8,3.9,4.7,6.6
				c2-2.4,3-3.6,5.1-6c0.8,0.2,1.2,0.3,2,0.5c-1.8,25.7-2.7,38.6-4.5,64.3c-0.5,0.2-0.7,0.4-1.2,0.6c-1.4-1.6-2.1-2.4-3.5-4
				c-2.2,1.3-3.3,1.9-5.4,3.2c-0.8-0.2-1.2-0.3-2.1-0.5c-7.7-13.3-11.7-19.8-20.1-32.9c-1.1-0.2-1.6-0.2-2.7-0.4
				c-0.6,13-0.9,19.4-1.5,32.4c-1.2-0.2-1.7-0.3-2.9-0.5c-1.6-2.2-2.3-3.2-3.9-5.4c-1.2,2.4-1.8,3.5-3,5.9c-0.7-0.4-1.1-0.5-1.7-0.9
				C368.1,61.8,368,49.2,367.9,24.1z"/>
			<path fill="#AB1E23" d="M424.4,65.3c-0.1-1.5,0-3.1,0.1-4.7c0.1-1.6,0.3-3.2,0.6-4.9c0.7-4,1.6-7.6,2.7-10.8
				c1.1-3.2,2.4-5.9,4-8.2c1.6-2.3,3.6-4.1,5.9-5.5c2.3-1.4,5.3-2.3,8.6-2.9c3.3-0.5,6.6-0.7,9.6-0.4c0.7,0.1,1.5,0.1,2.2,0.2
				c2.3,0.3,4.8,0.9,7.3,1.7c0.2,0.5,0.3,0.8,0.6,1.3c-2.5,0.5-3.7,0.7-6.1,1.2c1.6,1.8,2.5,2.7,4.1,4.4c-1.3,0.5-1.9,0.8-3.2,1.4
				c0.5,1.1,0.7,1.7,1.2,2.8c-1.2-0.1-2.5-0.2-3.9-0.3c-1.4-0.1-2.9-0.1-4.3,0c-1.5,0.1-2.8,0.2-4.1,0.4c-1.3,0.2-2.4,0.6-3.2,1.1
				c-1.9,1.1-3.6,3.1-5,5.8c-1.4,2.7-2.4,5.8-2.9,9c-0.2,0.9-0.3,1.9-0.4,2.8c-0.2,2.4-0.2,4.8,0,7.2c0.3,3.3,1.2,6.2,2.6,8.6
				c0.7,1.2,1.7,2.1,2.9,2.8c1.2,0.7,2.4,1.3,3.8,1.6c0.6,0.2,1.3,0.3,1.9,0.3c0.9,0.1,1.4,0.1,2.3,0.2c1.4,0,3.6-0.1,4-0.5
				c1-1.1,1-6.6,1.5-9.7c0.3-2.1,0.6-4.1,0.8-5.9c0.1-0.9,0.2-1.8,0.3-2.6c0.9-0.4,1.3-0.6,2.2-1c1.1,2.6,1.7,3.9,2.8,6.5
				c1.9-2.1,2.9-3.1,4.9-5.2c0.6-0.1,0.9-0.1,1.5-0.2c-0.6,3.4-1.1,7-1.6,10.6c-0.2,1.8-0.5,3.7-0.7,5.6c-0.7,5.6-1.3,11.3-1.9,17
				c-1.5,0.2-2.3,0.4-3.8,0.6c-0.8-2.3-1.3-3.4-2.1-5.6c-2,1.2-3,1.7-4.9,2.9c0-0.3,0.1-0.7,0.1-1.1c0-0.4,0-1.7-0.1-1.8
				c-1-0.7-8.1,0.9-11.5,0.5c-0.8-0.1-1.5-0.2-2.2-0.4c-3.9-0.8-6.8-2.2-8.8-4.1c-1.3-1.3-2.6-3-3.7-5.1c-1.1-2.1-2-4.5-2.7-7.1
				C425,71.2,424.6,68.3,424.4,65.3z"/>
			<path fill="#AB1E23" d="M476.8,34.9c0.3-0.7,0.4-1.1,0.6-1.8c4.2-0.5,8.5-0.8,12.7-0.6c4.2,0.1,8.2,0.5,12.1,1.3
				c0.2,0,0.4,0.1,0.6,0.1c3.6,0.7,7,1.7,10,2.9c3.2,1.3,5.9,2.9,8,4.9c1.9,1.7,3.4,3.7,4.3,5.9c0.9,2.2,1.3,4.5,1.1,6.9
				c-0.1,0.6-0.1,1.2-0.3,1.8c-0.4,1.8-1.1,3.7-2.1,5.6c-1.3,2.5-3.3,5-5.6,7.4c-0.5,0.5-1.1,1.1-2.1,1.8c-0.9,0.7-1.9,1.4-2.9,2.2
				c-1,0.8-2.1,1.5-3.3,2.3c-1.2,0.7-3.2,1.5-3.4,1.9c-0.3,0.7,1.1,4.3,1.7,6.6c0.6,2.3,1.2,4.5,1.8,6.7c0.6,2.2,1.1,4.1,1.7,5.9
				c0.5,1.8,1,3.2,1.3,4.2c-0.3,0.2-0.5,0.3-0.9,0.6c-2.2-1.8-3.2-2.7-5.4-4.5c-0.5,1.9-0.7,2.9-1.2,4.8c-0.8-0.5-1.1-0.8-1.9-1.3
				c-0.8,0.3-1.2,0.5-2.1,0.8c-3.6-8.4-5.5-12.6-9.3-21c-2.8,0.5-4.2,0.7-7,1.2c-1.1,5.9-1.7,8.8-2.8,14.7c-0.7-0.2-1-0.3-1.6-0.5
				c-1-2.3-1.6-3.5-2.7-5.8c-1.5,2.5-2.2,3.7-3.6,6.2c-0.7-0.4-1.1-0.6-1.8-1c0.2-2,0.5-4.8,0.8-8.5c0.3-3.7,0.8-7.8,1.2-12.1
				c0.5-4.3,1-8.8,1.6-13.2c0.6-4.5,1.3-8.5,2.1-12.1c0.3-1.5,0.5-2.3,0.9-3.8c-1.3-1.1-1.9-1.7-3.1-2.9c2.6-1.5,3.9-2.3,6.5-3.8
				C480.4,37.2,479.2,36.4,476.8,34.9z M487.9,68.8c2.7-0.5,5.5-1.2,8.5-2.3c3-1,5.6-2.3,7.9-3.8c2.3-1.5,4.1-3.1,5.4-4.9
				c0.6-0.8,0.9-1.7,1.1-2.5c0.2-1.1,0.1-2.2-0.3-3.3c-0.4-1.2-1.7-2.1-3.7-2.9c-1.6-0.6-3.4-1.1-5.2-1.5c-0.4-0.1-0.8-0.2-1.2-0.2
				c-2.6-0.4-5.6-0.7-8.7-0.7C490.1,55.5,489.4,60,487.9,68.8z"/>
			<path fill="#AB1E23" d="M530,43.8c0.9-0.5,1.4-0.8,2.3-1.3c2,2.2,3,3.3,5.1,5.5c0.6-2.3,0.9-3.4,1.5-5.7c1.7,0.2,2.6,0.4,4.3,0.6
				c2.6,11.1,3.9,16.6,6.2,27.7c0.7,0.3,1,0.4,1.7,0.7c4.8-8.9,7.3-13.3,12.3-22c0.7,0.1,1,0.1,1.7,0.2c0.3,2.5,0.5,3.7,0.8,6.2
				c2.3-1.3,3.4-2,5.6-3.3c0.4,0.8,0.6,1.2,1,2.1c1.7,0,2.6,0,4.3,0c-13.4,21.8-19.9,32.9-32.3,55.2c-0.8,0.2-1.2,0.3-2.1,0.5
				c-0.4-2-0.7-3-1.1-5c-2.3,1.2-3.4,1.8-5.7,3.1c-0.8-0.8-1.1-1.2-1.9-2.1c-0.5,0-0.8,0-1.3,0.1c4.9-10,7.3-15,12.3-25
				c-2.2-0.7-3.3-1-5.5-1.7C535.9,65.2,534,58.1,530,43.8z"/>
		</g>
	</g>
</g>
<g>
	<g>
		<g>
			<g>
				<g>
					<g>
						<g>
							<path fill="#010101" d="M269.4,280.1c-25.4-5-66.5-5-66.5-40.3c2.9-26.4,20.6-52.9,47-61.7c5.9-2.9,17.6,0,14.7,11.7
								c23.5,0,58.7,2.9,67.6,29.4c2.9,11.7-11.7,20.6-23.5,17.6c5.9,5.9,8.8,14.7,5.9,20.6c-14.7,17.6-29.4,2.9-40,20.7
								C272.8,279,271.1,279.7,269.4,280.1z M234.1,236.9c6.9,5.9,12.8,8.8,18.7,5.9c2.9-2.9,2.9-14.7,0-17.6
								c-2.9-2.9-8.8,2.9-14.8,2.3C235.3,231.7,233.9,235.2,234.1,236.9z"/>
						</g>
					</g>
				</g>
			</g>
			<g>
				<g>
					<g>
						<g>
							<g>
								<path fill="#010101" d="M319.1,467.2c-81,16.4-204.4,45.7-239.6-30.6c-32.3-70.5,55.8-152.7,126.3-202.6
									c14.7-8.8,35.2-8.8,44.1,2.9c52.9,52.9,132.2,141,115.6,212.9C356.7,456.4,341.7,462,319.1,467.2z M89.2,431.3
									c75.5,43.4,172.4,25.8,251.7-0.7c-35.2-55.8-55.8-135.1-108.7-158.6c-55.8-23.5-105.7,79.3-135.8,136.1
									C92.6,417.5,90.1,425.4,89.2,431.3z"/>
							</g>
						</g>
					</g>
				</g>
				<g>
					<g>
						<g>
							<g>
								<path fill="#010101" d="M319.9,469.2c-81.9,17.3-214,43.8-240.5-35.5C53,360.2,144.1,228.1,235.1,236.8
									c79.3,5.9,111.6,120.4,141,196.8c2.9,5.9-2.9,14.7-9,17.8C358.3,458.2,343,463.8,319.9,469.2z M91.3,430.4
									c76.3,41.4,167.3,23.8,246.6,0.3C299.7,374.9,285,286.8,223.4,275c-52.9-11.7-94,70.5-121.1,124.9
									C96.1,413.6,92.6,424.1,91.3,430.4z"/>
							</g>
						</g>
					</g>
				</g>
			</g>
			<g>
				<g>
					<g>
						<g>
							<path fill="#010101" d="M121.6,423.9c-18.7,0.9-30.4-19.7-30.4-34.4c0-14.7,8.8-29.4,23.5-32.3c5.9,0,14.7,2.9,20.6,5.9
								c8.8,11.7,11.7,26.4,7.7,41.1C139.9,415.7,131.6,423.4,121.6,423.9z M117.3,387.7c-2.6,1.9-2.6,7.8,0.3,7.8
								c2.9,0,2.9-5.9,1-7.4C118.2,387.8,117.7,387.7,117.3,387.7z"/>
						</g>
					</g>
				</g>
				<g>
					<g>
						<g>
							<path fill="#010101" d="M121.9,425.6c-24.8-0.8-36.6-27.3-30.7-47.8c2.9-11.8,11.7-20.6,23.5-23.5
								c23.5,0,38.2,29.4,29.7,50.6C141.2,417,132.4,425.1,121.9,425.6z M118.1,389.7"/>
						</g>
					</g>
				</g>
			</g>
			<g>
				<g>
					<g>
						<g>
							<path fill="#010101" d="M196.1,424c-10.9,3.8-19.7-2.1-28.5-8c-17.6-17.6-5.9-44.1,11.7-55.8c14.7-5.9,32.3-5.9,41.1,5.9
								c5.9,8.8,8.8,20.6,4.4,33.1C220.5,411.6,209.5,421.1,196.1,424z M192.2,388.6"/>
						</g>
					</g>
				</g>
				<g>
					<g>
						<g>
							<path fill="#010101" d="M196.5,425.6c-28.9,8-43.6-24.3-37.7-44.8c5.9-17.6,23.5-23.5,38.2-26.4c20.6,0,41.1,23.5,29.9,45.2
								C222.4,412.4,210.4,422.6,196.5,425.6z M191.5,390.4"/>
						</g>
					</g>
				</g>
			</g>
			<g>
				<g>
					<g>
						<g>
							<path fill="#010101" d="M266.4,474.1c-57.8,9.4-122.4,18.2-175.2-20c-20.6-14.7,5.9-32.3,23.5-35.2
								c52.9-5.9,96.9,17.6,149.8,26.4c17.6,2.9,20.6,20.6,4.5,28.1C268.2,473.7,267.3,473.9,266.4,474.1z M129.1,446.2
								c20.8,7.9,44.3,7.9,64.9,7.9c-11.8,0-23.5-8.8-39.1-7.2C145.3,446,136.8,445.7,129.1,446.2z"/>
						</g>
					</g>
				</g>
			</g>
			<g>
				<g>
					<g>
						<g>
							<path fill="#010101" d="M133.4,401.8c-21.6-6.4-45.1-9.3-56.9-29.9c-8.8-11.8-2.9-32.3,8.8-32.3
								c23.5-2.9,76.4,20.6,62.8,50.6C143.5,396.4,139.2,401.4,133.4,401.8z"/>
						</g>
					</g>
				</g>
			</g>
			<g>
				<g>
					<g>
						<g>
							<path fill="#010101" d="M226.7,391.9c-23.9,0.6-44.4,18.3-67.9,6.5c-11.7-5.9-17.6-23.5-5.9-29.4
								c26.4-14.7,55.8-26.4,85.2-23.5c14.7,2.9,20.6,26.4,5.1,39.9C239.2,388.4,234.8,389.9,226.7,391.9z"/>
						</g>
					</g>
				</g>
			</g>
			<g>
				<g>
					<g>
						<g>
							<path fill="#010101" d="M188.4,406.9c-12.1,3.3-17.9-5.6-17.9-14.4c-2.9-11.7,8.8-26.4,23.5-23.5
								c11.7,2.9,11.7,14.7,10.3,24.1C201.8,400.1,195.6,405.5,188.4,406.9z M185.6,377.4c-9.2,3.4-12.1,12.2-9.2,18
								c5.9,5.9,14.7,5.9,20.6-2.9c-5.9-2.9-8.8-2.9-14.7-5.9c5.9,2.9,8.8,2.9,14.7,5.9c2.9-5.9,0-11.7-6.4-14.9
								C188.9,377.2,187.2,377.1,185.6,377.4z"/>
						</g>
					</g>
				</g>
			</g>
			<g>
				<g>
					<g>
						<g>
							<path fill="#010101" d="M122.4,403.4c-16.5-2.1-19.4-25.6-10.6-34.4c14.7-11.7,26.4,8.8,22.5,23.5
								C132.4,398.8,127.8,403.1,122.4,403.4z M121.7,382.3c-1.1,7.3-7,13.1-1.1,16.1c8.8,0,11.8-17.6,2.9-23.5c-2.9,0-5.9,0-8.8,0
								c0,5.9-5.9,14.7,2.8,21.1L121.7,382.3z"/>
						</g>
					</g>
				</g>
			</g>
			<g>
				<g>
					<g>
						<g>
							<path fill="#010101" d="M140.3,428.3c-16.8-3.5-37.3,5.3-52-6.4c-8.8-11.7-2.9-26.4,8.8-32.3c26.4-14.7,58.7-14.7,82.2,8.8
								c5.9,8.8,2.9,20.6-6.7,25.7C172.5,424.1,156.7,426.7,140.3,428.3z"/>
						</g>
					</g>
				</g>
				<g>
					<g>
						<g>
							<path fill="#010101" d="M140.7,430.6c-20.1,0.1-55.3,6-55.3-17.5c-2.9-29.4,32.3-35.2,55.8-35.2c17.6,0,35.2,8.8,44.1,26.4
								c2.9,8.8,2.9,20.6-11.8,21.9C169.1,427,155.3,429.2,140.7,430.6z"/>
						</g>
					</g>
				</g>
			</g>
			<g>
				<g>
					<g>
						<g>
							<path fill="#010101" d="M152.2,452.3c-22.8,1.9-40.4-15.8-46.3-36.3c0-5.9,2.9-11.7,8.8-14.7c20.6-2.9,41.1-8.8,58.7-2.9
								c17.6,2.9,8.8,23.5,2,38.4C170.5,444.7,163.2,451.1,152.2,452.3z"/>
						</g>
					</g>
				</g>
				<g>
					<g>
						<g>
							<path fill="#010101" d="M152.8,454.4c-26.3,2.7-61.6-32.6-41-50.2c17.6-11.8,47-17.6,67.5-2.9c11.7,5.9,5.9,26.4-2.7,38.3
								C171.2,447.4,163.5,453.2,152.8,454.4z"/>
						</g>
					</g>
				</g>
			</g>
			<g opacity="0.38">
				<g>
					<g>
						<g>
							<path fill="#010101" d="M159,335.6c-6.1-1.8-14.9-1.8-14.9-7.7c2.9-44.1,47-88.1,88.1-79.3c29.4,2.9-11.7,44.1-30,60
								C193.3,316.2,171.9,333.6,159,335.6z"/>
						</g>
					</g>
				</g>
			</g>
		</g>
	</g>
	<g>
		<g>
			<path fill="#FFFFFF" d="M318.3,463.3c-80.2,17.3-171.2,35-238.8-17.9c-23.5-17.6-2.9-47,8.8-67.5c-11.7-2.9-8.8-14.7-8.8-23.5
				c2.9-11.8,14.7-14.7,23.5-5.9c8.8-14.7,17.6-29.4,29.4-44.1c38.2-41.1,79.3-70.5,111.6-120.4c2.9-2.9,11.7-2.9,14.7,2.9
				c2.9,2.9,0,8.8-2.9,11.7c23.5-5.9,70.5-2.9,64.6,29.4c-2.9,8.8-17.6-2.9-29.4,0c8.8,8.8,23.5,14.7,14.7,29.4
				c-8.8,8.8-23.5-2.9-23.5,0C285,325,382,383.7,362.5,446.8C354.5,452.9,340.2,458.2,318.3,463.3z M100.8,366
				c5.1,26.5-30.1,52.9-15.4,64.6c73.4,58.7,217.3,58.7,252.6-11.7c23.5-44.1-138-149.8-52.9-205.6c-14.7-5.9-29.4,5.9-47,5.9
				c-8.8,0-5.9,26.4-17.6,32.3C167.6,275,144.1,327.9,102.4,367C101.8,366.7,101.3,366.4,100.8,366z M92.4,361"/>
		</g>
	</g>
	<g>
		<g>
			<g>
				<g>
					<g>
						<path d="M250.1,190.7c-14.9,16.8-41.4,37.4-26.7,60.8c11.7,14.7,32.3,2.9,47,11.7c2.9-5.9-5.9-14.7-2.9-14.7
							c8.8-5.9,20.6,0,32.3,2.9c-5.9-14.7-20.6-17.6-32.3-23.5c17.6-5.9,32.3-14.7,49.9-5.9c-14.7-23.5-52.9-23.5-72.3-9.5
							C244,209.4,247.8,196.8,250.1,190.7z"/>
					</g>
				</g>
			</g>
		</g>
		<g>
			<g>
				<g>
					<g>
						<g>
							<path fill="#F2E802" d="M95.2,448.8c81.2,31.8,186.9,28.8,266.2-18.2c-49.9-58.7-64.6-190.9-143.9-176.2
								c-76.4,17.6-123.3,99.9-138,179.1C76.5,442.4,88.3,445.4,95.2,448.8L95.2,448.8z"/>
						</g>
					</g>
				</g>
			</g>
			<g>
				<g>
					<g>
						<g>
							<path d="M233.7,248c-80.8,18.2-163,123.9-139.5,179.7c35.2,76.4,182.1,44,264.3,2.9C317.3,369,293.9,295.6,233.7,248
								 M236,243c63.7,43.8,87.2,126,128.4,187.7c-79.3,49.9-208.5,70.5-279,5.9c-26.4-23.5,11.7-67.5,35.2-99.9
								C147,295.6,182.3,245.7,236,243L236,243z"/>
						</g>
					</g>
				</g>
			</g>
		</g>
		<g>
			<g>
				<g>
					<g>
						<path fill="#FFFFFF" d="M104.4,383.6c-4.3,11.9,4.5,26.5,16.2,26.5c14.7-2.9,14.7-26.4,2.4-36
							C115.5,369.9,107.1,374.2,104.4,383.6z"/>
					</g>
				</g>
			</g>
			<g>
				<g>
					<g>
						<path fill="#1F2020" d="M112.7,409.7c13.8,3.4,22.6-5.4,22.6-17.2c0-8.8-2.9-17.6-11.7-20.6C100,366.1,97.1,398.4,112.7,409.7
							L112.7,409.7z M122.4,375.8c12.9,7.9,7,37.2-7.7,31.4c-11.7-5.9-14.7-17.6-5.9-29.4C111.8,374.9,117.7,374.9,122.4,375.8
							L122.4,375.8z"/>
					</g>
				</g>
			</g>
		</g>
		<g>
			<g>
				<g>
					<g>
						<path fill="#FFFFFF" d="M173.9,387.1c-3.4,11.3,5.4,26,20.1,23c14.7-5.9,26.4-32.3,4-36.4C188.5,371.1,177.7,377,173.9,387.1z
							"/>
					</g>
				</g>
			</g>
			<g>
				<g>
					<g>
						<path fill="#1F2020" d="M184.4,411.6c10.9,2.6,23-4,26.7-14.8c4.2-11.1-1.4-22.3-12.3-24.9c-10.5-3-22.3,3.6-26.5,14.6
							C168.6,397.3,174,408.6,184.4,411.6L184.4,411.6z M197.3,375.6c11.4,2.2,17.3,19.8,5.6,28.6c-8.8,5.9-26.4,2.9-29.4-8.8
							C173.4,383.7,182.3,371.9,197.3,375.6L197.3,375.6z"/>
					</g>
				</g>
			</g>
		</g>
		<g>
			<g>
				<g>
					<g>
						<path fill="#FFFFFF" d="M263.8,461.1c-55.1-9.9-113.8-51-169.6-15.8c35.2,20.6,79.3,23.5,120.8,22.3
							C235.7,466.4,253.5,463.9,263.8,461.1z"/>
					</g>
				</g>
			</g>
		</g>
		<g>
			<g>
				<g>
					<g>
						<path fill="#A43222" d="M139.6,379.3c-16.1-10.3-36.7-27.9-45.5-22.1c-23.5,8.8,23.5,20.6,37.6,29.6
							C133.3,387.7,138.3,380.9,139.6,379.3z"/>
					</g>
				</g>
			</g>
		</g>
		<g>
			<g>
				<g>
					<g>
						<path fill="#A43222" d="M160.9,377.5c24.3,0.3,80.1-29.1,68.3-5.6c-5.9,11.7-38.2,14.7-61.6,14.9
							C165.7,387.3,161.8,379.4,160.9,377.5z"/>
					</g>
				</g>
			</g>
		</g>
		<g>
			<g>
				<g>
					<g>
						<path fill="#1F2020" d="M182.9,387.8c2.3-4.1,2.3,16.5,4.7-2.6C185.8,384.7,183.7,385.8,182.9,387.8z"/>
					</g>
				</g>
			</g>
		</g>
		<g>
			<g>
				<g>
					<g>
						<path fill="#1F2020" d="M118.4,384c-0.8-0.3,2.2,32,3.3-1.7C120.4,381.6,118.9,382.3,118.4,384z"/>
					</g>
				</g>
			</g>
		</g>
		<g>
			<g>
				<g>
					<g>
						<path fill="#DEA026" d="M169.7,410.1c-19.7-20.5-55-23.5-72.6,3c11.7,2.9,23.5,5.9,36.3,1.2
							C151,413.1,169.7,410.1,169.7,410.1z"/>
					</g>
				</g>
			</g>
			<g>
				<g>
					<g>
						<path fill="#1F2020" d="M96.7,414.8c23.9,1.2,53.3,7.1,70.9-4.7c5.9-5.9-11.8-11.8-17.6-14.7
							C135.3,389.6,97.1,389.6,96.7,414.8L96.7,414.8z M164.1,408.7c-20.1,1.4-43.6,10.2-64.1,1.4
							C117.7,392.5,147,392.5,164.1,408.7L164.1,408.7z"/>
					</g>
				</g>
			</g>
		</g>
		<g>
			<g>
				<g>
					<g>
						<path fill="#DEA026" d="M147.6,439.1c-12.4-5.5-24.1-8.4-30-23.1c17.6,0,35.2-2.9,52.1-5.3
							C169.7,410.7,167.1,437.8,147.6,439.1z"/>
					</g>
				</g>
			</g>
			<g>
				<g>
					<g>
						<path fill="#1F2020" d="M137.2,439.2c21.6,9.1,36.3-14.4,33.3-32.1c-17.6,5.9-38.2,0-49.9,8.8
							C111.8,421.9,129.4,433.6,137.2,439.2L137.2,439.2z M166.9,413.6c-2.2,14.2-14,25.9-28.7,23c-8.8-2.9-17.6-11.7-14.7-14.7
							C132.3,410.1,152.9,418.9,166.9,413.6L166.9,413.6z"/>
					</g>
				</g>
			</g>
		</g>
		<g opacity="0.38">
			<g>
				<g>
					<g>
						<path fill="#FFFFFF" d="M186.7,281.6c-10.3,11-25,19.9-30.9,37.5c32.3-11.7,55.8-32.3,71.4-60.8
							C224.7,254.4,206.4,264.9,186.7,281.6z"/>
					</g>
				</g>
			</g>
		</g>
	</g>
</g>
<g>
	<g>
		<g>
			<g>
				<path fill="#FFFFFF" d="M413.8,632c-71.4-12.6-140.8-63-166.7-129.6c-2.7,6-5.5,12-11.3,12.2c-23.9-10.9-56.7-24.4-54.8-53.9
					c-0.8-23.5,19-44.8,45.2-51.6c11.6-3.4,20.6-0.7,23.9,10.9c19.1-41.8,44.1-80.9,78.3-111.5c-23.4,3.8-30.2-22.4-19-37.5
					c8.5-9.1,19.2-18.3,31.1-24.6c11.9-6.3,25-9.7,38.3-7.2c-3.6-17.5,10.7-29.8,22.2-36.1c20.3-6.6,41.1-1.5,62.1,9.5
					C597.8,284.1,742.3,461.1,588.3,593C539.9,635.9,475.5,644.1,413.8,632L413.8,632z"/>
			</g>
			<g>
				<path fill="#010101" d="M424.1,205.7c21.1,1.6,39.1,12.7,60,23.8c34,45.7,84.7,67.4,121.5,110.2
					c70.3,76.8,54.5,209.6-37.5,265.8c-112.2,65.7-275.7,15.7-318.3-109.1c-22.4,30.2-50.3-10-59.8-27.2
					c-15.6-25.9,18.7-53.6,45-57.4c8.8-0.3,15,8.3,15.3,17.1c18.9-47.7,46.7-89.8,86.8-120.7c-32.2,4.1-36.4-31-16.4-46.4
					c20-15.4,40.5-19.1,63.9-19.9C377.9,215.6,403.9,202.9,424.1,205.7 M425.4,198c-18.9-4.1-33.3,2.3-44.7,14.5
					c-2.7,6-8.4,12.1-5.1,20.8c-16.1,2-32.8,6.3-46.9,14.2c-14,7.8-25.4,19.3-30.7,35.6c-8.3,15,9.8,26.1,21.6,28.6
					c-25.4,30.3-44.3,75-73.4,84.9c-20.2,9.5-48.9,28.2-65.9,46.4c-5.8,3.1-11.1,18-4.9,26.6c21.2,16.9,60.3,41.9,63.4,47.7
					c74.4,109,223.2,159.5,332.6,96.8c51.8-31.2,79.1-88,85.8-147.1c13.3-121-97.5-178.7-173.4-246.5
					C468.7,206.4,447.8,198.4,425.4,198L425.4,198z"/>
			</g>
		</g>
	</g>
	<g>
		<path fill="#AB1E23" d="M507.6,277.7c79.1,24.4,132.1,110.7,129.2,193.1c-1.5,41.2-20.6,80.1-52,107.7
			c-97,82.8-265.6,50.6-316.8-65.1c-35.3-84,32.4-162.8,95.2-215c-11.8-2.5-26.3,3.9-32.5-4.7c-9.2-11.4-0.9-26.4,10.6-32.7
			c20.1-12.5,40.9-7.3,61.4-8.1c-12-5.5-9.6-23.2-4.1-32.2c2.8-3,8.6-6.2,14.5-6.4c13.3,1,26.6,4.2,39,9.5
			c12.4,5.3,23.8,12.8,33.3,22.3C497.4,257.7,504.6,269.8,507.6,277.7z"/>
	</g>
	<g>
		<path d="M559.2,599.9c-103.7,59.5-258.1,15.1-297.5-101c-26.3-78.4,32.9-148.1,89.9-197.2c-14.6,3.5-38.5-7.4-33.2-25.3
			c10.8-26.8,48.9-31.1,75.3-29.1c-3.2-8.8-6.6-20.4-0.9-26.5c20.1-13.9,42.3-8.9,63.3,2.9c62,48.4,136.9,89.8,169,165.1
			C660.1,464.1,634.2,562,559.2,599.9L559.2,599.9z M342,264.9c-9,8.1-23.5,14.5-11.3,25.8c9,5.6,23.7,5,35.4,4.6
			c-54.1,49-116.5,110-98.9,191.6c14.3,70,77.6,114.8,145.7,130c59.2,12.6,120.4-1.4,169-41.3c68.3-61.2,73.3-170.1,9.4-229.5
			c-36.6-36.9-78.8-67.7-118.4-104.5c-21.1-13.9-54.1-33.3-73.8-9.1c-5.8,3.1,3.5,14.6,6.7,23.3C385.2,256.5,361.7,254.4,342,264.9
			L342,264.9z"/>
	</g>
	<g>
		<g>
			<path d="M257,444.8c-11.9-2.1-15.7-23.2-30.3-20.3c-8.7,3-11.3,12-8,20.9c6.2,9,17.8,3.2,24,9.4c-23.5,2.5-62.6-20.5-46.5,17.4
				c3.3,8.8,26.5,0.1,38.6,6.3c-5.8,2.8-14.6,5.6-11.3,14.6c12.4,15.2,20.3-11.3,32.8-6.3C258.8,446.8,257,444.8,257,444.8z"/>
		</g>
	</g>
	<g>
		<g>
			<path fill="#FFFFFF" d="M344.9,586.8c26.6-59.4,96.3-82.5,158.1-78.9c29.6,4.8,74.2,20.9,69.4,50.4
				c-14.6,85.7-133,60.6-199.7,41.6C354.4,593,344.9,586.8,344.9,586.8z"/>
		</g>
	</g>
	<g>
		<g>
			<path d="M399,248.6c18.8,16.1,39.6,21.6,63.2,24c-23.5,0.7-44.4-7.9-64.8-19.4C400,251.5,399,248.6,399,248.6z"/>
		</g>
	</g>
	<g>
		<g>
			<path d="M362.2,292.9c0,0,27.6-3,41-8.7c-15.2,8.4-37.4,11.7-37.4,11.7L362.2,292.9z"/>
		</g>
	</g>
	<g>
		<g>
			<path fill="#AB1E23" d="M363.7,505c2.1,11.3-2,21.4-9,22.5c-7,1.1-14.7-6.7-17.2-17.5c-2.5-10.8,1.5-20.8,9-22.4
				C353.9,486,361.6,493.8,363.7,505z"/>
		</g>
	</g>
	<g>
		<g>
			<path fill="#AB1E23" d="M418,485.2c3.4,16.7-4.2,37-19.1,31.3c-20.8-8.5-19.8-47.4-1.3-58.4C407.2,456.2,416.2,468.4,418,485.2z"
				/>
		</g>
	</g>
	<g>
		<g>
			<path fill="#AB1E23" d="M473,472.3c1.8,20.1-5,37.4-15.2,38.6c-10.2,1.2-19.9-14.1-21.7-33.9c-1.8-19.8,5.2-36.8,15.4-38.2
				C461.6,437.4,471.2,452.2,473,472.3z"/>
		</g>
	</g>
	<g>
		<g>
			<path fill="#FFFFFF" d="M531.7,433.8c4.1,28.6-21.4,46.6-45,44.3c-17.8-2.9-33.5-22.4-31.7-45.4c1.9-19.9,19.1-30.1,34.9-33.6
				C511.2,396.8,530,412.3,531.7,433.8z"/>
		</g>
		<g>
			<path d="M512.4,474.1c-19.1,10.6-39.8,5.5-52.2-11.7c-12.3-14.3-10-32-1.7-47c16.7-27,52.1-22.4,70.5,0.4
				C541.5,436,527.7,460,512.4,474.1L512.4,474.1z M475,405.3c-17.9,10.9-25.4,37.3-12.6,57c9.3,9.7,21.6,19.2,33.2,15.6
				c20.4-4.2,37.1-21.6,35.9-44.6C527,403.7,494.1,392.1,475,405.3L475,405.3z"/>
		</g>
	</g>
	<g>
		<path fill="#FFFFFF" d="M604.1,434c1.8,21.7-14.3,40.7-35.9,42.5c-21.6,1.9-40.7-14.7-42.5-36.8c-1.8-21.8,14.3-40.4,36-41.8
			C583.4,396.6,602.3,412.7,604.1,434z"/>
	</g>
	<g>
		<path d="M584.4,473c-23.5,9.3-50.2,1.5-59.9-21.7c-3.4-11.6-0.9-26.4,4.5-38.4c19.5-30.1,64-17,76.8,11.9
			C612.3,442.3,601.3,463.2,584.4,473L584.4,473z M546.5,403.4c-8.8,9.2-17.4,15.4-19.8,30.2c-2.2,20.6,10.3,40.8,30.9,43
			c29.6,4.8,55-22.5,45.2-51.6C593.2,401.8,569.4,393.9,546.5,403.4L546.5,403.4z"/>
	</g>
	<g>
		<g>
			<path d="M511,436.8c1.5,9-9.9,18.2-16.1,9.7c-6.2-8.6-0.5-14.7,5.1-19.7C505.6,426.2,510.5,430.7,511,436.8z"/>
		</g>
	</g>
	<g>
		<g>
			<path d="M559.8,432.6c0.5,6.1-3.6,11.4-9.3,11.8c-5.6,0.5-10.6-4.2-11-10.3c-0.5-6.1,3.7-11.4,9.2-11.8
				C554.4,421.9,559.3,426.5,559.8,432.6z"/>
		</g>
	</g>
	<g>
		<g>
			<path d="M430.3,380.2c-2.1,6.9-7.7,15.9-4.6,18.8c60.4,44.9,135.8,18.6,199.8-1.3c-3.4-11.6-9.5-20.2-12.9-31.9
				c-40.5,19.1-89.3,50.2-133.8,26.3C454.6,385.8,430.3,380.2,430.3,380.2z"/>
		</g>
	</g>
	<g>
		<g>
			<path fill="#DEA026" d="M474.9,513c13-16.3,20.8-43,38.1-52.5c40.3-22,82.9,17.6,99,55.2c-35.1,4.2-73.5-0.3-107.4,5.7
				C486.4,521.6,480.9,519.5,474.9,513z"/>
		</g>
		<path d="M611.3,517.6c-46.5-6-95.4,22.2-137.5-5.7c16.9-21.2,27.2-59.8,56.7-57.9C565.7,452.8,599.1,483.9,611.3,517.6
			L611.3,517.6z M476.5,512.8c44.9,18,88.3-1.2,132.4,0.1c-18.6-25.8-40.3-57.3-75.5-56.1C501.1,455.1,493.5,490.6,476.5,512.8
			L476.5,512.8z"/>
	</g>
	<g>
		<path fill="#DEA026" d="M479.5,517.3c18.7,19.9,31.7,51.6,55.1,52.5c23.4,0.9,36.8-29.8,53.4-50.1c-17.6-3.8-34.9,1.2-51.6,0.6
			C510,521.5,482.9,522.4,479.5,517.3z"/>
	</g>
	<g>
		<path d="M539.3,575.1c-31.1-5.7-44-37.5-59.4-57.6c35.4,4.6,73.4-2.6,108.7-1C577.6,540.5,557.6,555.9,539.3,575.1L539.3,575.1z
			 M484.5,521.2c16.7,19.1,29.8,56.9,61.7,44c20.3-6.6,28.4-27.5,39.5-45.5C553.3,517.9,518.3,525,484.5,521.2L484.5,521.2z"/>
	</g>
</g>
<text transform="matrix(1 0 0 1 133.394 666.2349)" class="dsn_path_col" fill="rgb(0, 0, 0)" font-family="'AngryBirds-Regular'" font-size="28.4315">Philippians 4:4</text>
</svg>
