<?xml version="1.0" encoding="utf-8"?>
<!-- Generator: Adobe Illustrator 16.0.0, SVG Export Plug-In . SVG Version: 6.00 Build 0)  -->
<!DOCTYPE svg PUBLIC "-//W3C//DTD SVG 1.1//EN" "http://www.w3.org/Graphics/SVG/1.1/DTD/svg11.dtd">
<svg version="1.1" id="Layer_1" xmlns="http://www.w3.org/2000/svg" xmlns:xlink="http://www.w3.org/1999/xlink" x="0px" y="0px"
	 width="300px" height="340px" viewBox="0 0 300 340" style="enable-background:new 0 0 300 340;" xml:space="preserve">
<g>
	<g>
		<g>
			<path style="fill:#FFFFFF;" class="fill_this" d="M107.056,14.513c4.017,0.626,13.551,4.445,35.905,3.852c22.354-0.593,40.652-7.014,44.015-7.507
				c3.363-0.494,8.605,3.783,8.605,3.783s0.199-0.819,11.771,2.243c11.572,3.062,28.584,5.136,29.773,5.729
				c1.187,0.593,9.495,4.938,12.758,12.644c3.264,7.704,4.254,26.571,5.64,35.857c1.383,9.286,2.077,12.94,2.077,12.94
				s0.988,2.568,1.482,4.05c0.495,1.482,1.287,2.667,1.089,2.964c-0.197,0.296-14.44,7.705-16.519,9.384
				c-2.076,1.679-11.869,4.446-15.727,4.643c0,0,3.185,12.743,0.02,25.189c-3.169,12.447-6.35,13.928-6.35,13.928
				s-1.385,12.151-1.782,20.053c-0.395,7.9-2.571,14.52-3.46,24.496c0,0-0.397,5.333,0.098,12.054
				c0.495,6.715-0.595,10.567-0.298,12.049c0.298,1.482,3.858,16.794,6.43,25.585c2.574,8.792,6.135,13.633,7.716,30.426
				c1.583,16.792,2.077,21.14,2.771,22.62c0.689,1.481,0.097,3.853,0.296,4.544c0.197,0.69,2.769,5.434,2.67,6.521
				c-0.101,1.087-2.473,8.594-8.21,11.952c-5.736,3.359-27.597,10.965-43.423,12.644c-15.826,1.681-27.003,5.236-50.347,1.285
				c-23.343-3.953-59.744-11.261-67.062-18.968c-7.32-7.703-6.528-14.027-4.946-16.397c0,0,0.856-2.74,1.368-4.017
				c0.511-1.277,0.767-3.956,2.812-8.04c0,0-0.257-6.636,1.149-10.847c0,0-1.868-10.88,0.408-20.561s9.1-25.685,9.594-27.164
				c0.495-1.482,0.199-3.458,0.593-5.235c0.396-1.778,0.791-2.865,1.583-4.544c0.791-1.681,2.076-8.893,1.484-14.127
				c-0.594-5.236,1.285-18.473,0.592-25.683c-0.691-7.211-1.887-22.423-2.084-23.016c-0.199-0.593-8.302-5.206-9.981-15.409
				c-1.583-9.615,0.593-20.053,0.495-20.449c-0.101-0.395-7.42-0.395-14.936-2.766c-7.519-2.371-11.08-4.445-11.971-5.433
				c-0.889-0.988-2.077-1.481-2.472-2.173l-0.396-0.692c0,0,0.89-5.038,1.188-5.63c0.296-0.592,2.276-17.188,1.978-28.845
				c-0.298-11.655,1.286-20.645,2.968-24.695c1.681-4.05,7.912-9.681,7.912-9.681s7.122-3.556,17.805-7.31
				s23.541-8.298,24.925-8.298C98.45,18.463,105.196,14.223,107.056,14.513"/>
			<path d="M153.904,331.027c-6.258,0-12.793-0.591-19.979-1.808c-21.922-3.712-59.845-11.142-67.503-19.203
				c-7.625-8.024-6.694-14.743-5.095-17.277c0.163-0.522,0.89-2.811,1.356-3.975c0.144-0.358,0.263-0.836,0.417-1.436
				c0.372-1.455,0.93-3.639,2.331-6.483c-0.029-1.16-0.111-6.811,1.136-10.736c-0.25-1.562-1.696-11.549,0.45-20.676
				c1.834-7.808,6.619-19.731,8.665-24.821c0.507-1.267,0.853-2.126,0.948-2.415c0.229-0.688,0.266-1.562,0.304-2.486
				c0.033-0.873,0.07-1.776,0.269-2.669c0.392-1.768,0.791-2.91,1.64-4.71c0.689-1.463,2.001-8.513,1.412-13.701
				c-0.288-2.544-0.014-6.871,0.279-11.45c0.332-5.165,0.674-10.507,0.313-14.246c-0.289-3.011-0.666-7.415-1.023-11.568
				c-0.405-4.767-0.865-10.134-1.013-11.175c-0.121-0.11-0.314-0.261-0.561-0.46c-2.198-1.782-8.038-6.517-9.462-15.17
				c-1.308-7.941-0.104-16.331,0.349-19.489c0.026-0.189,0.052-0.355,0.072-0.499c-0.379-0.052-0.917-0.109-1.445-0.164
				c-2.715-0.29-7.769-0.826-12.874-2.436c-7.437-2.345-11.239-4.46-12.319-5.657c-0.371-0.412-0.814-0.734-1.24-1.045
				c-0.537-0.391-1.042-0.757-1.333-1.266l-0.536-0.939l0.049-0.281c0.273-1.549,0.945-5.219,1.259-5.847
				c0.25-0.869,2.189-16.868,1.893-28.47c-0.313-12.327,1.435-21.183,3.029-25.019c1.729-4.165,7.852-9.729,8.113-9.963l0.176-0.121
				c0.071-0.035,7.289-3.621,17.895-7.348l1.529-0.538c13.414-4.715,22.307-7.805,23.66-7.805c0.442-0.016,2.26-0.914,3.586-1.57
				c3.098-1.529,5.341-2.556,6.527-2.372c0.819,0.128,1.829,0.376,3.11,0.69c5.026,1.232,14.793,3.638,32.65,3.153
				c17.434-0.462,32.455-4.505,39.673-6.45c2.097-0.564,3.478-0.936,4.251-1.05c3.153-0.472,7.636,2.73,8.889,3.693
				c0.148-0.019,0.285-0.019,0.376-0.019c1.619,0,5.571,0.819,11.429,2.369c7.279,1.926,16.756,3.465,23.027,4.484
				c4.801,0.779,6.393,1.052,6.895,1.303c1.613,0.804,9.819,5.215,13.138,13.044c2.363,5.583,3.513,16.492,4.527,26.118
				c0.393,3.734,0.766,7.26,1.161,9.93c1.345,8.998,2.043,12.743,2.071,12.903c0.015,0,0.975,2.498,1.462,3.953
				c0.2,0.602,0.452,1.153,0.661,1.61c0.415,0.906,0.69,1.505,0.331,2.042c-0.168,0.251-0.179,0.271-4.923,2.846
				c-4.183,2.271-10.499,5.7-11.755,6.714c-2.064,1.668-10.848,4.22-15.254,4.736c0.665,3.152,2.547,13.934-0.187,24.677
				c-2.635,10.363-5.331,13.37-6.368,14.183c-0.232,2.073-1.385,12.613-1.737,19.644c-0.207,4.121-0.894,7.911-1.622,11.926
				c-0.695,3.835-1.414,7.797-1.842,12.6c-0.004,0.041-0.385,5.349,0.101,11.923c0.31,4.217,0.004,7.349-0.199,9.42
				c-0.113,1.164-0.202,2.084-0.113,2.536c0.309,1.528,3.849,16.746,6.414,25.516c0.704,2.413,1.474,4.484,2.283,6.684
				c2.118,5.724,4.307,11.645,5.461,23.893c1.517,16.094,2.055,20.981,2.7,22.357c0.53,1.138,0.434,2.599,0.363,3.666
				c-0.024,0.362-0.055,0.861-0.024,1.002c0.049,0.162,0.396,0.877,0.698,1.508c1.415,2.938,2.074,4.479,1.999,5.296
				c-0.085,0.944-2.385,8.927-8.597,12.562c-5.941,3.479-27.977,11.076-43.739,12.747c-3.397,0.362-6.61,0.813-9.721,1.251
				C168.05,330.136,161.704,331.027,153.904,331.027 M41.119,102.779l0.253,0.444c0.123,0.212,0.495,0.484,0.889,0.771
				c0.471,0.342,1.003,0.729,1.485,1.264c0.722,0.803,3.981,2.8,11.618,5.209c4.955,1.563,9.905,2.088,12.565,2.371
				c2.315,0.246,2.733,0.291,2.9,0.957c0.056,0.225,0.031,0.394-0.128,1.502c-0.443,3.094-1.622,11.309-0.354,19.009
				c1.327,8.061,6.828,12.519,8.899,14.199c0.707,0.572,0.942,0.763,1.052,1.089c0.127,0.382,0.35,2.822,1.103,11.639
				c0.354,4.147,0.731,8.545,1.021,11.552c0.372,3.864,0.025,9.271-0.309,14.497c-0.287,4.508-0.56,8.765-0.287,11.172
				c0.595,5.242-0.67,12.676-1.554,14.551c-0.801,1.702-1.157,2.724-1.525,4.381c-0.169,0.754-0.2,1.586-0.233,2.39
				c-0.04,0.995-0.082,2.022-0.381,2.924c-0.101,0.301-0.458,1.191-0.983,2.502c-2.031,5.057-6.785,16.903-8.594,24.594
				c-2.21,9.405-0.416,20.138-0.397,20.246l0.033,0.192l-0.062,0.188c-1.346,4.028-1.113,10.502-1.11,10.567l0.008,0.202
				l-0.091,0.182c-1.393,2.779-1.919,4.843-2.305,6.351c-0.171,0.668-0.307,1.198-0.48,1.628c-0.493,1.235-1.338,3.934-1.346,3.961
				l-0.098,0.204c-1.397,2.091-2.179,8.006,4.86,15.416c5.363,5.644,29.646,12.472,66.623,18.729
				c7.097,1.202,13.544,1.786,19.713,1.786c7.69,0,13.982-0.885,20.646-1.821c3.12-0.439,6.35-0.892,9.771-1.255
				c15.563-1.651,37.27-9.125,43.105-12.54c5.61-3.286,7.757-10.615,7.823-11.342c0.012-0.598-1.294-3.31-1.853-4.468
				c-0.479-1-0.715-1.491-0.79-1.766c-0.108-0.377-0.079-0.861-0.035-1.534c0.059-0.894,0.14-2.121-0.219-2.891
				c-0.728-1.561-1.155-4.979-2.842-22.882c-1.135-12.04-3.287-17.864-5.366-23.494c-0.787-2.123-1.601-4.322-2.32-6.783
				c-2.58-8.813-6.138-24.112-6.444-25.65c-0.137-0.683-0.048-1.604,0.088-3.003c0.197-2.016,0.495-5.066,0.193-9.145
				c-0.493-6.699-0.101-12.115-0.098-12.169c0.435-4.886,1.161-8.887,1.863-12.755c0.719-3.961,1.396-7.703,1.599-11.725
				c0.391-7.836,1.768-19.98,1.783-20.102l0.051-0.44l0.401-0.187c0.003-0.002,2.954-1.762,5.917-13.406
				c3.079-12.114,0.013-24.678-0.021-24.804l-0.229-0.931l0.958-0.049c3.889-0.2,13.451-2.998,15.271-4.469
				c1.264-1.021,6.18-3.718,11.993-6.874c1.685-0.912,3.41-1.851,4.161-2.283c-0.072-0.168-0.169-0.376-0.251-0.559
				c-0.23-0.5-0.507-1.106-0.729-1.768c-0.488-1.469-1.469-4.016-1.469-4.016c-0.048-0.175-0.75-3.915-2.122-13.108
				c-0.402-2.703-0.777-6.247-1.174-9.998c-0.95-9.045-2.138-20.301-4.412-25.669c-3.162-7.47-11.447-11.778-12.383-12.244
				c-0.425-0.179-3.35-0.655-6.443-1.158c-6.302-1.021-15.824-2.568-23.178-4.514c-7.336-1.942-9.98-2.292-10.923-2.316
				l-0.173,0.715l-0.974-0.793c-0.049-0.039-4.943-4.062-7.99-3.613c-0.681,0.099-2.101,0.481-4.065,1.011
				c-7.279,1.96-22.424,6.037-40.043,6.504c-18.126,0.467-27.976-1.948-33.072-3.199c-1.245-0.305-2.227-0.546-2.978-0.664h-0.005
				c-1.064,0-3.672,1.288-5.575,2.228c-2.24,1.107-3.544,1.732-4.288,1.732C95.778,19.29,83.15,23.729,73.93,26.97l-1.529,0.538
				c-9.84,3.457-16.723,6.786-17.614,7.223c-0.724,0.666-6.141,5.727-7.634,9.324c-1.533,3.694-3.215,12.293-2.907,24.373
				c0.287,11.322-1.621,28.336-2.062,29.218C42.025,98.015,41.527,100.495,41.119,102.779"/>
			<g style="opacity:0.45;">
				<g>
					<path style="fill:#CCCCCC;" d="M183.163,13.791c-12.457,3.848-39.28,12.122-76.199,2.515c0,0-10.004,5.467,16.616,9.119
						c3.546,0.486,7.166,0.287,10.786,0.386c8.832,0.243,17.659-0.026,25.361-1.286c12.842-2.102,22.57-6.119,24.026-8.974"/>
				</g>
			</g>
			<g style="opacity:0.45;">
				<g>
					<path style="fill:#CCCCCC;" d="M199.076,15.244c2.238,3.458-3.298,11.336-13.06,13.324c0,0,17.127-3.107,31.247-2.404
						c14.118,0.704,17.421,13.85,17.421,13.85s1.382-5.674,1.342-8.826c-0.06-4.867,1.938-10.406-4.006-9.802
						c0,0-28.134-5.657-28.896-5.837C202.362,15.368,199.076,15.244,199.076,15.244"/>
				</g>
			</g>
			<g style="opacity:0.45;">
				<g>
					<path style="fill:#CCCCCC;" d="M229.71,68.226c0.884,14.717,8.185,8.096,8.916,8.073c0.729-0.021,0.598-0.395,0.598-0.395
						l-3.317,4.865c0,0,6.977-2.321,9.104-8.545c0,0-1.483,4.693-5.219,8.891c0,0-5.439,3.951-7.468,7.902
						c-2.028,3.952-4.562,7.767-8.267,7.464l-0.354-0.5c0,0,4.121-1.581,3.924-4.149c-0.2-2.569-3.165-5.087,1.532-22.424"/>
				</g>
			</g>
			<g style="opacity:0.45;">
				<g>
					<path style="fill:#CCCCCC;" d="M232.704,84.491c0,0-2.769,3.028-4.154,1.778c-1.383-1.25-0.952-10.357-0.952-10.357
						s-1.658,8.527-0.873,11.87c0.784,3.342,1.297,4.217,1.297,4.217l1.187-2.767l1.188-1.58L232.704,84.491z"/>
				</g>
			</g>
			<g style="opacity:0.45;">
				<g>
					<path style="fill:#CCCCCC;" d="M234.803,94.383c-5.643,1.484-9.621,1.9-9.778,1.549c-0.157-0.35,3.131-0.707,3.262-3.935
						c0,0-0.572,1.831-2.428,2.844c-1.854,1.012-2.155,0.968-2.155,0.968l1.474,2.159c0,0,3.266-1.69,5.417-2.308
						C232.747,95.043,234.803,94.383,234.803,94.383"/>
				</g>
			</g>
			<g style="opacity:0.45;">
				<g>
					<path style="fill:#CCCCCC;" d="M237.271,93.823c-0.154,0.1-0.302,0.198-0.443,0.295c-6.104,4.245,1,6.563,8.377,3.345
						c7.547-3.293,12.562-11.657,12.562-11.657l2.38,4.863c0,0-9.328,5.503-11.957,7.023c-2.631,1.519-6.046,3.963-9.912,5.081
						c-3.866,1.117-9.813,2.072-9.813,2.072l-3.286-6.877c0,0,7.025-2.602,8.508-3.233"/>
				</g>
			</g>
			<g style="opacity:0.45;">
				<g>
					<path style="fill:#CCCCCC;" d="M60.9,31.108l31.276-11.267c0.588,4.302,11.372,9.924,11.372,9.924s-30.159,0.265-36.116,9.353
						c-5.825,9.483,21.506,11.404,21.506,11.404l-5.658-0.026l-10.305-1.685L65.33,46c-2.082,14.338,1.835,41.258,1.835,41.258
						c-0.632-1.688-1.631-8.587-1.977-10.958c-0.346-2.371-0.916-8.415-2.448-17.188c-1.534-8.773-3.241-12.305-3.859-14.175
						c-0.617-1.871-2.489-9.753-2.489-9.753c-0.228-1.66-0.777-1.872-0.777-1.872L60.9,31.108z"/>
				</g>
			</g>
			<g style="opacity:0.45;">
				<g>
					<path style="fill:#CCCCCC;" d="M190.999,11.757c1.351,2.993-2.214,6.853-5.905,8.084c0,0,0.526,4.726-6.331,7.786
						c0,0,14.283-1.748,17.677-13.074l-0.91-0.264L190.999,11.757z"/>
				</g>
			</g>
			<g style="opacity:0.45;">
				<g>
					<path style="fill:#CCCCCC;" d="M163.992,23.707c8.404-1.358,9.064-2.44,8.786-2.254c-4.284,2.885-25.844,3.201-43.354,1.392
						c-12.08-1.247-22.231-3.918-23.45-5.778c0,0-2.553,1.633-0.854,3.149c1.698,1.518,13.508,5.942,39.95,5.605
						C153.811,25.709,159.847,24.377,163.992,23.707"/>
				</g>
			</g>
			<g style="opacity:0.45;">
				<g>
					<path style="fill:#CCCCCC;" d="M153.46,149.356c-20.736-0.378-28.372,7.637-39.715,9.482c0,0,21.002-4.741,36.5-4.741
						s34.717,2.897,35.772,2.897C187.073,156.995,167.854,149.619,153.46,149.356"/>
				</g>
			</g>
			<g style="opacity:0.45;">
				<g>
					<path style="fill:#CCCCCC;" d="M230.935,60.124c0.217-2.847,3.127-14.675,4.674-24.702c1.545-10.026-0.29-13.29-0.29-13.29
						h0.984l2.746,1.232l4.113,2.903l3.271,3.146l3.151,4.616l2.355,7.685l1.101,9.893c0.003,0.007,0.005,0.011,0.005,0.018
						c2.022,16.046,4.555,32.43,4.555,32.43l-5.928,1.751l-3.231,1.995c0,0,4.572-7.317,3.256-16.74
						c-1.322-9.423-2.962-32.882-6.493-37.354c-2.034-2.647-4.414-3.729-5.373-2.907c-1.571,1.344-1.72,16.203-9.435,31.107
						L230.935,60.124z"/>
				</g>
			</g>
			<g style="opacity:0.45;">
				<g>
					<path style="fill:#CCCCCC;" d="M225.024,98.372c6.624,24.379-2.876,40.973-5.775,44.398c-2.9,3.426,1.849,6.574,1.849,6.574
						l0.499-5.13c0,0,5.114-7.976,6.924-16.563c1.808-8.588,0.368-17.286-0.361-21.498
						C227.427,101.941,225.024,98.372,225.024,98.372"/>
				</g>
			</g>
			<g style="opacity:0.45;">
				<g>
					<path style="fill:#CCCCCC;" d="M227.23,253.835c-18.692-21.832-14.284-23.464-19.356-37.813c0,0,8.277,20.032,13.224,24.277
						c0,0-8.111-12.346-9.297-27.459c-1.188-15.114-4.748-26.771-4.748-26.771l8.507,24.596l0.988-4.346
						c0,0-6.878-17.445-9.495-27.799c0,0,3.956,5.67,8.408,4.387c0,0-2.475-4.61-1.682-9.716c0.791-5.1,1.488-5.494,1.488-5.494
						s-1.916,9.48,1.759,14.915c0,0-1.149,12.951-0.574,18.203c0.574,5.25,0.308,7.792-0.344,11.538c0,0,4.645,21.117,6.907,27.508
						C225.28,246.255,227.23,253.835,227.23,253.835"/>
				</g>
			</g>
			<g style="opacity:0.45;">
				<g>
					<path style="fill:#CCCCCC;" d="M233.532,296.451c-9.196,14.595-16.269,14.824-16.269,14.824
						c17.793-10.883,5.943-34.688,11.136-54.808l1.666,10.372"/>
				</g>
			</g>
			<g style="opacity:0.45;">
				<g>
					<path style="fill:#CCCCCC;" d="M114.676,324.878c55.251,5.84,100.303-11.465,100.303-11.465s13.767-5.479,18.252-18.124
						l2.806,7.271c0,0-1.348,7.729-8.21,11.952c-6.862,4.221-32.626,13.145-62.276,15.069c-29.65,1.926-39.519-2.546-39.519-2.546"
						/>
				</g>
			</g>
			<g style="opacity:0.45;">
				<g>
					<path style="fill:#CCCCCC;" d="M80.882,305.922c0,0-10.924-15.291-9.342-22.049c0,0-2.908-8.897,1.711-9.145l4.662,1.877
						c0,0-6.108-8.358-5.843-24.778c0.263-16.424,6.668-25.906,7.554-28.232c0.886-2.324,0.624-7.594,3.26-11.545
						c2.636-3.95,0.431-12.16,3.187-18.43l2.582-5.89c0,0-3.658,2.257-4.713-3.704c-1.055-5.956-3.056-17.613-3.056-17.613
						s1.127,13.563,0.64,17.613c-0.486,4.053-0.64,16.961-0.64,16.961l-0.389,8.063l-1.447,4.75l-1.072,3.413l-0.593,5.235
						l-2.826,7.134l-4.549,12.428l-3.127,9.291l-0.203,7.903l0.203,6.642l0.942,4.153l-1.145,3.205l-0.457,5.761l-1.239,4.908
						l-1.202,5.84c0,0,3.977,7.804,6.255,9.732C72.311,301.373,80.882,305.922,80.882,305.922"/>
				</g>
			</g>
			<g style="opacity:0.45;">
				<g>
					<path style="fill:#CCCCCC;" d="M71.278,299.108c-4.616-11.328-2.769-17.649-2.769-17.649s-1.188-7.771,1.979-9.219l-3.43-5.136
						l0.32,3.068c0,0-0.849,4.041-0.981,4.964c-0.131,0.924-0.094,4.921-0.131,5.4c-0.037,0.482-1.978,4.347-1.978,4.347
						l-0.51,4.829l3.748,7.103"/>
				</g>
			</g>
			<g style="opacity:0.45;">
				<g>
					<path style="fill:#CCCCCC;" d="M81.146,190.099c1.739,4.433,13.046-13.155,13.046-13.155s-5.94,9.758-7.373,13.87
						c-1.43,4.115-5.518,13.859-5.518,13.859L81.146,190.099z"/>
				</g>
			</g>
			<g style="opacity:0.45;">
				<g>
					<path style="fill:#CCCCCC;" d="M90.041,184.146c-6.498,10.122-8.357,12.892-8.878,7.489l0.139,13.038l5.407-13.434"/>
				</g>
			</g>
			<g style="opacity:0.45;">
				<g>
					<path style="fill:#CCCCCC;" d="M60.06,104.845c0,0,7.922,2.299,6.042,5.065c-1.879,2.765-21.334-3.063-22.651-8.199
						c-1.315-5.137,3.681-2.371,3.681-2.371l-5.489-2.879l-1.354,6.461l2.294,2.318l13.819,6.36l12.607,2.161l1.05,0.297
						c0,0,1.113-4.016,0.791-4.742c-0.322-0.726-0.182-3.408-0.182-3.408s-2.909,0.125-6-0.419
						C61.578,104.946,60.06,104.845,60.06,104.845"/>
				</g>
			</g>
			<g style="opacity:0.45;">
				<g>
					<path style="fill:#CCCCCC;" d="M63.713,105.129c4.417-1.098,2.067-4.827-0.208-6.184c-2.275-1.359-6.972-6.767-6.972-6.767
						l6.404,4.593l1.607,1.087c0,0,1.112-2.026,0.123-4.001c-0.988-1.976-5.604-9.002-5.604-9.002s-4.065-6.452-4.96-7.988
						c-0.035-0.058-0.064-0.111-0.087-0.156c0,0,8.081,8.488,8.97,7.269c0.89-1.22-1.993-7.855-1.993-7.855s3.035,4.552,3.725,3.113
						c0.689-1.438,0.596-2.074,0.596-2.074s1.144,9.308,2.119,11.36c0.976,2.051,3.232,7.035,2.96,7.938
						c-0.272,0.903-0.037,1.942,0.023,3.126s1.168,3.753,0.778,4.396c-0.393,0.642-0.526,1.926-0.526,1.926l-4.612-0.216"/>
				</g>
			</g>
			<g style="opacity:0.45;">
				<g>
					<path style="fill:#CCCCCC;" d="M60.9,49.529c-7.559-6.396-14.086,4.667-14.284,7.236c-0.198,2.569-3.15,12.453-3.15,12.453
						l1.135-18.564l1.82-6.901l4.662-6.438l5.318-4.222l1.082,8.394"/>
				</g>
			</g>
			<g style="opacity:0.45;">
				<g>
					<path style="fill:#CCCCCC;" d="M221.597,144.213c-22.027,5.535-8.942,25.411-7.058,36.45
						c1.887,11.039,1.791,13.747,1.791,13.747l0.934-12.878l2.064-12.222"/>
				</g>
			</g>
			<g style="opacity:0.45;">
				<g>
					<path style="fill:#CCCCCC;" d="M71.183,104.313c-1.746,26.804,3.723,36.021,9.699,42.738c2.029,2.281,3.775,4.239,4.843,6.017
						c4.389,1.681,11.28,3.419,21.245,3.564c6.906,0.101-16.22,9.188-25.824,29.339l0.444-15.442l-2.042-20.685
						c0,0-5.632-3.583-9.156-12.086C66.868,129.252,71.183,104.313,71.183,104.313"/>
				</g>
			</g>
			<path d="M172.554,16.622c9.215-1.405,14.211-5.302,16.398-3.12c2.186,2.183-15.305,12.166-45.136,12.633
				c-29.829,0.468-39.195-4.702-40.132-6.641c-0.936-1.939,3.281-3.188,3.281-3.188s-1.148,1.103-0.781,3.203
				c0.367,2.101,8.378,5.745,36.448,5.745c28.068,0,38.773-9.385,38.773-9.385s-4.846,1.482-9.691,0.791"/>
			<path d="M187.505,24.892c7.606-3.567,8.935-9.911,8.935-9.911c-2.472,8.891-19.881,15.806-47.379,16.398
				c-27.497,0.592-49.258-0.889-52.126-12.545l-1.479-0.184c0,0,1.182,13.882,40.483,13.486
				C158.328,31.911,177.437,29.614,187.505,24.892"/>
			<path d="M235.531,22.283c2.103,11.696-3.435,26.712-4.623,36.327c-1.189,9.615-6.33,24.629-4.089,30.292
				c2.24,5.662-3.297,6.847-3.297,6.847s3.138,3.685,4.013,10.403l0.928-1.308c0,0,1.109-0.665-4.133-8.864
				c0,0,3.413-1.53,3.956-3.506c0.544-1.976-1.136-3.21-1.583-7.063c-0.444-3.852,2.721-13.706,4.601-25.979
				c1.88-12.274,4.55-19.559,5.142-26.671c0.596-7.112-0.592-10.372-0.592-10.372"/>
			<path d="M70.228,113.762c1.087-2.995,0.295-7.737,0.956-9.449c0.659-1.712-1.352-5.27-0.478-7.508
				c0.872-2.237-3.083-3.95-4.667-15.672c-1.583-11.723-3.427-28.056-6.197-34.773c-2.771-6.717-3.174-13.536-3.174-13.536
				l-1.052,0.486c0,0,1.356,8.44,3.781,13.28c2.423,4.84,4.945,24.152,5.638,29.585c0.692,5.433,2.44,14.537,4.056,17.583
				c1.615,3.046,0.741,3.753,1.138,5.926c0.396,2.174,1.334,3.506,0.444,5.235c-0.891,1.729,0.996,5.687-1.38,8.623"/>
			<path d="M71.193,103.453c-3.716-0.063-2.763-2.91-6.883-5.504c-4.118-2.594-15.333-6.962-16.345-26.888
				c0.761,15.816,12.546,24.103,15.712,25.938c3.165,1.835,4.27,4.62,5.89,5.378c1.619,0.757,1.541,0.197,1.541,0.197"/>
			<path d="M70.425,106.001c-2.622,0.303-8.161-0.932-11.326-1.278c-3.166-0.345-9.644-3.853-12.167-5.136
				c-2.522-1.285-4.797-3.013-4.797-3.013v-0.593c0,0,2.375,2.075,4.996,3.359c2.621,1.284,7.468,4.297,12.067,5.038
				c4.599,0.741,9.238,1.673,11.469,1.404"/>
			<path d="M70.063,96.462c-1.914-0.513-3.891-4.792-8.441-8.875c-4.551-4.084-11.736-15.608-12.792-22.655
				c1.009,2.604,2.787,7.469,5.406,11.987c2.349,4.048,5.454,7.756,7.98,10.339c5.341,5.465,5.739,8.031,8.177,8.723"/>
			<path d="M67.433,87.801c-3.833-1.862-7.723-18.326-13.063-23.857c0,0,3.431,3.631,5.146,7.578
				c1.711,3.946,5.265,13.928,7.576,15.061"/>
			<path d="M225.566,97.968c4.603-2.875,13.604-3.468,19.638-8.012c6.033-4.544,12.562-6.125,12.562-6.125V83.37
				c0,0-8.671,2.963-11.771,5.762c-3.102,2.8-12.99,5.598-16.222,6.783c-3.231,1.186-4.749,1.747-4.749,1.747"/>
			<path d="M228.305,90.968c1.765-5.162,9.677-10.001,12.051-19.188c2.376-9.187,4.849-11.656,4.849-11.656
				s-3.563,5.729-4.253,11.952c-0.692,6.224-10.286,12.897-12.665,20.398"/>
			<path d="M235.906,89.067c1.384-6.816,5.538-9.385,7.813-14.324s3.362-10.525,3.362-10.525s-0.396,5.981-2.868,10.921
				c-2.475,4.939-7.219,7.902-8.308,14.719"/>
			<path d="M60.901,42.277c0.918,5.4,19.779,8.955,30.592,8.298c-5.521,0.006-22.674-0.924-30.592-9.089"/>
			<path d="M172.91,154.275c-12.467-1.565-26.378-4.198-39.082,0.752v0.125c8.259-2.014,26.516-1.489,39.263-0.719
				C173.033,154.382,172.972,154.329,172.91,154.275"/>
			<path d="M81.112,205.6c3.128-10.146,9.195-26.477,15.525-31.879c-4.088,3.558-13.463,25.878-15.755,33.729"/>
			<path d="M217.026,206.066c-8.59-18.036-12.971-39.653-12.971-39.653s4.154,23.509,12.444,42.636"/>
			<path d="M217.264,182.378c-3.113-6.359-1.83-16.968-1.635-20.015c-0.099,6.024-2.471,12.938,1.397,21.664"/>
			<path d="M67.465,269.44c3.19,5.83,12.159,7.674,12.159,7.674s-9.927-1.715-12.745-14.227"/>
			<path d="M63.583,288.834c2.059,11.064,17.492,22.653,57.451,29.636c39.962,6.98,48.269,4.874,63.964,1.714
				c15.695-3.163,42.204-4.61,48.534-24.367c0,0-3.557,7.615-11.975,13.374c-7.698,5.263-46.135,12.577-51.767,12.916
				c-23.865,1.434-33.367-1.491-48.65-4.741c-18.964-4.031-49.595-7.454-57.558-30.373"/>
			<path d="M225.024,244.889c-14.173-9.921-20.969-42.585-20.969-42.585s6.484,28.61,20.267,40.093"/>
			<path d="M153.904,331.027c-6.258,0-12.793-0.591-19.979-1.808c-21.922-3.712-59.845-11.142-67.503-19.203
				c-7.625-8.024-6.694-14.743-5.095-17.277c0.163-0.522,0.89-2.811,1.356-3.975c0.144-0.358,0.263-0.836,0.417-1.436
				c0.372-1.455,0.93-3.639,2.331-6.483c-0.029-1.16-0.111-6.811,1.136-10.736c-0.25-1.562-1.696-11.549,0.45-20.676
				c1.834-7.808,6.619-19.731,8.665-24.821c0.507-1.267,0.853-2.126,0.948-2.415c0.229-0.688,0.266-1.562,0.304-2.486
				c0.033-0.873,0.07-1.776,0.269-2.669c0.392-1.768,0.791-2.91,1.64-4.71c0.689-1.463,2.001-8.513,1.412-13.701
				c-0.288-2.544-0.014-6.871,0.279-11.45c0.332-5.165,0.674-10.507,0.313-14.246c-0.289-3.011-0.666-7.415-1.023-11.568
				c-0.405-4.767-0.865-10.134-1.013-11.175c-0.121-0.11-0.314-0.261-0.561-0.46c-2.198-1.782-8.038-6.517-9.462-15.17
				c-1.308-7.941-0.104-16.331,0.349-19.489c0.026-0.189,0.052-0.355,0.072-0.499c-0.379-0.052-0.917-0.109-1.445-0.164
				c-2.715-0.29-7.769-0.826-12.874-2.436c-7.437-2.345-11.239-4.46-12.319-5.657c-0.371-0.412-0.814-0.734-1.24-1.045
				c-0.537-0.391-1.042-0.757-1.333-1.266l-0.536-0.939l0.049-0.281c0.273-1.549,0.945-5.219,1.259-5.847
				c0.25-0.869,2.189-16.868,1.893-28.47c-0.313-12.327,1.435-21.183,3.029-25.019c1.729-4.165,7.852-9.729,8.113-9.963l0.176-0.121
				c0.071-0.035,7.289-3.621,17.895-7.348l1.529-0.538c13.414-4.715,22.307-7.805,23.66-7.805c0.442-0.016,2.26-0.914,3.586-1.57
				c3.098-1.529,5.341-2.556,6.527-2.372c0.819,0.128,1.829,0.376,3.11,0.69c5.026,1.232,14.793,3.638,32.65,3.153
				c17.434-0.462,32.455-4.505,39.673-6.45c2.097-0.564,3.478-0.936,4.251-1.05c3.153-0.472,7.636,2.73,8.889,3.693
				c0.148-0.019,0.285-0.019,0.376-0.019c1.619,0,5.571,0.819,11.429,2.369c7.279,1.926,16.756,3.465,23.027,4.484
				c4.801,0.779,6.393,1.052,6.895,1.303c1.613,0.804,9.819,5.215,13.138,13.044c2.363,5.583,3.513,16.492,4.527,26.118
				c0.393,3.734,0.766,7.26,1.161,9.93c1.345,8.998,2.043,12.743,2.071,12.903c0.015,0,0.975,2.498,1.462,3.953
				c0.2,0.602,0.452,1.153,0.661,1.61c0.415,0.906,0.69,1.505,0.331,2.042c-0.168,0.251-0.179,0.271-4.923,2.846
				c-4.183,2.271-10.499,5.7-11.755,6.714c-2.064,1.668-10.848,4.22-15.254,4.736c0.665,3.152,2.547,13.934-0.187,24.677
				c-2.635,10.363-5.331,13.37-6.368,14.183c-0.232,2.073-1.385,12.613-1.737,19.644c-0.207,4.121-0.894,7.911-1.622,11.926
				c-0.695,3.835-1.414,7.797-1.842,12.6c-0.004,0.041-0.385,5.349,0.101,11.923c0.31,4.217,0.004,7.349-0.199,9.42
				c-0.113,1.164-0.202,2.084-0.113,2.536c0.309,1.528,3.849,16.746,6.414,25.516c0.704,2.413,1.474,4.484,2.283,6.684
				c2.118,5.724,4.307,11.645,5.461,23.893c1.517,16.094,2.055,20.981,2.7,22.357c0.53,1.138,0.434,2.599,0.363,3.666
				c-0.024,0.362-0.055,0.861-0.024,1.002c0.049,0.162,0.396,0.877,0.698,1.508c1.415,2.938,2.074,4.479,1.999,5.296
				c-0.085,0.944-2.385,8.927-8.597,12.562c-5.941,3.479-27.977,11.076-43.739,12.747c-3.397,0.362-6.61,0.813-9.721,1.251
				C168.05,330.136,161.704,331.027,153.904,331.027 M41.119,102.779l0.253,0.444c0.123,0.212,0.495,0.484,0.889,0.771
				c0.471,0.342,1.003,0.729,1.485,1.264c0.722,0.803,3.981,2.8,11.618,5.209c4.955,1.563,9.905,2.088,12.565,2.371
				c2.315,0.246,2.733,0.291,2.9,0.957c0.056,0.225,0.031,0.394-0.128,1.502c-0.443,3.094-1.622,11.309-0.354,19.009
				c1.327,8.061,6.828,12.519,8.899,14.199c0.707,0.572,0.942,0.763,1.052,1.089c0.127,0.382,0.35,2.822,1.103,11.639
				c0.354,4.147,0.731,8.545,1.021,11.552c0.372,3.864,0.025,9.271-0.309,14.497c-0.287,4.508-0.56,8.765-0.287,11.172
				c0.595,5.242-0.67,12.676-1.554,14.551c-0.801,1.702-1.157,2.724-1.525,4.381c-0.169,0.754-0.2,1.586-0.233,2.39
				c-0.04,0.995-0.082,2.022-0.381,2.924c-0.101,0.301-0.458,1.191-0.983,2.502c-2.031,5.057-6.785,16.903-8.594,24.594
				c-2.21,9.405-0.416,20.138-0.397,20.246l0.033,0.192l-0.062,0.188c-1.346,4.028-1.113,10.502-1.11,10.567l0.008,0.202
				l-0.091,0.182c-1.393,2.779-1.919,4.843-2.305,6.351c-0.171,0.668-0.307,1.198-0.48,1.628c-0.493,1.235-1.338,3.934-1.346,3.961
				l-0.098,0.204c-1.397,2.091-2.179,8.006,4.86,15.416c5.363,5.644,29.646,12.472,66.623,18.729
				c7.097,1.202,13.544,1.786,19.713,1.786c7.69,0,13.982-0.885,20.646-1.821c3.12-0.439,6.35-0.892,9.771-1.255
				c15.563-1.651,37.27-9.125,43.105-12.54c5.61-3.286,7.757-10.615,7.823-11.342c0.012-0.598-1.294-3.31-1.853-4.468
				c-0.479-1-0.715-1.491-0.79-1.766c-0.108-0.377-0.079-0.861-0.035-1.534c0.059-0.894,0.14-2.121-0.219-2.891
				c-0.728-1.561-1.155-4.979-2.842-22.882c-1.135-12.04-3.287-17.864-5.366-23.494c-0.787-2.123-1.601-4.322-2.32-6.783
				c-2.58-8.813-6.138-24.112-6.444-25.65c-0.137-0.683-0.048-1.604,0.088-3.003c0.197-2.016,0.495-5.066,0.193-9.145
				c-0.493-6.699-0.101-12.115-0.098-12.169c0.435-4.886,1.161-8.887,1.863-12.755c0.719-3.961,1.396-7.703,1.599-11.725
				c0.391-7.836,1.768-19.98,1.783-20.102l0.051-0.44l0.401-0.187c0.003-0.002,2.954-1.762,5.917-13.406
				c3.079-12.114,0.013-24.678-0.021-24.804l-0.229-0.931l0.958-0.049c3.889-0.2,13.451-2.998,15.271-4.469
				c1.264-1.021,6.18-3.718,11.993-6.874c1.685-0.912,3.41-1.851,4.161-2.283c-0.072-0.168-0.169-0.376-0.251-0.559
				c-0.23-0.5-0.507-1.106-0.729-1.768c-0.488-1.469-1.469-4.016-1.469-4.016c-0.048-0.175-0.75-3.915-2.122-13.108
				c-0.402-2.703-0.777-6.247-1.174-9.998c-0.95-9.045-2.138-20.301-4.412-25.669c-3.162-7.47-11.447-11.778-12.383-12.244
				c-0.425-0.179-3.35-0.655-6.443-1.158c-6.302-1.021-15.824-2.568-23.178-4.514c-7.336-1.942-9.98-2.292-10.923-2.316
				l-0.173,0.715l-0.974-0.793c-0.049-0.039-4.943-4.062-7.99-3.613c-0.681,0.099-2.101,0.481-4.065,1.011
				c-7.279,1.96-22.424,6.037-40.043,6.504c-18.126,0.467-27.976-1.948-33.072-3.199c-1.245-0.305-2.227-0.546-2.978-0.664h-0.005
				c-1.064,0-3.672,1.288-5.575,2.228c-2.24,1.107-3.544,1.732-4.288,1.732C95.778,19.29,83.15,23.729,73.93,26.97l-1.529,0.538
				c-9.84,3.457-16.723,6.786-17.614,7.223c-0.724,0.666-6.141,5.727-7.634,9.324c-1.533,3.694-3.215,12.293-2.907,24.373
				c0.287,11.322-1.621,28.336-2.062,29.218C42.025,98.015,41.527,100.495,41.119,102.779"/>
		</g>
	</g>
	<line style="fill:none;stroke:#000000;stroke-width:0.3;" x1="39.46" y1="-43.972" x2="39.46" y2="-7.972"/>
	<line style="fill:none;stroke:#000000;stroke-width:0.3;" x1="-14.54" y1="10.028" x2="21.46" y2="10.028"/>
	<line style="fill:none;stroke:#000000;stroke-width:0.3;" x1="-14.54" y1="331.027" x2="21.46" y2="331.027"/>
	<line style="fill:none;stroke:#000000;stroke-width:0.3;" x1="39.46" y1="385.027" x2="39.46" y2="349.027"/>
	<line style="fill:none;stroke:#000000;stroke-width:0.3;" x1="260.995" y1="-43.972" x2="260.995" y2="-7.972"/>
	<line style="fill:none;stroke:#000000;stroke-width:0.3;" x1="314.995" y1="10.028" x2="278.995" y2="10.028"/>
	<line style="fill:none;stroke:#000000;stroke-width:0.3;" x1="314.995" y1="331.027" x2="278.995" y2="331.027"/>
	<line style="fill:none;stroke:#000000;stroke-width:0.3;" x1="260.995" y1="385.027" x2="260.995" y2="349.027"/>
</g>
</svg>
