<?xml version="1.0" encoding="utf-8"?>
<!-- Generator: Adobe Illustrator 16.0.0, SVG Export Plug-In . SVG Version: 6.00 Build 0)  -->
<!DOCTYPE svg PUBLIC "-//W3C//DTD SVG 1.1//EN" "http://www.w3.org/Graphics/SVG/1.1/DTD/svg11.dtd">
<svg version="1.1" id="Layer_1" xmlns="http://www.w3.org/2000/svg" xmlns:xlink="http://www.w3.org/1999/xlink" x="0px" y="0px"
	 width="300px" height="340px" viewBox="0 0 300 340" style="enable-background:new 0 0 300 340;" xml:space="preserve">
<g>
	<path style="fill:#FFFFFF;" d="M193.4,14.308c-4.017,0.627-13.552,4.451-35.904,3.857c-22.354-0.593-40.653-7.023-44.016-7.518
		c-3.364-0.494-8.604,3.789-8.604,3.789s-0.199-0.82-11.771,2.246c-11.573,3.065-28.585,5.144-29.772,5.736
		c-1.189,0.594-9.498,4.945-12.762,12.661c-3.264,7.714-4.252,26.606-5.639,35.903c-1.383,9.299-2.076,12.959-2.076,12.959
		s-0.988,2.57-1.484,4.055c-0.493,1.482-1.284,2.67-1.088,2.967c0.199,0.297,14.441,7.715,16.52,9.396
		c2.075,1.682,11.868,4.453,15.725,4.648c0,0-3.182,12.76-0.016,25.223c3.164,12.465,6.348,13.947,6.348,13.947
		s1.385,12.168,1.781,20.078c0.396,7.916,2.571,14.541,3.461,24.531c0,0,0.396,5.342-0.099,12.068s0.595,10.584,0.296,12.066
		c-0.296,1.484-3.857,16.814-6.428,25.617c-2.575,8.805-6.133,13.652-7.715,30.467s-2.078,21.168-2.77,22.65
		c-0.693,1.482-0.1,3.857-0.3,4.551c-0.194,0.691-2.769,5.439-2.666,6.527c0.099,1.088,2.472,8.605,8.207,11.969
		s27.598,10.979,43.424,12.66s27.003,5.242,50.347,1.285c23.343-3.957,59.743-11.275,67.061-18.99
		c7.32-7.715,6.528-14.045,4.946-16.418c0,0-0.856-2.746-1.368-4.025c-0.51-1.275-0.767-3.961-2.81-8.051
		c0,0,0.255-6.645-1.15-10.859c0,0,1.867-10.895-0.408-20.586c-2.275-9.695-9.1-25.719-9.595-27.203
		c-0.494-1.482-0.198-3.459-0.593-5.242c-0.396-1.779-0.792-2.867-1.584-4.549c-0.79-1.682-2.074-8.902-1.483-14.145
		c0.594-5.244-1.286-18.496-0.591-25.717c0.69-7.221,1.889-22.453,2.084-23.047c0.199-0.594,8.301-5.213,9.979-15.432
		c1.585-9.625-0.594-20.078-0.493-20.473c0.1-0.398,7.419-0.398,14.936-2.77c7.519-2.375,11.077-4.451,11.969-5.441
		c0.889-0.988,2.077-1.482,2.473-2.176l0.396-0.693c0,0-0.891-5.043-1.188-5.637c-0.296-0.594-2.274-17.213-1.978-28.883
		s-1.286-20.672-2.969-24.729c-1.68-4.055-7.912-9.693-7.912-9.693s-7.122-3.56-17.804-7.318
		c-10.684-3.76-23.541-8.309-24.925-8.309C202.007,18.265,195.261,14.017,193.4,14.308"/>
	<path d="M146.553,331.239c-7.803,0-14.146-0.893-20.864-1.838c-3.11-0.438-6.324-0.889-9.72-1.252
		c-15.764-1.674-37.798-9.281-43.741-12.764c-6.211-3.641-8.51-11.633-8.596-12.578c-0.074-0.818,0.584-2.359,1.998-5.303
		c0.305-0.633,0.648-1.348,0.699-1.512c0.031-0.139,0-0.639-0.025-1c-0.071-1.07-0.166-2.533,0.365-3.672
		c0.643-1.379,1.184-6.273,2.699-22.391c1.155-12.26,3.342-18.189,5.461-23.922c0.811-2.201,1.58-4.277,2.283-6.689
		c2.566-8.785,6.105-24.021,6.413-25.551c0.091-0.453,0-1.375-0.112-2.541c-0.203-2.074-0.508-5.209-0.197-9.432
		c0.482-6.582,0.101-11.896,0.098-11.939c-0.428-4.807-1.145-8.777-1.84-12.615c-0.729-4.02-1.416-7.816-1.623-11.943
		c-0.352-7.039-1.504-17.594-1.736-19.67c-1.037-0.813-3.734-3.824-6.369-14.201c-2.732-10.758-0.852-21.553-0.188-24.709
		c-4.407-0.516-13.189-3.07-15.252-4.742c-1.256-1.016-7.576-4.449-11.754-6.723c-4.744-2.578-4.756-2.598-4.926-2.85
		c-0.359-0.537-0.082-1.137,0.332-2.045c0.209-0.457,0.463-1.008,0.664-1.611c0.485-1.457,1.444-3.959,1.459-3.959
		c0.029-0.16,0.729-3.91,2.069-12.92c0.397-2.674,0.771-6.205,1.163-9.943c1.014-9.639,2.164-20.564,4.527-26.152
		c3.318-7.839,11.523-12.256,13.137-13.061c0.502-0.252,2.096-0.525,6.896-1.306c6.271-1.021,15.746-2.562,23.026-4.489
		c5.857-1.552,9.809-2.371,11.429-2.371c0.091,0,0.228,0,0.376,0.018c1.253-0.965,5.736-4.172,8.89-3.699
		c0.771,0.115,2.156,0.488,4.25,1.051c7.22,1.947,22.239,5.996,39.673,6.459c17.858,0.485,27.625-1.923,32.651-3.158
		c1.282-0.313,2.29-0.563,3.11-0.689c1.186-0.184,3.428,0.844,6.525,2.374c1.327,0.658,3.146,1.558,3.588,1.571
		c1.353,0,10.244,3.096,23.66,7.816l1.527,0.539c10.607,3.732,17.823,7.322,17.896,7.357l0.175,0.121
		c0.263,0.234,6.386,5.805,8.116,9.977c1.591,3.842,3.341,12.709,3.026,25.053c-0.295,11.615,1.645,27.637,1.896,28.508
		c0.313,0.627,0.985,4.303,1.259,5.854l0.048,0.281l-0.535,0.941c-0.291,0.508-0.797,0.875-1.332,1.268
		c-0.427,0.311-0.87,0.633-1.242,1.047c-1.078,1.197-4.882,3.314-12.316,5.664c-5.105,1.611-10.16,2.146-12.874,2.438
		c-0.528,0.057-1.066,0.113-1.445,0.164c0.02,0.143,0.044,0.311,0.07,0.502c0.452,3.16,1.656,11.563,0.348,19.514
		c-1.423,8.664-7.263,13.404-9.462,15.189c-0.247,0.199-0.438,0.352-0.56,0.461c-0.148,1.043-0.608,6.418-1.015,11.189
		c-0.354,4.158-0.733,8.57-1.021,11.586c-0.362,3.742-0.021,9.092,0.311,14.264c0.292,4.584,0.567,8.918,0.28,11.467
		c-0.59,5.193,0.723,12.252,1.413,13.717c0.849,1.803,1.248,2.947,1.639,4.717c0.199,0.893,0.236,1.799,0.27,2.672
		c0.037,0.928,0.073,1.801,0.303,2.49c0.095,0.291,0.442,1.15,0.947,2.418c2.047,5.098,6.832,17.035,8.666,24.854
		c2.146,9.141,0.699,19.143,0.449,20.705c1.249,3.93,1.166,9.588,1.135,10.75c1.404,2.848,1.961,5.035,2.334,6.492
		c0.153,0.598,0.272,1.078,0.415,1.438c0.467,1.166,1.194,3.457,1.358,3.979c1.598,2.537,2.529,9.266-5.096,17.301
		c-7.658,8.072-45.581,15.512-67.503,19.229C159.344,330.647,152.811,331.239,146.553,331.239 M259.337,102.69
		c-0.407-2.287-0.906-4.771-1.065-5.141c-0.44-0.883-2.349-17.92-2.063-29.256c0.31-12.096-1.371-20.707-2.906-24.406
		c-1.492-3.602-6.909-8.67-7.633-9.336c-0.892-0.437-7.773-3.771-17.614-7.232l-1.529-0.538c-9.222-3.243-21.849-7.69-23.134-7.726
		c-0.744,0-2.051-0.627-4.288-1.736c-1.905-0.939-4.512-2.229-5.576-2.229h-0.005c-0.752,0.117-1.732,0.357-2.978,0.664
		c-5.096,1.25-14.946,3.67-33.071,3.203c-17.621-0.47-32.766-4.551-40.043-6.514c-1.966-0.529-3.385-0.914-4.066-1.012
		c-3.046-0.45-7.94,3.578-7.99,3.617l-0.975,0.795l-0.172-0.717c-0.943,0.023-3.587,0.375-10.923,2.319
		c-7.354,1.948-16.875,3.497-23.176,4.521c-3.098,0.504-6.02,0.979-6.445,1.158c-0.934,0.467-9.221,4.78-12.385,12.262
		c-2.276,5.373-3.459,16.646-4.41,25.703c-0.395,3.754-0.771,7.303-1.172,10.01c-1.373,9.207-2.076,12.951-2.123,13.125
		c0,0-0.98,2.551-1.471,4.021c-0.221,0.662-0.496,1.27-0.726,1.77c-0.085,0.182-0.181,0.393-0.25,0.561
		c0.747,0.432,2.476,1.373,4.157,2.285c5.814,3.16,10.73,5.861,11.994,6.885c1.82,1.473,11.383,4.273,15.271,4.473l0.959,0.049
		l-0.232,0.934c-0.031,0.125-3.1,12.707-0.02,24.836c2.961,11.658,5.913,13.422,5.916,13.424l0.4,0.188l0.054,0.441
		c0.013,0.121,1.39,12.281,1.782,20.127c0.203,4.027,0.881,7.773,1.598,11.738c0.704,3.875,1.428,7.883,1.863,12.773
		c0.004,0.055,0.396,5.479-0.1,12.184c-0.301,4.086-0.002,7.141,0.195,9.16c0.137,1.398,0.227,2.322,0.09,3.006
		c-0.309,1.539-3.867,16.859-6.447,25.684c-0.717,2.465-1.533,4.666-2.316,6.793c-2.081,5.639-4.234,11.467-5.367,23.525
		c-1.689,17.924-2.115,21.348-2.842,22.912c-0.359,0.77-0.281,1.998-0.221,2.896c0.043,0.67,0.074,1.156-0.033,1.535
		c-0.077,0.273-0.313,0.766-0.793,1.766c-0.559,1.16-1.861,3.875-1.85,4.475c0.065,0.727,2.211,8.066,7.822,11.355
		c5.838,3.422,27.543,10.904,43.104,12.559c3.424,0.363,6.651,0.816,9.773,1.256c6.662,0.938,12.954,1.822,20.645,1.822
		c6.169,0,12.616-0.582,19.714-1.787c36.977-6.268,61.257-13.104,66.62-18.754c7.039-7.422,6.258-13.344,4.86-15.438l-0.097-0.205
		c-0.008-0.025-0.854-2.729-1.346-3.963c-0.173-0.434-0.31-0.963-0.48-1.633c-0.385-1.508-0.912-3.574-2.305-6.357l-0.091-0.182
		l0.008-0.203c0.003-0.066,0.235-6.549-1.11-10.58l-0.062-0.189l0.031-0.193c0.021-0.109,1.813-10.855-0.396-20.273
		c-1.81-7.699-6.563-19.561-8.594-24.625c-0.525-1.313-0.883-2.203-0.983-2.506c-0.3-0.902-0.341-1.932-0.382-2.928
		c-0.031-0.805-0.063-1.639-0.232-2.395c-0.369-1.658-0.725-2.68-1.525-4.385c-0.884-1.877-2.148-9.322-1.555-14.57
		c0.274-2.41,0.001-6.672-0.285-11.186c-0.334-5.234-0.682-10.648-0.31-14.518c0.288-3.01,0.667-7.416,1.02-11.568
		c0.754-8.828,0.977-11.271,1.104-11.652c0.109-0.328,0.345-0.52,1.052-1.092c2.071-1.682,7.571-6.146,8.899-14.217
		c1.267-7.715,0.09-15.938-0.354-19.035c-0.159-1.109-0.184-1.279-0.129-1.504c0.168-0.668,0.586-0.713,2.901-0.957
		c2.66-0.285,7.61-0.811,12.566-2.375c7.634-2.412,10.895-4.412,11.616-5.217c0.483-0.533,1.016-0.922,1.485-1.266
		c0.396-0.287,0.767-0.559,0.889-0.771L259.337,102.69z"/>
	<path style="opacity:0.45;fill:#CCCCCC;" d="M113.629,263.935c5.667,14,33.667,24.334,56,20.334c0,0-17.666,9-30.333,9
		c0,0,44,8.334,75-31c0,0-18.112,11.535-40,21c0,0,3.999-2,6.666-6c0,0-42,10.332-68-15.334"/>
	<g style="opacity:0.45;">
		<g>
			<rect x="64.154" y="15.039" style="fill:none;" width="50.287" height="24.804"/>
			<path style="fill:#CCCCCC;" d="M101.381,15.039c-2.239,3.463,3.3,11.351,13.061,13.343c0,0-17.129-3.111-31.248-2.406
				c-14.12,0.705-17.42,13.867-17.42,13.867s-1.382-5.681-1.343-8.838c0.061-4.873-1.941-10.42,4.004-9.814
				c0,0,28.135-5.666,28.896-5.846C98.095,15.164,101.381,15.039,101.381,15.039"/>
		</g>
	</g>
	<g style="opacity:0.45;">
		<g>
			<rect x="55.446" y="68.093" style="fill:none;" width="21.307" height="28.309"/>
			<path style="fill:#CCCCCC;" d="M70.747,68.091c-0.887,14.736-8.184,8.105-8.914,8.084c-0.731-0.02-0.6-0.395-0.6-0.395
				l3.316,4.871c0,0-6.975-2.324-9.104-8.555c0,0,1.485,4.697,5.219,8.9c0,0,5.439,3.957,7.467,7.912
				c2.029,3.959,4.563,7.777,8.266,7.475l0.355-0.5c0,0-4.121-1.582-3.924-4.154c0.199-2.572,3.166-5.094-1.533-22.451"/>
		</g>
	</g>
	<g style="opacity:0.45;">
		<g>
			<rect x="67.732" y="75.788" style="fill:none;" width="6.19" height="16.107"/>
			<path style="fill:#CCCCCC;" d="M67.732,84.376c0,0,2.771,3.033,4.154,1.781c1.383-1.25,0.95-10.367,0.95-10.367
				s1.661,8.535,0.875,11.881c-0.784,3.35-1.298,4.225-1.298,4.225l-1.188-2.77l-1.186-1.582L67.732,84.376z"/>
		</g>
	</g>
	<g style="opacity:0.45;">
		<g>
			<rect x="65.63" y="91.896" style="fill:none;" width="11.103" height="5.977"/>
			<path style="fill:#CCCCCC;" d="M65.631,94.282c5.646,1.488,9.621,1.902,9.779,1.551c0.16-0.35-3.129-0.707-3.259-3.938
				c0,0,0.571,1.832,2.427,2.846c1.854,1.014,2.155,0.969,2.155,0.969l-1.476,2.162c0,0-3.266-1.691-5.418-2.309
				C67.692,94.944,65.631,94.282,65.631,94.282"/>
		</g>
	</g>
	<g style="opacity:0.45;">
		<g>
			<rect x="40.31" y="85.696" style="fill:none;" width="34.969" height="19.063"/>
			<path style="fill:#CCCCCC;" d="M63.187,93.724c0.154,0.098,0.301,0.197,0.443,0.295c6.104,4.25-1,6.57-8.377,3.35
				C47.707,94.071,42.69,85.696,42.69,85.696l-2.381,4.867c0,0,9.33,5.512,11.957,7.033c2.631,1.52,6.049,3.969,9.914,5.088
				c3.867,1.117,9.811,2.074,9.811,2.074l3.287-6.887c0,0-7.023-2.605-8.504-3.238"/>
		</g>
	</g>
	<g style="opacity:0.45;">
		<g>
			<rect x="196.908" y="19.644" style="fill:none;" width="47.933" height="67.504"/>
			<path style="fill:#CCCCCC;" d="M239.556,30.925l-31.276-11.282c-0.588,4.308-11.37,9.937-11.37,9.937s30.157,0.266,36.114,9.365
				c5.824,9.496-21.505,11.42-21.505,11.42l5.657-0.025l10.306-1.688l7.646-2.814c2.081,14.357-1.836,41.311-1.836,41.311
				c0.632-1.689,1.632-8.598,1.978-10.973c0.347-2.373,0.916-8.426,2.448-17.209c1.532-8.785,3.239-12.322,3.86-14.193
				c0.616-1.875,2.486-9.767,2.486-9.767c0.229-1.662,0.777-1.875,0.777-1.875L239.556,30.925z"/>
		</g>
	</g>
	<g style="opacity:0.45;">
		<g>
			<rect x="104.018" y="11.55" style="fill:none;" width="17.676" height="15.891"/>
			<path style="fill:#CCCCCC;" d="M109.458,11.55c-1.351,2.996,2.212,6.86,5.905,8.094c0,0-0.527,4.732,6.33,7.797
				c0,0-14.284-1.749-17.676-13.092l0.91-0.266L109.458,11.55z"/>
		</g>
	</g>
	<g style="opacity:0.45;">
		<g>
			<rect x="42.857" y="21.937" style="fill:none;" width="27.204" height="65.756"/>
			<path style="fill:#CCCCCC;" d="M69.522,59.979c-0.217-2.85-3.129-14.695-4.674-24.734s0.291-13.309,0.291-13.309h-0.986
				l-2.744,1.234l-4.115,2.908l-3.271,3.15l-3.15,4.622l-2.357,7.694l-1.102,9.906c-0.002,0.006-0.002,0.012-0.002,0.018
				c-2.025,16.068-4.555,32.473-4.555,32.473l5.928,1.754l3.23,1.996c0,0-4.574-7.326-3.254-16.762
				c1.321-9.434,2.961-32.926,6.492-37.403c2.031-2.651,4.415-3.733,5.374-2.911c1.569,1.346,1.718,16.225,9.435,31.148
				L69.522,59.979z"/>
		</g>
	</g>
	<g style="opacity:0.45;">
		<g>
			<rect x="71.063" y="98.276" style="fill:none;" width="11.082" height="51.041"/>
		</g>
	</g>
	<g style="opacity:0.45;">
		<g>
			<rect x="73.226" y="167.694" style="fill:none;" width="20.18" height="86.252"/>
			<path style="fill:#CCCCCC;" d="M73.226,253.946c18.693-21.859,14.285-23.496,19.357-37.861c0,0-8.279,20.057-13.223,24.309
				c0,0,8.109-12.363,9.295-27.498c1.189-15.133,4.75-26.803,4.75-26.803l-8.508,24.629l-0.99-4.354c0,0,6.882-17.467,9.498-27.834
				c0,0-3.957,5.678-8.409,4.393c0,0,2.474-4.619,1.681-9.729c-0.791-5.109-1.488-5.504-1.488-5.504s1.916,9.496-1.76,14.936
				c0,0,1.151,12.969,0.574,18.227c-0.574,5.258-0.305,7.803,0.346,11.553c0,0-4.644,21.146-6.91,27.547
				C75.177,246.356,73.226,253.946,73.226,253.946"/>
		</g>
	</g>
	<g style="opacity:0.45;">
		<g>
			<rect x="66.927" y="256.585" style="fill:none;" width="16.265" height="54.879"/>
			<path style="fill:#CCCCCC;" d="M66.927,296.618c9.195,14.615,16.266,14.846,16.266,14.846
				c-17.793-10.898-5.945-34.736-11.137-54.879l-1.666,10.383"/>
		</g>
	</g>
	<g style="opacity:0.45;">
		<g>
			<rect x="64.421" y="295.454" style="fill:none;" width="121.361" height="34.822"/>
			<path style="fill:#CCCCCC;" d="M185.782,325.081c-55.251,5.85-100.307-11.479-100.307-11.479s-13.766-5.488-18.25-18.148
				l-2.805,7.281c0,0,1.346,7.74,8.209,11.969c6.861,4.227,32.626,13.16,62.277,15.09c29.649,1.93,39.518-2.549,39.518-2.549"/>
		</g>
	</g>
	<g style="opacity:0.45;">
		<g>
			<rect x="211.805" y="166.407" style="fill:none;" width="24.874" height="139.693"/>
			<path style="fill:#CCCCCC;" d="M219.574,306.101c0,0,10.924-15.309,9.342-22.076c0,0,2.909-8.91-1.711-9.156l-4.662,1.881
				c0,0,6.108-8.369,5.844-24.816c-0.263-16.441-6.668-25.936-7.554-28.266c-0.887-2.328-0.623-7.604-3.26-11.561
				s-0.432-12.178-3.188-18.455l-2.58-5.896c0,0,3.657,2.258,4.712-3.709c1.057-5.965,3.058-17.639,3.058-17.639
				s-1.128,13.584-0.641,17.639c0.486,4.059,0.641,16.984,0.641,16.984l0.389,8.072l1.447,4.756l1.072,3.416l0.593,5.242
				l2.825,7.146l4.551,12.441l3.126,9.305l0.204,7.916l-0.204,6.648l-0.94,4.158l1.145,3.209l0.456,5.77l1.239,4.914l1.201,5.848
				c0,0-3.977,7.814-6.255,9.744S219.574,306.101,219.574,306.101"/>
		</g>
	</g>
	<g style="opacity:0.45;">
		<g>
			<rect x="229.178" y="267.231" style="fill:none;" width="7.501" height="32.049"/>
			<path style="fill:#CCCCCC;" d="M229.178,299.28c4.617-11.344,2.771-17.674,2.771-17.674s1.186-7.779-1.979-9.23l3.428-5.145
				l-0.319,3.074c0,0,0.85,4.045,0.981,4.971c0.129,0.924,0.094,4.926,0.129,5.408c0.04,0.48,1.979,4.352,1.979,4.352l0.511,4.836
				l-3.75,7.111"/>
		</g>
	</g>
	<g style="opacity:0.45;">
		<g>
			<rect x="206.264" y="176.952" style="fill:none;" width="13.047" height="27.77"/>
			<path style="fill:#CCCCCC;" d="M219.311,190.126c-1.739,4.439-13.047-13.174-13.047-13.174s5.94,9.771,7.372,13.889
				c1.431,4.121,5.519,13.879,5.519,13.879L219.311,190.126z"/>
		</g>
	</g>
	<g style="opacity:0.45;">
		<g>
			<rect x="210.416" y="184.165" style="fill:none;" width="8.876" height="20.557"/>
			<path style="fill:#CCCCCC;" d="M210.416,184.165c6.497,10.137,8.355,12.908,8.876,7.5l-0.138,13.055l-5.406-13.451"/>
		</g>
	</g>
	<g style="opacity:0.45;">
		<g>
			<rect x="229.547" y="96.364" style="fill:none;" width="30.621" height="17.621"/>
			<path style="fill:#CCCCCC;" d="M240.397,104.759c0,0-7.922,2.303-6.044,5.072c1.879,2.768,21.336-3.066,22.651-8.211
				c1.314-5.143-3.68-2.373-3.68-2.373l5.487-2.883l1.356,6.469l-2.294,2.322l-13.821,6.369l-12.605,2.164l-1.051,0.297
				c0,0-1.113-4.021-0.792-4.748c0.323-0.727,0.184-3.414,0.184-3.414s2.908,0.125,5.999-0.418
				C238.879,104.86,240.397,104.759,240.397,104.759"/>
		</g>
	</g>
	<g style="opacity:0.45;">
		<g>
			<rect x="229.18" y="76.001" style="fill:none;" width="17.262" height="29.822"/>
			<path style="fill:#CCCCCC;" d="M236.742,105.044c-4.416-1.1-2.065-4.832,0.208-6.193c2.276-1.359,6.974-6.775,6.974-6.775
				l-6.404,4.6l-1.606,1.088c0,0-1.113-2.027-0.125-4.006c0.989-1.979,5.604-9.014,5.604-9.014s4.066-6.461,4.961-7.998
				c0.033-0.059,0.064-0.113,0.087-0.156c0,0-8.08,8.498-8.972,7.277c-0.889-1.221,1.994-7.865,1.994-7.865
				s-3.033,4.559-3.724,3.117c-0.689-1.439-0.596-2.076-0.596-2.076s-1.145,9.318-2.12,11.373s-3.231,7.047-2.959,7.949
				c0.271,0.904,0.036,1.945-0.024,3.131c-0.06,1.186-1.168,3.758-0.776,4.4c0.391,0.643,0.525,1.928,0.525,1.928l4.612-0.215"/>
		</g>
	</g>
	<g style="opacity:0.45;">
		<g>
			<rect x="239.556" y="32.912" style="fill:none;" width="17.434" height="36.173"/>
			<path style="fill:#CCCCCC;" d="M239.556,49.37c7.56-6.404,14.086,4.674,14.284,7.246c0.197,2.572,3.15,12.469,3.15,12.469
				l-1.135-18.59l-1.821-6.91l-4.661-6.445l-5.319-4.228l-1.081,8.405"/>
		</g>
	</g>
	<g style="opacity:0.45;">
		<g>
			<rect x="78.86" y="144.179" style="fill:none;" width="12.629" height="50.264"/>
		</g>
	</g>
	<g style="opacity:0.45;">
		<g>
			<rect x="192.22" y="104.228" style="fill:none;" width="39.229" height="81.766"/>
		</g>
	</g>
	<path style="opacity:0.45;fill:#CCCCCC;" d="M99.976,228.505c2.231-5.637,7.048-11.445,7.867-16.971c-0.021-0.057,0.021,0.055,0,0
		c-2.235-5.887-6.91-12.211-7.193-18.5c-0.338-7.523,2.832-19.969,0.283-27.24c-2.563-7.313-16.333-26.439-18.427-35.207
		c-2.057-8.617-0.012-19.943,0.593-23.564c0.565-3.389-2.337-21.744-9.155-31.234l-1.161-0.547
		c2.643,14.342-0.503,12.078,0.047,16.488s4.107,3.922,4.107,3.922c-3.771,3.678-6.041,12.426-5.663,25.887
		s7.587,22.641,7.587,22.641s1.974,25.293,3.106,32.086s2.013,16.104,2.013,16.104c-0.378,3.146-0.378,16.605,0.126,19.5
		c0.504,2.893-1.888,6.541-2.517,11.574c-0.629,5.031-5.786,20.254-8.176,27.424s-4.026,23.525-4.151,26.797
		c-0.125,3.27-1.874,13.994-1.874,13.994l0.463,4.768c4.629,12.055,13.014,13.918,20.364,17.35
		c7.351,3.43,29.403,6.369,29.403,6.369c-6.37-5.881,3.92-18.621-14.702-38.713S90.665,252.026,99.976,228.505z"/>
	<path d="M112.951,24.7c-7.604-3.571-8.934-9.924-8.934-9.924c2.473,8.902,19.881,15.826,47.379,16.42
		c27.498,0.592,49.258-0.891,52.126-12.562l1.479-0.185c0,0-1.182,13.899-40.482,13.504C142.129,31.729,123.02,29.429,112.951,24.7"
		/>
	<path d="M64.925,22.088C62.82,33.8,68.36,48.835,69.55,58.462c1.188,9.629,6.328,24.662,4.088,30.332s3.299,6.857,3.299,6.857
		s-3.139,3.689-4.016,10.418l-0.93-1.311c0,0-1.105-0.666,4.137-8.875c0,0-3.414-1.533-3.957-3.512
		c-0.543-1.977,1.137-3.215,1.58-7.072c0.444-3.857-2.719-13.723-4.597-26.014c-1.882-12.289-4.55-19.584-5.144-26.706
		c-0.594-7.121,0.594-10.386,0.594-10.386"/>
	<path d="M230.229,113.688c-1.088-2.998-0.296-7.748-0.956-9.461c-0.659-1.715,1.352-5.277,0.477-7.518
		c-0.872-2.242,3.084-3.955,4.668-15.693c1.582-11.738,3.427-28.094,6.197-34.82c2.77-6.725,3.174-13.552,3.174-13.552l1.052,0.485
		c0,0-1.357,8.451-3.781,13.299c-2.424,4.846-4.945,24.184-5.639,29.623c-0.689,5.441-2.438,14.557-4.055,17.607
		s-0.741,3.758-1.137,5.934s-1.335,3.512-0.445,5.242c0.891,1.73-0.995,5.693,1.381,8.633"/>
	<path d="M229.263,103.366c3.716-0.064,2.764-2.914,6.882-5.512c4.119-2.6,15.334-6.973,16.346-26.924
		c-0.761,15.836-12.546,24.135-15.712,25.973c-3.165,1.836-4.271,4.625-5.891,5.383c-1.618,0.76-1.54,0.199-1.54,0.199"/>
	<path d="M230.031,105.917c2.62,0.303,8.16-0.934,11.325-1.279c3.166-0.346,9.644-3.857,12.166-5.143
		c2.522-1.287,4.797-3.016,4.797-3.016v-0.596c0,0-2.374,2.076-4.994,3.363c-2.621,1.285-7.469,4.303-12.068,5.045
		c-4.599,0.74-9.237,1.674-11.468,1.404"/>
	<path d="M230.395,96.364c1.913-0.514,3.891-4.797,8.439-8.887c4.551-4.088,11.736-15.629,12.793-22.686
		c-1.01,2.607-2.786,7.479-5.407,12.004c-2.35,4.055-5.454,7.766-7.979,10.352c-5.341,5.475-5.738,8.043-8.177,8.736"/>
	<path d="M233.023,87.692c3.833-1.863,7.722-18.35,13.064-23.889c0,0-3.433,3.637-5.146,7.59c-1.711,3.949-5.264,13.945-7.577,15.08
		"/>
	<path d="M74.892,97.872c-4.604-2.879-13.604-3.471-19.639-8.021C49.222,85.3,42.69,83.718,42.69,83.718v-0.463
		c0,0,8.67,2.967,11.771,5.77c3.102,2.805,12.99,5.605,16.221,6.793c3.232,1.188,4.748,1.748,4.748,1.748"/>
	<path d="M72.151,90.864c-1.766-5.168-9.678-10.014-12.051-19.213c-2.375-9.199-4.847-11.672-4.847-11.672s3.562,5.736,4.253,11.967
		c0.691,6.232,10.283,12.916,12.665,20.426"/>
	<path d="M64.55,88.96c-1.383-6.824-5.539-9.396-7.814-14.342c-2.273-4.947-3.361-10.539-3.361-10.539s0.396,5.988,2.869,10.934
		c2.473,4.947,7.221,7.914,8.307,14.738"/>
	<path d="M239.555,42.108c-0.919,5.408-19.777,8.967-30.591,8.309c5.52,0.008,22.673-0.924,30.591-9.102"/>
	<path d="M219.344,205.647c-3.128-10.158-9.195-26.512-15.525-31.92c4.087,3.561,13.462,25.91,15.755,33.771"/>
	<path d="M83.429,206.114c8.593-18.061,12.972-39.707,12.972-39.707s-4.153,23.541-12.444,42.695"/>
	<path d="M83.192,182.396c3.113-6.369,1.83-16.99,1.637-20.043c0.098,6.033,2.471,12.957-1.4,21.693"/>
	<path d="M232.991,269.571c-3.19,5.838-12.158,7.684-12.158,7.684s9.929-1.717,12.744-14.244"/>
	<path style="opacity:0.45;fill:#CCCCCC;" d="M233.965,82.743c-13.264,18.086-7.475,42.682-20.979,56.91
		c-13.505,14.227,1.928,32.072,1.446,37.859s-5.546,3.377-5.546,3.377s3.696,7.979,4.862,10.379c0,0,1.89,24.105,0.684,34.232
		c-1.206,10.129,5.787,10.129,6.27,19.533c0.482,9.406-12.781,34.002-12.781,38.826c0,4.822,4.582,20.498,0.482,27.25
		c0,0,11.094-4.342,13.505-5.789c0,0-2.411-9.887,0-14.227c2.411-4.342,5.189-15.42,5.488-16.633s2.019-8.008,2.019-8.008
		l1.889-14.344l-0.521-5.008c0,0-1.195-4.533-1.19-8.205l-2.409-6.123c0,0-4.214-9.219-4.411-10.863
		c-0.197-1.646-0.724-4.082-0.889-5.465s-1.548-5.531-1.745-6.684s-1.341-9.994-0.674-15.16c0.667-5.168-1.61-14.309-0.639-21.738
		s2.084-23.047,2.084-23.047s7.889-6.049,9.222-12.549s0.999-18.998,0.166-22.332c0,0-0.667-5.668-0.333-8.168
		s-0.743-3.061-0.333-5.166c0.41-2.107,0.001-5.5,0.667-6.834s1.999-4,2.666-5.832C233.63,87.103,233.965,82.743,233.965,82.743z"/>
	<path d="M236.874,288.993c-2.061,11.076-17.492,22.682-57.453,29.672c-39.961,6.992-48.268,4.883-63.963,1.717
		c-15.694-3.166-42.203-4.617-48.531-24.398c0,0,3.555,7.625,11.973,13.389c7.699,5.273,46.136,12.596,51.767,12.936
		c23.865,1.436,33.367-1.494,48.649-4.748c18.964-4.037,49.594-7.463,57.559-30.412"/>
	<path d="M75.431,244.989c14.176-9.936,20.97-42.643,20.97-42.643s-6.483,28.646-20.269,40.145"/>
	<path d="M146.553,331.239c-7.803,0-14.146-0.893-20.864-1.838c-3.11-0.438-6.324-0.889-9.72-1.252
		c-15.764-1.674-37.798-9.281-43.741-12.764c-6.211-3.641-8.51-11.633-8.596-12.578c-0.074-0.818,0.584-2.359,1.998-5.303
		c0.305-0.633,0.648-1.348,0.699-1.512c0.031-0.139,0-0.639-0.025-1c-0.071-1.07-0.166-2.533,0.365-3.672
		c0.643-1.379,1.184-6.273,2.699-22.391c1.155-12.26,3.342-18.189,5.461-23.922c0.811-2.201,1.58-4.277,2.283-6.689
		c2.566-8.785,6.105-24.021,6.413-25.551c0.091-0.453,0-1.375-0.112-2.541c-0.203-2.074-0.508-5.209-0.197-9.432
		c0.482-6.582,0.101-11.896,0.098-11.939c-0.428-4.807-1.145-8.777-1.84-12.615c-0.729-4.02-1.416-7.816-1.623-11.943
		c-0.352-7.039-1.504-17.594-1.736-19.67c-1.037-0.813-3.734-3.824-6.369-14.201c-2.732-10.758-0.852-21.553-0.188-24.709
		c-4.407-0.516-13.189-3.07-15.252-4.742c-1.256-1.016-7.576-4.449-11.754-6.723c-4.744-2.578-4.756-2.598-4.926-2.85
		c-0.359-0.537-0.082-1.137,0.332-2.045c0.209-0.457,0.463-1.008,0.664-1.611c0.485-1.457,1.444-3.959,1.459-3.959
		c0.029-0.16,0.729-3.91,2.069-12.92c0.397-2.674,0.771-6.205,1.163-9.943c1.014-9.639,2.164-20.564,4.527-26.152
		c3.318-7.839,11.523-12.256,13.137-13.061c0.502-0.252,2.096-0.525,6.896-1.306c6.271-1.021,15.746-2.562,23.026-4.489
		c5.857-1.552,9.809-2.371,11.429-2.371c0.091,0,0.228,0,0.376,0.018c1.253-0.965,5.736-4.172,8.89-3.699
		c0.771,0.115,2.156,0.488,4.25,1.051c7.22,1.947,22.239,5.996,39.673,6.459c17.858,0.485,27.625-1.923,32.651-3.158
		c1.282-0.313,2.29-0.563,3.11-0.689c1.186-0.184,3.428,0.844,6.525,2.374c1.327,0.658,3.146,1.558,3.588,1.571
		c1.353,0,10.244,3.096,23.66,7.816l1.527,0.539c10.607,3.732,17.823,7.322,17.896,7.357l0.175,0.121
		c0.263,0.234,6.386,5.805,8.116,9.977c1.591,3.842,3.341,12.709,3.026,25.053c-0.295,11.615,1.645,27.637,1.896,28.508
		c0.313,0.627,0.985,4.303,1.259,5.854l0.048,0.281l-0.535,0.941c-0.291,0.508-0.797,0.875-1.332,1.268
		c-0.427,0.311-0.87,0.633-1.242,1.047c-1.078,1.197-4.882,3.314-12.316,5.664c-5.105,1.611-10.16,2.146-12.874,2.438
		c-0.528,0.057-1.066,0.113-1.445,0.164c0.02,0.143,0.044,0.311,0.07,0.502c0.452,3.16,1.656,11.563,0.348,19.514
		c-1.423,8.664-7.263,13.404-9.462,15.189c-0.247,0.199-0.438,0.352-0.56,0.461c-0.148,1.043-0.608,6.418-1.015,11.189
		c-0.354,4.158-0.733,8.57-1.021,11.586c-0.362,3.742-0.021,9.092,0.311,14.264c0.292,4.584,0.567,8.918,0.28,11.467
		c-0.59,5.193,0.723,12.252,1.413,13.717c0.849,1.803,1.248,2.947,1.639,4.717c0.199,0.893,0.236,1.799,0.27,2.672
		c0.037,0.928,0.073,1.801,0.303,2.49c0.095,0.291,0.442,1.15,0.947,2.418c2.047,5.098,6.832,17.035,8.666,24.854
		c2.146,9.141,0.699,19.143,0.449,20.705c1.249,3.93,1.166,9.588,1.135,10.75c1.404,2.848,1.961,5.035,2.334,6.492
		c0.153,0.598,0.272,1.078,0.415,1.438c0.467,1.166,1.194,3.457,1.358,3.979c1.598,2.537,2.529,9.266-5.096,17.301
		c-7.658,8.072-45.581,15.512-67.503,19.229C159.344,330.647,152.811,331.239,146.553,331.239 M259.337,102.69
		c-0.407-2.287-0.906-4.771-1.065-5.141c-0.44-0.883-2.349-17.92-2.063-29.256c0.31-12.096-1.371-20.707-2.906-24.406
		c-1.492-3.602-6.909-8.67-7.633-9.336c-0.892-0.437-7.773-3.771-17.614-7.232l-1.529-0.538c-9.222-3.243-21.849-7.69-23.134-7.726
		c-0.744,0-2.051-0.627-4.288-1.736c-1.905-0.939-4.512-2.229-5.576-2.229h-0.005c-0.752,0.117-1.732,0.357-2.978,0.664
		c-5.096,1.25-14.946,3.67-33.071,3.203c-17.621-0.47-32.766-4.551-40.043-6.514c-1.966-0.529-3.385-0.914-4.066-1.012
		c-3.046-0.45-7.94,3.578-7.99,3.617l-0.975,0.795l-0.172-0.717c-0.943,0.023-3.587,0.375-10.923,2.319
		c-7.354,1.948-16.875,3.497-23.176,4.521c-3.098,0.504-6.02,0.979-6.445,1.158c-0.934,0.467-9.221,4.78-12.385,12.262
		c-2.276,5.373-3.459,16.646-4.41,25.703c-0.395,3.754-0.771,7.303-1.172,10.01c-1.373,9.207-2.076,12.951-2.123,13.125
		c0,0-0.98,2.551-1.471,4.021c-0.221,0.662-0.496,1.27-0.726,1.77c-0.085,0.182-0.181,0.393-0.25,0.561
		c0.747,0.432,2.476,1.373,4.157,2.285c5.814,3.16,10.73,5.861,11.994,6.885c1.82,1.473,11.383,4.273,15.271,4.473l0.959,0.049
		l-0.232,0.934c-0.031,0.125-3.1,12.707-0.02,24.836c2.961,11.658,5.913,13.422,5.916,13.424l0.4,0.188l0.054,0.441
		c0.013,0.121,1.39,12.281,1.782,20.127c0.203,4.027,0.881,7.773,1.598,11.738c0.704,3.875,1.428,7.883,1.863,12.773
		c0.004,0.055,0.396,5.479-0.1,12.184c-0.301,4.086-0.002,7.141,0.195,9.16c0.137,1.398,0.227,2.322,0.09,3.006
		c-0.309,1.539-3.867,16.859-6.447,25.684c-0.717,2.465-1.533,4.666-2.316,6.793c-2.081,5.639-4.234,11.467-5.367,23.525
		c-1.689,17.924-2.115,21.348-2.842,22.912c-0.359,0.77-0.281,1.998-0.221,2.896c0.043,0.67,0.074,1.156-0.033,1.535
		c-0.077,0.273-0.313,0.766-0.793,1.766c-0.559,1.16-1.861,3.875-1.85,4.475c0.065,0.727,2.211,8.066,7.822,11.355
		c5.838,3.422,27.543,10.904,43.104,12.559c3.424,0.363,6.651,0.816,9.773,1.256c6.662,0.938,12.954,1.822,20.645,1.822
		c6.169,0,12.616-0.582,19.714-1.787c36.977-6.268,61.257-13.104,66.62-18.754c7.039-7.422,6.258-13.344,4.86-15.438l-0.097-0.205
		c-0.008-0.025-0.854-2.729-1.346-3.963c-0.173-0.434-0.31-0.963-0.48-1.633c-0.385-1.508-0.912-3.574-2.305-6.357l-0.091-0.182
		l0.008-0.203c0.003-0.066,0.235-6.549-1.11-10.58l-0.062-0.189l0.031-0.193c0.021-0.109,1.813-10.855-0.396-20.273
		c-1.81-7.699-6.563-19.561-8.594-24.625c-0.525-1.313-0.883-2.203-0.983-2.506c-0.3-0.902-0.341-1.932-0.382-2.928
		c-0.031-0.805-0.063-1.639-0.232-2.395c-0.369-1.658-0.725-2.68-1.525-4.385c-0.884-1.877-2.148-9.322-1.555-14.57
		c0.274-2.41,0.001-6.672-0.285-11.186c-0.334-5.234-0.682-10.648-0.31-14.518c0.288-3.01,0.667-7.416,1.02-11.568
		c0.754-8.828,0.977-11.271,1.104-11.652c0.109-0.328,0.345-0.52,1.052-1.092c2.071-1.682,7.571-6.146,8.899-14.217
		c1.267-7.715,0.09-15.938-0.354-19.035c-0.159-1.109-0.184-1.279-0.129-1.504c0.168-0.668,0.586-0.713,2.901-0.957
		c2.66-0.285,7.61-0.811,12.566-2.375c7.634-2.412,10.895-4.412,11.616-5.217c0.483-0.533,1.016-0.922,1.485-1.266
		c0.396-0.287,0.767-0.559,0.889-0.771L259.337,102.69z"/>
	<path d="M119.98,270.511c23.287,18.217,47.712,12.059,47.712,12.059s-15.836,0.531-27.543-2.836
		C128.442,276.362,119.98,270.511,119.98,270.511z"/>
	<path d="M152.408,292.735c27.673-3.451,57.911-27.734,57.911-27.734s-29.158,28.662-60.105,27.938"/>
</g>
</svg>
