<?xml version="1.0" encoding="utf-8"?>
<!-- Generator: Adobe Illustrator 16.0.0, SVG Export Plug-In . SVG Version: 6.00 Build 0)  -->
<!DOCTYPE svg PUBLIC "-//W3C//DTD SVG 1.1//EN" "http://www.w3.org/Graphics/SVG/1.1/DTD/svg11.dtd">
<svg version="1.1" id="Layer_1" xmlns="http://www.w3.org/2000/svg" xmlns:xlink="http://www.w3.org/1999/xlink" x="0px" y="0px"
	 width="300px" height="340px" viewBox="0 0 300 340" style="enable-background:new 0 0 300 340;" xml:space="preserve">
<g>
	<path style="fill:#FFFFFF;" d="M119.231,21.963c3.927,1.473,13.026,8.033,31.163,7.14c18.123-0.89,30.097-8.037,33.437-7.14
		c3.346,0.896,5.1,5.181,6.336,5.716c1.235,0.534,11.268,3.927,27.108,10.351c15.844,6.425,22.712,8.567,24.819,11.784
		c2.11,3.213,5.455,9.819,10.913,15.896c5.465,6.065,27.636,30.703,34.156,37.133c6.511,6.429,7.744,8.032,7.744,9.104
		s-7.221,6.25-14.091,11.429c-6.861,5.176-18.125,13.217-23.928,12.32c-5.819-0.893-16.553-16.427-23.24-21.247
		c0,0-3.875,22.851-6.692,35.888c-2.815,13.033-5.984,58.219-5.453,79.287c0.527,21.069,7.563,59.1,6.688,63.922
		c-0.88,4.813-26.832,26.949-67.133,23.56c-40.31-3.392-48.574-2.424-63.71-3.495c-15.14-1.074-22.474-5.245-26.347-11.851
		c-3.871-6.611,4.757-37.854,7.568-65.528c2.82-27.675,1.41-50.708-0.702-75.896c-2.109-25.175-3.172-34.996-6.514-39.814
		c-3.345-4.823-18.304,6.426-22.178,11.248c-3.873,4.825-6.16,6.785-7.217,6.963c-1.06,0.179-8.098,0-11.442-2.139
		c-3.346-2.148-14.254-8.218-19.007-13.04c-4.759-4.82-7.222-7.496-7.222-9.104c0-1.606,14.084-17.32,20.773-25.357
		c6.688-8.032,29.749-38.208,36.612-42.841c6.86-4.648,22.003-6.078,30.273-9.822c8.278-3.752,18.663-9.648,18.663-9.648
		S117.348,21.253,119.231,21.963"/>
	<path d="M169.382,318.175c-2.768,0-5.587-0.12-8.378-0.358c-26.259-2.209-38.714-2.559-48.723-2.851
		c-5.201-0.141-9.695-0.271-14.984-0.641c-14.248-1.015-22.544-4.767-26.901-12.206c-2.505-4.27-0.23-17.338,2.658-33.888
		c1.751-10.012,3.731-21.379,4.82-32.067c2.861-28.108,1.295-51.869-0.707-75.771c-2.139-25.5-3.175-34.834-6.387-39.465
		c-0.411-0.585-1.075-0.87-2.031-0.87c-5.065,0-15.727,8.051-19.022,12.157c-3.664,4.551-6.234,6.98-7.646,7.22
		c-0.307,0.051-0.827,0.06-1.205,0.06c-2.65,0-7.888-0.487-10.727-2.303c-0.684-0.438-1.677-1.032-2.864-1.745
		c-4.648-2.803-12.429-7.488-16.275-11.389c-5.155-5.235-7.424-7.727-7.424-9.61c0-1.211,3.458-5.426,13.843-17.495
		c2.636-3.063,5.17-6.007,7.095-8.322c1.555-1.864,4.042-4.991,6.92-8.608c9.749-12.242,24.483-30.754,29.838-34.375
		c3.999-2.697,10.671-4.328,17.128-5.907c4.783-1.167,9.732-2.375,13.251-3.972c8.149-3.69,18.501-9.554,18.605-9.613
		c0.528-0.449,6.117-4.969,8.576-4.969c0.231,0,0.444,0.034,0.637,0.102c0.721,0.271,1.574,0.69,2.646,1.217
		c4.93,2.418,13.477,6.613,28.238,5.884c11.046-0.547,19.861-3.457,25.691-5.384c3.916-1.284,6.504-2.123,7.958-1.739
		c2.385,0.635,3.98,2.744,5.147,4.287c0.477,0.627,1.013,1.35,1.287,1.463c0.322,0.143,1.254,0.475,2.743,1.013
		c4.117,1.502,12.697,4.612,24.355,9.337c3.106,1.268,5.876,2.359,8.325,3.331c10.289,4.086,14.986,5.951,16.813,8.725
		c0.522,0.791,1.118,1.799,1.806,2.945c2.095,3.513,4.971,8.328,9.048,12.854c8.214,9.149,27.993,31.079,34.115,37.11
		c6.864,6.773,7.96,8.276,7.96,9.615c0,1.104-2.184,2.881-10.853,9.364c-1.15,0.864-2.345,1.752-3.519,2.639
		c-7.558,5.699-18.53,13.366-24.463,12.456c-3.716-0.573-8.773-6.148-14.144-12.044c-3.093-3.394-6.023-6.622-8.493-8.635
		c-0.823,4.815-4.071,23.536-6.494,34.764c-2.857,13.236-5.963,58.343-5.44,79.115c0.294,11.593,2.563,28.38,4.396,41.872
		c1.564,11.563,2.689,19.923,2.288,22.194C227.926,298.916,204.374,318.175,169.382,318.175 M68.748,118.63
		c1.428,0,2.5,0.496,3.18,1.477c3.417,4.92,4.477,14.382,6.64,40.167c2.009,23.969,3.574,47.808,0.705,76.03
		c-1.093,10.749-3.08,22.13-4.832,32.182c-2.723,15.608-5.072,29.089-2.832,32.901c4.092,6.982,12.05,10.545,25.789,11.507
		c5.257,0.382,9.736,0.5,14.926,0.653c10.022,0.286,22.501,0.635,48.792,2.844c2.758,0.234,5.539,0.357,8.265,0.357
		c35.775,0,57.397-19.392,58.116-23.339c0.371-2.04-0.862-11.175-2.291-21.736c-1.834-13.528-4.119-30.36-4.408-42.026
		c-0.526-20.847,2.602-66.159,5.468-79.468c2.777-12.865,6.643-35.624,6.682-35.85l0.194-1.122l0.918,0.656
		c2.765,1.995,6.082,5.653,9.611,9.528c4.731,5.205,10.098,11.104,13.308,11.597c6.024,0.906,19.214-9.018,23.423-12.186
		c1.169-0.887,2.368-1.775,3.525-2.643c4.407-3.3,9.909-7.406,10.301-8.335c-0.021-0.74-1.923-2.909-7.562-8.472
		c-6.134-6.056-25.948-28.007-34.179-37.17c-4.166-4.623-7.076-9.509-9.204-13.073c-0.671-1.131-1.257-2.114-1.778-2.899
		c-1.567-2.394-6.443-4.329-16.15-8.176c-2.453-0.975-5.223-2.078-8.345-3.341c-11.629-4.719-20.187-7.821-24.301-9.318
		c-1.53-0.555-2.485-0.896-2.816-1.045c-0.606-0.265-1.127-0.95-1.852-1.906c-1.107-1.452-2.474-3.258-4.389-3.775
		c-0.132-0.03-0.302-0.049-0.497-0.049c-1.308,0-3.673,0.783-6.664,1.764c-5.902,1.955-14.827,4.905-26.069,5.459
		c-15.125,0.748-24.196-3.713-28.911-6.031c-1.039-0.512-1.86-0.912-2.525-1.161c-0.014-0.005-0.058-0.017-0.146-0.017
		c-1.478,0-5.564,2.899-7.791,4.724c-0.205,0.128-10.609,6.018-18.811,9.733c-3.645,1.653-8.659,2.877-13.508,4.06
		c-6.332,1.546-12.879,3.143-16.67,5.704c-5.173,3.506-19.827,21.91-29.521,34.087c-2.892,3.627-5.383,6.758-6.942,8.631
		c-1.93,2.316-4.471,5.271-7.113,8.338c-5.561,6.462-13.173,15.311-13.492,16.623c0.005,1.311,3.042,4.503,7.01,8.532
		c3.719,3.776,11.41,8.404,16,11.17c1.201,0.727,2.203,1.325,2.887,1.763c2.573,1.653,7.653,2.085,9.984,2.085
		c0.467,0,0.802-0.014,0.966-0.041c0.275-0.042,1.868-0.58,6.789-6.708C51.655,127.55,62.672,118.63,68.748,118.63"/>
	<path d="M171.804,26.906c6.203-1.623,9.504-3.355,11.104-3.355c1.602,0-4.602,10.655-42.296,10.45c0,0,25.192-0.301,36.894-7.706
		L171.804,26.906z"/>
	<path d="M117.912,25.152c-0.059-0.933,0.615-2.024,0.615-2.024s-1.594,0.843-1.054,2.677c0.241,0.823,5.183,11.535,44.396,6.881
		c0,0-31.853,5.039-42.92-5.72C118.751,26.775,117.969,26.044,117.912,25.152"/>
	<path d="M68.442,100.25c-1.564-9.046-1.865-16.999-1.865-16.999c5.396,37.369,14.082,46.654,20.889,50.462
		c0,0-9.237-2.012-13.613-13.565C71.815,114.767,69.646,107.211,68.442,100.25"/>
	<path d="M235.096,99.224c1.328-9.303,1.396-17.453,1.396-17.453c-4.392,38.402-13.006,48.176-19.851,52.281
		c0,0,9.382-2.345,13.523-14.302C232.085,114.177,234.081,106.383,235.096,99.224"/>
	<path d="M255.652,125.222c-9.401-15.713-4.693-45.473-9.858-55.946c0,0,2.892,5.113,3.986,23.569
		C250.869,111.298,255.652,125.222,255.652,125.222"/>
	<path d="M259.715,81.786l12.829,22.916c-14.544-18.283-21.817-41.72-21.817-41.72L259.715,81.786z"/>
	<path d="M269.963,113.318c-0.111-0.254-0.237-0.511-0.361-0.768c-9.146-19.377-22.37-42.844-26.396-53.988
		c0,0,7.747,19.28,14.317,31.902"/>
	<path d="M61.673,46.25c-0.928,14.799-1.596,47.963,9.681,74.27l-2.095-1.139c0,0-1.891-3.863-5.265-20.467
		c-3.376-16.604-3.456-51.796-3.456-51.796L61.673,46.25z"/>
	<path d="M242.209,50.165c0.438,6.973,0.665,18.561-0.59,31.371c-1.103,11.199-3.309,23.337-7.945,34.162l1.851-0.15
		c0,0,1.667-4.261,4.637-18.909c2.978-14.65,3.044-45.7,3.044-45.7L242.209,50.165z"/>
	<path d="M248.118,129.22c-6.554-19.947,0.666-46.197-3.731-56.191c2.989,12.141-2.68,38.983,2.523,54.932"/>
	<path d="M241.641,122.212c-2.536-15.618,2.668-25.882,1.564-36.271c0.478,12.972-4.205,24.511-2.831,34.898"/>
	<path d="M221.194,156.303c-0.752-11.127,4.086-25.066,6.242-25.68c2.144-0.614-2.55,6.101-2.946,13.734
		c1.021-5.794,5.407-14.321,3.673-15.093c-1.739-0.774-5.861,8.744-6.787,15.344C220.457,151.207,221.194,156.303,221.194,156.303"
		/>
	<path d="M57.208,59.991c3.736,5.342-2.579,16.781-4.865,28.032c-2.284,11.252-3.694,30.531-3.694,30.531s0.707-19.104,2.814-30.708
		c2.113-11.605,5.272-15.88,6.037-20.464C58.254,62.803,57.208,59.991,57.208,59.991"/>
	<path d="M56.391,91.594c-0.703,5.535-0.881,17.495,2.819,27.318C57.079,111.106,56.391,91.594,56.391,91.594"/>
	<path d="M48.649,65.531c0,8.211-27.108,28.562-32.217,45.525c0,0,3.041-11.538,14.085-22.764
		C41.556,77.068,48.649,65.531,48.649,65.531"/>
	<path d="M210.366,214.272c-1.201,13.233,0.751,22.024,0.751,22.024c-3.542-20.955,6.664-54.283,5.911-65.954
		c0,0-1.452,14.653-4.735,28.932C211.665,202.02,210.654,211.136,210.366,214.272"/>
	<path d="M81.39,140.334c0.705,19.285,11.966,63.58,7.389,79.997c-4.575,16.44-9.859,9.292-5.984,0
		c-3.764,10.994,3.855,9.868,5.408-2.601c0.739-5.916-0.466-21.28-2.564-37.211c-2.322-17.704-5.551-36.087-4.249-43.04"/>
	<path d="M93.709,204.987c6.34,19.991-15.84,67.848-18.655,89.987c1.755-17.973,21.824-67.025,18.303-91.655"/>
	<path d="M214.886,273.979c2.493,10.741,8.354,12.408,7.416,1.219c-0.938-11.188-9.154-34.995-8.683-59.745
		c-1.176,21.889,8.683,52.363,7.274,61.646C219.485,286.387,214.886,273.979,214.886,273.979"/>
	<path d="M289.033,104.702c-9.444,9.212-25.643,22.009-39.287,26.143l0.98,1.637c0,0,12.673-6.888,22.522-13.89
		c9.863-6.999,16.569-13.092,16.569-13.092"/>
	<path d="M46.84,134.55c0,0-9.215-3.3-18.729-9.745c-9.508-6.444-19.895-15.455-19.895-15.455l1.086-1.441
		c8.321,10.831,26.828,20.657,38.128,25.964"/>
	<path d="M70.196,292.109c9.198,10.721,28.677,10.533,53.792,13.631c25.111,3.096,74.318,7.205,103.933-18.331
		c-25.28,21.256-71.904,22.467-96.782,18.184c-24.877-4.285-53.388-3.005-60.768-14.703"/>
	<path d="M190.167,27.68c-2.269,1.93-4.7,4.505-7.96,6.323c-13.389,7.467-35.392,12.323-57.795,5.171
		c-5.287-1.69-8.902-4.366-12.999-9.739c0,0,7.497,13.488,38.802,12.171c31.293-1.318,39.15-14.64,39.15-14.64L190.167,27.68z"/>
	<path d="M137.598,134.55c17.841-4.808,39.43,0,39.43,0H137.598z"/>
	<path d="M101.523,240.664c0.625,3.788,0.858,8.7-0.295,12.668c-3.57,12.251-14.061,23.826-15.772,33.383
		c-2.264,12.659,8.346,4.499,8.209-1.098c0,0-1.16,6.119-7.075,6.478c-3.335,0.198,0.751-10.417,6.047-20.338
		c4.095-7.664,9.338-14.437,9.786-18.409C103.453,244.223,101.523,240.664,101.523,240.664"/>
	<path d="M169.382,318.175c-2.768,0-5.587-0.12-8.378-0.358c-26.259-2.209-38.714-2.559-48.723-2.851
		c-5.201-0.141-9.695-0.271-14.984-0.641c-14.248-1.015-22.544-4.767-26.901-12.206c-2.505-4.27-0.23-17.338,2.658-33.888
		c1.751-10.012,3.731-21.379,4.82-32.067c2.861-28.108,1.295-51.869-0.707-75.771c-2.139-25.5-3.175-34.834-6.387-39.465
		c-0.411-0.585-1.075-0.87-2.031-0.87c-5.065,0-15.727,8.051-19.022,12.157c-3.664,4.551-6.234,6.98-7.646,7.22
		c-0.307,0.051-0.827,0.06-1.205,0.06c-2.65,0-7.888-0.487-10.727-2.303c-0.684-0.438-1.677-1.032-2.864-1.745
		c-4.648-2.803-12.429-7.488-16.275-11.389c-5.155-5.235-7.424-7.727-7.424-9.61c0-1.211,3.458-5.426,13.843-17.495
		c2.636-3.063,5.17-6.007,7.095-8.322c1.555-1.864,4.042-4.991,6.92-8.608c9.749-12.242,24.483-30.754,29.838-34.375
		c3.999-2.697,10.671-4.328,17.128-5.907c4.783-1.167,9.732-2.375,13.251-3.972c8.149-3.69,18.501-9.554,18.605-9.613
		c0.528-0.449,6.117-4.969,8.576-4.969c0.231,0,0.444,0.034,0.637,0.102c0.721,0.271,1.574,0.69,2.646,1.217
		c4.93,2.418,13.485,6.61,28.238,5.884c11.046-0.547,19.861-3.457,25.691-5.384c3.914-1.284,6.506-2.123,7.958-1.739
		c2.385,0.635,3.98,2.744,5.147,4.287c0.477,0.627,1.013,1.35,1.287,1.463c0.322,0.143,1.254,0.475,2.743,1.013
		c4.117,1.502,12.697,4.612,24.355,9.337c3.106,1.268,5.876,2.359,8.325,3.331c10.289,4.086,14.986,5.951,16.813,8.725
		c0.522,0.791,1.118,1.799,1.806,2.945c2.095,3.513,4.971,8.328,9.048,12.854c8.214,9.149,27.993,31.079,34.115,37.11
		c6.864,6.773,7.96,8.276,7.96,9.615c0,1.104-2.184,2.881-10.853,9.364c-1.15,0.864-2.345,1.752-3.519,2.639
		c-7.556,5.699-18.522,13.363-24.463,12.456c-3.716-0.573-8.773-6.148-14.144-12.044c-3.093-3.394-6.023-6.622-8.493-8.635
		c-0.823,4.815-4.071,23.536-6.494,34.764c-2.857,13.236-5.963,58.343-5.44,79.115c0.294,11.593,2.563,28.38,4.396,41.872
		c1.564,11.563,2.689,19.923,2.288,22.194C227.926,298.916,204.374,318.175,169.382,318.175 M68.748,118.63
		c1.428,0,2.5,0.496,3.18,1.477c3.417,4.92,4.477,14.382,6.64,40.167c2.009,23.969,3.574,47.808,0.705,76.03
		c-1.093,10.749-3.08,22.13-4.832,32.182c-2.723,15.608-5.072,29.089-2.832,32.901c4.092,6.982,12.05,10.545,25.789,11.507
		c5.257,0.382,9.736,0.5,14.926,0.653c10.022,0.286,22.501,0.635,48.792,2.844c2.758,0.234,5.539,0.357,8.265,0.357
		c35.775,0,57.397-19.392,58.116-23.339c0.371-2.04-0.862-11.175-2.291-21.736c-1.834-13.528-4.119-30.36-4.408-42.026
		c-0.526-20.847,2.602-66.159,5.468-79.468c2.777-12.865,6.643-35.624,6.682-35.85l0.194-1.122l0.918,0.656
		c2.765,1.995,6.082,5.653,9.611,9.528c4.731,5.205,10.098,11.104,13.308,11.597c6.031,0.918,19.214-9.018,23.423-12.186
		c1.169-0.887,2.368-1.775,3.525-2.643c4.407-3.3,9.909-7.406,10.301-8.335c-0.021-0.74-1.923-2.909-7.562-8.472
		c-6.134-6.056-25.948-28.007-34.179-37.17c-4.166-4.623-7.076-9.509-9.204-13.073c-0.671-1.131-1.257-2.114-1.778-2.899
		c-1.567-2.394-6.443-4.329-16.15-8.176c-2.453-0.975-5.223-2.078-8.345-3.341c-11.629-4.719-20.187-7.821-24.301-9.318
		c-1.53-0.555-2.485-0.896-2.816-1.045c-0.606-0.265-1.127-0.95-1.852-1.906c-1.107-1.452-2.474-3.258-4.389-3.775
		c-1.024-0.267-3.721,0.579-7.161,1.715c-5.902,1.955-14.827,4.905-26.069,5.459c-15.123,0.742-24.196-3.713-28.911-6.031
		c-1.039-0.512-1.86-0.912-2.525-1.161c-0.014-0.005-0.058-0.017-0.146-0.017c-1.478,0-5.564,2.899-7.791,4.724
		c-0.205,0.128-10.609,6.018-18.811,9.733c-3.645,1.653-8.659,2.877-13.508,4.06c-6.332,1.546-12.879,3.143-16.67,5.704
		c-5.173,3.506-19.827,21.91-29.521,34.087c-2.892,3.627-5.383,6.758-6.942,8.631c-1.93,2.316-4.471,5.271-7.113,8.338
		c-5.561,6.462-13.173,15.311-13.492,16.623c0.005,1.311,3.042,4.503,7.01,8.532c3.719,3.776,11.41,8.404,16,11.17
		c1.201,0.727,2.203,1.325,2.887,1.763c2.573,1.653,7.653,2.085,9.984,2.085c0.467,0,0.802-0.014,0.966-0.041
		c0.275-0.042,1.868-0.58,6.789-6.708C51.655,127.55,62.672,118.63,68.748,118.63"/>
</g>
</svg>
