<?xml version="1.0" encoding="utf-8"?>
<!-- Generator: Adobe Illustrator 16.0.0, SVG Export Plug-In . SVG Version: 6.00 Build 0)  -->
<!DOCTYPE svg PUBLIC "-//W3C//DTD SVG 1.1//EN" "http://www.w3.org/Graphics/SVG/1.1/DTD/svg11.dtd">
<svg version="1.1" id="Layer_1" xmlns="http://www.w3.org/2000/svg" xmlns:xlink="http://www.w3.org/1999/xlink" x="0px" y="0px"
	 width="300px" height="340px" viewBox="0 0 300 340" style="enable-background:new 0 0 300 340;" xml:space="preserve">
<g>
	<path style="fill:#FFFFFF;" d="M179.879,22.187c-3.934,1.474-13.028,8.042-31.166,7.147c-18.13-0.896-30.108-8.038-33.451-7.147
		c-3.345,0.893-5.104,5.182-6.325,5.718c-1.245,0.533-11.278,3.93-27.118,10.356c-15.841,6.424-22.714,8.564-24.824,11.785
		c-2.115,3.216-5.458,9.818-10.909,15.891c-5.461,6.071-27.646,30.713-34.164,37.138c-6.511,6.427-7.743,8.044-7.743,9.11
		c0,1.065,7.227,6.245,14.088,11.426c6.861,5.171,18.134,13.213,23.941,12.32c5.812-0.889,16.546-16.436,23.237-21.251
		c0,0,3.877,22.856,6.686,35.895c2.817,13.033,5.987,58.205,5.464,79.286c-0.53,21.053-7.572,59.089-6.694,63.911
		c0.885,4.829,26.824,26.961,67.136,23.555c40.312-3.372,48.583-2.412,63.703-3.492c15.118-1.055,22.451-5.244,26.34-11.854
		c3.866-6.585-4.768-37.847-7.572-65.535c-2.822-27.666-1.408-50.688,0.695-75.871c2.109-25.18,3.171-35.002,6.518-39.82
		c3.349-4.822,18.313,6.423,22.184,11.253c3.87,4.816,6.156,6.773,7.22,6.963c1.043,0.174,8.101,0,11.435-2.146
		c3.351-2.147,14.252-8.217,19.018-13.034c4.748-4.819,7.217-7.503,7.217-9.11s-14.082-17.313-20.775-25.357
		c-6.69-8.029-29.744-38.206-36.612-42.846c-6.872-4.644-22.012-6.073-30.27-9.823c-8.261-3.753-18.649-9.641-18.649-9.641
		S181.749,21.48,179.879,22.187"/>
	<path d="M129.718,318.402c-34.996,0-58.554-19.242-59.506-24.485c-0.418-2.276,0.718-10.647,2.281-22.209
		c1.828-13.486,4.105-30.277,4.394-41.866c0.518-20.785-2.581-65.88-5.442-79.113c-2.418-11.234-5.676-29.95-6.493-34.771
		c-2.476,2.017-5.416,5.241-8.498,8.635c-5.37,5.9-10.439,11.482-14.141,12.05c-5.93,0.909-16.91-6.761-24.468-12.457
		c-1.175-0.887-2.362-1.785-3.521-2.649c-8.672-6.471-10.852-8.251-10.852-9.352c0-1.341,1.101-2.849,7.965-9.62
		c6.113-6.038,25.897-27.96,34.123-37.105c4.07-4.534,6.942-9.351,9.034-12.86c0.692-1.155,1.292-2.159,1.813-2.952
		c1.82-2.766,6.524-4.629,16.822-8.716c2.446-0.972,5.21-2.072,8.323-3.333c11.652-4.725,20.227-7.846,24.36-9.34
		c1.48-0.539,2.412-0.873,2.74-1.015c0.271-0.116,0.808-0.833,1.292-1.461c1.165-1.542,2.763-3.647,5.141-4.283
		c1.455-0.391,4.043,0.45,7.958,1.74c5.832,1.927,14.649,4.838,25.705,5.382c14.746,0.73,23.303-3.463,28.235-5.886
		c1.055-0.527,1.907-0.943,2.648-1.215c0.173-0.078,0.39-0.106,0.63-0.106c2.446,0,8.053,4.522,8.589,4.969
		c0.094,0.063,10.453,5.924,18.572,9.62c3.515,1.596,8.463,2.804,13.237,3.975c6.446,1.573,13.119,3.197,17.126,5.906
		c5.366,3.616,20.089,22.122,29.845,34.379c2.882,3.616,5.374,6.736,6.93,8.604c1.917,2.308,4.448,5.251,7.085,8.326
		c10.393,12.065,13.854,16.282,13.854,17.487c0,1.886-2.269,4.373-7.431,9.607c-3.848,3.906-11.633,8.597-16.283,11.393
		c-1.188,0.717-2.169,1.312-2.845,1.75c-2.839,1.823-8.081,2.302-10.732,2.302c-0.387,0-0.915-0.013-1.219-0.058
		c-1.422-0.241-3.979-2.673-7.636-7.217c-3.293-4.117-13.959-12.164-19.035-12.164c-0.959,0-1.613,0.287-2.031,0.873
		c-3.215,4.63-4.236,13.96-6.377,39.465c-1.997,23.874-3.575,47.636-0.714,75.746c1.096,10.7,3.082,22.058,4.829,32.087
		c2.888,16.542,5.144,29.611,2.653,33.89c-4.354,7.421-12.66,11.185-26.9,12.206c-5.259,0.366-9.743,0.5-14.95,0.643
		c-10.023,0.287-22.476,0.632-48.724,2.853C135.3,318.288,132.482,318.402,129.718,318.402 M230.319,118.86
		c6.067,0,17.098,8.928,20.132,12.694c4.921,6.125,6.506,6.657,6.783,6.705c0.169,0.029,0.509,0.042,0.975,0.042
		c2.321,0,7.398-0.438,9.977-2.079c0.675-0.44,1.694-1.051,2.891-1.766c4.601-2.774,12.277-7.395,15.998-11.177
		c3.979-4.021,7.012-7.215,7.018-8.527c-0.318-1.312-7.933-10.163-13.495-16.626c-2.64-3.067-5.183-6.022-7.11-8.34
		c-1.569-1.876-4.063-5.008-6.953-8.628c-9.686-12.18-24.352-30.591-29.516-34.09c-3.809-2.563-10.342-4.163-16.683-5.7
		c-4.852-1.193-9.863-2.41-13.487-4.063c-8.188-3.716-18.583-9.616-18.792-9.741c-2.232-1.82-6.315-4.722-7.793-4.722
		c-0.084,0-0.127,0.013-0.139,0.019c-0.678,0.251-1.504,0.648-2.525,1.163c-4.717,2.311-13.803,6.776-28.926,6.022
		c-11.238-0.552-20.161-3.502-26.064-5.445c-2.995-0.995-5.358-1.769-6.666-1.769c-0.196,0-0.37,0.016-0.504,0.047
		c-1.913,0.519-3.279,2.32-4.387,3.775c-0.723,0.955-1.234,1.639-1.85,1.905c-0.329,0.145-1.279,0.496-2.816,1.046
		c-4.11,1.5-12.671,4.599-24.303,9.324c-3.119,1.252-5.889,2.355-8.343,3.333c-9.712,3.846-14.579,5.785-16.155,8.177
		c-0.517,0.788-1.102,1.765-1.783,2.896c-2.123,3.574-5.036,8.448-9.197,13.078c-8.234,9.16-28.042,31.117-34.183,37.178
		c-5.637,5.561-7.531,7.728-7.557,8.465c0.38,0.928,5.877,5.04,10.294,8.34c1.163,0.865,2.352,1.758,3.53,2.643
		c4.204,3.167,17.397,13.088,23.412,12.188c3.215-0.499,8.582-6.393,13.321-11.598c3.519-3.88,6.851-7.536,9.612-9.53l0.914-0.655
		l0.197,1.115c0.032,0.23,3.9,22.99,6.68,35.862c2.876,13.299,5.998,58.6,5.47,79.454c-0.292,11.663-2.569,28.492-4.405,42.03
		c-1.437,10.559-2.664,19.702-2.298,21.743c0.719,3.927,22.344,23.324,58.128,23.326c2.73,0,5.512-0.109,8.268-0.343
		c26.29-2.229,38.773-2.57,48.785-2.857c5.187-0.135,9.682-0.279,14.922-0.644c13.718-0.968,21.681-4.533,25.781-11.518
		c2.228-3.813-0.127-17.281-2.839-32.897c-1.748-10.056-3.74-21.437-4.843-32.18c-2.87-28.247-1.292-52.082,0.717-76.028
		c2.151-25.788,3.225-35.248,6.637-40.17C227.828,119.354,228.904,118.86,230.319,118.86"/>
	<g style="opacity:0.45;">
		<g>
			<rect x="7.753" y="91.829" style="fill:none;" width="56.906" height="42.001"/>
			<path style="fill:#CCCCCC;" d="M22.573,91.829c-11.904,13.021-3.757,21.787,6.551,26.964
				c10.312,5.17,19.988-13.306,19.988-13.306l-3.394,11.746c6.273-2.992,8.067-15.879,8.067-15.879
				c0.209,5.438-0.25,14.578-0.25,14.578c3.059-1.427,4.415-7.215,4.415-7.215l0.193,6.27c4.39-6.105,1.725-13.633,1.725-13.633
				l4.801,12.669c-0.252-0.03-0.515,0.008-0.766,0.142c-1.952,1.058-4.263,2.799-5.629,4.664c-1.681,2.285-3.336,3.966-5.333,6.008
				c-2.779,2.842-5.857,5.54-8.356,8.681c-2.66,0.581-5.849,0.379-9.13-0.796c-5.632-2.022-27.7-17.063-27.696-20.837
				C7.761,108.113,22.573,91.829,22.573,91.829"/>
		</g>
	</g>
	<g style="opacity:0.45;">
		<g>
			<rect x="155.193" y="108.372" style="fill:none;" width="72.417" height="204.512"/>
			<path style="fill:#CCCCCC;" d="M155.198,304.549c16.799-9.625,49.271-7.88,56.348-13.028c7.06-5.134-9.438-46.33-12.125-59.035
				c-2.699-12.706-3.03-27.815,4.715-50.808c7.784-23.021-0.675-35.027-4.037-40.185c-1.125-1.72-0.802-2.974,0.729-4.617
				c1.703-0.618,3.362-1.302,5.015-1.917c5.378-2.004,10.68-4.055,14.412-8.667c3.229-3.987,4.955-10.544,6.521-15.323
				c0.291-0.871,0.561-1.736,0.813-2.597c-0.815,6.553-2.06,13.876-3.911,18.447c-4.009,9.857-7.239,65.8-7.462,85.4
				c-0.223,19.575,6.747,58.891,8.4,73.411c1.624,14.516,0.155,17.576-9.357,21.974c-9.538,4.405-60.061,5.28-60.061,5.28
				c21.771-1.569,34.139-12.545,34.139-12.545L155.198,304.549z"/>
		</g>
	</g>
	<g style="opacity:0.45;">
		<g>
			<rect x="69.341" y="122.949" style="fill:none;" width="23.211" height="185.323"/>
			<path style="fill:#CCCCCC;" d="M72.527,125.452c2.68,4.477,11.325,17.177,8.604,31.092c-2.721,13.909,17.753,59.211,7.989,83.432
				c-9.767,24.191-11.077,40.016-6.669,38.099c0,0-9.339,6.46-8.099,12.029l11.227,6.618l6.977,11.551
				c0,0-16.547-8.781-19.543-14.851c0,0,6.579-44.288,6.377-66.256c-0.208-21.947-1.66-50.18-2.698-60.705
				c-1.039-10.529-6.666-36.776-7.198-40C68.964,123.251,69.839,120.983,72.527,125.452"/>
		</g>
	</g>
	<g style="opacity:0.45;">
		<g>
			<rect x="29.297" y="30.23" style="fill:none;" width="104.039" height="74.083"/>
			<path style="fill:#CCCCCC;" d="M108.937,30.23c0,0,7.97,9.408,24.406,12.672c0,0-31.7-7.794-49.297,0
				c-17.604,7.797-26.875,11.528-23.77,56.801c0,0-2.665-10.714-4.395-7.119c0,0-0.041-6.507-2.588-8.511c0,0-3.724,5.44-3.98,9
				c0,0-9.846-0.517-13.407,6.63c0,0-4.542,1.557-6.602,4.609c0,0,15.61-20.756,20.039-39.562c0,0,5.481-6.247,6.565-10.473
				c0,0,0.594-2.528,4.743-4.839c4.15-2.313,22.687-9.694,29.965-12.542C97.894,34.037,108.937,30.23,108.937,30.23"/>
		</g>
	</g>
	<g style="opacity:0.45;">
		<g>
			<rect x="174.691" y="24.381" style="fill:none;" width="63.525" height="50.124"/>
			<path style="fill:#CCCCCC;" d="M174.697,39.401c0,0,7.362-3.436,4.695-10.679c0,0,3.28-2.161,2.348-4.344l5.959,5.29
				c0,0,13.159,7.482,21.505,9.733c8.368,2.252,22.521,4.409,28.346,9.875c0,0,1.304,14.726,0.161,25.229
				c0,0-3.121-19.522-19.73-25.95C201.395,42.131,174.697,39.401,174.697,39.401"/>
		</g>
	</g>
	<g style="opacity:0.45;">
		<g>
			<rect x="82.33" y="177.133" style="fill:none;" width="6.581" height="54.874"/>
			<path style="fill:#CCCCCC;" d="M88.523,232.007c0,0-0.374-14.288-3.537-27.977c-3.169-13.706-2.604-26.897-2.604-26.897
				s3.272,18.201,4.367,23.704c1.082,5.509,1.875,13.31,2.104,18.885C89.095,225.3,88.523,232.007,88.523,232.007"/>
		</g>
	</g>
	<g style="opacity:0.45;">
		<g>
			<rect x="228.784" y="92.006" style="fill:none;" width="38.834" height="42.661"/>
			<path style="fill:#CCCCCC;" d="M232.501,119.91c-2.163-0.574-3.74,0.273-3.74,0.273c0.195-0.567,5.579-15.524,6.611-22.521
				c0,0,0.91,12.203,6.64,13.629l0.63-10.756c0,0,6.849,5.222,7.313,12.577l-2.087-21.107c0,0,18.312,6.424,19.726,34.375
				l-15.047,8.286c0,0-6.633-7.342-11.353-10.232C238.604,122.857,235.119,120.608,232.501,119.91"/>
		</g>
	</g>
	<g style="opacity:0.45;">
		<g>
			<rect x="273.992" y="95.517" style="fill:none;" width="16.506" height="25.948"/>
			<path style="fill:#CCCCCC;" d="M280.289,96.677c0,0,0.653,3.751-1.373,5.847l-4.955-7.006c0,0,5.813,13.501,1.632,25.948
				l14.882-12.414L280.289,96.677z"/>
		</g>
	</g>
	<g style="opacity:0.45;">
		<g>
			<rect x="251.666" y="109.275" style="fill:none;" width="43.159" height="29.703"/>
			<path style="fill:#CCCCCC;" d="M290.631,109.275l-9.733,7.777c0,0-7.462,17.749-14.742,19c-7.272,1.243-5.974-4.761-5.974-4.761
				l-8.546,3.375c0,0,2.404,5.339,10.047,4.135c7.646-1.207,22.904-12.404,22.904-12.404l7.859-7.748l2.347-3.97l-1.943-3.04
				L290.631,109.275z"/>
		</g>
	</g>
	<path d="M43.436,125.452c9.39-15.712,4.697-45.471,9.857-55.939c0,0-2.899,5.11-3.98,23.561
		C48.222,111.526,43.436,125.452,43.436,125.452"/>
	<path d="M39.369,82.017l-12.828,22.918C41.09,86.65,48.37,63.206,48.37,63.206L39.369,82.017z"/>
	<path d="M29.125,113.546c0.121-0.248,0.236-0.502,0.355-0.764c9.146-19.378,22.382-42.844,26.401-53.984
		c0,0-7.742,19.282-14.319,31.899"/>
	<path d="M237.405,46.477c0.918,14.804,1.583,47.97-9.685,74.277l2.101-1.145c0,0,1.88-3.855,5.263-20.464
		c3.375-16.603,3.456-51.794,3.456-51.794L237.405,46.477z"/>
	<path d="M56.88,50.395c-0.437,6.974-0.67,18.563,0.589,31.374c1.103,11.195,3.313,23.337,7.956,34.164l-1.855-0.15
		c0,0-1.66-4.267-4.644-18.917c-2.978-14.648-3.045-45.697-3.045-45.697L56.88,50.395z"/>
	<path d="M50.962,129.451c6.558-19.949-0.656-46.198,3.746-56.196c-2.998,12.138,2.676,38.989-2.537,54.938"/>
	<path d="M57.454,122.449c2.528-15.625-2.674-25.891-1.573-36.274c-0.467,12.972,4.208,24.515,2.841,34.898"/>
	<path d="M77.902,156.543c0.748-11.14-4.091-25.074-6.243-25.685c-2.155-0.622,2.546,6.1,2.941,13.731
		c-1.021-5.799-5.406-14.314-3.668-15.092c1.74-0.776,5.857,8.75,6.78,15.348C78.633,151.448,77.902,156.543,77.902,156.543"/>
	<path d="M241.863,60.225c-3.746,5.333,2.575,16.777,4.868,28.033c2.291,11.25,3.698,30.536,3.698,30.536
		s-0.719-19.106-2.822-30.713c-2.106-11.605-5.267-15.885-6.033-20.46C240.828,63.029,241.863,60.225,241.863,60.225"/>
	<path d="M242.68,91.829c0.708,5.538,0.879,17.496-2.821,27.316C242.003,111.337,242.68,91.829,242.68,91.829"/>
	<path d="M250.43,65.76c0,8.21,27.107,28.569,32.218,45.531c0,0-3.048-11.542-14.089-22.765
		C257.518,77.292,250.43,65.76,250.43,65.76"/>
	<path d="M88.725,214.505c1.213,13.221-0.745,22.021-0.745,22.021c3.546-20.968-6.672-54.283-5.92-65.949
		c0,0,1.457,14.643,4.744,28.923C87.432,202.249,88.439,211.354,88.725,214.505"/>
	<path d="M217.686,140.577c-0.697,19.282-11.971,63.561-7.397,80c4.576,16.41,9.854,9.284,5.984,0
		c3.765,10.981-3.846,9.854-5.407-2.616c-0.738-5.931,0.466-21.295,2.561-37.229c2.32-17.675,5.549-36.066,4.26-43.018"/>
	<path d="M205.363,205.219c-6.31,19.991,15.84,67.848,18.665,89.979c-1.759-17.97-21.809-67.009-18.312-91.654"/>
	<path d="M84.21,274.217c-2.493,10.739-8.356,12.387-7.421,1.208c0.941-11.195,9.151-35,8.686-59.749
		c1.172,21.884-8.686,52.365-7.274,61.645C79.609,286.604,84.21,274.217,84.21,274.217"/>
	<path d="M10.049,104.933c9.445,9.21,25.649,22.016,39.292,26.146l-0.971,1.642c0,0-12.679-6.892-22.538-13.892
		c-9.858-7.005-16.569-13.098-16.569-13.098"/>
	<path d="M252.238,134.785c0,0,9.221-3.301,18.729-9.744c9.502-6.448,19.897-15.458,19.897-15.458l-1.093-1.442
		c-8.306,10.834-26.821,20.657-38.137,25.965"/>
	<path d="M228.875,292.336c-9.189,10.718-28.65,10.539-53.767,13.628c-25.098,3.104-74.325,7.208-103.938-18.32
		c25.281,21.247,71.912,22.463,96.798,18.186c24.871-4.294,53.347-3.018,60.733-14.714"/>
	<path d="M108.937,27.905c2.26,1.937,4.698,4.514,7.952,6.327c13.393,7.471,35.402,12.321,57.809,5.169
		c5.281-1.688,8.904-4.356,13.002-9.733c0,0-7.499,13.488-38.802,12.172c-31.306-1.318-39.167-14.641-39.167-14.641L108.937,27.905z
		"/>
	<path d="M197.588,240.892c-0.618,3.792-0.86,8.707,0.294,12.657c3.552,12.264,14.019,23.849,15.734,33.407
		c2.269,12.632-8.346,4.486-8.204-1.104c0,0,1.161,6.117,7.063,6.468c3.353,0.208-0.749-10.421-6.041-20.323
		c-4.083-7.661-9.304-14.452-9.742-18.424C195.654,244.449,197.588,240.892,197.588,240.892"/>
	<path d="M129.718,318.402c-34.996,0-58.554-19.242-59.506-24.485c-0.418-2.276,0.718-10.647,2.281-22.209
		c1.828-13.486,4.105-30.277,4.394-41.866c0.518-20.785-2.581-65.88-5.442-79.113c-2.418-11.234-5.676-29.95-6.493-34.771
		c-2.476,2.017-5.416,5.241-8.498,8.635c-5.37,5.9-10.439,11.482-14.141,12.05c-5.94,0.902-16.911-6.761-24.468-12.457
		c-1.175-0.887-2.362-1.785-3.521-2.649c-8.672-6.471-10.852-8.251-10.852-9.352c0-1.341,1.101-2.849,7.965-9.62
		c6.113-6.038,25.897-27.96,34.123-37.105c4.07-4.534,6.942-9.351,9.034-12.86c0.692-1.155,1.292-2.159,1.813-2.952
		c1.82-2.766,6.524-4.629,16.822-8.716c2.446-0.972,5.21-2.072,8.323-3.333c11.652-4.725,20.227-7.846,24.36-9.34
		c1.48-0.539,2.412-0.873,2.74-1.015c0.271-0.116,0.808-0.833,1.292-1.461c1.165-1.542,2.763-3.647,5.141-4.283
		c1.454-0.391,4.044,0.448,7.958,1.74c5.832,1.927,14.649,4.838,25.705,5.382c14.74,0.728,23.303-3.463,28.235-5.886
		c1.055-0.527,1.907-0.943,2.648-1.215c0.173-0.078,0.39-0.106,0.63-0.106c2.446,0,8.053,4.522,8.589,4.969
		c0.094,0.063,10.453,5.924,18.572,9.62c3.515,1.596,8.463,2.804,13.237,3.975c6.446,1.573,13.119,3.197,17.126,5.906
		c5.366,3.616,20.089,22.122,29.845,34.379c2.882,3.616,5.374,6.736,6.93,8.604c1.917,2.308,4.448,5.251,7.085,8.326
		c10.393,12.065,13.854,16.282,13.854,17.487c0,1.886-2.269,4.373-7.431,9.607c-3.848,3.906-11.633,8.597-16.283,11.393
		c-1.188,0.717-2.169,1.312-2.845,1.75c-2.839,1.823-8.081,2.302-10.732,2.302c-0.387,0-0.915-0.013-1.219-0.058
		c-1.422-0.241-3.979-2.673-7.636-7.217c-3.293-4.117-13.959-12.164-19.035-12.164c-0.959,0-1.613,0.287-2.031,0.873
		c-3.215,4.63-4.236,13.96-6.377,39.465c-1.997,23.874-3.575,47.636-0.714,75.746c1.096,10.7,3.082,22.058,4.829,32.087
		c2.888,16.542,5.144,29.611,2.653,33.89c-4.354,7.421-12.66,11.185-26.9,12.206c-5.259,0.366-9.743,0.5-14.95,0.643
		c-10.023,0.287-22.476,0.632-48.724,2.853C135.3,318.288,132.482,318.402,129.718,318.402 M230.319,118.86
		c6.067,0,17.098,8.928,20.132,12.694c4.921,6.125,6.506,6.657,6.783,6.705c0.169,0.029,0.509,0.042,0.975,0.042
		c2.321,0,7.398-0.438,9.977-2.079c0.675-0.44,1.694-1.051,2.891-1.766c4.601-2.774,12.277-7.395,15.998-11.177
		c3.979-4.021,7.012-7.215,7.018-8.527c-0.318-1.312-7.933-10.163-13.495-16.626c-2.64-3.067-5.183-6.022-7.11-8.34
		c-1.569-1.876-4.063-5.008-6.953-8.628c-9.686-12.18-24.352-30.591-29.516-34.09c-3.809-2.563-10.342-4.163-16.683-5.7
		c-4.852-1.193-9.863-2.41-13.487-4.063c-8.188-3.716-18.583-9.616-18.792-9.741c-2.232-1.82-6.315-4.722-7.793-4.722
		c-0.084,0-0.127,0.013-0.139,0.019c-0.678,0.251-1.504,0.648-2.525,1.163c-4.717,2.311-13.805,6.769-28.926,6.022
		c-11.238-0.552-20.161-3.502-26.064-5.445c-3.445-1.142-6.141-1.99-7.17-1.722c-1.913,0.519-3.279,2.32-4.387,3.775
		c-0.723,0.955-1.234,1.639-1.85,1.905c-0.329,0.145-1.279,0.496-2.816,1.046c-4.11,1.5-12.671,4.599-24.303,9.324
		c-3.119,1.252-5.889,2.355-8.343,3.333c-9.712,3.846-14.579,5.785-16.155,8.177c-0.517,0.788-1.102,1.765-1.783,2.896
		c-2.123,3.574-5.036,8.448-9.197,13.078c-8.234,9.16-28.042,31.117-34.183,37.178c-5.637,5.561-7.531,7.728-7.557,8.465
		c0.38,0.928,5.877,5.04,10.294,8.34c1.163,0.865,2.352,1.758,3.53,2.643c4.206,3.167,17.395,13.101,23.412,12.188
		c3.215-0.499,8.582-6.393,13.321-11.598c3.519-3.88,6.851-7.536,9.612-9.53l0.914-0.655l0.197,1.115
		c0.032,0.23,3.9,22.99,6.68,35.862c2.876,13.299,5.998,58.6,5.47,79.454c-0.292,11.663-2.569,28.492-4.405,42.03
		c-1.437,10.559-2.664,19.702-2.298,21.743c0.719,3.927,22.344,23.324,58.128,23.326c2.73,0,5.512-0.109,8.268-0.343
		c26.29-2.229,38.773-2.57,48.785-2.857c5.187-0.135,9.682-0.279,14.922-0.644c13.718-0.968,21.681-4.533,25.781-11.518
		c2.228-3.813-0.127-17.281-2.839-32.897c-1.748-10.056-3.74-21.437-4.843-32.18c-2.87-28.247-1.292-52.082,0.717-76.028
		c2.151-25.788,3.225-35.248,6.637-40.17C227.828,119.354,228.904,118.86,230.319,118.86"/>
</g>
</svg>
